<?xml version="1.0" encoding="UTF-8"?>
<svg id="_레이어_1" data-name="레이어 1" xmlns="http://www.w3.org/2000/svg" xmlns:xlink="http://www.w3.org/1999/xlink" viewBox="0 0 162 49">
  <defs>
    <style>
      .cls-1 {
        fill: none;
      }

      .cls-2 {
        clip-path: url(#clippath);
      }

      .cls-3 {
        fill: #222;
      }
    </style>
    <clipPath id="clippath">
      <rect class="cls-1" y=".49" width="162" height="48.51"/>
    </clipPath>
  </defs>
  <g id="_그룹_12" data-name="그룹 12">
    <path id="_패스_20" data-name="패스 20" class="cls-3" d="M93.42,0V49h8.55V26.05h6.81v-8.04h-6.81V0h-8.54Z"/>
    <path id="_패스_21" data-name="패스 21" class="cls-3" d="M78.23,30.7V9.58h-21.44V2.02h29.99V30.7h-8.55Z"/>
    <g id="_그룹_10" data-name="그룹 10">
      <g class="cls-2">
        <g id="_그룹_9" data-name="그룹 9">
          <path id="_패스_22" data-name="패스 22" class="cls-3" d="M84.9,37.78h-12.04V20.72h-8.67v17.06h-10.03v7.43h30.73c3.33,.01,6.48-1.53,8.53-4.16v-7.43c-2.04,2.63-5.19,4.17-8.52,4.16h0Z"/>
          <rect id="_사각형_10" data-name="사각형 10" class="cls-3" x="152.98" y="0" width="8.55" height="48.99"/>
          <path id="_패스_23" data-name="패스 23" class="cls-3" d="M148.77,15.97v-.03c0-.25,0-.5-.02-.75,0-.12-.01-.23-.02-.35s-.02-.26-.03-.39c-.01-.15-.03-.31-.05-.46,0-.07-.02-.15-.03-.22-.74-5.73-4.76-10.51-10.29-12.21h-.03c-.24-.09-.49-.17-.74-.24-.2-.06-.41-.12-.62-.17-.05-.01-.1-.02-.15-.04-.15-.05-.31-.08-.47-.12h-.03c-1.52-.33-3.07-.5-4.62-.49-1.35,0-2.7,.12-4.02,.37h-.02c-.23,.05-.46,.1-.68,.15h-.03c-6.1,1.4-10.58,5.51-11.91,11.28-.01,.06-.03,.12-.04,.19-.03,.15-.06,.31-.09,.46-.02,.1-.04,.2-.05,.3-.02,.14-.04,.28-.06,.42s-.03,.25-.05,.37-.03,.25-.04,.38c-.01,.15-.03,.3-.04,.46,0,.1-.01,.21-.02,.31-.01,.25-.02,.5-.02,.76v.07c0,.26,0,.51,.02,.76,0,.1,.01,.21,.02,.31,.01,.15,.02,.31,.04,.46,.01,.13,.03,.25,.04,.38s.03,.25,.05,.37c.02,.14,.04,.28,.06,.42,.02,.1,.03,.2,.05,.3,.03,.16,.06,.31,.09,.46,.01,.06,.03,.13,.04,.19,1.33,5.77,5.81,9.88,11.91,11.27h.03c.22,.06,.45,.11,.68,.15h.03c1.33,.25,2.67,.37,4.02,.37,1.55,0,3.1-.16,4.62-.49h.03c.16-.04,.32-.08,.47-.12,.05-.01,.1-.02,.15-.04,.21-.05,.41-.11,.62-.17,.25-.07,.49-.15,.73-.23h.04c5.52-1.71,9.54-6.49,10.28-12.22,.01-.07,.02-.15,.03-.22,.02-.15,.03-.31,.05-.46,.01-.13,.02-.26,.03-.39s.02-.23,.02-.35c.01-.25,.02-.49,.02-.75v-.03h0Zm-17.09,8.05c-5.08,0-8.55-3.53-8.55-8.04s3.47-8.04,8.55-8.04,8.55,3.47,8.55,8.04-3.47,8.04-8.55,8.04"/>
          <path id="_패스_24" data-name="패스 24" class="cls-3" d="M127.65,25.03v12.74h-15.17v7.43h32.83c1.98,0,3.93-.54,5.62-1.57,.3-.18,.58-.37,.86-.58,.77-.58,1.46-1.25,2.05-2.01v-7.43c-2.04,2.63-5.19,4.17-8.52,4.16h-9v-12.74h-8.67Z"/>
          <path id="_패스_25" data-name="패스 25" class="cls-3" d="M31.47,8.21c0,12.86-14.11,18.18-31.47,18.18v-7.34c12-.12,22.28-3.5,22.28-8.71v-1.46H0V1.56H31.47v6.65Z"/>
          <path id="_패스_26" data-name="패스 26" class="cls-3" d="M2.64,49H46.72V28.86H2.64v20.14Zm35.81-7.07H10.91v-6h27.55v6Z"/>
          <rect id="_사각형_11" data-name="사각형 11" class="cls-3" x="38.17" y="0" width="8.55" height="26.47"/>
        </g>
      </g>
    </g>
  </g>
</svg>