<?xml version="1.0" encoding="UTF-8"?>
<svg id="_레이어_2" data-name="레이어 2" xmlns="http://www.w3.org/2000/svg" viewBox="0 0 662.14 1095.18">
  <defs>
    <style>
      .cls-1 {
        fill: #293d39;
      }
    </style>
  </defs>
  <g id="_레이어_1-2" data-name="레이어 1">
    <path id="_패스_1295" data-name="패스 1295" class="cls-1" d="m662.14,98.83s-12.81,146.01-265.64,257.27c-63.2,81.17,0,739.07,0,739.07H138.27s131.4-681.36,95.52-738.63-33.41-158.23-181.35-180.38,64.11-48.2,64.11-48.2c0,0,59.18,49.57,100.82,104.1,41.64,54.53,90.96,107.45,90.96,107.45,38.7-20.54,76.19-43.28,112.28-68.11,56.48-39.23,87.16-31.85,98.12-67.82s-25.2-152.43-25.2-152.43L561.67,0l20.81,27.68-20.81,135.33s18.22,12,42.53-36.89,38.35-106.18,38.35-106.18l19.58,78.89Z"/>
  </g>
</svg>