<?xml version="1.0" encoding="UTF-8"?>
<svg id="_레이어_2" data-name="레이어 2" xmlns="http://www.w3.org/2000/svg" viewBox="0 0 1079.45 445.92">
  <defs>
    <style>
      .cls-1 {
        fill: #659549;
      }
    </style>
  </defs>
  <g id="_레이어_1-2" data-name="레이어 1">
    <path id="_패스_1297" data-name="패스 1297" class="cls-1" d="m414.88,116.94c22.93,24.12,39.7,52.79,70.05,71.09,49.18,29.66,117.65,23.58,178.63,31.7,35.63,4.74,69.76,14.7,103.66,24.6l93.87,27.43c41.07,12,82.65,24.21,118.49,44.09,54.13,30.03,92.75,78.1,99.88,130.09-312.47-41.26-628.33-50.61-942.69-27.9-40.97,2.96-88.49,4.61-116.25-19.4-26.85-23.23-21.91-59.16-15.29-90.2L45.11,121.39C53.2,83.45,47.37,12.98,106.46,1.86c48.59-9.14,121.67,17.69,165.12,32.25,54.66,18.31,107.75,44.38,143.29,82.84"/>
  </g>
</svg>