<svg xmlns="http://www.w3.org/2000/svg" width="341.438" height="713.399" viewBox="0 0 341.438 713.399">
  <path id="패스_1488" data-name="패스 1488" d="M797.093,64.377s6.6,95.112,136.979,167.589c32.593,52.871,0,481.433,0,481.433h133.161s-67.757-443.839-49.258-481.144,17.228-103.07,93.514-117.5-33.058-31.4-33.058-31.4-30.515,32.291-51.987,67.813-46.9,70-46.9,70a581.1,581.1,0,0,1-57.9-44.366c-29.122-25.555-44.945-20.748-50.594-44.18s13-99.294,13-99.294L848.9,0l-10.73,18.029,10.73,88.156S839.5,114,826.969,82.154s-19.778-69.167-19.778-69.167Z" transform="translate(-797.093)" fill="#293d39"/>
</svg>
