<?xml version="1.0" encoding="UTF-8"?>
<svg id="_레이어_2" data-name="레이어 2" xmlns="http://www.w3.org/2000/svg" viewBox="0 0 1014.32 445.92">
  <defs>
    <style>
      .cls-1 {
        fill: #659549;
      }
    </style>
  </defs>
  <g id="_레이어_1-2" data-name="레이어 1">
    <path id="_패스_1296" data-name="패스 1296" class="cls-1" d="m624.47,116.94c-21.55,24.12-37.31,52.79-65.82,71.09-46.21,29.66-110.55,23.58-167.85,31.7-33.48,4.74-65.56,14.7-97.4,24.6l-88.21,27.42c-38.59,12-77.67,24.21-111.34,44.09C42.98,345.87,6.69,393.93,0,445.92c293.4-41.25,590.4-50.61,885.81-27.9,38.5,2.96,83.15,4.61,109.23-19.4,25.23-23.23,20.59-59.16,14.37-90.2l-37.48-187.03c-7.6-37.95-2.13-108.42-57.65-119.54-45.66-9.14-114.33,17.69-155.16,32.24-51.36,18.31-101.25,44.38-134.65,82.84"/>
  </g>
</svg>