<?xml version="1.0" encoding="UTF-8"?>
<svg id="_레이어_1" data-name="레이어 1" xmlns="http://www.w3.org/2000/svg" viewBox="0 0 249 58">
  <defs>
    <style>
      .cls-1 {
        fill: #b5b5b5;
      }
    </style>
  </defs>
  <g id="_그룹_161" data-name="그룹 161">
    <path id="_사각형_219" data-name="사각형 219" class="cls-1" d="M13,0H235c6.08,0,11,4.92,11,11h0c0,6.08-4.92,11-11,11H13c-6.08,0-11-4.92-11-11h0C2,4.92,6.92,0,13,0Z"/>
    <path id="_사각형_220" data-name="사각형 220" class="cls-1" d="M6,7h0c2.21,0,4,1.79,4,4V31c0,2.21-1.79,4-4,4h0c-2.21,0-4-1.79-4-4V11c0-2.21,1.79-4,4-4Z"/>
    <path id="_사각형_221" data-name="사각형 221" class="cls-1" d="M242,7h0c2.21,0,4,1.79,4,4V31c0,2.21-1.79,4-4,4h0c-2.21,0-4-1.79-4-4V11c0-2.21,1.79-4,4-4Z"/>
  </g>
  <g id="_그룹_158" data-name="그룹 158">
    <path id="_사각형_224" data-name="사각형 224" d="M249,45v6c0,3.87-3.13,7-7,7h-22v-13h29Z"/>
    <path id="_사각형_223" data-name="사각형 223" d="M236,29h13v22c0,3.87-3.13,7-7,7h-6V29h0Z"/>
  </g>
  <g id="_그룹_160" data-name="그룹 160">
    <path id="_사각형_224-2" data-name="사각형 224-2" d="M29,45v13H7c-3.87,0-7-3.13-7-7v-6H29Z"/>
    <path id="_사각형_223-2" data-name="사각형 223-2" d="M0,29H13v29H7c-3.87,0-7-3.13-7-7V29H0Z"/>
  </g>
  <rect id="_사각형_226" data-name="사각형 226" class="cls-1" x="29" y="50" width="191" height="4"/>
</svg>