<?xml version="1.0" encoding="UTF-8"?>
<svg id="_레이어_1" data-name="레이어 1" xmlns="http://www.w3.org/2000/svg" xmlns:xlink="http://www.w3.org/1999/xlink" viewBox="0 0 76 16">
  <defs>
    <style>
      .cls-1 {
        fill: none;
      }

      .cls-2 {
        clip-path: url(#clippath);
      }

      .cls-3 {
        fill: #222;
      }

      .cls-4 {
        fill: #4cc7cf;
        fill-rule: evenodd;
      }
    </style>
    <clipPath id="clippath">
      <rect class="cls-1" width="76" height="16"/>
    </clipPath>
  </defs>
  <g id="_그룹_151" data-name="그룹 151">
    <g class="cls-2">
      <g id="_그룹_3" data-name="그룹 3">
        <path id="_패스_9" data-name="패스 9" class="cls-4" d="M0,2.26C.05,1,1.1,.02,2.36,.07c1.26-.05,2.31,.93,2.36,2.19v6.3L13.15,.74c.95-.86,2.39-.86,3.34,0,.85,.77,.93,2.08,.16,2.94-.05,.06-.1,.11-.16,.16l-4.54,4.21,4.52,4.19c.86,.76,.93,2.08,.17,2.93-.05,.06-.11,.11-.17,.17-.95,.85-2.39,.85-3.34,0l-4.52-4.19-4.51,4.19c-.2,.19-.43,.33-.68,.44-.33,.15-.69,.23-1.05,.23-1.26,.05-2.31-.93-2.36-2.19V2.26Z"/>
        <path id="_패스_10" data-name="패스 10" class="cls-3" d="M52.68,16V.07h2.94V5.92h2.35v2.61h-2.35v7.46h-2.94Z"/>
        <path id="_패스_11" data-name="패스 11" class="cls-3" d="M47.44,9.88V3.13h-7.39V.71h10.33V9.88h-2.94Z"/>
        <path id="_패스_12" data-name="패스 12" class="cls-3" d="M49.74,12.35h-4.15V6.8h-2.99v5.55h-3.46v2.42h10.59c.8,0,1.58-.24,2.24-.7,.26-.19,.5-.41,.7-.65v-2.42c-.73,.87-1.81,1.36-2.94,1.35h0Z"/>
        <rect id="_사각형_4" data-name="사각형 4" class="cls-3" x="73.21" y=".07" width="2.94" height="15.93"/>
        <path id="_패스_13" data-name="패스 13" class="cls-3" d="M71.75,5.26h0c0-.09,0-.17,0-.25,0-.04,0-.08,0-.11s0-.09-.01-.13-.01-.1-.02-.15c0-.02,0-.05,0-.07-.29-1.91-1.68-3.46-3.54-3.97h-.01c-.08-.03-.17-.05-.25-.08-.07-.02-.14-.04-.21-.06h-.05s-.16-.04-.16-.04h0c-.52-.11-1.06-.16-1.59-.16-.46,0-.93,.04-1.38,.12h0c-.08,.01-.16,.03-.24,.05h-.01c-1.97,.31-3.57,1.74-4.11,3.66,0,.02-.01,.04-.01,.06-.01,.05-.02,.1-.03,.15,0,.03-.01,.06-.02,.1s-.01,.09-.02,.14-.01,.08-.02,.12-.01,.08-.01,.12,0,.1-.01,.15c0,.03,0,.07,0,.1,0,.08,0,.16,0,.25v.02c0,.08,0,.16,0,.25,0,.03,0,.07,0,.1,0,.05,0,.1,.01,.15s0,.08,.01,.12,.01,.08,.02,.12,.01,.09,.02,.14,.01,.07,.02,.1c.01,.05,.02,.1,.03,.15,0,.02,.01,.04,.01,.06,.53,1.92,2.14,3.35,4.11,3.67h.01c.08,.02,.15,.03,.24,.05h0c.46,.08,.92,.12,1.39,.12,.53,0,1.07-.05,1.59-.16h0l.16-.04h.05c.07-.03,.14-.05,.21-.07,.09-.02,.17-.05,.25-.08h.01c1.86-.51,3.25-2.06,3.54-3.97,0-.02,0-.05,0-.07,0-.05,.01-.1,.02-.15s0-.08,.01-.13,0-.08,0-.11c0-.08,0-.16,0-.24h0s0,0,0,0Zm-5.89,2.62c-1.49,.13-2.8-.97-2.94-2.46,0-.05,0-.11,0-.16,.19-1.63,1.67-2.79,3.29-2.6,1.36,.16,2.44,1.24,2.6,2.6-.04,1.49-1.28,2.67-2.77,2.63-.06,0-.11,0-.17-.01"/>
        <path id="_패스_14" data-name="패스 14" class="cls-3" d="M64.48,8.21v4.15h-5.23v2.41h11.32c.68,0,1.35-.17,1.94-.51,.1-.06,.2-.12,.3-.19,.26-.19,.5-.41,.71-.65v-2.42c-.73,.87-1.8,1.36-2.94,1.35h-3.1v-4.14h-2.99Z"/>
        <path id="_패스_15" data-name="패스 15" class="cls-3" d="M31.33,2.74c0,4.18-4.86,5.91-10.85,5.91v-2.39c4.14-.04,7.68-1.14,7.68-2.84v-.47h-7.68V.57h10.85V2.74Z"/>
        <path id="_패스_16" data-name="패스 16" class="cls-3" d="M21.4,16h15.19v-6.55h-15.19v6.55Zm12.34-2.3h-9.5v-1.95h9.49v1.95Z"/>
        <rect id="_사각형_5" data-name="사각형 5" class="cls-3" x="33.64" y=".07" width="2.94" height="8.61"/>
      </g>
    </g>
  </g>
</svg>