<?xml version="1.0" encoding="UTF-8"?>
<svg id="_레이어_1" data-name="레이어 1" xmlns="http://www.w3.org/2000/svg" xmlns:xlink="http://www.w3.org/1999/xlink" viewBox="0 0 373.94 95">
  <defs>
    <style>
      .cls-1 {
        fill: #fff;
      }

      .cls-2 {
        fill: #234a54;
      }

      .cls-3 {
        fill: #ef687a;
      }

      .cls-4 {
        clip-path: url(#clippath);
      }

      .cls-5 {
        fill: none;
      }

      .cls-6 {
        fill: #fcc936;
      }
    </style>
    <clipPath id="clippath">
      <rect class="cls-5" width="373.94" height="95"/>
    </clipPath>
  </defs>
  <g id="_그룹_243" data-name="그룹 243">
    <path id="_패스_316" data-name="패스 316" class="cls-2" d="m0,0v95h341.16l32.78-47.5h0L341.16,0H0Z"/>
    <g id="_그룹_90" data-name="그룹 90">
      <g class="cls-4">
        <g id="_그룹_89" data-name="그룹 89">
          <path id="_패스_317" data-name="패스 317" class="cls-1" d="m148.12,38.8c.08.24.12.49.12.74v.48c0,.44.1.52.54.52h10.88c1.22,0,1.68.72,1.68,1.48.02.81-.61,1.49-1.43,1.51-.09,0-.17,0-.25-.01h-12.62c-2.24,0-2.84-.78-2.84-2.92v-1.06c-.07-1.02.7-1.9,1.72-1.97.11,0,.21,0,.32,0,.3,0,.6.05.88.16v-2.06h-2.72c-1.18,0-1.66-.68-1.66-1.48-.04-.8.58-1.49,1.38-1.53.09,0,.19,0,.28.01h10.12c.8-.11,1.54.44,1.65,1.24.01.09.02.19.01.28,0,.8-.48,1.48-1.66,1.48h-3.52v3.12h-2.88Zm-1.16-7.02c-2.58,0-3.72-1.38-3.72-3.3s1.14-3.32,3.72-3.32h4.64c2.56,0,3.7,1.4,3.7,3.32s-1.14,3.3-3.7,3.3h-4.64Zm.86-3.92c-.62,0-.82.2-.82.62s.2.64.82.64h2.9c.62,0,.82-.24.82-.64,0-.42-.2-.62-.82-.62h-2.9Zm9.02,11.22h-3.04c-1.14,0-1.6-.6-1.6-1.36s.44-1.38,1.6-1.38h3.04v-9.66c-.04-1.03.76-1.9,1.79-1.94.06,0,.13,0,.19,0,1.05-.06,1.94.75,2,1.8,0,.05,0,.1,0,.14v13h-3.98v-.6Z"/>
          <path id="_패스_318" data-name="패스 318" class="cls-1" d="m170.76,26.7v.18h2.8c.86.03,1.53.75,1.5,1.62-.03.82-.69,1.47-1.5,1.5h-.04c.24.56.36,1.17.36,1.78v6.22c0,3.52-2.24,5.14-5.18,5.14s-5.16-1.62-5.16-5.14v-6.22c0-.61.11-1.21.34-1.78-.81.02-1.48-.61-1.5-1.42,0-.05,0-.09,0-.14-.07-.79.52-1.49,1.31-1.56.06,0,.12,0,.17,0h2.78v-.18c.03-1.14.97-2.04,2.11-2.02,1.1.02,1.99.91,2.02,2.02m-.6,11.34v-6.42c0-1.3-.66-1.78-1.46-1.78s-1.44.48-1.44,1.78v6.42c0,1.28.68,1.86,1.44,1.86s1.46-.58,1.46-1.86m6.12-11.36c-.04-1.03.76-1.9,1.79-1.94.06,0,.13,0,.19,0,1.04-.05,1.93.75,1.98,1.79,0,.05,0,.1,0,.15v5.06h.66c.85-.03,1.56.64,1.59,1.49,0,.08,0,.17-.01.25.11.85-.49,1.62-1.34,1.73-.08.01-.16.01-.24.01h-.66v8.3h-3.96v-16.84Z"/>
          <path id="_패스_319" data-name="패스 319" class="cls-1" d="m199.68,33.14c.91,0,1.65.74,1.65,1.65s-.74,1.65-1.65,1.65h-15.37c-.91,0-1.65-.74-1.65-1.65s.74-1.65,1.65-1.65h15.37Zm-13.36-1.2c-2.26,0-2.86-.74-2.86-2.9v-2.18c-.06-1.02.72-1.89,1.74-1.95.11,0,.21,0,.32,0,1-.11,1.9.61,2.01,1.62.01.11.01.22,0,.32v1.48c0,.44.1.5.54.5h10.86c.86-.07,1.61.57,1.67,1.43.07.86-.57,1.61-1.43,1.67-.08,0-.17,0-.25,0h-12.62Zm-2.68,8.68v-1.42c-.05-1.03.74-1.9,1.77-1.95.1,0,.21,0,.31.01,1-.11,1.9.61,2.01,1.62.01.11.01.21,0,.32v.72c0,.44.1.5.54.5h10.78c.86-.07,1.61.57,1.67,1.43s-.57,1.61-1.43,1.67c-.08,0-.17,0-.25,0h-12.56c-2.26,0-2.86-.74-2.86-2.9"/>
          <path id="_패스_320" data-name="패스 320" class="cls-6" d="m212.26,28.84v-1.56c-.02-1.05.81-1.92,1.85-1.94.06,0,.11,0,.17,0,1.06-.04,1.96.79,2,1.85,0,.03,0,.06,0,.09v1.54c0,1.11-.06,2.22-.18,3.32,3.44,1.3,5.18,4.18,4.78,10.24h-3.9c.42-3.28-.16-5.44-1.6-6.56-.64,2.63-2.29,4.9-4.6,6.32-.86.59-2.02.49-2.76-.24-.59-.67-.52-1.69.15-2.28.05-.04.1-.08.15-.12,2.96-2.04,3.94-5.08,3.94-10.66m10.16,14.68v-16.8c0-1.1.9-2,2-2s2,.9,2,2v16.8h-4Z"/>
          <path id="_패스_321" data-name="패스 321" class="cls-6" d="m235.74,29.24v-.22c0-.32-.16-.44-.46-.44h-4.56c-.88,0-1.6-.72-1.6-1.6s.72-1.6,1.6-1.6h6.1c2.18,0,2.92.9,2.92,2.7v1.06c0,4.82-4.4,7.22-9.42,6.84-.92-.04-1.63-.82-1.59-1.73,0-.03,0-.06,0-.09.04-.83.75-1.47,1.58-1.43.05,0,.09,0,.14.01,2.98.06,5.28-1.14,5.28-3.5m-3.1,14.28c-2.24,0-2.84-.78-2.84-2.92v-1.84c-.06-1.03.73-1.92,1.76-1.99.1,0,.2,0,.3,0,1.01-.09,1.91.66,2,1.67,0,.1,0,.21,0,.31v1.16c0,.44.1.5.54.5h10.48c.81-.11,1.56.45,1.67,1.26.01.09.02.19.01.28.04.83-.6,1.53-1.43,1.57-.09,0-.17,0-.25,0h-12.24Zm9.32-16.8c-.07-1.03.71-1.91,1.74-1.98.07,0,.15,0,.22,0,1.04-.04,1.92.76,1.96,1.8,0,.06,0,.12,0,.18v3.02h.62c.85-.03,1.57.64,1.59,1.49,0,.08,0,.16-.01.25.11.85-.49,1.62-1.34,1.73-.08.01-.16.01-.24.01h-.62v5.66h-3.92v-12.16Z"/>
          <path id="_패스_322" data-name="패스 322" class="cls-1" d="m250.82,39.6v-6.16c-.08-.92.61-1.73,1.53-1.81.12-.01.24,0,.37,0,.93-.11,1.78.55,1.89,1.48.01.1.02.21,0,.32v6.16h4.86c.83-.1,1.58.5,1.67,1.33.01.09.01.18,0,.27.06.84-.58,1.57-1.42,1.63-.09,0-.17,0-.26,0h-9.52c-.85.09-1.61-.53-1.69-1.38,0-.08-.01-.16,0-.25-.05-.84.6-1.56,1.44-1.61.09,0,.17,0,.26,0h.86Zm5.76-9.14v-1.22c0-.34-.16-.48-.48-.48h-5.8c-.94,0-1.7-.76-1.7-1.7,0-.94.76-1.7,1.7-1.7h7.14c2.26,0,2.96.86,2.96,2.76v2.36c.11,2.16-.15,4.32-.78,6.38-.47,1.05-1.67,1.55-2.74,1.14-.83-.32-1.25-1.26-.93-2.09.01-.04.03-.07.05-.11.47-1.74.66-3.54.58-5.34m5.3-3.78c-.04-1.03.76-1.9,1.78-1.94.07,0,.13,0,.2,0,1.04-.05,1.93.75,1.98,1.79,0,.05,0,.1,0,.15v5.06h.66c.85-.03,1.56.64,1.59,1.49,0,.08,0,.17-.01.25.11.85-.49,1.62-1.34,1.73-.08.01-.16.01-.24.01h-.66v8.3h-3.96v-16.84Z"/>
          <path id="_패스_323" data-name="패스 323" class="cls-3" d="m277.28,33.96c-1.92,0-2.84-.7-2.84-2.64v-4.24c.02-1.09.93-1.95,2.01-1.93,1.05.02,1.9.87,1.93,1.93v3.3c0,.44.1.52.54.52h5.78c.85-.05,1.57.59,1.63,1.43.05.84-.59,1.57-1.43,1.63-.06,0-.13,0-.19,0h-7.42Zm.64,9.56c-1.48.09-2.76-1.03-2.86-2.51,0-.08,0-.15,0-.23v-.24c0-1.46,1.02-2.38,2.86-2.38h9.64v-.54c0-.24-.06-.32-.32-.32h-10.84c-.59.03-1.09-.43-1.12-1.02,0-.05,0-.11,0-.16-.05-.6.4-1.13,1-1.18.04,0,.08,0,.12,0h12.76c1.78,0,2.46.52,2.46,2.12v3.24h-11.9c-.21-.03-.41.12-.44.33,0,.02,0,.03,0,.05v.06c0,.21.17.39.39.38.02,0,.04,0,.05,0h11.26c.62-.02,1.14.46,1.16,1.08,0,.05,0,.09,0,.14.05.6-.4,1.13-1,1.18-.05,0-.11,0-.16,0h-13.06Zm9.6-16.8c-.06-1.03.73-1.92,1.77-1.98.07,0,.14,0,.21,0,1.05-.05,1.94.77,1.98,1.82,0,.05,0,.11,0,.16v1.22h.62c.83-.04,1.55.6,1.59,1.43,0,.09,0,.18,0,.27.1.83-.49,1.59-1.32,1.69-.09.01-.18.01-.26,0h-.62v3.02h-3.96v-7.64Z"/>
          <path id="_패스_324" data-name="패스 324" class="cls-3" d="m299.08,40.14c0-.74-.24-1.47-.68-2.06-.3,1.29-.93,2.48-1.84,3.44-.71.83-1.92,1.01-2.84.42-.62-.62-.64-1.62-.04-2.26,1.54-1.82,2.08-3.36,2.08-10.24v-.6h-.62c-.92.02-1.69-.71-1.71-1.63s.71-1.69,1.63-1.71c.03,0,.05,0,.08,0h10.34c.85-.06,1.59.59,1.64,1.44,0,.08,0,.16,0,.24.07.84-.55,1.58-1.39,1.66-.08,0-.16,0-.25,0h-.8v.98c0,1.37-.07,2.74-.22,4.1,1.76,1.36,2.94,3.8,2.8,8.46h-3.28c.18-1.32.06-2.66-.34-3.92-.31,1.53-1.1,2.92-2.26,3.96-.7.57-1.69.61-2.44.1-.61-.58-.64-1.54-.07-2.16.03-.03.06-.06.09-.09l.12-.14Zm1.82-3.86c.26-2.14.37-4.29.32-6.44v-1h-2v.58c0,1.86-.06,3.44-.18,4.8.79.51,1.43,1.22,1.86,2.06m6.94-9.6c-.05-1.02.73-1.89,1.75-1.94.07,0,.14,0,.21,0,1.03-.05,1.91.75,1.96,1.78,0,.05,0,.11,0,.16v5.06h.38c.96.03,1.71.84,1.68,1.8-.03.92-.77,1.65-1.68,1.68h-.38v8.3h-3.92v-16.84Z"/>
          <path id="_패스_325" data-name="패스 325" class="cls-1" d="m324.42,35.42h-1.4v2.74c0,3.2-1.5,4.86-4.34,4.86s-4.42-1.66-4.42-4.86v-8.1c0-3.2,1.58-4.86,4.42-4.86s4.34,1.66,4.34,4.86v2.14h1.4v-5.76c-.05-.89.64-1.66,1.53-1.7.06,0,.12,0,.19,0,.91-.04,1.68.66,1.72,1.56,0,.05,0,.09,0,.14v17.08h-3.44v-8.1Zm-4.9,3.42v-9.46c0-.88-.44-1.12-.84-1.12s-.84.24-.84,1.12v9.46c0,.9.44,1.12.84,1.12s.84-.22.84-1.12m9.28-12.4c-.03-.91.69-1.67,1.6-1.7.05,0,.11,0,.16,0,.93-.05,1.73.67,1.78,1.6,0,.03,0,.07,0,.1v17.08h-3.55v-17.08Z"/>
          <path id="_패스_326" data-name="패스 326" class="cls-1" d="m146.72,51.92v-.12c-.01-1.02.8-1.86,1.82-1.87.08,0,.16,0,.24.01,1-.06,1.86.7,1.92,1.69,0,.06,0,.11,0,.17v.12c0,.6-.04,1.19-.14,1.78,2.8.36,4.64,2.22,4.5,6.1h-3.86c.12-1.72-.44-2.78-1.64-3.04-.96,1.86-2.77,3.13-4.84,3.4-.87.16-1.73-.34-2.02-1.18-.3-.8.1-1.7.91-2.01.01,0,.02,0,.03-.01,2.06-.58,3.08-2.16,3.08-5.04m1.28,8.82h8.46c2.74,0,4.14,1.72,4.14,3.92s-1.4,3.92-4.14,3.92h-8.46c-2.78,0-4.14-1.76-4.14-3.92s1.36-3.92,4.14-3.92m1.06,5.04h6.34c.62.02,1.14-.47,1.15-1.09s-.47-1.14-1.09-1.15c-.02,0-.04,0-.07,0h-6.34c-.62-.02-1.14.47-1.15,1.09s.47,1.14,1.09,1.15c.02,0,.04,0,.07,0m7.26-14.06c-.06-1.03.73-1.92,1.77-1.98.07,0,.14,0,.21,0,1.05-.05,1.93.77,1.98,1.82,0,.05,0,.11,0,.16v1.64h.62c.95.08,1.66.91,1.58,1.86-.07.84-.74,1.51-1.58,1.58h-.62v3.46h-3.96v-8.54Z"/>
          <path id="_패스_327" data-name="패스 327" class="cls-1" d="m172.8,50.32c.85.08,1.47.84,1.39,1.69-.07.73-.65,1.32-1.39,1.39h-5.08c-.38,0-.56.14-.56.48v2.22c0,.38.18.5.56.5h5.84c.84.06,1.47.78,1.42,1.62-.05.76-.66,1.37-1.42,1.42h-7.5c-2.22,0-2.84-.72-2.84-2.78v-3.76c0-2.06.62-2.78,2.84-2.78h6.74Zm-5.96,18.2c-2.42,0-2.86-.72-2.86-3.04v-1.64c0-2.32.44-3.04,2.86-3.04h10.7c2.42,0,2.86.72,2.86,3.04v4.68h-13.56Zm1.56-2.82h8.06v-1.58c0-.44-.1-.52-.5-.52h-7.56c-.4,0-.48.08-.48.52v1.04c0,.48.08.54.48.54m7.92-13.98c-.06-1.03.73-1.92,1.77-1.98.07,0,.14,0,.21,0,1.05-.05,1.93.77,1.98,1.82,0,.05,0,.11,0,.16v1.48h.62c.95.08,1.65.92,1.57,1.87-.07.84-.74,1.5-1.57,1.57h-.62v3.44h-3.96v-8.37Z"/>
          <path id="_패스_328" data-name="패스 328" class="cls-1" d="m199.93,57.1c.75-.04,1.39.54,1.43,1.29s-.54,1.39-1.29,1.43c-.05,0-.1,0-.15,0h-15.84c-.75.04-1.39-.54-1.43-1.29s.54-1.39,1.29-1.43c.05,0,.1,0,.15,0h15.84Zm-14.2,11.42c-1.31.08-2.44-.92-2.52-2.23,0-.11,0-.22,0-.33v-.06c-.1-1.22.81-2.29,2.03-2.39.16-.01.33,0,.49.01h10.7v-.38c0-.18-.12-.32-.42-.32h-11.46c-.61.02-1.12-.45-1.14-1.06,0-.01,0-.03,0-.04-.02-.6.45-1.1,1.04-1.12.03,0,.06,0,.1,0h13.76c1.7,0,2.24.64,2.24,1.86v3.12h-12.66c-.3,0-.38.14-.38.34,0,.22.08.36.38.36h12.14c.57-.03,1.05.4,1.08.96,0,.05,0,.1,0,.16.04.58-.4,1.08-.98,1.12-.03,0-.07,0-.1,0h-14.3Zm11.36-12.14h-10.17c-2.5,0-3.64-1.42-3.64-3.22s1.14-3.22,3.64-3.22h10.16c2.5,0,3.64,1.42,3.64,3.22s-1.14,3.22-3.64,3.22m-1.26-3.84h-7.64c-.6,0-.8.26-.8.62s.2.62.8.62h7.64c.6,0,.8-.26.8-.62s-.2-.62-.8-.62"/>
          <path id="_패스_329" data-name="패스 329" class="cls-1" d="m218.84,63.86h-1.52c-.18,2.92-1.64,4.36-4.28,4.36-2.8,0-4.38-1.62-4.38-4.92v-8.18c0-3.3,1.58-4.92,4.38-4.92,2.12-.21,4,1.35,4.21,3.46,0,.08.01.16.02.24h1.58v-2.5c.02-.94.81-1.69,1.75-1.67.91.02,1.65.76,1.67,1.67v17.12h-3.42v-4.66Zm-4.96.16v-9.62c0-.84-.42-1.12-.84-1.12s-.82.28-.82,1.12v9.62c0,.86.4,1.12.82,1.12s.84-.26.84-1.12m3.46-3.38h1.5v-3.52h-1.5v3.52Zm5.88-9.2c-.03-.91.69-1.67,1.6-1.7.05,0,.11,0,.16,0,.92-.05,1.71.66,1.76,1.58,0,.04,0,.08,0,.12v17.08h-3.52v-17.08Z"/>
          <path id="_패스_330" data-name="패스 330" class="cls-1" d="m228.68,55.66v-1c0-3.26,2.28-4.64,5.62-4.64s5.62,1.38,5.62,4.64v1c0,3.26-2.28,4.64-5.62,4.64s-5.62-1.38-5.62-4.64m2.5,8.84c-.87.08-1.65-.56-1.73-1.43s.56-1.65,1.43-1.73c.1,0,.2,0,.3,0h11.96c2.5,0,2.96.68,2.96,3.08v4.1h-4v-3.54c.03-.24-.14-.45-.38-.48-.03,0-.07,0-.1,0h-10.44Zm4.82-8.68v-1.32c0-.94-.76-1.7-1.7-1.7-.94,0-1.69.76-1.7,1.7v1.32c0,.94.76,1.7,1.7,1.7.94,0,1.69-.76,1.7-1.7m5.94-4.1c-.07-1.03.71-1.91,1.74-1.98.07,0,.15,0,.22,0,1.05-.03,1.93.79,1.96,1.84,0,.01,0,.03,0,.04h.62c.87.04,1.54.77,1.5,1.64-.04.81-.69,1.47-1.5,1.5h-.62v1.12h.62c.87.04,1.54.77,1.5,1.64-.04.81-.69,1.47-1.5,1.5h-.62v1.58h-3.92v-8.88Z"/>
          <path id="_패스_331" data-name="패스 331" class="cls-1" d="m248.74,63.44v-6.82c-.01-.58.08-1.15.26-1.7-.66-.17-1.1-.8-1.02-1.48-.09-.73.42-1.4,1.15-1.49.08-.01.17-.01.25,0h1.88v-.26c-.12-.94.55-1.8,1.48-1.91.12-.02.25-.02.38,0,.96-.09,1.81.61,1.9,1.57.01.12.01.24,0,.36v.26h1.84c.73-.04,1.36.51,1.41,1.25,0,.08,0,.17,0,.25.07.68-.36,1.3-1.02,1.48.17.55.26,1.12.26,1.7v6.82c0,3.26-1.92,4.72-4.38,4.72s-4.38-1.46-4.38-4.72m5.24.7v-8.28c.08-.47-.23-.93-.71-1.01-.47-.08-.93.23-1.01.71-.02.1-.02.2,0,.3v8.28c0,.76.48,1.02.86,1.02s.86-.26.86-1.02m9.22-3.88h-.96v8.26h-3.46v-17.08c-.05-.89.64-1.66,1.53-1.7.06,0,.12,0,.19,0,.91-.05,1.69.66,1.74,1.57,0,.04,0,.08,0,.13v5.54h.96v-5.54c-.03-.91.69-1.67,1.6-1.7.05,0,.11,0,.16,0,.93-.05,1.73.67,1.78,1.6,0,.03,0,.07,0,.1v17.08h-3.54v-8.26Z"/>
          <path id="_패스_332" data-name="패스 332" class="cls-1" d="m281.16,64.88v-3.5h-3.42c-2.42,0-2.9-.76-2.9-3.08v-6.42c0-1.3,1-1.78,2.06-1.78,1.02-.1,1.93.64,2.03,1.65,0,.06,0,.11,0,.17v.76h8.5v-.8c0-1.3.98-1.78,2.04-1.78.99-.13,1.89.56,2.02,1.54.01.08.02.16.02.24v9.5h-6.28v3.5h5.64c.89-.03,1.65.67,1.68,1.56.03.89-.67,1.65-1.56,1.68-.04,0-.08,0-.11,0h-15.36c-.89.03-1.65-.67-1.68-1.56-.03-.89.67-1.65,1.56-1.68.04,0,.08,0,.11,0h5.64Zm6.28-6.72v-2.38h-8.5v1.78c0,.4.14.6.62.6h7.88Z"/>
          <path id="_패스_333" data-name="패스 333" class="cls-1" d="m296.6,54.24v-2.02c-.09-.95.61-1.79,1.56-1.88.1,0,.2,0,.3,0,.98-.06,1.83.7,1.88,1.68,0,.07,0,.13,0,.2v2c0,1.46-.07,2.93-.24,4.38,2.48,1.18,3.82,3.56,3.5,8.78h-3.64c.32-2.36.08-3.94-.64-4.92-.43,1.86-1.47,3.52-2.96,4.72-.82.65-2,.6-2.76-.12-.6-.82-.44-1.96.36-2.58,2.1-1.88,2.64-4.38,2.64-10.24m7.8,4.54h-1.64c-.95-.02-1.7-.81-1.68-1.76.02-.92.76-1.66,1.68-1.68h1.64v-3.9c-.06-.88.61-1.64,1.49-1.7.07,0,.14,0,.21,0,.91-.05,1.69.66,1.74,1.57,0,.04,0,.09,0,.13v17.08h-3.44v-9.74Zm4.38-7.34c-.02-.92.71-1.68,1.63-1.7.05,0,.1,0,.15,0,.93-.05,1.73.66,1.78,1.6,0,.03,0,.07,0,.1v17.08h-3.56v-17.08Z"/>
          <path id="_패스_334" data-name="패스 334" class="cls-1" d="m317.46,64.92v-1.82c0-1.3.92-1.7,1.98-1.7s1.98.42,1.98,1.7v1.82h3.56v-1.82c0-1.3.92-1.7,1.98-1.7s1.98.42,1.98,1.7v1.82h1.94c.88,0,1.6.71,1.6,1.6,0,.88-.71,1.6-1.6,1.6h-15.37c-.88,0-1.6-.71-1.6-1.6,0-.88.71-1.6,1.6-1.6h1.94Zm-3.06-9.54c-.12-2.72,2-5.03,4.72-5.14.16,0,.32,0,.48,0h7.2c2.72-.15,5.05,1.94,5.2,4.66,0,.16,0,.32,0,.48v.24c.12,2.71-1.99,5.01-4.71,5.12-.16,0-.33,0-.49,0h-7.2c-2.71.16-5.04-1.91-5.2-4.63,0-.16-.01-.33,0-.49v-.24Zm13.44-.04c-.03-1.05-.9-1.88-1.95-1.85-.07,0-.13,0-.2.02h-5c-1.04-.13-1.99.6-2.12,1.65,0,.06-.01.13-.01.2v.32c.02,1.05.9,1.88,1.94,1.85.07,0,.13,0,.19-.01h5c1.04.13,1.99-.6,2.13-1.64,0-.07.01-.13.01-.2v-.32Z"/>
          <path id="_패스_335" data-name="패스 335" class="cls-1" d="m336.5,63.38c1.12.06,1.97,1.02,1.9,2.14-.06,1.12-1.02,1.97-2.14,1.9-1.07-.06-1.91-.95-1.91-2.02-.05-1.07.77-1.98,1.84-2.03.1,0,.2,0,.3,0m-2.04-.94v-10.58c-.03-1.06.8-1.95,1.86-1.98.06,0,.12,0,.18,0,1.07-.05,1.99.78,2.04,1.85,0,.04,0,.09,0,.13v10.58h-4.08Z"/>
        </g>
      </g>
    </g>
  </g>
</svg>