<?xml version="1.0" encoding="UTF-8"?>
<svg id="_레이어_2" data-name="레이어 2" xmlns="http://www.w3.org/2000/svg" viewBox="0 0 1300 43.48">
  <defs>
    <style>
      .cls-1 {
        fill: #ef687a;
      }

      .cls-2 {
        fill: #fff;
      }

      .cls-3 {
        fill: #ffd800;
      }

      .cls-4 {
        fill: #234a54;
      }

      .cls-5 {
        isolation: isolate;
      }
    </style>
  </defs>
  <g id="_레이어_1-2" data-name="레이어 1">
    <g>
      <polygon class="cls-4" points="0 0 0 24.84 26 24.84 650 43.48 1274 24.84 1300 24.84 1300 0 0 0"/>
      <g class="cls-5">
        <path class="cls-2" d="M500.9,18.44c.06,.18,.1,.37,.1,.59v.38c0,.35,.08,.42,.43,.42h8.71c.98,0,1.34,.58,1.34,1.18s-.38,1.2-1.34,1.2h-10.1c-1.79,0-2.27-.62-2.27-2.34v-.85c0-1.09,.74-1.57,1.63-1.57,.26,0,.5,.05,.7,.13v-1.65h-2.18c-.94,0-1.33-.54-1.33-1.18s.37-1.22,1.33-1.22h8.1c.96,0,1.33,.58,1.33,1.22s-.38,1.18-1.33,1.18h-2.82v2.5h-2.31Zm-.93-5.62c-2.06,0-2.98-1.1-2.98-2.64s.91-2.66,2.98-2.66h3.71c2.05,0,2.96,1.12,2.96,2.66s-.91,2.64-2.96,2.64h-3.71Zm.69-3.14c-.5,0-.66,.16-.66,.5s.16,.51,.66,.51h2.32c.5,0,.66-.19,.66-.51s-.16-.5-.66-.5h-2.32Zm7.22,8.98h-2.43c-.91,0-1.28-.48-1.28-1.09s.35-1.1,1.28-1.1h2.43v-7.73c0-1.02,.75-1.55,1.58-1.55s1.6,.54,1.6,1.55v10.4h-3.19v-.48Z"/>
        <path class="cls-2" d="M519.01,8.75v.14h2.24c.78,0,1.2,.58,1.2,1.25s-.43,1.25-1.2,1.25h-.03c.18,.42,.29,.88,.29,1.42v4.98c0,2.82-1.79,4.11-4.15,4.11s-4.13-1.3-4.13-4.11v-4.98c0-.54,.1-1.01,.27-1.42-.77,0-1.2-.58-1.2-1.25s.4-1.25,1.18-1.25h2.22v-.14c0-1.02,.64-1.62,1.65-1.62s1.65,.59,1.65,1.62Zm-.48,9.08v-5.14c0-1.04-.53-1.42-1.17-1.42s-1.15,.38-1.15,1.42v5.14c0,1.02,.54,1.49,1.15,1.49s1.17-.46,1.17-1.49Zm4.9-9.09c0-1.02,.75-1.55,1.58-1.55s1.58,.54,1.58,1.55v4.05h.53c.98,0,1.26,.75,1.26,1.39s-.3,1.39-1.26,1.39h-.53v6.64h-3.17V8.74Z"/>
        <path class="cls-2" d="M542.15,13.91c.98,0,1.34,.69,1.34,1.33s-.38,1.31-1.34,1.31h-12.29c-.96,0-1.34-.66-1.34-1.31s.37-1.33,1.34-1.33h12.29Zm-10.69-.96c-1.81,0-2.29-.59-2.29-2.32v-1.75c0-1.09,.75-1.55,1.65-1.55s1.62,.48,1.62,1.55v1.18c0,.35,.08,.4,.43,.4h8.69c.98,0,1.34,.59,1.34,1.23s-.38,1.25-1.34,1.25h-10.1Zm-2.15,6.95v-1.14c0-1.09,.77-1.55,1.66-1.55s1.62,.48,1.62,1.55v.58c0,.35,.08,.4,.43,.4h8.63c.98,0,1.34,.59,1.34,1.23s-.38,1.25-1.34,1.25h-10.05c-1.81,0-2.29-.59-2.29-2.32Z"/>
      </g>
      <g class="cls-5">
        <path class="cls-3" d="M552.21,10.47v-1.25c0-1.02,.78-1.55,1.62-1.55s1.6,.58,1.6,1.55v1.23c0,.94-.05,1.82-.14,2.66,2.75,1.04,4.15,3.35,3.83,8.2h-3.12c.34-2.62-.13-4.35-1.28-5.25-.72,2.43-2,4.1-3.68,5.06-.82,.46-1.78,.37-2.21-.19-.43-.5-.5-1.42,.24-1.92,2.37-1.63,3.15-4.07,3.15-8.53Zm8.13,11.75V8.77c0-1.04,.75-1.58,1.6-1.58s1.6,.54,1.6,1.58v13.45h-3.2Z"/>
        <path class="cls-3" d="M570.99,10.79v-.18c0-.26-.13-.35-.37-.35h-3.65c-.93,0-1.31-.66-1.31-1.28s.37-1.28,1.31-1.28h4.88c1.74,0,2.34,.72,2.34,2.16v.85c0,3.86-3.52,5.78-7.54,5.47-.72-.05-1.31-.61-1.26-1.46,.05-.75,.61-1.15,1.38-1.14,2.38,.05,4.23-.91,4.23-2.8Zm-2.48,11.43c-1.79,0-2.27-.62-2.27-2.34v-1.47c0-1.09,.75-1.58,1.65-1.58s1.6,.51,1.6,1.58v.93c0,.35,.08,.4,.43,.4h8.39c.98,0,1.34,.59,1.34,1.23s-.38,1.25-1.34,1.25h-9.8Zm7.46-13.45c0-1.04,.72-1.58,1.57-1.58s1.57,.56,1.57,1.58v2.42h.5c.98,0,1.26,.75,1.26,1.39s-.3,1.39-1.26,1.39h-.5v4.53h-3.14V8.77Z"/>
      </g>
      <g class="cls-5">
        <path class="cls-2" d="M583.06,19.08v-4.93c0-1.04,.67-1.44,1.52-1.44s1.52,.42,1.52,1.44v4.93h3.89c.98,0,1.35,.62,1.35,1.28s-.38,1.3-1.35,1.3h-7.62c-.96,0-1.36-.62-1.36-1.3s.38-1.28,1.36-1.28h.69Zm4.61-7.31v-.98c0-.27-.13-.38-.38-.38h-4.64c-.93,0-1.36-.69-1.36-1.36s.42-1.36,1.36-1.36h5.71c1.81,0,2.37,.69,2.37,2.21v1.89c0,2.4-.19,3.92-.62,5.11-.3,.83-1.27,1.18-2.19,.91-.74-.22-.95-1.02-.71-1.76,.32-.98,.46-2.29,.46-4.27Zm4.24-3.03c0-1.02,.75-1.55,1.58-1.55s1.58,.54,1.58,1.55v4.05h.53c.98,0,1.26,.75,1.26,1.39s-.3,1.39-1.26,1.39h-.53v6.64h-3.17V8.74Z"/>
      </g>
      <g class="cls-5">
        <path class="cls-1" d="M604.23,14.57c-1.54,0-2.27-.56-2.27-2.11v-3.39c0-1.09,.69-1.55,1.58-1.55s1.57,.48,1.57,1.55v2.64c0,.35,.08,.42,.43,.42h4.62c.98,0,1.3,.58,1.3,1.23s-.34,1.22-1.3,1.22h-5.94Zm.51,7.65c-1.47,0-2.29-1.04-2.29-2.19v-.19c0-1.17,.82-1.9,2.29-1.9h7.71v-.43c0-.19-.05-.26-.26-.26h-8.68c-.64,0-.9-.46-.9-.94s.27-.94,.9-.94h10.21c1.42,0,1.97,.42,1.97,1.7v2.59h-9.52c-.24,0-.35,.14-.35,.3v.05c0,.16,.11,.3,.35,.3h9.01c.66,0,.93,.5,.93,.98s-.26,.94-.93,.94h-10.45Zm7.68-13.45c0-1.04,.74-1.58,1.58-1.58s1.58,.56,1.58,1.58v.98h.5c.98,0,1.26,.72,1.26,1.36s-.3,1.36-1.26,1.36h-.5v2.42h-3.17v-6.11Z"/>
        <path class="cls-1" d="M621.67,19.51c-.02-.69-.22-1.23-.54-1.65-.35,1.28-.87,2.15-1.47,2.75-.54,.54-1.54,.93-2.27,.34-.53-.42-.48-1.28-.03-1.81,1.23-1.46,1.66-2.69,1.66-8.2v-.48h-.5c-.96,0-1.34-.67-1.34-1.33s.37-1.34,1.34-1.34h8.28c.98,0,1.31,.7,1.31,1.34s-.35,1.33-1.31,1.33h-.64v.78c0,1.15-.06,2.24-.18,3.28,1.41,1.09,2.35,3.04,2.24,6.77h-2.62c.13-1.33,.02-2.35-.27-3.14-.45,1.54-1.07,2.66-1.81,3.17-.62,.43-1.36,.51-1.95,.08-.51-.37-.51-1.2,.02-1.79l.1-.11Zm1.46-3.09c.18-1.12,.26-2.71,.26-5.15v-.8h-1.6v.46c0,1.49-.05,2.75-.14,3.84,.59,.38,1.1,.91,1.49,1.65Zm5.55-7.68c0-1.02,.74-1.55,1.57-1.55s1.57,.54,1.57,1.55v4.05h.3c.98,0,1.34,.75,1.34,1.39s-.38,1.39-1.34,1.39h-.3v6.64h-3.14V8.74Z"/>
      </g>
      <g class="cls-5">
        <path class="cls-2" d="M641.94,15.73h-1.12v2.19c0,2.56-1.2,3.89-3.47,3.89s-3.54-1.33-3.54-3.89v-6.48c0-2.56,1.27-3.89,3.54-3.89s3.47,1.33,3.47,3.89v1.71h1.12v-4.61c0-.9,.64-1.36,1.38-1.36s1.38,.48,1.38,1.36v13.67h-2.75v-6.48Zm-3.92,2.74v-7.57c0-.71-.35-.9-.67-.9s-.67,.19-.67,.9v7.57c0,.72,.35,.9,.67,.9s.67-.18,.67-.9Zm7.43-9.92c0-.9,.67-1.36,1.41-1.36s1.42,.48,1.42,1.36v13.67h-2.83V8.55Z"/>
      </g>
      <g class="cls-5">
        <path class="cls-2" d="M655.13,9.05v-.1c0-1.02,.8-1.5,1.65-1.49,.83,.02,1.54,.53,1.54,1.49v.1c0,.51-.03,.98-.11,1.42,2.24,.29,3.71,1.78,3.6,4.88h-3.09c.1-1.38-.35-2.22-1.31-2.43-.91,1.63-2.37,2.56-3.87,2.72-.83,.08-1.49-.38-1.62-.94-.21-.72,.11-1.44,.75-1.62,1.65-.46,2.46-1.73,2.46-4.03Zm1.02,7.06h6.77c2.19,0,3.31,1.38,3.31,3.14s-1.12,3.14-3.31,3.14h-6.77c-2.22,0-3.31-1.41-3.31-3.14s1.09-3.14,3.31-3.14Zm.85,4.03h5.07c.7,0,.91-.5,.91-.9s-.21-.9-.91-.9h-5.07c-.7,0-.91,.5-.91,.9s.21,.9,.91,.9Zm5.81-11.25c0-1.04,.74-1.58,1.58-1.58s1.58,.56,1.58,1.58v1.31h.5c.98,0,1.26,.74,1.26,1.38s-.3,1.38-1.26,1.38h-.5v2.77h-3.17v-6.83Z"/>
        <path class="cls-2" d="M676,7.77c.83,0,1.12,.67,1.12,1.25,0,.54-.3,1.22-1.12,1.22h-4.07c-.3,0-.45,.11-.45,.38v1.78c0,.3,.14,.4,.45,.4h4.67c.83,0,1.14,.66,1.14,1.2,0,.58-.3,1.23-1.14,1.23h-6c-1.78,0-2.27-.58-2.27-2.22v-3.01c0-1.65,.5-2.23,2.27-2.23h5.39Zm-4.77,14.57c-1.94,0-2.29-.58-2.29-2.43v-1.31c0-1.86,.35-2.43,2.29-2.43h8.56c1.94,0,2.29,.58,2.29,2.43v3.75h-10.85Zm1.25-2.26h6.45v-1.27c0-.35-.08-.42-.4-.42h-6.05c-.32,0-.38,.06-.38,.42v.83c0,.38,.06,.43,.38,.43Zm6.34-11.19c0-1.04,.74-1.58,1.58-1.58s1.58,.56,1.58,1.58v1.18h.5c.98,0,1.26,.74,1.26,1.38s-.3,1.38-1.26,1.38h-.5v2.75h-3.17v-6.69Z"/>
        <path class="cls-2" d="M697.7,13.2c.85,0,1.15,.54,1.15,1.09,0,.58-.32,1.09-1.15,1.09h-12.68c-.83,0-1.15-.51-1.15-1.09,0-.54,.3-1.09,1.15-1.09h12.68Zm-11.36,9.14c-1.38,0-2.02-.96-2.02-2.05v-.05c0-1.12,.62-1.91,2.02-1.91h8.56v-.3c0-.14-.1-.26-.34-.26h-9.17c-.59,0-.91-.46-.91-.88s.27-.9,.91-.9h11.01c1.36,0,1.79,.51,1.79,1.49v2.5h-10.13c-.24,0-.3,.11-.3,.27,0,.18,.06,.29,.3,.29h9.72c.62,0,.86,.45,.86,.9,0,.38-.22,.9-.86,.9h-11.44Zm9.09-9.71h-8.13c-2,0-2.91-1.14-2.91-2.58s.91-2.58,2.91-2.58h8.13c2,0,2.91,1.14,2.91,2.58s-.91,2.58-2.91,2.58Zm-1.01-3.07h-6.11c-.48,0-.64,.21-.64,.5s.16,.5,.64,.5h6.11c.48,0,.64-.21,.64-.5s-.16-.5-.64-.5Z"/>
        <path class="cls-2" d="M712.83,18.61h-1.22c-.14,2.34-1.31,3.49-3.43,3.49-2.24,0-3.51-1.3-3.51-3.94v-6.55c0-2.64,1.26-3.94,3.51-3.94,1.94,0,3.1,.98,3.38,2.96h1.26v-2c0-.9,.64-1.33,1.38-1.33s1.36,.45,1.36,1.33v13.7h-2.74v-3.73Zm-3.97,.13v-7.7c0-.67-.34-.9-.67-.9s-.66,.22-.66,.9v7.7c0,.69,.32,.9,.66,.9s.67-.21,.67-.9Zm2.77-2.71h1.2v-2.82h-1.2v2.82Zm4.71-7.36c0-.9,.67-1.36,1.41-1.36s1.41,.48,1.41,1.36v13.67h-2.82V8.67Z"/>
        <path class="cls-2" d="M720.7,12.04v-.8c0-2.61,1.82-3.71,4.5-3.71s4.5,1.1,4.5,3.71v.8c0,2.61-1.82,3.71-4.5,3.71s-4.5-1.11-4.5-3.71Zm2,7.07c-.9,0-1.39-.51-1.39-1.27s.5-1.26,1.39-1.26h9.57c2,0,2.37,.54,2.37,2.46v3.28h-3.2v-2.83c0-.24-.13-.38-.38-.38h-8.36Zm3.86-6.95v-1.06c0-.85-.53-1.28-1.36-1.28s-1.36,.43-1.36,1.28v1.06c0,.87,.53,1.28,1.36,1.28s1.36-.42,1.36-1.28Zm4.75-3.28c0-1.04,.72-1.58,1.57-1.58,.8,0,1.52,.54,1.57,1.5h.5c.96,0,1.2,.64,1.2,1.26s-.26,1.25-1.2,1.25h-.5v.9h.5c.96,0,1.2,.64,1.2,1.26s-.26,1.25-1.2,1.25h-.5v1.27h-3.14v-7.11Z"/>
        <path class="cls-2" d="M736.75,18.27v-5.46c0-.51,.06-.96,.21-1.36-.56-.13-.82-.61-.82-1.18,0-.67,.34-1.2,1.12-1.2h1.5v-.21c0-.96,.51-1.54,1.49-1.54s1.52,.59,1.52,1.54v.21h1.47c.78,0,1.12,.53,1.12,1.2,0,.58-.27,1.06-.82,1.18,.13,.4,.21,.85,.21,1.36v5.46c0,2.61-1.54,3.78-3.51,3.78s-3.5-1.17-3.5-3.78Zm4.19,.56v-6.63c0-.59-.38-.82-.69-.82s-.69,.22-.69,.82v6.63c0,.61,.38,.82,.69,.82s.69-.21,.69-.82Zm7.38-3.11h-.77v6.61h-2.77V8.67c0-.9,.64-1.36,1.38-1.36s1.39,.48,1.39,1.36v4.43h.77v-4.43c0-.9,.67-1.36,1.41-1.36s1.42,.48,1.42,1.36v13.67h-2.83v-6.61Z"/>
        <path class="cls-2" d="M758.2,19.42v-2.8h-2.74c-1.94,0-2.32-.61-2.32-2.46v-5.14c0-1.04,.8-1.42,1.65-1.42,.8,0,1.63,.45,1.63,1.46v.61h6.8v-.64c0-1.04,.79-1.42,1.63-1.42s1.63,.4,1.63,1.42v7.6h-5.03v2.8h4.51c.98,0,1.34,.66,1.34,1.29s-.38,1.3-1.34,1.3h-12.29c-.96,0-1.34-.64-1.34-1.3s.37-1.29,1.34-1.29h4.51Zm5.03-5.38v-1.9h-6.8v1.42c0,.32,.11,.48,.5,.48h6.31Z"/>
        <path class="cls-2" d="M770.56,10.91v-1.62c0-1.02,.66-1.5,1.49-1.5s1.5,.53,1.5,1.5v1.6c0,1.28-.06,2.45-.19,3.51,1.98,.95,3.06,2.85,2.8,7.03h-2.91c.26-1.89,.06-3.15-.51-3.94-.56,1.86-1.39,3.11-2.37,3.78-.61,.42-1.65,.58-2.21-.1-.5-.59-.35-1.51,.29-2.06,1.68-1.51,2.11-3.51,2.11-8.2Zm6.24,3.63h-1.31c-.96,0-1.34-.72-1.34-1.38s.37-1.38,1.34-1.38h1.31v-3.12c0-.9,.62-1.36,1.36-1.36s1.39,.48,1.39,1.36v13.67h-2.75v-7.79Zm3.51-5.87c0-.9,.69-1.36,1.42-1.36s1.42,.48,1.42,1.36v13.67h-2.85V8.67Z"/>
        <path class="cls-2" d="M787.24,19.45v-1.46c0-1.04,.74-1.36,1.58-1.36s1.58,.34,1.58,1.36v1.46h2.85v-1.46c0-1.04,.74-1.36,1.58-1.36s1.58,.34,1.58,1.36v1.46h1.55c.98,0,1.34,.64,1.34,1.28s-.38,1.28-1.34,1.28h-12.29c-.96,0-1.34-.62-1.34-1.28s.37-1.28,1.34-1.28h1.55Zm-2.45-7.63c0-2.19,1.47-4.11,4.16-4.11h5.76c2.69,0,4.16,1.92,4.16,4.11v.19c0,2.19-1.47,4.1-4.16,4.1h-5.76c-2.69,0-4.16-1.9-4.16-4.1v-.19Zm10.76-.03c0-.85-.66-1.47-1.71-1.47h-4c-1.06,0-1.71,.62-1.71,1.47v.26c0,.85,.66,1.47,1.71,1.47h4c1.06,0,1.71-.62,1.71-1.47v-.26Z"/>
        <path class="cls-2" d="M802.48,18.22c1.07,0,1.71,.64,1.71,1.62s-.64,1.62-1.71,1.62-1.71-.62-1.71-1.62,.64-1.62,1.71-1.62Zm-1.63-.75V9c0-1.04,.78-1.58,1.63-1.58s1.63,.56,1.63,1.58v8.47h-3.27Z"/>
      </g>
    </g>
  </g>
</svg>