<?xml version="1.0" encoding="UTF-8"?>
<svg id="_레이어_2" data-name="레이어 2" xmlns="http://www.w3.org/2000/svg" xmlns:xlink="http://www.w3.org/1999/xlink" viewBox="0 0 650 350">
  <defs>
    <style>
      .cls-1 {
        fill: #e24e2d;
      }

      .cls-2 {
        fill: #fff;
      }

      .cls-3 {
        fill: #160073;
      }

      .cls-4 {
        font-family: HVDComicSerifPro, HVDComicSerifPro;
        font-size: 8.1px;
      }

      .cls-4, .cls-5 {
        fill: #fbf9f4;
      }

      .cls-6 {
        clip-path: url(#clippath-1);
      }

      .cls-7 {
        fill: #2c3459;
      }

      .cls-8 {
        letter-spacing: 0em;
      }

      .cls-9 {
        clip-path: url(#clippath);
      }

      .cls-10 {
        fill: #ffc548;
      }

      .cls-11 {
        fill: #ee9278;
      }

      .cls-12, .cls-13, .cls-14 {
        fill: none;
      }

      .cls-15 {
        fill: #edefa8;
      }

      .cls-16 {
        fill: #30634f;
      }

      .cls-13 {
        stroke: #2c3459;
      }

      .cls-13, .cls-14 {
        stroke-miterlimit: 10;
      }

      .cls-14 {
        stroke: #e0a636;
      }

      .cls-17 {
        letter-spacing: -.01em;
      }
    </style>
    <clipPath id="clippath">
      <path class="cls-12" d="m563.05,205.28c0-24.98-24.29-45.23-54.25-45.23s-54.25,20.25-54.25,45.23l3.02,97.94,99.54-.31,5.94-97.63Z"/>
    </clipPath>
    <clipPath id="clippath-1">
      <path class="cls-12" d="m493.83,139.65s-1.09,20.11-4.21,23.54c0,0,3.74,15.9,18.24,15.59,14.5-.31,18.71-16.21,18.71-16.21-.14.33-10.09-25.23-10.76-29.78-.49-3.32-21.98,6.86-21.98,6.86Z"/>
    </clipPath>
  </defs>
  <g id="_레이어_1-2" data-name="레이어 1">
    <rect class="cls-15" width="650" height="350" rx="35.94" ry="35.94"/>
    <rect class="cls-16" x="48.15" y="42.31" width="262.41" height="33.78"/>
    <g>
      <path class="cls-2" d="m59.44,56.65v-1.77h7.35v6.53h-2.27v-4.76h-5.08Zm11.58,5.63v4.85h-10.98v-4.85h10.98Zm-8.71,1.75v1.35h6.44v-1.35h-6.44Zm8.71-9.29v6.89h-2.27v-6.89h2.27Z"/>
      <path class="cls-2" d="m75.27,64.78v-5.27h2.27v5.27h4.23v1.75h-8.72v-1.75h2.22Zm3.68-1.66v-6.33h-5.4v-1.77h7.67v8.09h-2.27Zm5.94-3.85h1.26v1.77h-1.26v5.8h-2.27v-12.1h2.27v4.53Z"/>
      <path class="cls-2" d="m90.58,64.78v-1.78c-.45-.1-.87-.26-1.25-.49-.38-.23-.71-.52-.98-.88s-.49-.76-.65-1.22c-.16-.46-.24-.97-.24-1.54,0-.69.11-1.29.33-1.82s.52-.98.9-1.34c.38-.36.82-.64,1.33-.83.51-.19,1.05-.28,1.63-.28s1.11.09,1.62.28c.51.19.96.46,1.34.83.38.36.68.81.9,1.34.22.53.33,1.14.33,1.82,0,.55-.08,1.05-.23,1.51s-.36.85-.63,1.2c-.27.35-.58.64-.95.87-.37.23-.76.41-1.18.52v1.81h3.37v1.75h-9.01v-1.75h3.38Zm1.07-3.42c.27,0,.52-.06.76-.19s.44-.3.61-.52.31-.48.4-.79c.1-.3.14-.63.14-.99s-.05-.7-.14-1.01c-.1-.31-.23-.57-.4-.8s-.38-.39-.61-.51-.49-.18-.76-.18c-.29,0-.55.06-.79.19-.24.13-.44.3-.61.52-.17.22-.3.49-.39.8-.09.31-.14.64-.14,1s.05.7.14,1.01.23.57.4.79c.17.22.37.39.61.51.24.12.49.18.77.18Zm7.68,5.47h-2.27v-12.1h2.27v12.1Z"/>
      <path class="cls-2" d="m110.05,66.84v-5.75l-1.4.48c-.04.99-.16,1.83-.36,2.5s-.46,1.22-.79,1.63c-.32.41-.69.7-1.1.88-.41.17-.86.26-1.33.26-.5,0-.97-.1-1.41-.3-.44-.2-.82-.53-1.14-.99-.32-.46-.58-1.08-.77-1.84-.19-.76-.28-1.71-.28-2.85s.09-2.08.28-2.84c.19-.77.44-1.38.77-1.85.32-.46.7-.79,1.14-.99.44-.2.91-.3,1.41-.3.45,0,.88.08,1.29.25.4.16.77.44,1.08.82.32.38.58.89.79,1.51.21.63.34,1.4.4,2.32l1.43-.49v-4.55h2.08v12.1h-2.08Zm-6.51-5.98c0,.86.04,1.56.13,2.11.09.55.2.97.35,1.29.14.31.31.53.49.64.18.12.37.17.56.17s.38-.06.56-.17c.18-.12.34-.33.48-.64.14-.31.25-.74.34-1.29.09-.55.13-1.25.13-2.12s-.04-1.55-.13-2.09c-.09-.54-.2-.97-.34-1.29-.14-.31-.3-.53-.48-.64-.18-.12-.37-.17-.56-.17s-.38.06-.56.17c-.18.12-.35.33-.49.64-.14.31-.26.74-.35,1.29-.09.55-.13,1.25-.13,2.11Zm11.74,5.98h-2.09v-12.1h2.09v12.1Z"/>
      <path class="cls-2" d="m121.95,60.15c0,.72-.07,1.4-.22,2.04l3.54,2.72-1.11,1.68-3.19-2.49c-.37.56-.83,1.05-1.4,1.46-.57.42-1.28.76-2.12,1.04l-1-1.68c.58-.2,1.07-.43,1.48-.68.41-.25.74-.56,1-.93.26-.37.45-.81.57-1.32.12-.51.18-1.13.18-1.85v-5.28h2.27v5.3Zm6.7,6.69h-2.27v-6.47l-2.69.93v-1.95l2.69-.93v-3.68h2.27v12.1Z"/>
      <path class="cls-2" d="m136.95,64.78v-5.27h2.27v5.27h4.23v1.75h-8.72v-1.75h2.22Zm3.68-1.66v-6.33h-5.4v-1.77h7.67v8.09h-2.27Zm5.94-3.85h1.26v1.77h-1.26v5.8h-2.27v-12.1h2.27v4.53Z"/>
      <path class="cls-2" d="m152.26,64.78v-1.78c-.45-.1-.87-.26-1.25-.49-.38-.23-.71-.52-.98-.88s-.49-.76-.65-1.22c-.16-.46-.24-.97-.24-1.54,0-.69.11-1.29.33-1.82s.52-.98.9-1.34c.38-.36.82-.64,1.33-.83.51-.19,1.05-.28,1.63-.28s1.11.09,1.62.28c.51.19.96.46,1.34.83.38.36.68.81.9,1.34.22.53.33,1.14.33,1.82,0,.55-.08,1.05-.23,1.51s-.36.85-.63,1.2c-.27.35-.58.64-.95.87-.37.23-.76.41-1.18.52v1.81h3.37v1.75h-9.01v-1.75h3.38Zm1.07-3.42c.27,0,.52-.06.76-.19s.44-.3.61-.52.31-.48.4-.79c.1-.3.14-.63.14-.99s-.05-.7-.14-1.01c-.1-.31-.23-.57-.4-.8s-.38-.39-.61-.51-.49-.18-.76-.18c-.29,0-.55.06-.79.19-.24.13-.44.3-.61.52-.17.22-.3.49-.39.8-.09.31-.14.64-.14,1s.05.7.14,1.01.23.57.4.79c.17.22.37.39.61.51.24.12.49.18.77.18Zm7.68,5.47h-2.27v-12.1h2.27v12.1Z"/>
      <path class="cls-2" d="m163.39,60.21h12.06v1.62h-12.06v-1.62Zm9.09,3.89v-.45h-8.38v-1.29h10.65v3.03h-8.38v.45h8.52v1.29h-10.79v-3.03h8.38Zm-.14-7.48v-.46h-8.09v-1.29h10.36v3.04h-8.09v.45h8.23v1.29h-10.5v-3.03h8.09Z"/>
      <path class="cls-2" d="m181.59,63h12.06v1.77h-4.9v2.52h-2.27v-2.52h-4.9v-1.77Zm9.09-6.21h-8.38v-1.77h10.65v6.86h-2.27v-5.1Z"/>
      <path class="cls-2" d="m200.68,55.17h2.95v1.77h-8.16v-1.77h2.95v-1.06h2.27v1.06Zm-1.14,2.27c1.25,0,2.19.22,2.81.67.62.44.93,1.08.93,1.91s-.31,1.49-.93,1.92c-.62.43-1.56.64-2.81.64s-2.16-.21-2.78-.64-.93-1.07-.93-1.92.31-1.47.93-1.91c.62-.44,1.55-.67,2.78-.67Zm-.72,5.85v2.08h8.42v1.75h-10.69v-3.84h2.27Zm.72-4.31c-.39,0-.73.08-1.02.23-.28.15-.43.43-.43.81s.14.64.42.8c.28.16.62.24,1.03.24.19,0,.38-.02.56-.06.18-.04.33-.1.47-.18s.24-.19.32-.32c.08-.13.12-.29.12-.48s-.04-.35-.12-.49c-.08-.13-.19-.24-.33-.32-.14-.08-.3-.14-.48-.18-.18-.04-.36-.06-.54-.06Zm7.55.67v4.17h-2.27v-9.08h2.27v3.14h1.26v1.77h-1.26Z"/>
      <path class="cls-2" d="m219.02,57.49c0,.34-.04.69-.12,1.06l3.22,2.06-1.17,1.51-2.89-1.85c-.37.42-.84.8-1.42,1.11-.58.32-1.29.57-2.14.75l-.97-1.59c1.13-.24,1.94-.6,2.45-1.09s.76-1.14.76-1.97v-2.76h2.27v2.78Zm-2.01,5.51v2.37h8.85v1.75h-11.12v-4.13h2.27Zm8.71-8.27v8.64h-2.27v-5.07l-2.6.59v-1.87l2.6-.59v-1.71h2.27Z"/>
      <path class="cls-2" d="m232.55,57.05c0,.36-.03.68-.1.96l2.83,2.01-1.26,1.56-2.5-1.8c-.67.74-1.63,1.33-2.86,1.75l-.98-1.68c.95-.27,1.62-.63,2.01-1.08.39-.45.58-1.03.58-1.74v-2.3h2.27v2.32Zm2.46,10.36c-2.12,0-3.71-.21-4.77-.64-1.06-.43-1.6-1.1-1.6-2s.53-1.57,1.6-2c1.06-.42,2.66-.64,4.77-.64s3.71.21,4.77.64,1.6,1.09,1.6,2-.53,1.57-1.6,2-2.66.64-4.77.64Zm0-1.77c1.4,0,2.43-.07,3.1-.2.67-.14,1-.36,1-.68s-.33-.55-1-.68c-.67-.13-1.7-.2-3.1-.2s-2.43.07-3.1.2c-.67.14-1,.36-1,.68s.33.54,1,.68c.67.13,1.7.2,3.1.2Zm.63-4.04v-6.88h2.08v2.52l1.27-.45v-2.07h2.09v7.17h-2.09v-3.14l-1.27.45v2.4h-2.08Z"/>
      <path class="cls-2" d="m251.24,59.64v1.77h-7.79v-6.53h2.27v4.76h5.52Zm3.8,2.63v4.85h-10.98v-4.85h10.98Zm-8.71,1.75v1.35h6.44v-1.35h-6.44Zm8.71-9.29v6.89h-2.27v-6.89h2.27Z"/>
      <path class="cls-2" d="m257.43,59.77h12.06v1.62h-12.06v-1.62Zm9.09,4.15v-.51h-8.38v-1.35h10.65v3.2h-8.38v.51h8.52v1.35h-10.79v-3.2h8.38Zm2.27-6.62v1.77h-10.5v-4.2h10.36v1.77h-8.09v.67h8.23Z"/>
      <path class="cls-2" d="m279.92,66.84v-5.75l-1.4.48c-.04.99-.16,1.83-.36,2.5s-.46,1.22-.79,1.63c-.32.41-.69.7-1.1.88-.41.17-.86.26-1.33.26-.5,0-.97-.1-1.41-.3-.44-.2-.82-.53-1.14-.99-.32-.46-.58-1.08-.77-1.84-.19-.76-.28-1.71-.28-2.85s.09-2.08.28-2.84c.19-.77.44-1.38.77-1.85.32-.46.7-.79,1.14-.99.44-.2.91-.3,1.41-.3.45,0,.88.08,1.28.25.4.16.77.44,1.08.82.32.38.58.89.79,1.51.21.63.34,1.4.4,2.32l1.43-.49v-4.55h2.08v12.1h-2.08Zm-6.51-5.98c0,.86.04,1.56.13,2.11s.2.97.35,1.29c.14.31.31.53.49.64.18.12.37.17.56.17s.38-.06.56-.17c.18-.12.34-.33.48-.64.14-.31.25-.74.34-1.29.09-.55.13-1.25.13-2.12s-.04-1.55-.13-2.09c-.09-.54-.2-.97-.34-1.29-.14-.31-.3-.53-.48-.64-.18-.12-.37-.17-.56-.17s-.38.06-.56.17c-.18.12-.35.33-.49.64-.14.31-.26.74-.35,1.29-.09.55-.13,1.25-.13,2.11Zm11.74,5.98h-2.09v-12.1h2.09v12.1Z"/>
      <path class="cls-2" d="m291.05,66.69v-9.9h-4.12v-1.77h6.2v4.95l1.37-.48v-4.76h2.08v12.1h-2.08v-5.53l-1.37.48v4.91h-2.08Zm8.68.14h-2.09v-12.1h2.09v12.1Z"/>
    </g>
    <g>
      <path class="cls-3" d="m67.68,118.52c0,1.16-.13,2.37-.4,3.63l11.08,7.07-4.02,5.18-9.93-6.37c-1.26,1.46-2.88,2.74-4.87,3.83-1.99,1.1-4.44,1.96-7.35,2.59l-3.33-5.48c3.87-.83,6.68-2.07,8.42-3.73,1.74-1.66,2.61-3.92,2.61-6.77v-9.51h7.8v9.56Zm-6.9,18.96v8.16h30.45v6.02h-38.25v-14.19h7.8Zm29.95-28.42v29.72h-7.8v-17.42l-8.94,2.04v-6.42l8.94-2.04v-5.87h7.8Z"/>
      <path class="cls-3" d="m111.24,117.03c0,1.23-.12,2.32-.35,3.29l9.74,6.92-4.32,5.38-8.59-6.17c-2.32,2.56-5.6,4.56-9.83,6.02l-3.38-5.77c3.28-.93,5.59-2.17,6.93-3.71,1.34-1.54,2.01-3.54,2.01-6v-7.91h7.8v7.96Zm8.44,35.64c-7.29,0-12.76-.74-16.42-2.22-3.66-1.48-5.49-3.77-5.49-6.89s1.83-5.41,5.49-6.87c3.66-1.46,9.13-2.19,16.42-2.19s12.76.73,16.42,2.19c3.66,1.46,5.49,3.75,5.49,6.87s-1.83,5.42-5.49,6.89c-3.66,1.48-9.13,2.22-16.42,2.22Zm0-6.07c4.8,0,8.35-.23,10.65-.7,2.3-.47,3.45-1.24,3.45-2.34s-1.15-1.87-3.45-2.34c-2.3-.46-5.85-.7-10.65-.7s-8.35.23-10.65.7c-2.3.46-3.45,1.24-3.45,2.34s1.15,1.87,3.45,2.34c2.3.46,5.85.7,10.65.7Zm2.19-13.89v-23.64h7.15v8.66l4.37-1.54v-7.12h7.2v24.64h-7.2v-10.8l-4.37,1.54v8.26h-7.15Z"/>
      <path class="cls-3" d="m172.53,125.94v6.07h-26.77v-22.45h7.8v16.38h18.97Zm13.06,9.06v16.68h-37.75v-16.68h37.75Zm-29.95,6.02v4.63h22.15v-4.63h-22.15Zm29.95-31.96v23.69h-7.8v-23.69h7.8Z"/>
      <path class="cls-16" d="m50.89,175.36v-6.07h21.31v14.53h-14.16v2.34h14.65v6.07h-21.8v-14.48h14.16v-2.39h-14.16Zm23.1,37.03c-7.29,0-12.76-.74-16.42-2.22-3.66-1.48-5.49-3.77-5.49-6.89s1.83-5.41,5.49-6.87c3.66-1.46,9.13-2.19,16.42-2.19s12.76.73,16.42,2.19c3.66,1.46,5.49,3.75,5.49,6.87s-1.83,5.42-5.49,6.89c-3.66,1.48-9.13,2.22-16.42,2.22Zm0-6.07c4.8,0,8.35-.23,10.65-.7,2.3-.47,3.45-1.24,3.45-2.34s-1.15-1.87-3.45-2.34c-2.3-.46-5.85-.7-10.65-.7s-8.35.23-10.65.7c-2.3.46-3.45,1.24-3.45,2.34s1.15,1.87,3.45,2.34c2.3.46,5.85.7,10.65.7Zm2.19-13.89v-23.64h7.15v8.66l4.37-1.54v-7.12h7.2v24.64h-7.2v-10.8l-4.37,1.54v8.26h-7.15Z"/>
      <path class="cls-16" d="m117.55,180.49v-5.13h-17.48v-6.07h25.28v22.45h-7.8v-5.18h-17.48v-6.07h17.48Zm3.53,31.91c-3.11,0-5.89-.18-8.34-.55-2.45-.37-4.53-.93-6.23-1.69-1.71-.76-3.01-1.71-3.9-2.84-.89-1.13-1.34-2.47-1.34-4.03s.45-2.86,1.34-4.01,2.19-2.09,3.9-2.84c1.71-.75,3.78-1.3,6.23-1.67,2.45-.36,5.23-.55,8.34-.55s5.89.18,8.34.55c2.45.37,4.53.92,6.23,1.67,1.71.75,3.01,1.69,3.9,2.84s1.34,2.48,1.34,4.01-.45,2.9-1.34,4.03c-.89,1.13-2.19,2.07-3.9,2.84-1.71.76-3.78,1.33-6.23,1.69-2.45.36-5.23.55-8.34.55Zm0-6.07c3.81,0,6.76-.23,8.87-.7,2.1-.47,3.15-1.24,3.15-2.34s-1.05-1.87-3.15-2.34c-2.1-.46-5.06-.7-8.87-.7s-6.76.23-8.87.7c-2.1.46-3.15,1.24-3.15,2.34s1.05,1.87,3.15,2.34c2.1.46,5.06.7,8.87.7Zm18.82-37.53v24.64h-7.8v-24.64h7.8Z"/>
      <path class="cls-16" d="m172.68,169.29v6.07h-10.13v2.39c0,.4-.02.79-.05,1.17-.03.38-.08.76-.15,1.12l11.08,6.67-3.73,5.28-10.18-6.12c-2.52,2.89-6.67,4.99-12.47,6.32l-3.33-5.47c1.82-.4,3.42-.85,4.79-1.34,1.37-.5,2.52-1.09,3.45-1.79s1.62-1.53,2.09-2.49c.46-.96.7-2.09.7-3.38v-2.34h-9.64v-6.07h27.57Zm12.91,25.43v16.68h-37.75v-16.68h37.75Zm-29.95,6.02v4.63h22.15v-4.63h-22.15Zm29.95-31.96v23.69h-7.8v-10.35l-6.21,1.39v-6.22l6.21-1.39v-7.12h7.8Z"/>
      <path class="cls-16" d="m190.81,197.21h41.47v6.07h-16.84v8.66h-7.8v-8.66h-16.84v-6.07Zm25.38-27.23v4.23c0,1.76-.33,3.45-.99,5.08l16.99,8.11-3.83,5.48-16.84-8.01c-1.85,1.86-4.21,3.5-7.08,4.93-2.86,1.43-6.27,2.62-10.21,3.58l-2.93-5.72c2.98-.6,5.55-1.38,7.7-2.34,2.15-.96,3.92-2.03,5.29-3.21,1.37-1.18,2.39-2.44,3.06-3.78.66-1.34.99-2.73.99-4.16v-4.18h7.85Z"/>
      <path class="cls-3" d="m270.53,169.79v6.07h-7.8v11.55c0,1.36-.06,2.65-.17,3.86-.12,1.21-.29,2.4-.52,3.56l10.03,9.46-4.32,5.28-8.2-8.06c-1.06,1.79-2.43,3.37-4.1,4.73-1.67,1.36-3.7,2.49-6.08,3.38l-3.43-5.77c1.62-.7,3-1.48,4.12-2.34,1.12-.86,2.05-1.93,2.78-3.21.73-1.28,1.26-2.8,1.59-4.55.33-1.76.5-3.88.5-6.37v-11.5h-7.5v-6.07h23.1Zm3.58,40.62v-21.5l-7,2.44v-6.22l7-2.44v-13.89h7.15v41.61h-7.15Zm17.98,0h-7.2v-41.61h7.2v41.61Z"/>
      <path class="cls-3" d="m296.6,186.02h14.36v-6.27h7.8v6.27h19.32v6.07h-41.47v-6.07Zm20.76,26.38c-5.99,0-10.63-.71-13.91-2.12-3.28-1.41-4.92-3.66-4.92-6.74s1.64-5.33,4.92-6.72,7.91-2.09,13.91-2.09,10.63.7,13.91,2.09c3.28,1.39,4.92,3.63,4.92,6.72s-1.64,5.33-4.92,6.74c-3.28,1.41-7.91,2.12-13.91,2.12Zm9.98-37.03h-27.81v-6.07h35.61v14.14h-7.8v-8.06Zm-9.98,30.96c3.81,0,6.6-.25,8.37-.75s2.66-1.18,2.66-2.04-.89-1.54-2.66-2.04c-1.77-.5-4.56-.75-8.37-.75s-6.6.25-8.37.75c-1.77.5-2.66,1.18-2.66,2.04s.89,1.54,2.66,2.04c1.77.5,4.56.75,8.37.75Z"/>
    </g>
    <g>
      <path d="m53.87,260v-5.77h2.49v5.77h4.64v1.92h-9.56v-1.92h2.44Zm4.04-1.82v-6.93h-5.92v-1.93h8.4v8.87h-2.49Zm6.51-4.22h1.38v1.93h-1.38v6.36h-2.49v-13.26h2.49v4.97Z"/>
      <path d="m70.01,260v-1.95c-.5-.11-.95-.29-1.37-.54-.42-.25-.78-.57-1.08-.96s-.54-.83-.71-1.33c-.17-.5-.26-1.06-.26-1.69,0-.75.12-1.42.36-2s.57-1.07.99-1.47c.42-.4.9-.7,1.46-.9.55-.21,1.15-.31,1.78-.31s1.21.1,1.77.31c.56.21,1.05.51,1.46.9.42.4.75.89.99,1.47.24.58.36,1.25.36,2,0,.6-.08,1.15-.25,1.65s-.4.94-.69,1.32c-.29.38-.64.7-1.04.95-.4.25-.83.44-1.3.57v1.98h3.69v1.92h-9.88v-1.92h3.7Zm1.17-3.74c.29,0,.57-.07.83-.21s.48-.33.67-.57.34-.53.44-.86c.1-.33.16-.7.16-1.09s-.05-.77-.16-1.11c-.11-.34-.25-.63-.44-.87s-.41-.43-.67-.56-.54-.2-.83-.2c-.32,0-.6.07-.86.21-.26.14-.48.33-.67.57-.18.24-.33.53-.43.87-.1.34-.15.7-.15,1.09s.05.77.16,1.1.25.62.44.86c.18.24.41.43.66.56.26.13.54.2.85.2Zm8.42,6h-2.48v-13.26h2.48v13.26Z"/>
      <path d="m87.14,251.37c0,.37-.04.76-.13,1.16l3.53,2.25-1.28,1.65-3.17-2.03c-.4.47-.92.87-1.55,1.22s-1.41.62-2.34.82l-1.06-1.74c1.23-.26,2.13-.66,2.68-1.19.55-.53.83-1.25.83-2.16v-2.4h2.48v2.41Zm1.35,11.52c-.99,0-1.88-.06-2.66-.17-.78-.12-1.44-.3-1.99-.54s-.96-.54-1.24-.9c-.29-.36-.43-.79-.43-1.28s.14-.91.43-1.28c.28-.36.7-.67,1.24-.9.54-.24,1.21-.41,1.99-.53.78-.12,1.67-.17,2.66-.17s1.88.06,2.66.17c.78.12,1.44.29,1.99.53.54.24.96.54,1.24.9.29.36.43.79.43,1.28s-.14.92-.43,1.28c-.28.36-.7.66-1.24.9s-1.21.42-1.99.54c-.78.12-1.67.17-2.66.17Zm0-1.93c1.21,0,2.15-.07,2.83-.22.67-.15,1-.4,1-.75s-.33-.6-1-.75c-.67-.15-1.61-.22-2.83-.22s-2.15.07-2.83.22c-.67.15-1,.4-1,.75s.33.6,1,.75c.67.15,1.61.22,2.83.22Zm6-11.96v7.87h-2.48v-4.11l-2.85.65v-2.05l2.85-.65v-1.71h2.48Z"/>
      <path d="m102.02,254.92c0,.79-.08,1.54-.24,2.24l3.88,2.98-1.22,1.84-3.5-2.73c-.4.61-.91,1.15-1.54,1.6-.62.46-1.4.84-2.33,1.14l-1.09-1.84c.63-.22,1.17-.47,1.62-.75.45-.27.81-.62,1.1-1.02.28-.41.49-.89.62-1.45.13-.56.2-1.24.2-2.03v-5.79h2.48v5.81Zm6.87-.97h1.38v1.93h-1.38v6.36h-2.48v-13.26h2.48v4.97Z"/>
      <path d="m116.74,250.26h3.23v1.94h-8.94v-1.94h3.23v-1.63h2.48v1.63Zm2.85,7.47c0,.81-.11,1.51-.33,2.08s-.52,1.04-.89,1.4c-.37.36-.81.63-1.31.79s-1.02.25-1.57.25-1.08-.08-1.57-.25c-.49-.16-.92-.43-1.29-.79-.37-.36-.66-.83-.88-1.4-.22-.57-.32-1.26-.32-2.08s.11-1.49.32-2.07c.22-.58.51-1.04.88-1.4.37-.36.8-.62,1.29-.79.49-.17,1.01-.25,1.57-.25s1.07.08,1.57.25.93.43,1.31.79c.37.36.67.83.89,1.4s.33,1.27.33,2.07Zm-5.7,0c0,.82.14,1.46.41,1.91.27.45.67.67,1.19.67s.89-.22,1.18-.67c.29-.44.44-1.09.44-1.93s-.15-1.46-.44-1.9c-.29-.44-.68-.67-1.18-.67s-.91.22-1.19.67c-.27.45-.41,1.09-.41,1.91Zm9.88-3.77h1.38v1.93h-1.38v6.36h-2.48v-13.26h2.48v4.97Z"/>
      <path d="m131.93,252c0,.37-.04.75-.13,1.14l3.69,2.27-1.28,1.65-3.37-2.08c-.41.48-.95.89-1.61,1.24-.66.35-1.46.64-2.4.85l-1.06-1.74c1.24-.26,2.17-.66,2.77-1.18s.9-1.24.9-2.17v-3.03h2.49v3.05Zm-2.36,6.04v2.6h9.7v1.92h-12.19v-4.52h2.48Zm9.54-9.06v9.47h-2.48v-9.47h2.48Z"/>
      <path d="m145.67,249.37h11.67v8.8h-4.59v2.14h5.37v1.93h-13.22v-1.93h5.37v-2.14h-4.59v-8.8Zm2.49,6.87h6.69v-4.93h-6.69v4.93Z"/>
      <path d="m159.77,255.67h13.22v1.93h-13.22v-1.93Zm3.26,2.86v2.11h9.34v1.93h-11.82v-4.04h2.49Zm9.18-5.85v1.93h-11.51v-5.46h11.35v1.93h-8.86v1.59h9.02Z"/>
      <path d="m181.6,260v-1.71c-1.01-.15-1.78-.48-2.29-1-.52-.52-.78-1.2-.78-2.03,0-.99.37-1.77,1.12-2.32.74-.55,1.83-.82,3.27-.82s2.54.27,3.29.82,1.12,1.32,1.12,2.32c0,.86-.28,1.54-.82,2.06-.55.52-1.36.85-2.42,1v1.68h3.84v1.92h-9.88v-1.92h3.54Zm2.56-10.37h3.54v1.94h-9.58v-1.94h3.55v-1.16h2.48v1.16Zm-1.25,4.43c-.25,0-.5.02-.73.06-.23.04-.44.11-.61.21-.17.09-.31.22-.41.37-.1.15-.15.34-.15.56s.05.41.15.56c.1.15.24.28.41.37.17.09.38.16.61.21.23.04.48.06.73.06s.5-.02.73-.06c.23-.04.44-.11.62-.21.18-.1.32-.22.43-.37.11-.15.16-.34.16-.56s-.06-.41-.17-.56c-.11-.15-.26-.28-.44-.37-.18-.1-.39-.16-.62-.21-.23-.04-.47-.06-.71-.06Zm8.44,8.2h-2.49v-13.26h2.49v13.26Z"/>
      <path d="m196.63,259.59v-1.7h-3.7v-1.94h9.88v1.94h-3.69v1.7h-2.48Zm-3.47-7.53c0-.96.4-1.71,1.19-2.24.79-.53,1.9-.8,3.32-.8,1.13,0,2.06.17,2.79.51.73.34,1.24.82,1.51,1.46l1.76-.4v-1.59h2.49v10.41h-2.49v-6.84l-1.68.38c-.22.7-.71,1.23-1.47,1.6-.76.37-1.73.56-2.91.56-1.42,0-2.53-.27-3.32-.8-.79-.53-1.19-1.28-1.19-2.24Zm2.99,6.63v1.97h10.22v1.92h-12.71v-3.89h2.49Zm-.51-6.63c0,.18.06.34.17.48.12.14.27.26.46.36.19.1.41.17.65.21.24.05.49.07.74.07s.5-.03.75-.08c.25-.05.47-.13.66-.22.19-.1.35-.21.47-.35s.18-.3.18-.48c0-.35-.19-.62-.58-.82s-.88-.3-1.48-.3-1.08.09-1.46.29-.57.47-.57.84Z"/>
      <path d="m213.57,259.66v-2.14h-5.37v-1.93h13.22v1.93h-5.36v2.14h-2.48Zm-2.11-1.14v2.11h9.34v1.93h-11.82v-4.04h2.48Zm.16-8.47h6.38v-.9h2.48v5.46h-11.35v-5.46h2.48v.9Zm6.38,1.86h-6.38v.84h6.38v-.84Z"/>
      <path d="m223.08,254.51h13.22v1.78h-13.22v-1.78Zm9.96,4.55v-.56h-9.18v-1.48h11.66v3.51h-9.18v.56h9.34v1.47h-11.82v-3.51h9.18Zm2.48-7.25v1.93h-11.51v-4.6h11.35v1.93h-8.86v.73h9.02Z"/>
      <path d="m241.11,250.1v-.79h4.58v5.23l1.41-.49v-5.06h2.28v13.26h-2.28v-6.06l-1.41.49v5.41h-2.28v-10.85h-1.74v10.85h-2.28v-10.06h-1.84v-1.93h3.56Zm11.71,12.15h-2.29v-13.26h2.29v13.26Z"/>
      <path d="m57.38,271.04c0,.37-.04.76-.13,1.16l3.53,2.25-1.28,1.65-3.17-2.03c-.4.47-.92.87-1.55,1.22-.63.35-1.41.62-2.34.82l-1.06-1.74c1.23-.26,2.13-.66,2.68-1.19.55-.53.83-1.25.83-2.16v-3.03h2.48v3.05Zm-2.2,6.04v2.6h9.7v1.92h-12.19v-4.52h2.48Zm9.54-9.06v9.47h-2.48v-5.55l-2.85.65v-2.05l2.85-.65v-1.87h2.48Z"/>
      <path d="m71.58,270.56c0,.39-.04.74-.11,1.05l3.1,2.2-1.38,1.71-2.74-1.97c-.74.81-1.78,1.45-3.13,1.92l-1.08-1.84c1.04-.3,1.78-.69,2.21-1.18.43-.49.64-1.13.64-1.91v-2.52h2.48v2.54Zm2.69,11.36c-2.32,0-4.07-.24-5.23-.71-1.17-.47-1.75-1.2-1.75-2.2s.58-1.72,1.75-2.19c1.17-.47,2.91-.7,5.23-.7s4.07.23,5.23.7c1.17.47,1.75,1.2,1.75,2.19s-.58,1.73-1.75,2.2c-1.17.47-2.91.71-5.23.71Zm0-1.93c1.53,0,2.66-.07,3.4-.22.73-.15,1.1-.4,1.1-.75s-.37-.6-1.1-.75c-.73-.15-1.87-.22-3.4-.22s-2.66.07-3.39.22c-.73.15-1.1.4-1.1.75s.37.6,1.1.75c.73.15,1.86.22,3.39.22Zm.7-4.43v-7.53h2.28v2.76l1.39-.49v-2.27h2.3v7.85h-2.3v-3.44l-1.39.49v2.63h-2.28Z"/>
      <path d="m91.43,273.4v1.93h-8.53v-7.15h2.49v5.22h6.05Zm4.16,2.89v5.31h-12.03v-5.31h12.03Zm-9.54,1.92v1.48h7.06v-1.48h-7.06Zm9.54-10.18v7.55h-2.48v-7.55h2.48Z"/>
      <path d="m101.57,270.12v-1.93h6.79v4.63h-4.51v.75h4.67v1.94h-6.95v-4.62h4.51v-.76h-4.51Zm7.36,11.8c-2.32,0-4.07-.24-5.23-.71-1.17-.47-1.75-1.2-1.75-2.2s.58-1.72,1.75-2.19c1.17-.47,2.91-.7,5.23-.7s4.07.23,5.23.7c1.17.47,1.75,1.2,1.75,2.19s-.58,1.73-1.75,2.2c-1.17.47-2.91.71-5.23.71Zm0-1.93c1.53,0,2.66-.07,3.4-.22.73-.15,1.1-.4,1.1-.75s-.37-.6-1.1-.75c-.73-.15-1.87-.22-3.4-.22s-2.66.07-3.39.22c-.73.15-1.1.4-1.1.75s.37.6,1.1.75c.73.15,1.86.22,3.39.22Zm.7-4.43v-7.53h2.28v2.76l1.39-.49v-2.27h2.3v7.85h-2.3v-3.44l-1.39.49v2.63h-2.28Z"/>
      <path d="m123.13,271.75v-1.63h-5.57v-1.93h8.06v7.15h-2.49v-1.65h-5.57v-1.93h5.57Zm1.12,10.17c-.99,0-1.88-.06-2.66-.17-.78-.12-1.44-.3-1.99-.54s-.96-.54-1.24-.9c-.29-.36-.43-.79-.43-1.28s.14-.91.43-1.28c.28-.36.7-.67,1.24-.9.54-.24,1.21-.41,1.99-.53.78-.12,1.67-.17,2.66-.17s1.88.06,2.66.17c.78.12,1.44.29,1.99.53.54.24.96.54,1.24.9.29.36.43.79.43,1.28s-.14.92-.43,1.28c-.28.36-.7.66-1.24.9s-1.21.42-1.99.54c-.78.12-1.67.17-2.66.17Zm0-1.93c1.21,0,2.15-.07,2.83-.22.67-.15,1-.4,1-.75s-.33-.6-1-.75c-.67-.15-1.61-.22-2.83-.22s-2.15.07-2.83.22c-.67.15-1,.4-1,.75s.33.6,1,.75c.67.15,1.61.22,2.83.22Zm6-11.96v7.85h-2.48v-7.85h2.48Z"/>
      <path d="m141.01,268.18v1.93h-3.23v.76c0,.13,0,.25-.02.37-.01.12-.03.24-.05.36l3.53,2.13-1.19,1.68-3.24-1.95c-.8.92-2.13,1.59-3.97,2.01l-1.06-1.74c.58-.13,1.09-.27,1.53-.43s.81-.35,1.1-.57c.3-.22.52-.49.67-.79.15-.31.22-.67.22-1.08v-.75h-3.07v-1.93h8.78Zm4.11,8.1v5.31h-12.03v-5.31h12.03Zm-9.54,1.92v1.48h7.06v-1.48h-7.06Zm9.54-10.18v7.55h-2.48v-3.3l-1.98.44v-1.98l1.98-.44v-2.27h2.48Z"/>
      <path d="m147.11,277.08h13.22v1.94h-5.37v2.76h-2.49v-2.76h-5.37v-1.94Zm8.09-8.68v1.35c0,.56-.11,1.1-.32,1.62l5.41,2.59-1.22,1.74-5.37-2.55c-.59.59-1.34,1.12-2.26,1.57-.91.46-2,.84-3.25,1.14l-.93-1.82c.95-.19,1.77-.44,2.45-.75s1.25-.65,1.69-1.02c.44-.37.76-.78.97-1.2.21-.43.32-.87.32-1.32v-1.33h2.5Z"/>
      <path d="m161.99,274.02h13.22v1.78h-13.22v-1.78Zm9.96,4.27v-.49h-9.18v-1.41h11.67v3.31h-9.18v.49h9.34v1.41h-11.82v-3.31h9.18Zm-.16-8.2v-.51h-8.86v-1.41h11.35v3.33h-8.86v.49h9.02v1.41h-11.51v-3.32h8.86Z"/>
      <path d="m189.45,268.18v1.93h-3.23v1.08c0,.13,0,.25-.02.37-.01.12-.03.24-.05.36l3.53,2.13-1.19,1.68-3.25-1.95c-.8.92-2.13,1.59-3.97,2.01l-1.06-1.75c.58-.13,1.09-.27,1.53-.43.44-.16.8-.35,1.1-.57.29-.22.52-.49.66-.79.15-.31.22-.67.22-1.08v-1.06h-3.07v-1.93h8.78Zm1.63,13.42v-2.92h-9.54v-1.92h12.03v4.84h-2.49Zm2.49-13.58v8.03h-2.49v-3.7l-1.98.44v-1.98l1.98-.44v-2.35h2.49Z"/>
      <path d="m195.75,269.99v-1.81h8.06v4.41h-5.57v.78h5.89v1.81h-8.37v-4.39h5.57v-.79h-5.57Zm3.15,5.88v.94h7.06v-.94h2.49v5.73h-12.03v-5.73h2.48Zm7.06,3.81v-.95h-7.06v.95h7.06Zm2.49-11.66v7.14h-2.49v-7.14h2.49Z"/>
      <path d="m215.58,269.29h2.99v1.94h-8.47v-1.94h2.99v-1.63h2.48v1.63Zm2.61,7.47c0,.81-.1,1.51-.29,2.08s-.47,1.04-.82,1.4c-.35.36-.76.63-1.23.79-.47.16-.98.25-1.53.25s-1.07-.08-1.54-.25c-.46-.16-.87-.43-1.21-.79s-.61-.83-.8-1.4c-.19-.57-.29-1.26-.29-2.08s.1-1.49.29-2.07c.19-.58.46-1.04.8-1.4s.75-.62,1.21-.79c.46-.17.98-.25,1.54-.25s1.06.08,1.53.25c.47.17.88.43,1.23.79.35.36.62.83.82,1.4s.29,1.27.29,2.07Zm-5.43,0c0,.82.13,1.46.4,1.91.26.45.65.67,1.17.67s.88-.22,1.16-.67c.28-.44.42-1.09.42-1.93s-.14-1.46-.42-1.9-.67-.67-1.16-.67-.91.22-1.17.67c-.26.45-.4,1.09-.4,1.91Zm6.47,4.52v-13.26h2.28v5.65l1.47-.52v-5.12h2.29v13.26h-2.29v-6l-1.47.52v5.47h-2.28Z"/>
      <path d="m230.2,279.35h13.22v1.93h-13.22v-1.93Zm12.6-4.08v1.93h-11.82v-8.87h11.66v1.93h-9.18v5h9.34Z"/>
      <path d="m245.29,269.99v-1.81h8.06v4.41h-5.57v.78h5.89v1.81h-8.37v-4.39h5.57v-.79h-5.57Zm3.15,5.88v.94h7.06v-.94h2.49v5.73h-12.03v-5.73h2.48Zm7.06,3.81v-.95h-7.06v.95h7.06Zm2.49-11.66v7.14h-2.49v-7.14h2.49Z"/>
      <path d="m262.65,268.34v10.85h6.05v1.93h-8.53v-12.78h2.48Zm10.21,12.94h-2.49v-13.26h2.49v13.26Z"/>
      <path d="m283.25,268.34v1.93h-5.73v8.91h5.89v1.93h-8.37v-12.78h8.21Zm4,4.65h1.38v1.93h-1.38v6.36h-2.48v-13.26h2.48v4.97Z"/>
      <path d="m290.39,277.94v-9.79h2.49v9.79h-2.49Zm0,3.66v-2.33h2.49v2.33h-2.49Z"/>
    </g>
    <g>
      <path class="cls-7" d="m474.38,108.88s1.26,42.7-9.8,50.48c-11.05,7.79-12.81,18.34-4.77,27.63,10.66,12.33,88.16,2.51,95.19-1.26s7.53-14.82,2.26-20.34c-8.47-8.87-14.32-13.06-17.83-22.86-1.75-4.87-14.32-43.2-14.32-43.2l-50.74,9.54Z"/>
      <path class="cls-7" d="m523.23,93.18c4.34,12.07,10.14,28.94,14.87,40.65,2.04,4.94,3.9,10.11,6.83,14.58,4.56,5.53,10.22,10.27,14.18,16.3.97,1.52,1.83,3.17,2.18,4.95-.46-1.75-1.38-3.33-2.4-4.8-4.26-5.89-9.97-10.4-14.66-15.94-3.05-4.56-4.94-9.71-7.06-14.72-5.25-13.47-9.84-27.17-13.94-41.02h0Z"/>
      <path class="cls-7" d="m475.6,108.63c-.13,11.5-1.1,23.03-3.71,34.26-1.03,4.21-2.33,8.44-4.61,12.17-3.07,4.95-8.99,7.33-12.31,12.01-.72,1.22-.53,2.75-.1,4.1-1.56-3.13.27-5.59,2.59-7.61,0,0,6.38-5.78,6.38-5.78,2.14-1.83,3.46-4.38,4.54-6.99,4.98-13.43,6-27.98,7.21-42.16h0Z"/>
    </g>
    <path class="cls-1" d="m563.05,205.28c0-24.98-24.29-45.23-54.25-45.23s-54.25,20.25-54.25,45.23c0,0,18.2,30.32,15.56,56.06-1.47,14.38-10.75,47.47-10.75,47.47,33.25,7.46,66.43,7.39,99.54-.31,0,0-13.2-48.66-14.2-53.69-.5-20.34,18.34-49.53,18.34-49.53Z"/>
    <g class="cls-9">
      <path class="cls-5" d="m482.92,161.75s3.9,18.89,10.13,24.51c6.24,5.61,12.47-4.99,12.47-4.99,0,0,7.48,8.73,12.78,7.17,5.3-1.56,14.65-20.58,14.03-25.57"/>
      <path class="cls-7" d="m507.25,190.38c0,.83-.67,1.5-1.5,1.5s-1.5-.67-1.5-1.5.67-1.5,1.5-1.5,1.5.67,1.5,1.5Z"/>
      <path class="cls-7" d="m507.25,201.87c0,.83-.67,1.5-1.5,1.5s-1.5-.67-1.5-1.5.67-1.5,1.5-1.5,1.5.67,1.5,1.5Z"/>
    </g>
    <g>
      <path class="cls-11" d="m493.83,139.65s-1.09,20.11-4.21,23.54c0,0,3.74,15.9,18.24,15.59,14.5-.31,18.71-16.21,18.71-16.21-.14.33-10.09-25.23-10.76-29.78-.49-3.32-21.98,6.86-21.98,6.86Z"/>
      <g class="cls-6">
        <path class="cls-7" d="m486.72,120.45c0,18.08,8.03,29.93,17.94,29.93s17.94-11.85,17.94-29.93-7.91-26.35-17.82-26.35-18.06,8.27-18.06,26.35Z"/>
      </g>
    </g>
    <g>
      <path class="cls-7" d="m481.29,86.84s-15.57-5.27-18.33,11.05c-2.01,11.9,12.56,16.58,12.56,16.58l5.78-27.63Z"/>
      <g>
        <path class="cls-11" d="m476.11,119.25c3.26,17.78,16.55,27.4,30.31,24.87,13.76-2.52,22.78-16.22,19.52-34.01-3.26-17.78-15.74-23.9-29.5-21.38-13.76,2.52-23.59,12.73-20.33,30.51Z"/>
        <g>
          <path class="cls-7" d="m503.46,124.16s-.03,0-.04,0l-4.52-.44c-.19-.02-.34-.16-.37-.34-.03-.19.06-.37.23-.45.6-.29.95-.69,1.09-1.24.41-1.69-1.37-4.1-1.39-4.12-.14-.19-.1-.45.08-.59.19-.14.45-.1.59.08.08.11,2.04,2.75,1.53,4.82-.1.43-.3.8-.59,1.11l3.43.33c.23.02.4.23.38.46-.02.22-.2.38-.42.38Z"/>
          <g>
            <path class="cls-7" d="m504.32,107.23c-.21,0-.41-.08-.57-.23-.34-.32-.35-.85-.04-1.18,3.44-3.66,7.38-1.78,8.99-.28.34.32.35.85.04,1.18-.32.34-.85.35-1.18.04-.35-.33-3.52-3.09-6.62.2-.16.18-.39.26-.61.26Z"/>
            <path class="cls-7" d="m486.13,111.75c-.12,0-.25-.03-.37-.08-.42-.2-.59-.7-.39-1.12.03-.06.71-1.43,2.07-2.48,1.31-1,3.48-1.89,6.43-.45.42.2.59.7.39,1.12-.2.42-.7.59-1.12.39-4.16-2.03-6.18,1.98-6.26,2.15-.15.3-.44.47-.75.47Z"/>
          </g>
          <g>
            <path class="cls-7" d="m491.88,116.4c.27,1.41-.16,2.68-.97,2.84-.81.16-1.68-.86-1.96-2.27-.27-1.41.16-2.68.97-2.84s1.68.86,1.96,2.27Z"/>
            <path class="cls-7" d="m510.08,112.87c.27,1.41-.16,2.68-.97,2.84-.81.16-1.68-.86-1.96-2.27-.27-1.41.16-2.68.97-2.84.81-.16,1.68.86,1.96,2.27Z"/>
          </g>
        </g>
        <path class="cls-5" d="m497.53,128.42s3.28-.94,9.98-1.82c0,0,.56,7.12-4.15,7.74-4.71.62-5.83-5.92-5.83-5.92Z"/>
        <g>
          <g>
            <path class="cls-11" d="m520.16,113.08c.71,3.87,4.42,6.44,8.3,5.73,3.87-.71,6.44-4.42,5.73-8.3-.71-3.87-4.42-6.44-8.3-5.73-3.87.71-6.44,4.42-5.73,8.3Z"/>
            <path class="cls-7" d="m525.81,115.06c-.08,0-.15-.03-.22-.08-1.87-1.58-2.11-4.38-.53-6.26.76-.91,1.84-1.46,3.02-1.56,1.19-.1,2.33.27,3.24,1.03.14.12.16.33.04.47-.12.14-.33.16-.47.04-.77-.65-1.75-.96-2.75-.87-1,.09-1.91.56-2.56,1.33-1.16,1.38-1.16,3.35-.11,4.72.05-.73.25-1.77.96-2.57.67-.76,1.65-1.14,2.91-1.14.2,0,.36.14.36.34,0,.19-.15.33-.34.33,0,0-.02,0-.02,0-1.06,0-1.86.31-2.4.92-1,1.12-.79,2.91-.79,2.93.02.14-.05.27-.17.34-.05.03-.11.04-.16.04Z"/>
          </g>
          <g>
            <path class="cls-11" d="m482.56,119.97c.71,3.87-1.85,7.59-5.73,8.3-3.87.71-7.59-1.85-8.3-5.73s1.85-7.59,5.73-8.3c3.87-.71,7.59,1.85,8.3,5.73Z"/>
            <path class="cls-7" d="m477.85,123.85s-.03,0-.04,0c-.14-.02-.25-.12-.28-.25,0-.02-.45-1.77-1.78-2.47-.72-.38-1.59-.38-2.59,0-.17.07-.37-.02-.43-.19-.07-.17.02-.37.19-.43,1.18-.45,2.24-.44,3.15.03.95.5,1.51,1.4,1.81,2.06.5-1.66-.21-3.5-1.78-4.37-1.82-1.01-4.11-.35-5.12,1.46-.09.16-.3.22-.46.13-.16-.09-.22-.3-.13-.46,1.19-2.14,3.9-2.91,6.04-1.72,2.14,1.19,2.91,3.9,1.72,6.04-.06.11-.17.17-.29.17Z"/>
          </g>
        </g>
      </g>
      <path class="cls-7" d="m473.95,113.94l4.16,3.68s.12-14.36,4.05-21.42c0,0,10.55,14.32,37.38,7.96,1.98-.47,3.38,6.35,3.38,6.35,0,0,3.11-5.48,4.47-5.89,0,0-2.81-28.33-31.71-24.3-27.18,3.79-21.73,33.62-21.73,33.62Z"/>
      <path class="cls-5" d="m480.69,129.11c.29,1.57-.78,3.08-2.39,3.37-1.61.29-3.15-.74-3.43-2.3s.78-3.08,2.39-3.37c1.61-.29,3.15.74,3.43,2.3Z"/>
      <path class="cls-5" d="m530.99,119.89c.29,1.57-.78,3.08-2.39,3.37-1.61.29-3.15-.74-3.43-2.3s.78-3.08,2.39-3.37c1.61-.29,3.15.74,3.43,2.3Z"/>
      <path class="cls-7" d="m481.29,86.84c-2.69-1.55-5.96-2.44-9.02-1.76-6.01,1.54-9.82,8.23-9.96,14.18-.02,3.14.91,6.28,2.53,8.98-1.99-2.51-3.16-5.7-3.3-8.97-.19-4.93,2.27-9.84,6.08-12.92,3.92-3.27,9.91-2.53,13.67.48h0Z"/>
    </g>
    <g>
      <rect class="cls-10" x="474.07" y="209.79" width="62.54" height="88.72"/>
      <rect class="cls-14" x="474.07" y="209.79" width="6.45" height="88.72"/>
      <text class="cls-4" transform="translate(490.71 229.69)"><tspan class="cls-17" x="0" y="0">L</tspan><tspan class="cls-8" x="3.71" y="0">esson 2</tspan></text>
    </g>
    <g>
      <path class="cls-11" d="m501.02,287.2c-9.3,3.36-14.48,3.94-14.48,3.94l-11.22,2.83c-1.39.35-2.82-.43-3.27-1.8h0c-.45-1.35.22-2.82,1.53-3.38l6.84-2.89-7.56,1.4c-1.43.27-2.82-.63-3.16-2.05l-.32-1.31c-.37-1.52.61-3.03,2.14-3.33l6.81-1.33-7.85-1.14c-1.32-.19-2.31-1.31-2.34-2.65l-.02-.9c-.03-1.41,1.01-2.61,2.41-2.78l8.02-.95-8.29-.94c-1.36-.15-2.4-1.29-2.43-2.67l-.03-1.63c-.03-1.61,1.33-2.9,2.93-2.78l17.65,1.29-9.19-5.91c-1.89-.98-2.15-3.58-.48-4.91h0c.76-.61,1.78-.79,2.71-.5,4.58,1.45,18.67,7.09,23.32,11.55,5.61,5.37,5.58,19.46-3.72,22.83Z"/>
      <path class="cls-11" d="m562.79,201.69s13.75,71.02,11.11,78.17c-2.64,7.16-75.91,6.97-75.91,6.97l.75-24.11,46.15-5.09-3.58-30.33,21.47-25.62Z"/>
      <polygon class="cls-1" points="562.04 196.54 567.71 227.06 540.19 235.47 539.34 225.06 562.04 196.54"/>
    </g>
    <path class="cls-13" d="m557.14,255.56s-7.91.94-12.24,2.07"/>
    <g>
      <path class="cls-11" d="m454.23,201.43s-15.02,52.25-15.77,49.99c-.75-2.26-29.76-40.69-29.76-40.69l-18.08,10.93s18.61,33.26,25.81,47.66c14.13,28.26,40.12,18.27,46.53-6.97,6.4-25.24,7.86-29.64,7.86-29.64l-16.58-31.27Z"/>
      <path class="cls-11" d="m388.17,220.52c-7.53-6.4-10.6-10.62-10.6-10.62l-8.13-8.44c-.94-.98-.97-2.51-.06-3.52l.19-.21c.9-1,2.41-1.14,3.48-.33l6.02,4.59-7.85-11.13c-.7-.98-.62-2.32.19-3.22h0c1.06-1.18,2.92-1.13,3.92.09l8.27,10.1-7.83-15.67c-.5-.99-.3-2.19.48-2.98l.27-.27c1.14-1.14,3.03-.97,3.94.35l10.72,15.24-6.17-14.8c-.56-1.4.2-2.98,1.64-3.43l.05-.02c1.24-.38,2.57.22,3.11,1.4l12.11,20.42.57-10.91c-.09-2.13,2.04-3.64,4.02-2.85h0c.91.36,1.57,1.15,1.78,2.1,1.02,4.7,3.1,19.73,1.54,25.97-1.88,7.53-14.13,14.5-21.66,8.1Z"/>
      <line class="cls-13" x1="449.01" y1="268.75" x2="438.46" y2="251.42"/>
      <polygon class="cls-1" points="456.17 194.15 446.25 229.19 470.65 238.44 471.62 226.93 456.17 194.15"/>
      <path class="cls-13" d="m378.18,205.83s10.05-9.8,17.58-11.3"/>
    </g>
    <path class="cls-7" d="m566.45,349.93l-8.55-44.63-93.43-4.9-5.09,8.41s-8.47,24.37-8.85,39.44c-.02.61.18,1.17.53,1.69h115.4Z"/>
  </g>
</svg>