<?xml version="1.0" encoding="UTF-8"?>
<svg id="_레이어_2" data-name="레이어 2" xmlns="http://www.w3.org/2000/svg" xmlns:xlink="http://www.w3.org/1999/xlink" viewBox="0 0 650 350">
  <defs>
    <style>
      .cls-1 {
        fill: #fff;
      }

      .cls-2 {
        fill: #e5c028;
      }

      .cls-3 {
        fill: #3a6bea;
      }

      .cls-4 {
        fill: #e49b31;
      }

      .cls-5 {
        fill: #254768;
      }

      .cls-6 {
        fill: #1f3c88;
      }

      .cls-7 {
        fill: #3fa18f;
      }

      .cls-8 {
        fill: #51a8bc;
      }

      .cls-9 {
        opacity: .8;
      }

      .cls-10 {
        fill: #2f5481;
      }

      .cls-11 {
        fill: #54d6be;
      }

      .cls-12 {
        fill: #bdccd4;
      }

      .cls-13 {
        fill: #fcc5a7;
      }

      .cls-14 {
        fill: #eb5d60;
        opacity: .4;
      }

      .cls-15 {
        fill: #e5e5e5;
      }

      .cls-16 {
        fill: #e28b6d;
      }

      .cls-17 {
        clip-path: url(#clippath);
      }

      .cls-18 {
        fill: #d3d599;
      }

      .cls-19 {
        fill: #102048;
      }

      .cls-20 {
        fill: #f7eae2;
      }

      .cls-21 {
        fill: #13416b;
      }

      .cls-22 {
        fill: #fbc343;
      }

      .cls-23 {
        fill: #f7d131;
      }

      .cls-24 {
        fill: #d3dfff;
      }

      .cls-25 {
        fill: #f9b384;
      }
    </style>
    <clipPath id="clippath">
      <path class="cls-23" d="m168.75,68.97c0-2.57.83-5.57.34-8.07-2.35.6-4.78,2.53-6.89,3.7-2.45,1.35-4.74,2.97-7.26,4.17.26.31,4.04,3.06,4.02,3.1,0,.53-1.21,1.9-1.54,2.42-.67,1.05-1.34,2.1-2.01,3.15-1.29,2.02-2.57,4.04-3.86,6.06-2.57,4.04-5.14,8.08-7.71,12.12-5.09,8-10.18,16-15.27,24-3.65,5.73-7.29,11.47-10.94,17.2.59-.9-8.96-9.45-9.8-10.25-7.85-7.52-15.38-15.37-23-23.12-.47-.48-1.03-.99-1.69-.93-.65.06-1.11.63-1.49,1.16-3.57,4.96-7.13,9.92-10.7,14.87,0,0,0,0,0,0-1.17-1.37-4.84-5.3-5.72-6.26-1.83-2-3.14-3.44-4.97-5.45-1.62-1.78-3.87-4.24-5.48-6.01-1.12-1.23-.99-.89-2.62.73-1.04,1.04-2.18,1.97-3.24,3,3.65,4.04,7.33,8.05,11.01,12.07,1.99,2.18,4.09,4.28,6.13,6.41,1.31,1.37,4.3,6.32,6.04,5.61,2.16-.87,4.25-5.88,5.6-7.72,2.09-2.85,4.18-5.7,6.27-8.56l33.77,34.28c.14.15.31.27.5.34.76.3,1.18-.28,1.51-.79,11.84-18.6,23.68-37.2,35.53-55.81,3.07-4.82,6.14-9.64,9.2-14.46.91.7,1.73,1.56,2.71,2.16,1.9,1.17,1.23-3.11,1.28-3.99.09-1.72.29-3.46.29-5.17Z"/>
    </clipPath>
  </defs>
  <g id="_레이어_1-2" data-name="레이어 1">
    <g>
      <rect class="cls-18" width="650" height="350" rx="35.94" ry="35.94"/>
      <rect class="cls-1" x="33.07" y="34" width="185" height="185" rx="30.25" ry="30.25"/>
      <ellipse class="cls-8" cx="179.92" cy="150.75" rx="20.83" ry="1.36"/>
      <ellipse class="cls-8" cx="119.32" cy="150.37" rx="20.83" ry="1.36"/>
      <path class="cls-5" d="m181,83.39s-8.36-3.87-8.58-4.1c-.21-.24-5.71-8.08-6.31-7.95-.6.13-1.41,2.13-1.41,2.13,0,0,5.56,8.74,5.89,9.08.33.34,7.09,4.43,7.61,4.26.52-.17,2.79-3.42,2.79-3.42Z"/>
      <g>
        <path class="cls-23" d="m168.75,68.97c0-2.57.83-5.57.34-8.07-2.35.6-4.78,2.53-6.89,3.7-2.45,1.35-4.74,2.97-7.26,4.17.26.31,4.04,3.06,4.02,3.1,0,.53-1.21,1.9-1.54,2.42-.67,1.05-1.34,2.1-2.01,3.15-1.29,2.02-2.57,4.04-3.86,6.06-2.57,4.04-5.14,8.08-7.71,12.12-5.09,8-10.18,16-15.27,24-3.65,5.73-7.29,11.47-10.94,17.2.59-.9-8.96-9.45-9.8-10.25-7.85-7.52-15.38-15.37-23-23.12-.47-.48-1.03-.99-1.69-.93-.65.06-1.11.63-1.49,1.16-3.57,4.96-7.13,9.92-10.7,14.87,0,0,0,0,0,0-1.17-1.37-4.84-5.3-5.72-6.26-1.83-2-3.14-3.44-4.97-5.45-1.62-1.78-3.87-4.24-5.48-6.01-1.12-1.23-.99-.89-2.62.73-1.04,1.04-2.18,1.97-3.24,3,3.65,4.04,7.33,8.05,11.01,12.07,1.99,2.18,4.09,4.28,6.13,6.41,1.31,1.37,4.3,6.32,6.04,5.61,2.16-.87,4.25-5.88,5.6-7.72,2.09-2.85,4.18-5.7,6.27-8.56l33.77,34.28c.14.15.31.27.5.34.76.3,1.18-.28,1.51-.79,11.84-18.6,23.68-37.2,35.53-55.81,3.07-4.82,6.14-9.64,9.2-14.46.91.7,1.73,1.56,2.71,2.16,1.9,1.17,1.23-3.11,1.28-3.99.09-1.72.29-3.46.29-5.17Z"/>
        <g class="cls-17">
          <path class="cls-2" d="m168.68,60.58s-1.07,7-1.12,7.77c-.05.78-1.05,7.96-1.3,7.56s-2.49-1.53-2.73-1.44c-.24.1-24.16,37.25-24.65,38.75-.49,1.5-19.86,30.37-20.34,30.37s-33.62-33.47-34.35-33.42c-.73.04-11.94,16.37-12.67,16.13-.73-.24-22.04-25.34-22.6-24.85-.55.49-3.72,2.91-2.38,4.2,1.34,1.29,22.78,25.65,24.61,25.41,1.83-.24,2.07.12,2.68-.37.61-.49,9.38-15.11,9.87-14.98.49.12,34.23,34.24,35.57,33.69,1.34-.55,2.44-1.94,2.68-1.92s42.75-69.29,42.75-69.29c0,0,3.75,2.07,4.06,1.63.32-.45.64-1.88.85-2.97s.98-16.42.71-16.47c-.27-.05-1.64.22-1.64.22Z"/>
        </g>
      </g>
      <g>
        <path class="cls-5" d="m178.04,100.42s-8.58,1.86-9.34,3.96c-.76,2.1,1.29,15.98,1.52,16.11.23.13.57,0,.57,0l.08.44s-2.25,2.49-2.19,2.72,4.09-2,4.09-2.19-2.29-15.58-2.06-16.1c.22-.52,7.33-4.93,7.33-4.93Z"/>
        <path class="cls-1" d="m183.46,117.5s-.78-15.11-5.76-15.04c-8.01.11-1.34,16.49-1.34,16.49l7.1-1.45Z"/>
        <g>
          <path class="cls-1" d="m177.17,103.63c.15-1.97-.05-4.11-.34-5.53-.51-2.5-2.11-4.28-3.59-3.98-1.48.3-2.26,2.57-1.75,5.06.08.38.18.74.3,1.07.49,1.35,1.9,2.14,3.31,1.86l.24,1.89,1.84-.37Z"/>
          <path class="cls-5" d="m177.78,95.32c-.08-1.89-2.99-2.88-3.04-2.55-.05.33.48.7.4.7-.08,0-2.44-1.07-3.05-.63s.59.46.46.54c-.13.08-2.14,0-2.48.47-.34.48.78.33.78.33,0,0-1.63.53-1.6,1.5.01.45,1.63.76,2.69.58,0,0,.54-.14,1.28-.19,0,0,1.39,3.29,2.54,3.68s1.37.3,1.37.3c0,0,.73-3.4.67-4.72Z"/>
          <path class="cls-1" d="m175.49,98.23c0,.43-.29.78-.64.77-.34,0-.61-.36-.61-.8,0-.43.29-.78.64-.77.34,0,.61.36.61.8Z"/>
          <path class="cls-10" d="m172.61,97.87c.01.25-.13.46-.32.47s-.36-.18-.37-.43c-.01-.25.13-.46.32-.47s.36.18.37.43Z"/>
          <path class="cls-10" d="m172.47,101.19s-.03,0-.05-.01c-.06-.03-.09-.1-.06-.16.01-.03.32-.66.85-.72.07,0,.13.04.13.11,0,.07-.04.13-.11.13-.4.04-.66.58-.66.58-.02.04-.06.07-.11.07Z"/>
          <path class="cls-10" d="m171.98,97.25c-.29,0-.43-.15-.44-.16-.05-.05-.04-.13,0-.17.05-.04.12-.04.17,0,.01.01.25.23.84-.11.06-.03.13-.01.16.04.03.06.01.13-.04.16-.29.17-.52.22-.69.22Z"/>
        </g>
        <path class="cls-5" d="m175.76,147.24s.02,1.25-.06,1.3c-.08.05-3.82,1.75-3.53,2.14.14.2,6.09-.07,6.11-.36.02-.29-.45-3.08-.45-3.08h-2.06Z"/>
        <path class="cls-5" d="m190.49,146.33l-2.03.37s.24,1.22.17,1.29c-.03.03-.62.44-1.28.95h0c-1.04.46-2.18,1.02-2.03,1.25.06.1,1.52.17,3,.18,1.5-.35,3.19-.94,3.18-1.09-.04-.29-1-2.95-1-2.95Z"/>
        <path class="cls-5" d="m176.19,118.48s-1.74,12.74-1.83,14.48c-.09,1.74.87,14.31.91,14.41.04.1,2.8.19,2.87-.15.07-.34.32-13.27.45-13.62.13-.34,3.43-14.59,3.34-14.94-.09-.34-5.75-.18-5.75-.18Z"/>
        <path class="cls-10" d="m176.19,118.48s11.35,28.09,12.13,28.86c.38.38,2.63-.2,2.63-.36s-6.37-22.73-6.31-22.98c.06-.25,1.41-3.94-1.1-5.52h-7.35Z"/>
        <g>
          <path class="cls-10" d="m177.22,102.46s-1.49.29-1.66,1.15c-.17.86,3.53,16.23,4.4,16.89s5.89-.26,6.1-.55-2.21-6.91-2.58-8.22c-.37-1.31-1.61-9.81-6.26-9.26Z"/>
          <path class="cls-5" d="m179.11,118.44s.85,2.41,1.7,2.47c.85.06,4.06-.61,4.06-.61,0,0,.1.39.12.55,0,0-3.19,1.05-4.47.76-1.29-.3-1.92-3.16-1.92-3.16h.5Z"/>
        </g>
        <path class="cls-1" d="m171.33,97.78s-.47,2.3-.18,2.36c.29.06.66-.39.66-.39l-.48-1.97Z"/>
        <polygon class="cls-5" points="175.98 106.14 181.08 104.69 181.46 105.33 176.14 106.92 175.98 106.14"/>
        <g>
          <path class="cls-5" d="m171.34,119.82s.3,1.21.22,1.28-3.34,2.55-2.96,2.87c.18.16,5.92-1.41,5.88-1.7-.05-.28-1.13-2.91-1.13-2.91l-2.01.46Z"/>
          <path class="cls-10" d="m177.3,97.2s.49,3.12.53,3.35c.04.24-8.22,2.79-8.22,4.28s1.09,15.85,1.76,15.9c.67.04,2.82.45,2.44-.69-.05-.16-.23-13.26.19-13.38,1.65-.48,10.9-2.74,11.42-3.91,1.18-2.65-.88-5.56-.88-5.56h-7.25Z"/>
        </g>
        <g>
          <g>
            <path class="cls-1" d="m184.55,97.2s2.26-14.96-2.64-15.89c-7.87-1.49-4.61,15.89-4.61,15.89h7.25Z"/>
            <path class="cls-10" d="m181.45,81.22s-1.52-.02-1.86.79c-.34.81.21,16.61.93,17.42.72.82,5.82.92,6.09.68.27-.24-.78-7.21-.88-8.57-.1-1.36.39-9.94-4.28-10.33Z"/>
            <g>
              <g>
                <path class="cls-1" d="m180.72,83.34c.94-1.73,1.63-3.77,1.95-5.18.56-2.49-.18-4.77-1.65-5.1-1.47-.33-3.11,1.42-3.67,3.9-.08.37-.14.74-.17,1.1-.11,1.44.86,2.73,2.26,3.05l-.56,1.82,1.83.41Z"/>
                <path class="cls-23" d="m184.68,76.01c-.3,1.29-2.54,4.03-2.54,4.03,0,0-.24,0-1.13-.83-.88-.83-.81-4.4-.81-4.4,0,0-2.13-.58-2.36-1.84-.24-1.25.3-2.69.46-2.65.15.05.01.73.21.86.2.13.55-1.39,1-1.18.44.21-.09.75.11.91.2.16.84-1.1,1.38-.74.54.36-.36.99-.07,1.16.29.17,4.35,2.05,3.76,4.66Z"/>
                <path class="cls-1" d="m181.4,77.72c-.18.39-.59.59-.9.44-.31-.15-.41-.58-.23-.97.18-.39.59-.59.9-.44.31.15.41.58.23.97Z"/>
                <path class="cls-10" d="m178.92,76.21c-.09.23-.3.36-.48.3-.18-.07-.25-.31-.16-.54.09-.23.3-.36.48-.3.18.07.25.31.16.54Z"/>
                <path class="cls-10" d="m177.48,79.2s-.07-.01-.09-.04c-.04-.05-.04-.13.01-.17.02-.02.56-.47,1.07-.31.06.02.1.09.08.15-.02.06-.09.1-.15.08-.38-.12-.83.26-.84.26-.02.02-.05.03-.08.03Z"/>
                <path class="cls-10" d="m179.3,75.48s-.06-.01-.09-.04c-.39-.39-.8-.3-.82-.29-.06.02-.13-.02-.15-.09-.02-.06.02-.13.09-.15.02,0,.56-.14,1.05.36.05.05.05.12,0,.17-.02.02-.05.03-.08.03Z"/>
              </g>
              <path class="cls-1" d="m177.77,75.65s-1.49,1.81-1.28,1.87c.21.06.86,0,.86,0l.42-1.87Z"/>
            </g>
          </g>
          <path class="cls-10" d="m181.68,81.27s-12.29,1.33-12.61,1.33-7.97-7.88-8.25-7.73c-.28.15-1.47,1.95-1.39,2.19.08.24,7.33,9.56,8.41,9.8,1.08.24,14.03-.32,14.27-.6.24-.28-.42-5-.42-5Z"/>
          <path class="cls-5" d="m179.52,86.54s2.8-.31,2.82-.11c.02.2-2.78,1.72-2.78,1.72l-.04-1.61Z"/>
        </g>
        <path class="cls-23" d="m176.79,86.7s-1.18,4.34-1.21,4.99c-.03.65.85,2.59,1.05,2.59s1.69-2.21,1.78-2.47c.09-.27,0-5.2,0-5.2l-1.62.09Z"/>
        <path class="cls-1" d="m160.54,75.17s-.97-2.03-1.19-2.09c-.22-.06-.32.3-.24.53.07.23.27.76.21.85-.06.08-1.18-.99-1.47-.97-.29.02-1.22,1.35-1.02,1.72.2.38,2.46,1.62,2.66,1.62.19,0,.77-1.37,1.06-1.66Z"/>
        <path class="cls-10" d="m177.7,105.65s3.24,4.38,3.2,4.53c-.04.15-10.82,1.38-10.77,1.87.04.49.47,2.26.93,2.35.47.09,12.97-.97,14.01-1.37,1.59-.61.33-2.68-.26-4-.4-.9-3.01-4.56-3.01-4.56l-4.1,1.19Z"/>
        <polygon class="cls-5" points="177.22 106.59 180.9 110.18 177.7 105.65 177.22 106.59"/>
        <polygon class="cls-5" points="173.76 114.24 171.78 114.4 173.74 114.9 173.76 114.24"/>
        <path class="cls-1" d="m171.15,112.04s-1.42-.48-1.54-.39c-.11.09-.64.47-.64.47,0,0,0,0,0,0-.14.03-.23.07-.24.13-.07.29.3,2.08.52,2.32.22.24,2.31-.36,2.45-.59,0,0-.37-1.92-.55-1.93Z"/>
        <path class="cls-5" d="m177.82,113.89l6.15-.66s.54,1.28.45,1.31c-.09.04-6.44,0-6.44,0l-.16-.65Z"/>
        <path class="cls-5" d="m177.7,105.65l4.1-1.19.35.5s-4.26,1.43-4.28,1.39c-.02-.04-.17-.7-.17-.7Z"/>
        <path class="cls-5" d="m180.09,97.2s-.11,2.22.76,2.64c.87.41,4.94.38,4.94.38v.59s-4.62-.02-5.39-.58c-.76-.57-.84-3.03-.84-3.03h.53Z"/>
      </g>
      <g>
        <path d="m71.89,180.63v-2.68h9.44v6.42h-6.27v1.04h6.49v2.68h-9.66v-6.4h6.27v-1.06h-6.27Zm10.23,16.37c-3.23,0-5.65-.33-7.27-.98-1.62-.65-2.43-1.67-2.43-3.05s.81-2.39,2.43-3.04c1.62-.64,4.04-.97,7.27-.97s5.65.32,7.27.97c1.62.65,2.43,1.66,2.43,3.04s-.81,2.39-2.43,3.05c-1.62.65-4.04.98-7.27.98Zm0-2.68c2.13,0,3.7-.1,4.72-.31s1.53-.55,1.53-1.03-.51-.83-1.53-1.03c-1.02-.21-2.59-.31-4.72-.31s-3.7.1-4.72.31c-1.02.21-1.53.55-1.53,1.03s.51.83,1.53,1.03,2.59.31,4.72.31Zm.97-6.14v-10.45h3.17v3.83l1.94-.68v-3.15h3.19v10.89h-3.19v-4.77l-1.94.68v3.65h-3.17Z"/>
        <path d="m101.86,182.89v-2.27h-7.74v-2.68h11.2v9.92h-3.45v-2.29h-7.74v-2.68h7.74Zm1.56,14.1c-1.38,0-2.61-.08-3.7-.24-1.09-.16-2.01-.41-2.76-.75-.76-.34-1.33-.76-1.73-1.25-.4-.5-.59-1.09-.59-1.78s.2-1.26.59-1.77c.4-.51.97-.92,1.73-1.25.75-.33,1.67-.58,2.76-.74,1.08-.16,2.32-.24,3.7-.24s2.61.08,3.7.24c1.09.16,2.01.41,2.76.74.75.33,1.33.75,1.73,1.25.4.51.59,1.1.59,1.77s-.2,1.28-.59,1.78c-.4.5-.97.92-1.73,1.25-.76.34-1.68.59-2.76.75-1.08.16-2.32.24-3.7.24Zm0-2.68c1.69,0,3-.1,3.93-.31.93-.21,1.4-.55,1.4-1.03s-.47-.83-1.4-1.03c-.93-.21-2.24-.31-3.93-.31s-3,.1-3.93.31c-.93.21-1.4.55-1.4,1.03s.46.83,1.4,1.03,2.24.31,3.93.31Zm8.34-16.59v10.89h-3.45v-10.89h3.45Z"/>
        <path d="m119.79,185.03h18.37v2.68h-18.37v-2.68Zm1.08,11.53v-7.9h3.45v1.23h9.31v-1.23h3.45v7.9h-16.21Zm12.54-15.93h-12.32v-2.68h15.77v6.05h-3.45v-3.37Zm.22,13.24v-1.3h-9.31v1.3h9.31Z"/>
        <path d="m148.19,181.02c0,.51-.06,1.05-.18,1.61l4.91,3.12-1.78,2.29-4.4-2.82c-.56.65-1.28,1.21-2.16,1.69s-1.97.87-3.26,1.14l-1.47-2.42c1.72-.37,2.96-.92,3.73-1.65.77-.73,1.16-1.73,1.16-2.99v-3.32h3.45v3.34Zm1.54,15.97c-1.32,0-2.5-.08-3.55-.24-1.05-.16-1.94-.41-2.66-.75-.73-.34-1.28-.76-1.66-1.25-.38-.5-.57-1.09-.57-1.78s.19-1.26.57-1.77c.38-.51.93-.92,1.66-1.25.73-.33,1.61-.58,2.66-.74,1.05-.16,2.23-.24,3.55-.24s2.5.08,3.55.24,1.94.41,2.66.74c.73.33,1.28.75,1.66,1.25.38.51.57,1.1.57,1.77s-.19,1.28-.57,1.78c-.38.5-.94.92-1.66,1.25-.73.34-1.61.59-2.66.75-1.05.16-2.23.24-3.55.24Zm0-2.68c1.57,0,2.79-.1,3.67-.31s1.32-.55,1.32-1.03-.44-.83-1.32-1.03c-.88-.21-2.1-.31-3.67-.31s-2.79.1-3.67.31c-.88.21-1.32.55-1.32,1.03s.44.83,1.32,1.03c.88.21,2.1.31,3.67.31Zm8.01-10.45v4.55h-3.45v-10.69h3.45v3.45h1.91v2.68h-1.91Z"/>
        <path d="m161.14,185.78h18.37v2.68h-18.37v-2.68Zm.66-3.41c1.41-.22,2.57-.49,3.49-.8.92-.31,1.64-.66,2.18-1.02s.91-.75,1.12-1.16c.21-.4.32-.81.32-1.22v-.66h3.48v.66c0,.65-.15,1.28-.44,1.91l6.71,2.22-1.21,2.35-7.41-2.42c-.78.56-1.75,1.05-2.93,1.48-1.17.43-2.58.77-4.22,1.02l-1.08-2.38Zm8.54,14.63c-1.32,0-2.5-.07-3.53-.2-1.03-.13-1.91-.34-2.62-.63-.71-.29-1.25-.66-1.63-1.13-.37-.47-.56-1.05-.56-1.74s.19-1.25.56-1.72c.37-.47.92-.85,1.63-1.14.71-.29,1.58-.5,2.62-.63,1.03-.12,2.21-.19,3.53-.19s2.5.06,3.53.19c1.03.12,1.91.33,2.62.63.71.29,1.25.68,1.63,1.14s.56,1.04.56,1.72-.19,1.27-.56,1.74c-.37.47-.92.85-1.63,1.13-.71.29-1.58.5-2.62.63s-2.21.2-3.53.2Zm0-2.68c1.69,0,2.92-.07,3.71-.22s1.18-.41,1.18-.79-.39-.65-1.18-.79-2.02-.22-3.71-.22-2.92.07-3.71.22-1.18.41-1.18.79.39.65,1.18.79,2.02.22,3.71.22Z"/>
      </g>
      <rect class="cls-1" x="232.7" y="34" width="185" height="185" rx="30.25" ry="30.25"/>
      <g>
        <path d="m292.71,181.02c0,.51-.06,1.05-.18,1.61l4.91,3.12-1.78,2.29-4.4-2.82c-.56.65-1.28,1.21-2.16,1.69-.88.48-1.96.87-3.26,1.14l-1.47-2.42c1.72-.37,2.96-.92,3.73-1.65.77-.73,1.16-1.73,1.16-2.99v-3.32h3.45v3.34Zm1.54,15.97c-1.32,0-2.5-.08-3.55-.24-1.05-.16-1.94-.41-2.66-.75-.73-.34-1.28-.76-1.66-1.25-.38-.5-.57-1.09-.57-1.78s.19-1.26.57-1.77c.38-.51.93-.92,1.66-1.25.73-.33,1.61-.58,2.66-.74,1.05-.16,2.23-.24,3.55-.24s2.5.08,3.55.24,1.94.41,2.66.74,1.28.75,1.66,1.25c.38.51.57,1.1.57,1.77s-.19,1.28-.57,1.78c-.38.5-.94.92-1.66,1.25s-1.61.59-2.66.75c-1.05.16-2.23.24-3.55.24Zm0-2.68c1.57,0,2.79-.1,3.67-.31s1.32-.55,1.32-1.03-.44-.83-1.32-1.03c-.88-.21-2.1-.31-3.67-.31s-2.79.1-3.67.31c-.88.21-1.32.55-1.32,1.03s.44.83,1.32,1.03,2.1.31,3.67.31Zm8.01-10.45v4.55h-3.45v-10.69h3.45v3.45h1.91v2.68h-1.91Z"/>
        <path d="m309.4,180.63v5.43h8.18v2.68h-11.64v-10.8h11.42v2.68h-7.96Zm.92,9.66v3.61h12.83v2.66h-16.28v-6.27h3.45Zm12.61-6.2v6.78h-3.45v-13.13h3.45v3.67h1.91v2.68h-1.91Z"/>
        <path d="m330.87,187.78h12.76v2.68h-6.38v2.97h7.46v2.68h-18.37v-2.68h7.46v-2.97h-6.38v-12.3h3.45v9.61Z"/>
        <path d="m347.02,186.04h18.37v2.46h-7.46v.81h6.38v4.6h-12.76v.68h12.98v1.96h-16.43v-4.6h12.76v-.68h-12.76v-1.96h6.38v-.81h-7.46v-2.46Zm.92-2.88c1.14-.1,2.11-.22,2.89-.34.78-.12,1.43-.27,1.92-.43.5-.16.88-.34,1.13-.55.26-.21.43-.46.52-.75h-6.09v-2.66h6.16v-1.61h3.45v1.61h6.16v2.66h-6.2c-.01.12-.04.22-.07.32-.03.1-.06.2-.09.3l6.78,1.52-1.06,2.2-7.44-1.72c-.79.5-1.79.89-2.99,1.17-1.2.28-2.57.47-4.09.57l-.99-2.29Z"/>
      </g>
      <g>
        <rect class="cls-12" x="309.84" y="47" width="44.37" height="86.45" rx="5.77" ry="5.77"/>
        <rect class="cls-15" x="326.44" y="53.35" width="11.16" height="1.56" rx=".75" ry=".75"/>
        <path class="cls-15" d="m333.22,50.88c0,.66-.53,1.19-1.19,1.19s-1.19-.53-1.19-1.19.53-1.19,1.19-1.19,1.19.53,1.19,1.19Z"/>
        <path class="cls-15" d="m335.77,127.96c0,2.07-1.68,3.75-3.75,3.75s-3.75-1.68-3.75-3.75,1.68-3.75,3.75-3.75,3.75,1.68,3.75,3.75Z"/>
        <rect class="cls-11" x="311.54" y="58.06" width="40.96" height="64.76"/>
        <g>
          <path class="cls-7" d="m339.34,96.31c0,3.69-3.04,6.69-6.8,6.69s-6.8-2.99-6.8-6.69,3.04-6.69,6.8-6.69,6.8,2.99,6.8,6.69Z"/>
          <path class="cls-7" d="m332.54,86.77c-5.35,0-9.69,4.27-9.69,9.54s4.34,9.54,9.69,9.54,9.69-4.27,9.69-9.54-4.34-9.54-9.69-9.54Zm0,17.84c-4.66,0-8.43-3.71-8.43-8.3s3.78-8.3,8.43-8.3,8.43,3.72,8.43,8.3-3.78,8.3-8.43,8.3Z"/>
        </g>
        <g>
          <polygon class="cls-1" points="285.64 131.19 302.71 142.56 297.32 150.64 280.41 139.14 285.64 131.19"/>
          <polygon class="cls-21" points="283.33 131.98 302.09 145.41 296.14 155.04 269.34 155.04 283.33 131.98"/>
          <path class="cls-13" d="m291.38,125.54s-.49-3.96,1.3-7.31c1.79-3.34,5.62-8.54,8.15-12.42,2.53-3.88,4.17-4,5.61-3.3,1.45.7,1.92,1.7,1.43,2.38-.49.68-2.2,2.94-2.58,3.38-.54.62-.08.85.07.66.31-.39,1.69-1.88,2.86-3.42,1.19-1.56,2.79-1.58,3.96-1.04,1.17.54,1.89,1.94,1.46,2.62-.43.68-2.72,4.18-3.08,4.71-.36.53-.02.55.13.55s2.08-2.64,3.23-4.29c1.15-1.65,2.74-2.05,4.04-1.62,1.31.44,2.15,1.49,1.8,2.15-.34.65-3.45,5.41-3.7,5.85-.25.44.12.68.62.09.5-.59,12.75-18.87,13.59-20.06.84-1.18,2.66-1.58,4.43-.49,1.77,1.09.94,3.43.27,4.45-.67,1.02-15.51,22.59-19.01,27.15-.22.29.24.38.39.22.15-.15,3.18-4.06,5.09-6.37,2.03-2.46,3.6-2.25,4.21-2.07.78.23,1.43.57,1.82.94-.52.44-1.81,1.56-2.36,2.38-.39.58-.64,1.37-.5,1.99-2.13,2.12-5.03,4.84-7.84,7.34-5.4,4.81-11.55,6.54-11.55,6.54l-3.52,5.35-14.65-9.78,4.32-6.59Z"/>
          <path class="cls-20" d="m325.13,120.7c.55-.82,1.83-1.93,2.36-2.38.22.2.35.42.37.65.03.31-1.27,1.76-3.23,3.72-.14-.62.11-1.41.5-1.99Z"/>
          <path class="cls-20" d="m330.77,94.88c.4-.56,1.06-.88,1.82-.88.56,0,1.15.18,1.7.52.4.25.66.6.76,1.05.2.92-.28,1.99-.6,2.48-.05.08-.23.34-.49.73-.81.05-1.94.06-2.76-.56-.8-.61-1.34-1.36-1.34-2,.59-.86.81-1.19.92-1.34Z"/>
        </g>
      </g>
      <rect class="cls-1" x="432.45" y="34" width="185" height="185" rx="30.25" ry="30.25"/>
      <g>
        <path d="m487.57,192.99v-8.01h3.45v8.01h6.45v2.66h-13.29v-2.66h3.39Zm5.61-2.53v-9.61h-8.23v-2.68h11.68v12.3h-3.45Zm9.04-5.85h1.91v2.68h-1.91v8.82h-3.45v-18.39h3.45v6.89Z"/>
        <path d="m510.01,192.99v-2.71c-.69-.15-1.32-.4-1.9-.75-.58-.35-1.08-.79-1.5-1.33s-.75-1.15-.99-1.85c-.24-.7-.36-1.48-.36-2.34,0-1.04.17-1.96.51-2.77.34-.81.79-1.49,1.38-2.04.58-.55,1.25-.97,2.02-1.25.77-.29,1.6-.43,2.48-.43s1.69.14,2.46.43c.78.29,1.46.7,2.04,1.25.58.55,1.04,1.23,1.38,2.04.34.81.51,1.73.51,2.77,0,.84-.12,1.6-.35,2.29-.24.69-.55,1.3-.96,1.83-.4.53-.88.97-1.44,1.32-.56.35-1.16.62-1.8.79v2.75h5.13v2.66h-13.73v-2.66h5.15Zm1.63-5.19c.41,0,.79-.09,1.16-.29.36-.19.67-.45.93-.79.26-.34.47-.74.62-1.2.15-.46.22-.96.22-1.51s-.07-1.07-.22-1.54c-.15-.47-.35-.87-.62-1.21-.26-.34-.58-.6-.93-.78-.36-.18-.75-.27-1.16-.27-.44,0-.84.09-1.2.29-.36.19-.67.46-.92.79-.26.34-.46.74-.59,1.21-.14.47-.21.98-.21,1.52s.07,1.07.22,1.53.35.86.6,1.2c.26.34.56.6.92.78.36.18.75.27,1.18.27Zm11.7,8.32h-3.45v-18.39h3.45v18.39Z"/>
        <path d="m533.55,192.53v-2.97h-7.46v-2.68h18.37v2.68h-7.46v2.97h-3.45Zm-2.93-1.58v2.93h12.98v2.68h-16.43v-5.61h3.45Zm12.54-5.43h-15.77v-7.57h15.77v7.57Zm-12.32-4.88v2.2h8.87v-2.2h-8.87Z"/>
        <path d="m559.95,192.99v2.66h-13.73v-2.66h13.73Zm-13.33-8.98c0-1.04.17-1.96.51-2.77.34-.81.79-1.49,1.38-2.04.58-.55,1.25-.97,2.02-1.25.77-.29,1.6-.43,2.48-.43s1.69.14,2.46.43c.78.29,1.46.7,2.04,1.25.58.55,1.04,1.23,1.38,2.04.34.81.51,1.73.51,2.77s-.17,1.94-.51,2.74c-.34.8-.8,1.47-1.38,2.02-.58.55-1.26.97-2.04,1.25-.78.29-1.6.43-2.46.43s-1.71-.14-2.48-.43c-.77-.29-1.44-.71-2.02-1.25-.58-.55-1.04-1.22-1.38-2.02-.34-.8-.51-1.71-.51-2.74Zm6.38,3.78c.41,0,.79-.09,1.16-.29.36-.19.67-.45.93-.79.26-.34.47-.74.62-1.2.15-.46.22-.96.22-1.51s-.07-1.07-.22-1.54c-.15-.47-.35-.87-.62-1.21-.26-.34-.58-.6-.93-.78-.36-.18-.75-.27-1.16-.27-.44,0-.84.09-1.2.29-.36.19-.67.46-.92.79-.26.34-.46.74-.59,1.21-.14.47-.21.98-.21,1.52s.07,1.07.22,1.53.35.86.6,1.2c.26.34.56.6.92.78.36.18.75.27,1.18.27Zm11.7,8.32h-3.45v-18.39h3.45v18.39Z"/>
      </g>
      <g>
        <g>
          <g>
            <path class="cls-4" d="m577.31,66.5c-.86-2.86-2.37-5.48-4.54-7.88-2.17-2.4-5.13-4.38-8.88-5.95-3.75-1.57-8.51-2.35-14.29-2.35-4.61,0-9.3.62-14.09,1.86-4.79,1.25-8.94,3.02-12.47,5.33l4.59,12.59-2.46,1.99,3.56,1.05c3.52-1.84,6.72-3.18,9.62-4.01,2.89-.83,5.96-1.24,9.21-1.24s5.71.78,7.38,2.35c1.67,1.57,2.5,3.46,2.5,5.67,0,2.67-.86,5.05-2.57,7.12-1.72,2.08-3.62,4.17-5.69,6.3-1.44,1.47-2.84,2.99-4.2,4.56-1.35,1.57-2.55,3.25-3.59,5.05-1.04,1.8-1.87,3.73-2.5,5.81-.63,2.08-.95,4.4-.95,6.98,0,.83.02,1.82.07,2.98,0,.21.02.42.03.62h-3.37l3.68,2.49h17.88c-.09-.55-.14-1.2-.14-1.94v-1.66c0-1.57.32-3.11.95-4.63.63-1.52,1.42-2.97,2.37-4.36.95-1.38,2.01-2.7,3.18-3.94,1.17-1.25,2.3-2.42,3.39-3.53,1.44-1.47,2.93-3.04,4.47-4.7,1.53-1.66,2.89-3.41,4.07-5.25,1.17-1.85,2.14-3.85,2.91-6.02.77-2.17,1.16-4.54,1.16-7.12s-.43-5.3-1.29-8.16Z"/>
            <path class="cls-22" d="m543.79,67c-3.22,0-6.25.4-9.1,1.2-2.86.81-6.03,2.1-9.5,3.88l-5.63-15.13c3.48-2.23,7.59-3.95,12.32-5.16,4.73-1.2,9.37-1.8,13.92-1.8,5.71,0,10.42.76,14.12,2.27,3.7,1.52,6.63,3.43,8.77,5.76,2.14,2.32,3.63,4.86,4.48,7.63.85,2.77,1.27,5.4,1.27,7.9s-.38,4.8-1.14,6.89c-.76,2.1-1.72,4.04-2.88,5.83-1.16,1.79-2.5,3.48-4.02,5.09s-2.99,3.12-4.41,4.55c-1.07,1.07-2.19,2.21-3.35,3.42-1.16,1.2-2.21,2.48-3.15,3.81-.94,1.34-1.72,2.75-2.34,4.22-.62,1.47-.94,2.97-.94,4.48v1.61c0,.71.04,1.34.14,1.87h-17.67c-.18-.89-.29-1.9-.34-3.01-.05-1.12-.07-2.07-.07-2.88,0-2.5.31-4.75.94-6.76.62-2.01,1.45-3.88,2.48-5.62,1.02-1.74,2.21-3.37,3.55-4.89,1.34-1.52,2.72-2.99,4.15-4.41,2.05-2.05,3.93-4.08,5.63-6.09,1.69-2.01,2.54-4.31,2.54-6.89,0-2.14-.82-3.97-2.48-5.49-1.65-1.52-4.08-2.27-7.3-2.27Z"/>
          </g>
          <g>
            <path class="cls-4" d="m557.47,135.17c0,3.22-1.04,5.71-3.13,7.47-2.09,1.76-4.45,2.63-7.08,2.63s-5-.88-7.08-2.63c-2.08-1.75-3.13-4.24-3.13-7.47s1.04-5.71,3.13-7.47c3.21-2.71,7.97-3.32,11.73-1.41,3.34,1.69,5.57,5.12,5.57,8.88Z"/>
            <path class="cls-22" d="m553.98,135.17c0,3.22-1.04,5.71-3.13,7.47-2.09,1.76-4.45,2.63-7.08,2.63s-5-.88-7.08-2.63c-2.08-1.75-3.13-4.24-3.13-7.47s1.04-5.71,3.13-7.47c2.09-1.75,4.45-2.63,7.08-2.63s4.99.88,7.08,2.63c2.09,1.76,3.13,4.25,3.13,7.47Z"/>
          </g>
        </g>
        <g>
          <g>
            <circle class="cls-24" cx="499.15" cy="89.11" r="1.93"/>
            <ellipse class="cls-24" cx="500.89" cy="92.89" rx="1.08" ry="1.09" transform="translate(317.33 568.1) rotate(-79.39)"/>
            <g>
              <circle class="cls-24" cx="494.4" cy="79.42" r="7.58"/>
              <g>
                <circle class="cls-1" cx="491.48" cy="79.42" r=".96"/>
                <circle class="cls-1" cx="494.4" cy="79.42" r=".96"/>
                <circle class="cls-1" cx="497.31" cy="79.42" r=".96"/>
              </g>
            </g>
          </g>
          <g>
            <g>
              <g>
                <path class="cls-19" d="m488.96,141.48l.71,2.73c.18.71.87,1.19,1.64,1.14,2.32-.16,7.15-.73,9.92-2.77l-.79-3.94c-3.81-.22-7.37,0-10.45,1.03-.77.26-1.22,1.03-1.02,1.8Z"/>
                <path class="cls-1" d="m493.4,143.65s-.08-.03-.09-.07l-.95-3.41s.01-.1.06-.11c.05-.01.1.01.11.06l.95,3.41s-.01.1-.06.11c0,0-.02,0-.02,0Z"/>
                <path class="cls-1" d="m495.46,143.19s-.08-.03-.09-.07l-.95-3.41s.01-.1.06-.11c.05-.01.1.01.11.06l.95,3.41s-.01.1-.06.11c0,0-.02,0-.02,0Z"/>
              </g>
              <polygon class="cls-22" points="497.85 126.71 488.99 129.34 495.57 138.35 505.01 139.1 518.02 133.59 513.08 126.15 497.85 126.71"/>
              <path class="cls-22" d="m508.76,127.96c19.44-5.75,22.56,11.43-7.77,14.55-1.07-1.21-2.32-3.3-2.82-5.05l16.02-7.4-5.43-2.11Z"/>
              <path class="cls-25" d="m509.58,140.28c-.91-.29-1.78-.87-1.78-.87l-3.12.98.72,3.4,3.25.66c.99-1.81,1.05-3.29.94-4.17Z"/>
              <path class="cls-4" d="m498.24,137.59l-.14-.24c3.34-1.94,11.9-6.61,19.19-7.98l.05.27c-7.25,1.37-15.78,6.02-19.1,7.95Z"/>
              <path class="cls-22" d="m497.85,126.71c-18.09-3.44-22.78,13.95,7.55,17.08,1.07-1.21,1.91-2.63,2.41-4.38-4.66-3.12-9.87-6.08-15.58-8.9l5.62-3.79Z"/>
              <path class="cls-4" d="m507.73,139.53c-.86-.55-1.76-1.13-2.71-1.74-4.77-3.08-10.17-6.57-14.76-8.55l.11-.25c4.61,2,10.02,5.49,14.8,8.58.95.61,1.85,1.19,2.71,1.74l-.15.23Z"/>
              <path class="cls-4" d="m484.57,135.34l-.24-.13c.68-1.23,1.77-2.06,3.23-2.46l.07.27c-1.41.39-2.41,1.15-3.07,2.33Z"/>
              <path class="cls-4" d="m522.34,134.29c-.65-1.18-1.65-1.94-3.07-2.33l.07-.27c1.47.41,2.55,1.24,3.23,2.46l-.24.13Z"/>
              <path class="cls-4" d="m503.7,143.64l-.2-.19c1.45-1.55,2.34-3.19,2.72-5l.27.06c-.39,1.87-1.3,3.55-2.79,5.13Z"/>
              <g>
                <path class="cls-19" d="m518.61,139.27c-2.32-1.43-6.81,1.04-7.94,1.17-.33.04-.71-.04-1.08-.16.1.88.05,2.36-.94,4.17l.55.11s3.81,1.4,7.85.58c3.73-.75,3.38-4.75,1.56-5.88Z"/>
                <path class="cls-1" d="m515.45,143.95s-.02,0-.03,0c-.05-.02-.08-.07-.06-.12.28-.87.4-2.59-.4-3.74-.03-.04-.02-.1.02-.13.04-.03.1-.02.13.02.84,1.21.71,2.99.43,3.9-.01.04-.05.06-.09.06Z"/>
                <path class="cls-1" d="m513.63,144.29s-.02,0-.03,0c-.05-.02-.08-.07-.06-.12.28-.87.4-2.59-.4-3.74-.03-.04-.02-.1.02-.13.04-.03.1-.02.13.02.84,1.21.71,2.99.43,3.9-.01.04-.05.06-.09.06Z"/>
              </g>
            </g>
            <g>
              <g>
                <path class="cls-25" d="m494.64,104.29s4.56-3.87,4.39-4.61c-.12-.53-1.41.25-1.41.25,0,0,1.81-2.15,1.72-2.41-.16-.47-1.42.4-1.42.4,0,0,.85-1.22.44-1.42-.4-.2-1.29.55-1.29.55,0,0,.52-.68.27-.85-.24-.18-1.29.55-1.29.55,0,0,.37-.85-.42-.53-.8.32-6.38,5.45-6.38,5.45l5.38,2.62Z"/>
                <g>
                  <path class="cls-16" d="m496.51,99.7s-.04,0-.06-.02c-.78-.71-1.13-.89-1.99-1.15-.05-.01-.08-.07-.06-.11.01-.05.07-.08.12-.06.89.27,1.25.45,2.06,1.19.04.03.04.09,0,.13-.02.02-.04.03-.07.03Z"/>
                  <path class="cls-16" d="m495.14,101.8s0,0-.01,0c-.05,0-.09-.05-.08-.1.09-.64.29-1.04.62-1.22.28-.16.64-.14,1.08.05.05.02.07.07.05.12-.02.05-.07.07-.12.05-.38-.16-.69-.18-.91-.06-.27.15-.44.52-.52,1.09,0,.05-.05.08-.09.08Z"/>
                  <path class="cls-16" d="m494.92,97.93s-.05,0-.07-.03c-.03-.04-.03-.1,0-.13l1.14-1.08s.1-.03.13,0c.03.04.03.1,0,.13l-1.14,1.08s-.04.03-.06.03Z"/>
                  <path class="cls-16" d="m495.98,98.29s-.05,0-.06-.03c-.04-.04-.04-.09,0-.13l1.1-1.14s.09-.04.13,0c.04.04.04.09,0,.13l-1.1,1.14s-.04.03-.07.03Z"/>
                  <path class="cls-16" d="m497.06,98.94s-.04,0-.06-.02c-.04-.03-.04-.09,0-.13l.86-.92s.09-.04.13,0c.04.03.04.09,0,.13l-.86.92s-.04.03-.07.03Z"/>
                </g>
              </g>
              <g>
                <path class="cls-3" d="m511.86,130.21l-16.66.64-1.84-15.19s5.58-5.29,7.72-7.24l3.62-.19c11.24,5.11,9.4,11.49,7.16,21.97Z"/>
                <path class="cls-3" d="m504.7,108.24s12.86,1.1,16.91,9.91c3.97,8.62-12.33,11.69-12.33,11.69l-4.58-21.6Z"/>
                <path class="cls-3" d="m490,110.13l5.31-6.47-4.97-3.01c-2.07,1.44-6.08,4.71-9.48,8.4-.75.82-1.34,1.77-1.63,2.82-.25.9-.3,1.78-.16,2.65h0c.37,2.26,2.14,4,4.51,4.28,2.02.24,9.76-.37,16.02-2.21l1.84-7.11c-.95-.54-7.98-.63-11.45.65Z"/>
              </g>
              <g class="cls-9">
                <path class="cls-1" d="m515.43,111.74s.06-.01.08-.02c-.06-.03-.12-.07-.17-.1-.94.22-1.91.44-2.87.55-.58.07-2.5.2-3.06-1.09-.28-.64-.07-1.35.25-1.85-.05-.01-.09-.03-.14-.04-.32.53-.53,1.27-.24,1.94.6,1.37,2.61,1.24,3.21,1.17.99-.12,1.98-.35,2.95-.57Z"/>
                <path class="cls-1" d="m521.44,121.68c-.61-.24-1.25-.48-1.92-.42-1.17.11-2.17,1.27-2.23,2.58-.04.89.3,1.83.95,2.66.04-.02.08-.05.12-.07-.64-.8-.97-1.71-.93-2.58.06-1.25,1-2.34,2.11-2.45.63-.06,1.23.17,1.85.41.22.09.45.17.68.25.01-.04.02-.09.03-.13-.23-.07-.45-.16-.67-.24Z"/>
                <path class="cls-1" d="m488.98,117.28c-.8-.66-2.05-.84-3.42-.49-1.22.32-2.27.94-2.99,1.77.05.02.09.03.14.05.7-.79,1.71-1.38,2.88-1.68,1.33-.34,2.53-.18,3.3.46.37.3.62.69.81,1.12.05,0,.1-.01.14-.02-.2-.46-.47-.88-.87-1.21Z"/>
                <path class="cls-1" d="m481.72,108.15c1.5-.37,2.97-.9,4.33-1.68.51-.29,1.09-.67,1.5-1.22.43-.59.58-1.29.38-1.87-.08-.23-.21-.43-.37-.59-.04.03-.07.06-.11.09.16.15.28.33.35.55.18.54.04,1.19-.36,1.74-.39.53-.95.9-1.45,1.18-1.28.74-2.66,1.24-4.08,1.61-.06.06-.12.12-.18.19Z"/>
              </g>
              <g>
                <path class="cls-25" d="m505.88,104.87v.24s-.04,3.66-.04,3.66v.4c-.01.62-.27,1.18-.68,1.59-.41.41-.97.66-1.59.67-1.26,0-2.28-1-2.29-2.26l-.04-4.53,4.65.23Z"/>
                <path class="cls-19" d="m505.88,105.1l-.04,3.66c-2.04-.83-2.87-3.03-2.87-3.03l2.91-.63Z"/>
                <path class="cls-25" d="m506.68,98.71c.73.88,2.86,5.84.7,7.53-2.43,1.9-6.13-1.23-6.13-1.23l-.5-5.78,3.21-.85,2.71.32Z"/>
                <path class="cls-19" d="m499.13,98.39s-7.12,3.71-1.31,14.41c.75,1.37,2.4,1.97,3.81,1.3h0c1.52-.72,2.09-2.57,1.27-4.03-.95-1.69-1.87-3.86-1.47-5.47l-2.29-6.21Z"/>
                <circle class="cls-22" cx="499.8" cy="100.15" r="1.93"/>
                <path class="cls-19" d="m502.17,102.46c-.21-1.2-.33-2.03.88-2.64,0,0,4.28.78,5.1-.84.82-1.61-.43-4.16-3.03-2.39-6.67-1.3-7.57,4.94-5.54,7.02l2-.31c.4-.06.68-.44.61-.84Z"/>
                <g>
                  <circle class="cls-19" cx="505.48" cy="102.47" r=".28"/>
                  <circle class="cls-19" cx="507.4" cy="101.52" r=".28"/>
                  <path class="cls-19" d="m507.21,103.34s-.04,0-.06-.02c-.03-.03-.03-.08,0-.11.11-.12.24-.29.19-.41-.05-.13-.29-.18-.39-.18-.23,0-.34-.4-.36-.48-.01-.04.02-.09.06-.1.04-.01.09.02.1.06.04.17.14.36.2.36.11,0,.44.05.54.28.07.16,0,.36-.22.59-.02.02-.04.03-.06.03Z"/>
                  <path class="cls-19" d="m507.22,104.42s-.03,0-.04-.01c-.54-.36-1.08-.06-1.08-.06-.04.02-.09,0-.11-.03-.02-.04,0-.09.03-.11.03-.01.63-.36,1.25.06.04.02.05.07.02.11-.02.02-.04.04-.07.04Z"/>
                  <path class="cls-19" d="m505.35,101.24c.16.3-.12.37-.45.54s-.67.24-.75.09c-.08-.15.13-.41.46-.58s.61-.29.74-.05Z"/>
                  <path class="cls-19" d="m506.56,100.69c.07.27.27.15.57.08s.53-.23.5-.36c-.03-.13-.3-.17-.6-.1-.29.08-.53.16-.47.37Z"/>
                </g>
                <circle class="cls-14" cx="504.17" cy="103.79" r=".84"/>
                <ellipse class="cls-25" cx="500.98" cy="103.8" rx="1.14" ry="1.29" transform="translate(112.74 437) rotate(-52.34)"/>
                <path class="cls-19" d="m501.48,104.22s-.08-.04-.08-.08c0-.24-.12-.46-.31-.59-.17-.11-.36-.14-.53-.07-.04.02-.09,0-.1-.04-.02-.04,0-.09.04-.1.22-.09.47-.06.68.09.24.16.38.43.38.72,0,.04-.04.08-.08.08Z"/>
              </g>
              <g>
                <rect class="cls-19" x="486.41" y="111.61" width="4.28" height=".18" transform="translate(74.89 394.62) rotate(-47.25)"/>
                <path class="cls-19" d="m510.41,123.58l-.05-.18c2.12-.64,4.17-1.42,6.03-3.74l.14.11c-1.89,2.37-3.98,3.15-6.12,3.8Z"/>
              </g>
            </g>
            <g>
              <path class="cls-24" d="m511.7,116.45h-18c-.65,0-1.17.57-1.17,1.27v12.85c0,.7.52,1.27,1.17,1.27h18c.65,0,1.17-.57,1.17-1.27v-12.85c0-.7-.52-1.27-1.17-1.27Z"/>
              <path class="cls-6" d="m503.65,123.33c.07,0,.12.06.12.13v1.36c0,.07-.06.13-.12.13h-1.9c-.07,0-.12-.06-.12-.13v-1.36c0-.07.06-.13.12-.13h1.9m0-.37h-1.9c-.27,0-.49.23-.49.5v1.36c0,.28.22.5.49.5h1.9c.27,0,.49-.23.49-.5v-1.36c0-.28-.22-.5-.49-.5h0Z"/>
            </g>
          </g>
        </g>
      </g>
      <g>
        <path d="m153.88,259.35c-.76.65-1.77,1.25-3.01,1.83-.03.01-.07.02-.13.02-.12,0-.19-.04-.22-.11l-.57-.95s-.04-.1-.04-.18c0-.09.04-.15.11-.18,1.61-.73,2.8-1.52,3.57-2.35.77-.84,1.16-1.88,1.16-3.15v-1.1h-4.03c-.15,0-.22-.08-.22-.24v-1.06c0-.07.01-.13.04-.17.03-.04.09-.05.18-.05h9.68c.09,0,.15.02.18.05.03.04.04.09.04.17v1.06c0,.16-.07.24-.22.24h-3.94v1.1c0,1.19.38,2.16,1.14,2.93.76.76,1.91,1.49,3.45,2.18.06.03.1.07.11.13.01.06,0,.12-.04.2l-.51.99c-.01.07-.07.11-.18.11l-.18-.04c-1.1-.47-2.05-1.02-2.85-1.64-.8-.62-1.4-1.29-1.79-2.01-.4.84-.98,1.58-1.74,2.22Zm11.66,3.1c.15,0,.22.08.22.24v6.8c0,.15-.07.22-.22.22h-1.28c-.16,0-.24-.07-.24-.22v-5.5h-10.69c-.13,0-.2-.07-.2-.2v-1.1c0-.16.07-.24.2-.24h12.21Zm-.02-12.01c.16,0,.24.07.24.22v10.52c0,.15-.08.22-.24.22h-1.25c-.16,0-.24-.07-.24-.22v-4.36h-3.94c-.15,0-.22-.08-.22-.24v-1.06c0-.15.07-.22.22-.22h3.94v-4.64c0-.15.08-.22.24-.22h1.25Z"/>
        <path d="m174.3,260.56h-3.85c-.21,0-.31-.09-.31-.29v-4.86c0-.06.02-.11.07-.15.04-.04.1-.07.18-.07h7.46v-2.42h-7.5c-.16,0-.24-.07-.24-.22v-.97c0-.16.08-.24.24-.24h9c.15,0,.22.08.22.24v4.77c0,.15-.07.22-.22.22h-7.46v2.55h2.75c1.01,0,2.06-.04,3.16-.13s2.09-.23,2.98-.42h.07c.13,0,.21.07.22.2l.13.88v.07c0,.1-.06.18-.18.22-2.08.41-4.32.62-6.71.62Zm10.67,1.72c.15,0,.22.07.22.22v6.78c0,.16-.07.24-.22.24h-11.55c-.16,0-.24-.08-.24-.24v-6.78c0-.15.08-.22.24-.22h1.3c.13,0,.2.07.2.22v1.87h8.54v-1.87c0-.15.08-.22.24-.22h1.28Zm-10.05,3.54v2.24h8.54v-2.24h-8.54Zm10.03-15.38c.16,0,.24.07.24.22v10.36c0,.15-.08.22-.24.22h-1.25c-.16,0-.24-.07-.24-.22v-10.36c0-.15.08-.22.24-.22h1.25Z"/>
        <path d="m201.49,261.49v.04c0,.09-.07.15-.22.2-2.07.4-4.95.59-8.65.59h-3.89c-.15,0-.22-.07-.22-.22v-1.01c0-.16.07-.24.22-.24h3.48c.87,0,1.51,0,1.94-.02v-2.71h-3.37c-.16,0-.24-.07-.24-.22v-6.34c0-.16.08-.24.24-.24h8.65c.13,0,.2.08.2.24v1.01c0,.15-.07.22-.2.22h-7.17v3.85h7.37c.15,0,.22.08.22.24v1.01c0,.15-.07.22-.22.22h-3.74v2.66c2.16-.1,3.89-.28,5.21-.53h.04c.12,0,.19.07.22.22l.13,1.01Zm3.52,6.34c.15,0,.22.08.22.24v1.08c0,.16-.07.24-.22.24h-12.1c-.16,0-.24-.08-.24-.24v-4.99c0-.15.08-.22.24-.22h1.28c.15,0,.22.07.22.22v3.67h10.6Zm-1.89-2.62c-.15,0-.22-.08-.22-.24v-14.3c0-.15.07-.22.22-.22h1.25c.16,0,.24.07.24.22v14.3c0,.16-.08.24-.24.24h-1.25Z"/>
        <path d="m222.04,260.14v.04c0,.1-.07.17-.2.2-.78.16-1.68.28-2.7.36-1.02.08-2.04.12-3.05.12h-2.68c-.19,0-.29-.09-.29-.26v-4.91c0-.16.07-.24.22-.24h5.57v-2.46h-5.61c-.15,0-.22-.08-.22-.24v-.97c0-.06.02-.11.07-.14.04-.04.09-.05.15-.05h7.06c.15,0,.22.07.22.2v4.84c0,.16-.07.24-.22.24h-5.57v2.6h1.56c.81,0,1.7-.04,2.67-.12.98-.08,1.84-.19,2.58-.32h.04c.1,0,.18.06.22.18l.15.95Zm6.19,3.05c1.17.67,1.75,1.59,1.75,2.76s-.58,2.12-1.75,2.79c-1.17.67-2.75,1.01-4.74,1.01s-3.59-.34-4.75-1.01c-1.16-.67-1.74-1.61-1.74-2.79s.58-2.09,1.74-2.76c1.16-.67,2.74-1,4.75-1s3.58.33,4.74,1Zm-1.22,4.48c.82-.4,1.23-.97,1.23-1.72s-.41-1.31-1.23-1.69c-.82-.38-2-.57-3.52-.57s-2.7.19-3.53.57c-.83.38-1.24.95-1.24,1.69s.41,1.32,1.24,1.72c.83.4,2.01.59,3.53.59s2.7-.2,3.52-.59Zm-3.26-6.67c-.16,0-.24-.07-.24-.22v-9.9c0-.16.08-.24.24-.24h1.23c.15,0,.22.08.22.24v4.18h2.84v-4.4c0-.15.08-.22.24-.22h1.28c.13,0,.2.07.2.22v10.69c0,.16-.07.24-.2.24h-1.28c-.16,0-.24-.08-.24-.24v-4.71h-2.84v4.14c0,.15-.07.22-.22.22h-1.23Z"/>
        <path d="m242.99,253.26c0,1.33-.36,2.58-1.08,3.73-.72,1.15-1.79,2.14-3.2,2.97-1.42.83-3.13,1.42-5.16,1.77-.19,0-.29-.04-.31-.13l-.31-1.08v-.07c0-.15.07-.23.2-.24,3.3-.62,5.59-1.75,6.86-3.41-1.38.21-2.6.31-3.67.31h-2.97c-.15,0-.22-.07-.22-.22v-1.01c0-.07.01-.13.04-.17.03-.04.09-.05.18-.05h2.82c1.79,0,3.33-.09,4.62-.26.26-.62.42-1.36.46-2.22h-7.37c-.15,0-.22-.07-.22-.22v-1.06c0-.15.07-.22.22-.22h8.87c.16,0,.24.07.24.22v1.36Zm3.87,9.81c1.14.67,1.72,1.61,1.72,2.82s-.57,2.14-1.72,2.82c-1.14.67-2.7,1.01-4.66,1.01s-3.5-.34-4.65-1.01c-1.15-.67-1.73-1.61-1.73-2.82s.58-2.14,1.73-2.82c1.15-.67,2.7-1.01,4.65-1.01s3.52.34,4.66,1.01Zm-1.22,4.55c.83-.4,1.24-.98,1.24-1.74s-.41-1.34-1.24-1.74c-.83-.4-1.98-.59-3.44-.59s-2.61.2-3.42.59c-.81.4-1.22.98-1.22,1.74s.41,1.34,1.22,1.74c.81.4,1.95.59,3.42.59s2.61-.2,3.44-.59Zm1.24-6.2c-.16,0-.24-.07-.24-.22v-10.54c0-.15.08-.22.24-.22h1.25c.16,0,.24.07.24.22v10.54c0,.15-.08.22-.24.22h-1.25Z"/>
        <path d="m255.92,259.24c-.76.65-1.77,1.25-3.01,1.83-.09.03-.14.04-.15.04-.1,0-.17-.04-.2-.13l-.57-.95s-.04-.1-.04-.18c0-.09.04-.15.11-.18,1.61-.73,2.8-1.52,3.58-2.35.77-.84,1.16-1.88,1.16-3.15v-1.1h-4.03c-.15,0-.22-.08-.22-.24v-1.06c0-.15.07-.22.22-.22h9.68c.15,0,.22.07.22.22v1.06c0,.16-.07.24-.22.24h-3.94v1.1c0,1.19.38,2.16,1.14,2.93.76.76,1.91,1.49,3.45,2.18.06.03.1.07.11.13s0,.12-.04.2l-.51,1.01c-.02.06-.07.09-.15.09-.04,0-.11-.01-.2-.04-1.1-.47-2.05-1.02-2.85-1.64-.8-.62-1.4-1.29-1.79-2.01-.4.84-.98,1.58-1.74,2.22Zm11.66,2.9c.15,0,.22.07.22.22v6.91c0,.16-.07.24-.22.24h-11.55c-.16,0-.24-.08-.24-.24v-6.91c0-.15.08-.22.24-.22h11.55Zm-10.05,5.85h8.54v-4.36h-8.54v4.36Zm10.03-17.56c.16,0,.24.07.24.22v10.25c0,.16-.08.24-.24.24h-1.25c-.16,0-.24-.08-.24-.24v-4.2h-3.94c-.15,0-.22-.08-.22-.24v-1.06c0-.15.07-.22.22-.22h3.94v-4.53c0-.15.08-.22.24-.22h1.25Z"/>
        <path d="m288.9,261.53c.13,0,.2.07.2.22v1.12c0,.16-.07.24-.2.24h-8.05v6.18c0,.16-.08.24-.24.24h-1.25c-.16,0-.24-.08-.24-.24v-6.18h-8.03c-.15,0-.22-.08-.22-.24v-1.12c0-.15.07-.22.22-.22h17.82Zm-16.57-3.5l-.02-.09c0-.1.05-.16.15-.18,1.99-.5,3.6-1.2,4.82-2.11,1.22-.91,1.83-1.92,1.83-3.04v-1.47c0-.15.07-.22.22-.22h1.3c.15,0,.22.07.22.22v1.47c0,.73.29,1.44.87,2.12.58.68,1.37,1.28,2.38,1.79,1,.51,2.12.92,3.35,1.21.15.04.2.14.15.29l-.42,1.08c-.04.13-.14.19-.29.18-1.58-.37-3-.92-4.26-1.65s-2.14-1.52-2.65-2.35c-.53.85-1.4,1.63-2.61,2.33-1.21.7-2.66,1.26-4.34,1.67h-.07c-.12,0-.2-.05-.24-.15l-.4-1.1Z"/>
        <path d="m308.32,265.95c.13,0,.2.08.2.24v1.12c0,.15-.07.22-.2.22h-17.82c-.15,0-.22-.07-.22-.22v-1.12c0-.16.07-.24.22-.24h8.03v-3.72h-5.19c-.15,0-.22-.07-.22-.22v-5.43c0-.15.07-.22.22-.22h10.6v-2.84h-10.65c-.15,0-.22-.08-.22-.24v-1.06c0-.15.07-.22.22-.22h12.17c.15,0,.22.07.22.22v5.35c0,.16-.08.24-.24.24h-10.58v2.9h11.02c.16,0,.24.08.24.24v1.06c0,.15-.08.22-.24.22h-5.61v3.72h8.05Z"/>
        <path d="m319.16,259.3c-.75.8-1.74,1.56-2.96,2.28l-.18.04c-.07,0-.13-.03-.18-.09l-.68-.95s-.07-.1-.07-.18.04-.13.11-.18c3.18-1.86,4.77-4.14,4.77-6.82v-1.8c0-.15.07-.22.2-.22h1.3c.13,0,.2.07.2.22v1.8c0,1.35.4,2.54,1.2,3.56.8,1.03,1.92,1.95,3.38,2.77.12.07.14.19.07.35l-.64.99c-.07.09-.2.11-.37.07-1.09-.63-2.01-1.32-2.77-2.08-.76-.76-1.32-1.55-1.67-2.39-.38.94-.95,1.81-1.71,2.61Zm12.11,8.46c.16,0,.24.08.24.24v1.1c0,.15-.08.22-.24.22h-12.14c-.15,0-.22-.07-.22-.22v-6.14c0-.07.01-.13.04-.17.03-.04.09-.05.18-.05h1.28c.15,0,.22.07.22.22v4.8h10.65Zm-6.05-11.73c-.16,0-.24-.07-.24-.22v-1.08c0-.16.08-.24.24-.24h4.03v-3.83c0-.15.08-.22.24-.22h1.25c.16,0,.24.07.24.22v13.64c0,.13-.08.2-.24.2h-1.25c-.07,0-.13-.02-.18-.06-.04-.04-.07-.08-.07-.14v-8.27h-4.03Z"/>
        <path d="m338.79,256.14c-.26.82-.69,1.61-1.26,2.35-.58.75-1.36,1.5-2.34,2.27-.06.04-.12.07-.18.07-.09,0-.15-.03-.2-.09l-.75-.84s-.07-.1-.07-.18c0-.06.03-.11.09-.15,1.28-1,2.23-2.02,2.87-3.07.64-1.05.96-2.23.96-3.55v-1.45c0-.16.08-.24.24-.24h1.25c.15,0,.22.08.22.24v1.45c0,1.26.31,2.39.92,3.38.62.99,1.52,1.91,2.71,2.76.12.09.13.2.04.33l-.68.88c-.04.07-.1.11-.18.11-.06,0-.12-.02-.18-.07-1.76-1.29-2.92-2.69-3.48-4.2Zm9.67,6.19c.98.33,1.72.79,2.22,1.39s.76,1.28.76,2.06-.25,1.46-.76,2.06-1.25,1.06-2.22,1.39-2.14.5-3.51.5-2.56-.17-3.53-.5-1.72-.79-2.22-1.39-.76-1.28-.76-2.06.25-1.46.76-2.06,1.25-1.06,2.22-1.39,2.15-.5,3.53-.5,2.53.17,3.51.5Zm.03,5.25c.82-.43,1.23-1.03,1.23-1.8s-.41-1.36-1.23-1.79c-.82-.43-2-.65-3.54-.65s-2.72.22-3.54.65c-.82.43-1.23,1.03-1.23,1.79s.41,1.38,1.23,1.8c.82.42,2,.64,3.54.64s2.72-.21,3.54-.64Zm-3.28-6.97c-.16,0-.24-.08-.24-.24v-9.48c0-.16.08-.24.24-.24h1.23c.15,0,.22.08.22.24v3.98h2.84v-4.2c0-.15.08-.22.24-.22h1.28c.13,0,.2.07.2.22v10.34c0,.15-.07.22-.2.22h-1.28c-.16,0-.24-.07-.24-.22v-4.55h-2.84v3.92c0,.16-.07.24-.22.24h-1.23Z"/>
        <path d="m355.29,259.68c-.19,0-.29-.09-.29-.26v-7.83c0-.16.07-.24.22-.24h1.28c.15,0,.22.08.22.24v6.53h2.33c1.06,0,2.15-.06,3.29-.17,1.14-.11,2.16-.27,3.07-.47h.07c.1,0,.18.06.22.18l.13,1.01.02.09c0,.09-.07.15-.2.2-1.98.48-4.28.73-6.91.73h-3.45Zm2.84,9.83c-.16,0-.24-.08-.24-.24v-7.3c0-.15.08-.22.24-.22h11.48c.15,0,.22.07.22.22v7.3c0,.16-.07.24-.22.24h-11.48Zm1.5-6.25v4.73h8.47v-4.73h-8.47Zm8.71-2.53c-.16,0-.24-.07-.24-.2v-9.88c0-.15.08-.22.24-.22h1.25c.16,0,.24.07.24.22v9.88c0,.13-.08.2-.24.2h-1.25Z"/>
        <path d="m387.26,260.14v.04c0,.1-.07.17-.2.2-.78.16-1.68.28-2.7.36-1.02.08-2.04.12-3.05.12h-2.68c-.19,0-.29-.09-.29-.26v-4.91c0-.16.07-.24.22-.24h5.57v-2.46h-5.61c-.15,0-.22-.08-.22-.24v-.97c0-.06.02-.11.07-.14.04-.04.09-.05.15-.05h7.06c.15,0,.22.07.22.2v4.84c0,.16-.07.24-.22.24h-5.57v2.6h1.56c.81,0,1.7-.04,2.67-.12.98-.08,1.84-.19,2.58-.32h.04c.1,0,.18.06.22.18l.15.95Zm6.19,3.05c1.17.67,1.75,1.59,1.75,2.76s-.58,2.12-1.75,2.79c-1.17.67-2.75,1.01-4.74,1.01s-3.59-.34-4.75-1.01c-1.16-.67-1.74-1.61-1.74-2.79s.58-2.09,1.74-2.76c1.16-.67,2.74-1,4.75-1s3.58.33,4.74,1Zm-1.22,4.48c.82-.4,1.23-.97,1.23-1.72s-.41-1.31-1.23-1.69c-.82-.38-2-.57-3.52-.57s-2.7.19-3.53.57c-.83.38-1.24.95-1.24,1.69s.41,1.32,1.24,1.72c.83.4,2.01.59,3.53.59s2.7-.2,3.52-.59Zm-3.26-6.67c-.16,0-.24-.07-.24-.22v-9.9c0-.16.08-.24.24-.24h1.23c.15,0,.22.08.22.24v4.18h2.84v-4.4c0-.15.08-.22.24-.22h1.28c.13,0,.2.07.2.22v10.69c0,.16-.07.24-.2.24h-1.28c-.16,0-.24-.08-.24-.24v-4.71h-2.84v4.14c0,.15-.07.22-.22.22h-1.23Z"/>
        <path d="m408.2,253.26c0,1.33-.36,2.58-1.08,3.73-.72,1.15-1.79,2.14-3.2,2.97-1.42.83-3.13,1.42-5.16,1.77-.19,0-.29-.04-.31-.13l-.31-1.08v-.07c0-.15.07-.23.2-.24,3.3-.62,5.59-1.75,6.86-3.41-1.38.21-2.6.31-3.67.31h-2.97c-.15,0-.22-.07-.22-.22v-1.01c0-.07.01-.13.04-.17.03-.04.09-.05.18-.05h2.82c1.79,0,3.33-.09,4.62-.26.26-.62.42-1.36.46-2.22h-7.37c-.15,0-.22-.07-.22-.22v-1.06c0-.15.07-.22.22-.22h8.87c.16,0,.24.07.24.22v1.36Zm3.87,9.81c1.14.67,1.72,1.61,1.72,2.82s-.57,2.14-1.72,2.82c-1.14.67-2.7,1.01-4.66,1.01s-3.5-.34-4.65-1.01c-1.15-.67-1.73-1.61-1.73-2.82s.58-2.14,1.73-2.82c1.15-.67,2.7-1.01,4.65-1.01s3.52.34,4.66,1.01Zm-1.22,4.55c.83-.4,1.24-.98,1.24-1.74s-.41-1.34-1.24-1.74c-.83-.4-1.98-.59-3.44-.59s-2.61.2-3.42.59c-.81.4-1.22.98-1.22,1.74s.41,1.34,1.22,1.74c.81.4,1.95.59,3.42.59s2.61-.2,3.44-.59Zm1.24-6.2c-.16,0-.24-.07-.24-.22v-10.54c0-.15.08-.22.24-.22h1.25c.16,0,.24.07.24.22v10.54c0,.15-.08.22-.24.22h-1.25Z"/>
        <path d="m419.88,264.39c-.81-.5-1.45-1.24-1.9-2.21-.46-.98-.68-2.16-.68-3.55s.23-2.56.68-3.53c.45-.98,1.09-1.71,1.9-2.21.81-.5,1.76-.75,2.85-.75s2.02.25,2.84.75c.82.5,1.46,1.24,1.91,2.21.45.98.68,2.15.68,3.53s-.23,2.56-.68,3.54c-.46.98-1.09,1.72-1.91,2.22-.82.5-1.77.75-2.84.75s-2.04-.25-2.85-.75Zm5.55-2.1c.66-.84.99-2.06.99-3.66s-.33-2.8-1-3.65c-.67-.85-1.57-1.28-2.7-1.28s-2.05.42-2.72,1.28c-.67.85-1,2.07-1,3.65s.33,2.82,1,3.66c.67.84,1.57,1.26,2.72,1.26s2.05-.42,2.71-1.26Zm6.09,7.25c-.15,0-.22-.08-.22-.24v-18.63c0-.15.07-.22.22-.22h1.28c.16,0,.24.07.24.22v18.63c0,.16-.08.24-.24.24h-1.28Z"/>
        <path d="m459.02,258.82c.13,0,.2.08.2.24v.99c0,.15-.07.22-.2.22h-17.82c-.15,0-.22-.07-.22-.22v-.99c0-.16.07-.24.22-.24h8.03v-1.56c-1.66-.07-2.93-.4-3.82-.97-.89-.57-1.33-1.36-1.33-2.35,0-1.07.52-1.89,1.55-2.46s2.51-.86,4.43-.86,3.44.29,4.48.86,1.55,1.39,1.55,2.46c0,.98-.44,1.76-1.32,2.33-.88.57-2.15.9-3.81.99v1.56h8.05Zm-2.16,9.44c.15,0,.22.08.22.24v.97c0,.15-.07.22-.22.22h-12.87c-.15,0-.22-.07-.22-.22v-4.18c0-.16.07-.24.22-.24h10.74v-1.74h-10.78c-.15,0-.22-.08-.22-.24v-.92c0-.16.07-.24.22-.24h12.25c.15,0,.22.08.22.24v4.07c0,.16-.07.24-.22.24h-10.71v1.8h11.37Zm-10-12.92c.71.33,1.78.5,3.2.5s2.51-.17,3.22-.5c.71-.33,1.07-.8,1.07-1.4s-.36-1.07-1.07-1.4c-.71-.33-1.79-.5-3.22-.5s-2.49.17-3.2.5c-.71.33-1.07.8-1.07,1.4s.36,1.07,1.07,1.4Z"/>
        <path d="m472.18,264.13v.04c0,.09-.06.15-.18.2-2.23.44-4.55.66-6.95.66h-3.34c-.19,0-.29-.09-.29-.26v-6.67c0-.06.02-.11.07-.15.04-.04.1-.07.15-.07h7.22v-4.16h-7.26c-.15,0-.22-.08-.22-.24v-1.03c0-.15.07-.22.22-.22h8.76c.13,0,.2.07.2.22v6.64c0,.15-.07.22-.22.22h-7.19v4.22h2.22c1.01,0,2.08-.05,3.21-.15,1.13-.1,2.18-.26,3.15-.46l.09-.02c.1,0,.17.07.2.22l.18,1.01Zm6.73-6.58c.15,0,.22.08.22.24v1.12c0,.15-.07.22-.22.22h-3.1v10.16c0,.16-.07.24-.22.24h-1.28c-.15,0-.22-.08-.22-.24v-18.63c0-.15.07-.22.22-.22h1.28c.15,0,.22.07.22.22v6.89h3.1Z"/>
        <path d="m489.67,252.55c.16,0,.24.07.24.2v2.02c0,2.26-.68,4.23-2.05,5.92-1.36,1.69-3.46,3.24-6.29,4.66-.06.03-.1.04-.13.04-.07,0-.14-.04-.2-.13l-.59-1.03c-.03-.06-.04-.11-.04-.15,0-.07.04-.13.13-.18,2.55-1.25,4.43-2.58,5.62-4,1.2-1.42,1.79-3.13,1.79-5.13v-.66h-6.8c-.15,0-.22-.07-.22-.22v-1.14c0-.13.07-.2.22-.2h8.32Zm8.67,4.99c.15,0,.22.08.22.24v1.12c0,.15-.07.22-.22.22h-3.1v10.16c0,.16-.07.24-.22.24h-1.28c-.15,0-.22-.08-.22-.24v-18.63c0-.15.07-.22.22-.22h1.28c.15,0,.22.07.22.22v6.89h3.1Z"/>
        <path d="m509.73,260.56c0,.15-.08.22-.24.22h-8.78c-.16,0-.24-.07-.24-.22v-8.56c0-.16.08-.24.24-.24h8.78c.16,0,.24.08.24.24v1.41h4.16v-2.75c0-.15.08-.22.24-.22h1.25c.16,0,.24.07.24.22v13.71c0,.15-.08.22-.24.22h-1.25c-.16,0-.24-.07-.24-.22v-5.37h-4.16v1.56Zm-7.55-1.28h5.85v-6.01h-5.85v6.01Zm13.73,8.47c.16,0,.24.08.24.24v1.1c0,.15-.08.22-.24.22h-11.92c-.16,0-.24-.07-.24-.22v-5.9c0-.16.08-.24.24-.24h1.21c.07,0,.14.02.2.07.06.04.09.1.09.18v4.55h10.43Zm-2.02-10.27v-2.57h-4.16v2.57h4.16Z"/>
        <path d="m519.3,271.17c-.07,0-.12-.02-.15-.07s-.04-.1-.02-.18l.97-3.01c-.22-.1-.4-.25-.53-.45-.13-.2-.2-.43-.2-.69,0-.35.12-.65.37-.89.25-.24.55-.36.9-.36s.67.12.91.35c.24.23.36.54.36.9,0,.25-.04.52-.13.8-.09.29-.25.7-.48,1.24l-.97,2.18c-.04.12-.12.18-.24.18h-.79Z"/>
        <path d="m183.67,291.43v.04c0,.09-.07.15-.22.2-2.11.41-4.97.62-8.58.62h-3.54c-.15,0-.22-.08-.22-.24v-1.08c0-.13.07-.2.22-.2h3.89v-5.68c0-.13.08-.2.24-.2h1.28c.15,0,.22.07.22.2v5.63c2.57-.07,4.67-.26,6.31-.55h.07c.1,0,.17.07.2.2l.13,1.06Zm-11.2-10.93c-.16,0-.24-.07-.24-.22v-1.1c0-.15.08-.22.24-.22h9.48c.13,0,.2.07.2.22v1.63c0,2.45-.21,4.72-.64,6.8-.01.13-.1.2-.26.2l-1.21-.13c-.13-.01-.18-.1-.15-.26.16-.91.29-1.94.4-3.1.1-1.16.15-2.24.15-3.26v-.55h-7.96Zm17.4,3.98c.15,0,.22.08.22.24v1.12c0,.15-.07.22-.22.22h-3.1v9.64c0,.16-.07.24-.22.24h-1.28c-.15,0-.22-.08-.22-.24v-18.63c0-.15.07-.22.22-.22h1.28c.15,0,.22.07.22.22v7.41h3.1Z"/>
        <path d="m204.24,291.54v.04c0,.1-.07.17-.2.2-2,.4-4.88.59-8.65.59h-3.96c-.15,0-.22-.07-.22-.2v-1.08c0-.16.07-.24.22-.24h5.04v-3.3c-1.29-.18-2.31-.68-3.06-1.52s-1.12-1.85-1.12-3.04c0-.88.21-1.67.62-2.37.41-.7,1-1.24,1.76-1.64.76-.4,1.65-.59,2.66-.59s1.9.2,2.67.59c.77.4,1.36.94,1.78,1.64.42.7.63,1.49.63,2.37,0,1.19-.38,2.2-1.13,3.04-.76.84-1.78,1.33-3.07,1.5v3.28c2.33-.07,4.22-.26,5.65-.55h.04c.1,0,.17.07.2.22l.13,1.06Zm-9.32-6.34c.61.57,1.41.86,2.41.86s1.8-.29,2.42-.86.92-1.3.92-2.2-.31-1.63-.92-2.2c-.62-.57-1.42-.86-2.42-.86s-1.8.29-2.41.86c-.61.57-.91,1.31-.91,2.2s.3,1.63.91,2.2Zm12-8.36c.16,0,.24.07.24.22v18.63c0,.16-.08.24-.24.24h-1.25c-.15,0-.22-.08-.22-.24v-18.63c0-.15.07-.22.22-.22h1.25Z"/>
        <path d="m219.68,285.7c-.75.8-1.74,1.56-2.96,2.28l-.18.04c-.07,0-.13-.03-.18-.09l-.68-.95s-.07-.1-.07-.18.04-.13.11-.18c3.18-1.86,4.77-4.14,4.77-6.82v-1.8c0-.15.07-.22.2-.22h1.3c.13,0,.2.07.2.22v1.8c0,1.35.4,2.54,1.2,3.56.8,1.03,1.92,1.95,3.38,2.77.12.07.14.19.07.35l-.64.99c-.07.09-.2.11-.37.07-1.09-.63-2.01-1.32-2.77-2.08-.76-.76-1.32-1.55-1.67-2.39-.38.94-.95,1.81-1.71,2.61Zm12.11,8.46c.16,0,.24.08.24.24v1.1c0,.15-.08.22-.24.22h-12.14c-.15,0-.22-.07-.22-.22v-6.14c0-.07.01-.13.04-.17.03-.04.09-.05.18-.05h1.28c.15,0,.22.07.22.22v4.8h10.65Zm-6.05-11.73c-.16,0-.24-.07-.24-.22v-1.08c0-.16.08-.24.24-.24h4.03v-3.83c0-.15.08-.22.24-.22h1.25c.16,0,.24.07.24.22v13.64c0,.13-.08.2-.24.2h-1.25c-.07,0-.13-.02-.18-.06-.04-.04-.07-.08-.07-.14v-8.27h-4.03Z"/>
        <path d="m239.31,282.54c-.26.82-.69,1.61-1.26,2.35-.58.75-1.36,1.5-2.34,2.27-.06.04-.12.07-.18.07-.09,0-.15-.03-.2-.09l-.75-.84s-.07-.1-.07-.18c0-.06.03-.11.09-.15,1.28-1,2.23-2.02,2.87-3.07.64-1.05.96-2.23.96-3.55v-1.45c0-.16.08-.24.24-.24h1.25c.15,0,.22.08.22.24v1.45c0,1.26.31,2.39.92,3.38.62.99,1.52,1.91,2.71,2.76.12.09.13.2.04.33l-.68.88c-.04.07-.1.11-.18.11-.06,0-.12-.02-.18-.07-1.76-1.29-2.92-2.69-3.48-4.2Zm9.67,6.19c.98.33,1.72.79,2.22,1.39s.76,1.28.76,2.06-.25,1.46-.76,2.06-1.25,1.06-2.22,1.39-2.14.5-3.51.5-2.56-.17-3.53-.5-1.72-.79-2.22-1.39-.76-1.28-.76-2.06.25-1.46.76-2.06,1.25-1.06,2.22-1.39,2.15-.5,3.53-.5,2.53.17,3.51.5Zm.03,5.25c.82-.43,1.23-1.03,1.23-1.8s-.41-1.36-1.23-1.79c-.82-.43-2-.65-3.54-.65s-2.72.22-3.54.65c-.82.43-1.23,1.03-1.23,1.79s.41,1.38,1.23,1.8c.82.42,2,.64,3.54.64s2.72-.21,3.54-.64Zm-3.28-6.97c-.16,0-.24-.08-.24-.24v-9.48c0-.16.08-.24.24-.24h1.23c.15,0,.22.08.22.24v3.98h2.84v-4.2c0-.15.08-.22.24-.22h1.28c.13,0,.2.07.2.22v10.34c0,.15-.07.22-.2.22h-1.28c-.16,0-.24-.07-.24-.22v-4.55h-2.84v3.92c0,.16-.07.24-.22.24h-1.23Z"/>
        <path d="m255.81,286.08c-.19,0-.29-.09-.29-.26v-7.83c0-.16.07-.24.22-.24h1.28c.15,0,.22.08.22.24v6.53h2.33c1.06,0,2.15-.06,3.29-.17,1.14-.11,2.16-.27,3.07-.47h.07c.1,0,.18.06.22.18l.13,1.01.02.09c0,.09-.07.15-.2.2-1.98.48-4.28.73-6.91.73h-3.45Zm2.84,9.83c-.16,0-.24-.08-.24-.24v-7.3c0-.15.08-.22.24-.22h11.48c.15,0,.22.07.22.22v7.3c0,.16-.07.24-.22.24h-11.48Zm1.5-6.25v4.73h8.47v-4.73h-8.47Zm8.71-2.53c-.16,0-.24-.07-.24-.2v-9.88c0-.15.08-.22.24-.22h1.25c.16,0,.24.07.24.22v9.88c0,.13-.08.2-.24.2h-1.25Z"/>
        <path d="m296.36,286.46c.13,0,.2.07.2.22v1.03c0,.15-.07.22-.2.22h-17.82c-.15,0-.22-.07-.22-.22v-1.03c0-.15.07-.22.22-.22h8.03v-2.18h-5.17c-.16,0-.24-.07-.24-.22v-6.31c0-.13.08-.2.24-.2h12.08c.15,0,.22.07.22.2v6.31c0,.15-.07.22-.22.22h-5.17v2.18h8.05Zm-2.64,3.3c.15,0,.22.08.22.24v5.92c0,.13-.07.2-.22.2h-1.28c-.16,0-.24-.07-.24-.2v-4.64h-11.2c-.16,0-.24-.08-.24-.24v-1.03c0-.16.08-.24.24-.24h12.72Zm-1.74-10.74h-9.09v3.81h9.09v-3.81Z"/>
        <path d="m315.78,287.53c.13,0,.2.07.2.2v1.01c0,.15-.07.22-.2.22h-17.82c-.15,0-.22-.07-.22-.22v-1.01c0-.13.07-.2.22-.2h8.03v-1.91h-5.1c-.07,0-.13-.02-.18-.05-.04-.04-.07-.08-.07-.14v-4.38c0-.07.02-.13.07-.18.04-.04.1-.07.18-.07h10.45v-1.94h-10.54c-.15,0-.22-.08-.22-.24v-.97c0-.13.07-.2.22-.2h12.03c.15,0,.22.07.22.2v4.31c0,.07-.02.13-.07.18s-.1.07-.18.07h-10.45v2.05h10.98c.16,0,.24.07.24.22v.95c0,.06-.02.11-.07.14-.04.04-.1.05-.18.05h-5.61v1.91h8.05Zm-2.75,2.97c.15,0,.22.08.22.24v5.17c0,.13-.07.2-.22.2h-1.28c-.15,0-.22-.07-.22-.2v-3.98h-11.02c-.15,0-.22-.07-.22-.22v-.97c0-.16.07-.24.22-.24h12.52Z"/>
        <path d="m329.8,277.26c.13,0,.2.08.2.24v17.6c0,.16-.07.24-.2.24h-1.25c-.15,0-.22-.08-.22-.24v-9.66h-2.53c-.06,1.92-.46,3.39-1.21,4.41s-1.77,1.53-3.08,1.53-2.38-.55-3.13-1.64c-.76-1.09-1.13-2.66-1.13-4.7s.38-3.59,1.13-4.69c.75-1.1,1.8-1.65,3.13-1.65,1.2,0,2.17.44,2.92,1.33.74.89,1.18,2.16,1.33,3.82h2.57v-6.36c0-.16.07-.24.22-.24h1.25Zm-6.35,11.35c.45-.81.67-1.99.67-3.56s-.22-2.75-.67-3.55c-.45-.8-1.1-1.2-1.95-1.2s-1.47.4-1.91,1.2c-.44.8-.66,1.98-.66,3.55s.22,2.76.66,3.56c.44.81,1.08,1.21,1.91,1.21s1.5-.4,1.95-1.21Zm10.7-11.77c.13,0,.2.07.2.22v18.63c0,.16-.07.24-.2.24h-1.28c-.16,0-.24-.08-.24-.24v-18.63c0-.15.08-.22.24-.22h1.28Z"/>
        <path d="m348.67,290.28s-.03.1-.09.15l-.79.88c-.04.06-.1.09-.18.09-.04,0-.1-.02-.18-.07-1.1-.95-2.05-1.95-2.86-2.99-.81-1.04-1.38-2-1.72-2.86-.37,1.03-.94,2.06-1.73,3.11-.78,1.05-1.78,2.05-2.98,3-.06.04-.12.07-.2.07s-.13-.02-.18-.07l-.75-.9c-.06-.06-.09-.12-.09-.18,0-.07.04-.13.11-.18,3.27-2.58,4.91-5.55,4.91-8.91v-2.75c0-.13.07-.2.2-.2h1.3c.13,0,.2.07.2.2v2.75c0,3.01,1.63,5.9,4.91,8.67.07.07.11.13.11.18Zm4.07-13.44c.16,0,.24.07.24.22v18.63c0,.16-.08.24-.24.24h-1.28c-.15,0-.22-.08-.22-.24v-11.11h-4.16c-.16,0-.24-.07-.24-.22v-1.12c0-.16.08-.24.24-.24h4.16v-5.94c0-.15.07-.22.22-.22h1.28Z"/>
        <path d="m362.18,287.38c-.06.03-.12.04-.18.04-.07,0-.13-.03-.18-.09l-.68-.95c-.04-.07-.07-.13-.07-.18,0-.09.04-.15.11-.2,1.51-.84,2.7-1.81,3.57-2.92.87-1.11,1.31-2.35,1.31-3.73v-1.47c0-.15.07-.22.22-.22h1.28c.15,0,.22.07.22.22v1.47c0,1.32.41,2.48,1.24,3.48.83,1,1.97,1.88,3.42,2.66.09.04.13.1.13.18,0,.04-.02.1-.07.18l-.64.99c-.04.07-.1.11-.18.11-.06,0-.12-.02-.18-.07-1.09-.59-2.03-1.25-2.83-2-.8-.75-1.38-1.52-1.75-2.31-.76,1.8-2.35,3.4-4.77,4.8Zm12.68,1.93c1.12.7,1.68,1.66,1.68,2.89s-.56,2.19-1.68,2.88-2.65,1.03-4.59,1.03-3.47-.34-4.6-1.03c-1.13-.69-1.69-1.65-1.69-2.88s.56-2.2,1.69-2.89c1.13-.7,2.66-1.05,4.6-1.05s3.46.35,4.59,1.05Zm-1.22,4.69c.79-.42,1.19-1.02,1.19-1.79s-.4-1.4-1.19-1.82-1.91-.63-3.37-.63-2.57.21-3.37.63-1.19,1.02-1.19,1.82.4,1.38,1.19,1.79,1.91.63,3.37.63,2.57-.21,3.37-.63Zm5.79-12.73c.15,0,.22.07.22.22v1.12c0,.16-.07.24-.22.24h-3.1v4.58c0,.13-.07.2-.22.2h-1.28c-.15,0-.22-.07-.22-.2v-10.36c0-.15.07-.22.22-.22h1.28c.15,0,.22.07.22.22v4.2h3.1Z"/>
        <path d="m385.19,286.9h-3.43c-.19,0-.29-.1-.29-.29v-8.32c0-.15.07-.22.22-.22h8.91c.15,0,.22.07.22.22v1.06c0,.16-.07.24-.22.24h-7.41v5.81h2.33c1,0,2.04-.05,3.12-.14,1.09-.09,2.09-.25,3.01-.45h.07c.1,0,.18.06.22.18l.13.99v.04c0,.09-.06.15-.18.2-2.02.46-4.26.68-6.71.68Zm11.18,7.26c.16,0,.24.08.24.24v1.1c0,.15-.08.22-.24.22h-11.92c-.16,0-.24-.07-.24-.22v-6.23c0-.15.08-.22.24-.22h1.28c.15,0,.22.07.22.22v4.88h10.43Zm2.49-11.64c.15,0,.22.08.22.24v1.12c0,.15-.07.22-.22.22h-3.1v6.67c0,.15-.07.22-.22.22h-1.28c-.15,0-.22-.07-.22-.22v-13.71c0-.15.07-.22.22-.22h1.28c.15,0,.22.07.22.22v5.46h3.1Z"/>
        <path d="m412.41,277.26c.13,0,.2.08.2.24v17.6c0,.16-.07.24-.2.24h-1.25c-.15,0-.22-.08-.22-.24v-9.66h-2.53c-.06,1.92-.46,3.39-1.21,4.41s-1.77,1.53-3.08,1.53-2.38-.55-3.13-1.64c-.76-1.09-1.13-2.66-1.13-4.7s.38-3.59,1.13-4.69c.75-1.1,1.8-1.65,3.13-1.65,1.2,0,2.17.44,2.92,1.33.74.89,1.18,2.16,1.33,3.82h2.57v-6.36c0-.16.07-.24.22-.24h1.25Zm-6.35,11.35c.45-.81.67-1.99.67-3.56s-.22-2.75-.67-3.55c-.45-.8-1.1-1.2-1.95-1.2s-1.47.4-1.91,1.2c-.44.8-.66,1.98-.66,3.55s.22,2.76.66,3.56c.44.81,1.08,1.21,1.91,1.21s1.5-.4,1.95-1.21Zm10.7-11.77c.13,0,.2.07.2.22v18.63c0,.16-.07.24-.2.24h-1.28c-.16,0-.24-.08-.24-.24v-18.63c0-.15.08-.22.24-.22h1.28Z"/>
        <path d="m442.15,292.2c.13,0,.2.07.2.22v1.12c0,.16-.07.24-.2.24h-17.82c-.15,0-.22-.08-.22-.24v-1.12c0-.15.07-.22.22-.22h8.03v-5.15h-5.35c-.15,0-.22-.07-.22-.22v-8.14c0-.13.07-.2.22-.2h1.3c.13,0,.2.07.2.2v6.8h11.07c.15,0,.22.07.22.2v1.14c0,.15-.07.22-.22.22h-5.48v5.15h8.05Z"/>
        <path d="m461.58,285.49c.13,0,.2.07.2.2v.99c0,.16-.07.24-.2.24h-8.05v1.78h5.3c.15,0,.22.08.22.24v3.87c0,.15-.07.22-.22.22h-10.85v1.67h11.48c.16,0,.24.08.24.24v.92c0,.15-.08.22-.24.22h-12.98c-.15,0-.22-.07-.22-.22v-3.96c0-.15.07-.22.22-.22h10.85v-1.61h-10.87c-.13,0-.2-.08-.2-.24v-.9c0-.16.07-.24.2-.24h5.32v-1.78h-8.03c-.15,0-.22-.08-.22-.24v-.99c0-.13.07-.2.22-.2h17.82Zm-16.19-2.13s-.02-.07-.02-.13c0-.1.06-.16.18-.18,4.17-.75,6.25-1.83,6.25-3.23v-.04h-5.54c-.07,0-.13-.02-.18-.06-.04-.04-.07-.08-.07-.14v-1.03c0-.16.08-.24.24-.24h5.54v-1.56c0-.15.07-.22.22-.22h1.3c.15,0,.22.07.22.22v1.56h5.54c.15,0,.22.08.22.24v1.03c0,.13-.07.2-.22.2h-5.54v.04c0,1.41,2.08,2.49,6.25,3.23.16.01.21.12.15.31l-.26,1.01c-.01.1-.1.14-.26.11-1.6-.26-2.97-.62-4.12-1.08-1.15-.46-2.02-1-2.61-1.63-.59.63-1.46,1.17-2.61,1.63-1.15.45-2.53.81-4.12,1.08h-.11c-.07,0-.13-.04-.18-.11l-.26-1.01Z"/>
        <path d="m476.4,291.54v.04c0,.1-.07.17-.2.2-2,.4-4.88.59-8.65.59h-4c-.15,0-.22-.07-.22-.2v-1.08c0-.16.07-.24.22-.24h5.21v-3.94h-3.48c-.13,0-.2-.08-.2-.24v-7.96c0-.15.07-.22.22-.22h8.78c.13,0,.2.07.2.22v1.06c0,.16-.07.24-.2.24h-7.3v5.39h7.5c.15,0,.22.07.22.22v1.06c0,.16-.07.24-.22.24h-3.81v3.89c2.3-.1,4.15-.29,5.54-.55h.04c.1,0,.17.07.2.22l.13,1.06Zm2.68-14.7c.16,0,.24.07.24.22v18.63c0,.16-.08.24-.24.24h-1.25c-.15,0-.22-.08-.22-.24v-18.63c0-.15.07-.22.22-.22h1.25Z"/>
        <path d="m498.54,276.84c.16,0,.24.07.24.22v18.63c0,.16-.08.24-.24.24h-1.28c-.15,0-.22-.08-.22-.24v-9.94h-3.34c-.12,1.85-.65,3.27-1.61,4.28s-2.16,1.51-3.63,1.51c-1.03,0-1.94-.25-2.73-.75-.79-.5-1.42-1.24-1.87-2.22-.46-.98-.68-2.16-.68-3.54s.23-2.56.68-3.53c.45-.98,1.08-1.71,1.87-2.21.79-.5,1.7-.75,2.73-.75,1.45,0,2.65.49,3.61,1.46.95.98,1.5,2.37,1.63,4.17h3.34v-7.11c0-.15.07-.22.22-.22h1.28Zm-7.5,11.84c.64-.85.97-2.07.97-3.65s-.32-2.78-.97-3.64c-.65-.86-1.5-1.29-2.57-1.29s-1.93.43-2.57,1.29c-.65.86-.97,2.07-.97,3.64s.32,2.8.97,3.65c.65.85,1.5,1.28,2.57,1.28s1.93-.42,2.57-1.28Z"/>
        <path d="m137.22,317.04v.04c0,.07-.07.13-.2.18-2.19.45-4.5.68-6.95.68h-3.5c-.16,0-.24-.08-.24-.24v-12.34c0-.15.08-.22.24-.22h9.13c.13,0,.2.07.2.22v1.1c0,.15-.07.22-.2.22h-7.63v9.72h2.33c.98,0,2.04-.05,3.18-.17,1.14-.11,2.2-.27,3.18-.47h.04c.13,0,.21.07.22.2l.2,1.08Zm4.05-13.79c.16,0,.24.07.24.22v18.63c0,.16-.08.24-.24.24h-1.28c-.15,0-.22-.08-.22-.24v-10.23h-5.76c-.16,0-.24-.08-.24-.24v-1.12c0-.15.08-.22.24-.22h5.76v-6.82c0-.15.07-.22.22-.22h1.28Z"/>
        <path d="m159.92,312.33c0,.15-.07.22-.22.22h-9.02c-.15,0-.22-.07-.22-.22v-7.83c0-.16.07-.24.22-.24h9.02c.15,0,.22.08.22.24v7.83Zm5.14,5.57c.65.53.98,1.2.98,2.02s-.33,1.52-.98,2.06-1.62.8-2.91.8c-1.48,0-2.54-.37-3.17-1.12-1.53.38-3.16.57-4.91.57h-1.76c-.18,0-.26-.1-.26-.29v-6.89c0-.16.07-.24.22-.24h1.23c.16,0,.24.08.24.24v5.72h.79c1.39,0,2.68-.15,3.85-.44-.01-.09-.02-.23-.02-.42,0-.84.31-1.51.94-2.04s1.57-.78,2.85-.78,2.26.26,2.91.79Zm-12.88-6.8h6.05v-5.37h-6.05v5.37Zm14.37,3.85c.07,0,.13.02.18.06.04.04.07.08.07.14v.97c0,.16-.08.24-.24.24h-8.87c-.15,0-.22-.08-.22-.24v-.97c0-.13.07-.2.22-.2h3.56v-1.74c0-.15.07-.22.22-.22h1.28c.15,0,.22.07.22.22v1.74h3.59Zm-2.72,6.08c.37-.27.56-.64.56-1.11,0-.44-.19-.8-.56-1.08s-.93-.42-1.68-.42-1.31.14-1.69.42c-.38.28-.57.64-.57,1.08s.19.82.57,1.1c.38.28.95.42,1.69.42s1.31-.14,1.68-.41Zm4.12-13.47c.15,0,.22.07.22.22v1.12c0,.16-.07.24-.22.24h-3.1v3.06c0,.07-.01.13-.04.17-.03.04-.09.06-.18.06h-1.28c-.15,0-.22-.07-.22-.22v-8.73c0-.15.07-.22.22-.22h1.28c.15,0,.22.07.22.22v4.09h3.1Z"/>
        <path d="m169.1,314.86c-.15,0-.22-.07-.22-.22v-1.03c0-.15.07-.22.22-.22h17.82c.13,0,.2.07.2.22v1.03c0,.15-.07.22-.2.22h-17.82Zm2.99,7.37c-.16,0-.24-.08-.24-.24v-5.02c0-.16.08-.24.24-.24h1.25c.16,0,.24.08.24.24v3.78h11.04c.15,0,.22.07.22.22v1.01c0,.16-.07.24-.22.24h-12.54Zm1.39-11.86c-1.04-.7-1.56-1.63-1.56-2.79s.52-2.09,1.56-2.79c1.04-.7,2.54-1.06,4.51-1.06s3.49.35,4.53,1.06c1.04.7,1.56,1.64,1.56,2.79s-.52,2.09-1.56,2.79c-1.04.7-2.55,1.06-4.53,1.06s-3.47-.35-4.51-1.06Zm7.81-1.04c.72-.43,1.08-1.01,1.08-1.75s-.36-1.32-1.08-1.75c-.72-.43-1.82-.65-3.3-.65s-2.56.22-3.27.65c-.71.43-1.07,1.02-1.07,1.75s.36,1.32,1.08,1.75c.72.43,1.8.65,3.26.65s2.58-.22,3.3-.65Z"/>
        <path d="m205.09,306.48c0,.13-.07.2-.22.2h-11.26c-.15,0-.22-.07-.22-.2v-1.06c0-.15.07-.22.22-.22h4.77v-2.02c0-.16.07-.24.22-.24h1.28c.16,0,.24.08.24.24v2.02h4.75c.15,0,.22.07.22.22v1.06Zm-2.5,7.15c-.84.62-1.97.92-3.38.92s-2.51-.31-3.34-.92c-.84-.62-1.25-1.44-1.25-2.46s.42-1.85,1.25-2.46c.84-.62,1.95-.92,3.34-.92s2.53.31,3.38.92c.84.62,1.27,1.44,1.27,2.46s-.42,1.85-1.27,2.46Zm-5.52-1.03c.52.38,1.24.57,2.14.57s1.65-.19,2.17-.56.78-.85.78-1.44-.26-1.06-.78-1.43c-.52-.37-1.24-.55-2.17-.55s-1.64.18-2.16.55c-.51.37-.77.84-.77,1.43s.26,1.05.78,1.43Zm11.34,3.17c.13,0,.2.08.2.24v6.29c0,.15-.07.22-.2.22h-1.3c-.15,0-.22-.07-.22-.22v-4.99h-10.34c-.15,0-.22-.07-.22-.22v-1.08c0-.16.07-.24.22-.24h11.86Zm3.3-7.15c.15,0,.22.07.22.22v1.12c0,.16-.07.24-.22.24h-3.1v4.29c0,.15-.07.22-.22.22h-1.28c-.15,0-.22-.07-.22-.22v-11.02c0-.15.07-.22.22-.22h1.28c.15,0,.22.07.22.22v5.15h3.1Z"/>
        <path d="m217.39,308.94c-.26.82-.69,1.61-1.26,2.35-.58.75-1.36,1.5-2.34,2.27-.06.04-.12.07-.18.07-.09,0-.15-.03-.2-.09l-.75-.84s-.07-.1-.07-.18c0-.06.03-.11.09-.15,1.28-1,2.23-2.02,2.87-3.07.64-1.05.96-2.23.96-3.55v-1.45c0-.16.08-.24.24-.24h1.25c.15,0,.22.08.22.24v1.45c0,1.26.31,2.39.92,3.38.62.99,1.52,1.91,2.71,2.76.12.09.13.2.04.33l-.68.88c-.04.07-.1.11-.18.11-.06,0-.12-.02-.18-.07-1.76-1.29-2.92-2.69-3.48-4.2Zm9.67,6.19c.98.33,1.72.79,2.22,1.39s.76,1.28.76,2.06-.25,1.46-.76,2.06-1.25,1.06-2.22,1.39-2.14.5-3.51.5-2.56-.17-3.53-.5-1.72-.79-2.22-1.39-.76-1.28-.76-2.06.25-1.46.76-2.06,1.25-1.06,2.22-1.39,2.15-.5,3.53-.5,2.53.17,3.51.5Zm.03,5.25c.82-.43,1.23-1.03,1.23-1.8s-.41-1.36-1.23-1.79c-.82-.43-2-.65-3.54-.65s-2.72.22-3.54.65c-.82.43-1.23,1.03-1.23,1.79s.41,1.38,1.23,1.8c.82.42,2,.64,3.54.64s2.72-.21,3.54-.64Zm-3.28-6.97c-.16,0-.24-.08-.24-.24v-9.48c0-.16.08-.24.24-.24h1.23c.15,0,.22.08.22.24v3.98h2.84v-4.2c0-.15.08-.22.24-.22h1.28c.13,0,.2.07.2.22v10.34c0,.15-.07.22-.2.22h-1.28c-.16,0-.24-.07-.24-.22v-4.55h-2.84v3.92c0,.16-.07.24-.22.24h-1.23Z"/>
        <path d="m232.28,312.92c-.15,0-.22-.08-.22-.24v-1.01c0-.15.07-.22.22-.22h17.82c.13,0,.2.07.2.22v1.01c0,.16-.07.24-.2.24h-17.82Zm2.79,9.57c-.15,0-.22-.07-.22-.22v-4.22c0-.16.07-.24.22-.24h10.74v-1.78h-10.78c-.15,0-.22-.08-.22-.24v-.95c0-.15.07-.22.22-.22h12.25c.15,0,.22.07.22.22v4.14c0,.16-.07.24-.22.24h-10.71v1.85h11.37c.15,0,.22.08.22.24v.97c0,.15-.07.22-.22.22h-12.87Zm.13-12.63c-.15,0-.22-.07-.22-.2v-5.83c0-.15.08-.22.24-.22h11.84c.15,0,.22.07.22.22v1.01c0,.15-.07.22-.22.22h-10.36v3.37h10.58c.13,0,.2.07.2.22v1.01c0,.13-.07.2-.2.2h-12.08Z"/>
        <path d="m264.12,303.66c.13,0,.2.08.2.24v17.6c0,.16-.07.24-.2.24h-1.25c-.15,0-.22-.08-.22-.24v-9.66h-2.53c-.06,1.92-.46,3.39-1.21,4.41s-1.77,1.53-3.08,1.53-2.38-.55-3.13-1.64c-.76-1.09-1.13-2.66-1.13-4.7s.38-3.59,1.13-4.69c.75-1.1,1.8-1.65,3.13-1.65,1.2,0,2.17.44,2.92,1.33.74.89,1.18,2.16,1.33,3.82h2.57v-6.36c0-.16.07-.24.22-.24h1.25Zm-6.35,11.35c.45-.81.67-1.99.67-3.56s-.22-2.75-.67-3.55c-.45-.8-1.1-1.2-1.95-1.2s-1.47.4-1.91,1.2c-.44.8-.66,1.98-.66,3.55s.22,2.76.66,3.56c.44.81,1.08,1.21,1.91,1.21s1.5-.4,1.95-1.21Zm10.7-11.77c.13,0,.2.07.2.22v18.63c0,.16-.07.24-.2.24h-1.28c-.16,0-.24-.08-.24-.24v-18.63c0-.15.08-.22.24-.22h1.28Z"/>
        <path d="m283.25,303.66c.16,0,.24.08.24.24v17.6c0,.16-.08.24-.24.24h-1.23c-.15,0-.22-.08-.22-.24v-9.09h-4.03c-.53,1.1-1.25,2.16-2.18,3.18s-2.08,2.05-3.45,3.09c-.06.03-.1.04-.13.04-.06,0-.12-.04-.2-.11l-.81-.95s-.04-.08-.04-.15c0-.09.04-.16.11-.22,2.08-1.53,3.6-3.06,4.57-4.6.96-1.54,1.44-3.25,1.44-5.13v-.66h-5.35c-.15,0-.22-.08-.22-.24v-1.12c0-.15.07-.22.22-.22h6.84c.16,0,.24.07.24.22v2.02c0,1.12-.15,2.2-.44,3.26h3.43v-6.93c0-.16.07-.24.22-.24h1.23Zm4.64-.42c.13,0,.2.07.2.22v18.63c0,.16-.07.24-.2.24h-1.28c-.16,0-.24-.08-.24-.24v-18.63c0-.15.08-.22.24-.22h1.28Z"/>
        <path d="m307.54,317.83v.04c0,.09-.07.15-.22.2-2.11.41-4.97.62-8.58.62h-3.54c-.15,0-.22-.08-.22-.24v-1.08c0-.13.07-.2.22-.2h3.89v-5.68c0-.13.08-.2.24-.2h1.28c.15,0,.22.07.22.2v5.63c2.57-.07,4.67-.26,6.31-.55h.07c.1,0,.17.07.2.2l.13,1.06Zm-11.2-10.93c-.16,0-.24-.07-.24-.22v-1.1c0-.15.08-.22.24-.22h9.48c.13,0,.2.07.2.22v1.63c0,2.45-.21,4.72-.64,6.8-.01.13-.1.2-.26.2l-1.21-.13c-.13-.01-.18-.1-.15-.26.16-.91.29-1.94.4-3.1.1-1.16.15-2.24.15-3.26v-.55h-7.96Zm17.4,3.98c.15,0,.22.08.22.24v1.12c0,.15-.07.22-.22.22h-3.1v9.64c0,.16-.07.24-.22.24h-1.28c-.15,0-.22-.08-.22-.24v-18.63c0-.15.07-.22.22-.22h1.28c.15,0,.22.07.22.22v7.41h3.1Z"/>
        <path d="m328.11,317.94v.04c0,.1-.07.17-.2.2-2,.4-4.88.59-8.65.59h-3.96c-.15,0-.22-.07-.22-.2v-1.08c0-.16.07-.24.22-.24h5.04v-3.3c-1.29-.18-2.31-.68-3.06-1.52s-1.12-1.85-1.12-3.04c0-.88.21-1.67.62-2.37.41-.7,1-1.24,1.76-1.64.76-.4,1.65-.59,2.66-.59s1.9.2,2.67.59c.77.4,1.36.94,1.78,1.64.42.7.63,1.49.63,2.37,0,1.19-.38,2.2-1.13,3.04-.76.84-1.78,1.33-3.07,1.5v3.28c2.33-.07,4.22-.26,5.65-.55h.04c.1,0,.17.07.2.22l.13,1.06Zm-9.32-6.34c.61.57,1.41.86,2.41.86s1.8-.29,2.42-.86.92-1.3.92-2.2-.31-1.63-.92-2.2c-.62-.57-1.42-.86-2.42-.86s-1.8.29-2.41.86c-.61.57-.91,1.31-.91,2.2s.3,1.63.91,2.2Zm12-8.36c.16,0,.24.07.24.22v18.63c0,.16-.08.24-.24.24h-1.25c-.15,0-.22-.08-.22-.24v-18.63c0-.15.07-.22.22-.22h1.25Z"/>
        <path d="m352.14,312.94c.13,0,.2.08.2.24v1.03c0,.16-.07.24-.2.24h-7.85v3.7c0,.15-.07.22-.22.22h-1.3c-.13,0-.2-.07-.2-.22v-3.7h-8.25c-.15,0-.22-.08-.22-.24v-1.03c0-.07.02-.13.07-.18s.09-.07.15-.07h17.82Zm-2.29,7.81c.15,0,.22.07.22.22v1.01c0,.16-.07.24-.22.24h-12.76c-.16,0-.24-.08-.24-.24v-5.35c0-.15.08-.22.24-.22h1.28c.15,0,.22.07.22.22v4.11h11.26Zm-12.61-9.88c-.16,0-.24-.07-.24-.2v-6.53c0-.13.08-.2.24-.2h11.95c.15,0,.22.07.22.2v6.53c0,.13-.07.2-.22.2h-11.95Zm10.45-5.46h-8.95v4h8.95v-4Z"/>
        <path d="m354.16,318.58c-.15,0-.22-.08-.22-.24v-1.08c0-.06.02-.11.07-.14.04-.04.09-.05.15-.05h3.52c3.83,0,6.8-.2,8.91-.59h.07c.09,0,.15.07.18.2l.13,1.06v.04c0,.07-.07.14-.2.2-2.07.41-4.95.62-8.65.62h-3.96Zm3.19-5.07c-.75-.4-1.32-.95-1.73-1.65-.4-.7-.61-1.49-.61-2.39s.2-1.69.61-2.4c.4-.7.98-1.26,1.74-1.66.76-.4,1.63-.6,2.63-.6s1.9.2,2.66.6c.76.4,1.35.96,1.75,1.66s.61,1.5.61,2.4-.2,1.69-.61,2.4-.99,1.25-1.75,1.65c-.76.4-1.65.59-2.66.59s-1.89-.2-2.64-.6Zm5.03-1.76c.59-.58.89-1.34.89-2.28s-.3-1.7-.89-2.28c-.59-.58-1.39-.87-2.39-.87s-1.77.29-2.36.87c-.59.58-.89,1.34-.89,2.28s.3,1.7.89,2.28c.59.58,1.38.87,2.36.87s1.79-.29,2.39-.87Zm6.02,10.59c-.15,0-.22-.08-.22-.24v-18.63c0-.15.07-.22.22-.22h1.25c.16,0,.24.07.24.22v18.63c0,.16-.08.24-.24.24h-1.25Z"/>
        <path d="m373.17,313.63c-.06,0-.11-.02-.15-.06-.04-.04-.07-.08-.07-.14v-.97c0-.06.02-.11.07-.14.04-.04.09-.05.15-.05h17.82c.13,0,.2.07.2.2v.97c0,.13-.07.2-.2.2h-17.82Zm2.79,8.93c-.15,0-.22-.07-.22-.22v-3.92c0-.15.07-.22.22-.22h10.74v-1.63h-10.78c-.15,0-.22-.08-.22-.24v-.86c0-.15.07-.22.22-.22h12.25c.15,0,.22.07.22.22v3.81c0,.16-.07.24-.22.24h-10.71v1.69h11.37c.15,0,.22.07.22.22v.9c0,.15-.07.22-.22.22h-12.87Zm.2-11.79c-.16,0-.24-.07-.24-.22v-3.85c0-.15.08-.22.24-.22h10.32v-1.61h-10.41c-.15,0-.22-.08-.22-.24v-.88c0-.16.07-.24.22-.24h11.9c.15,0,.22.08.22.24v3.81c0,.15-.08.22-.24.22h-10.32v1.67h10.85c.16,0,.24.08.24.24v.86c0,.15-.08.22-.24.22h-12.32Z"/>
        <path d="m407.75,312.59c0,.16-.07.24-.22.24h-9.02c-.15,0-.22-.08-.22-.24v-8.12c0-.15.07-.22.22-.22h1.28c.15,0,.22.07.22.22v2.6h6.05v-2.6c0-.15.07-.22.22-.22h1.25c.15,0,.22.07.22.22v8.12Zm-7.74-4.07v2.82h6.05v-2.82h-6.05Zm13.11,12.28c.13,0,.2.07.2.22v1.06c0,.16-.07.24-.2.24h-11.99c-.15,0-.22-.08-.22-.24v-6.89c0-.13.07-.2.22-.2h11.55c.15,0,.22.07.22.2v1.06c0,.16-.07.24-.22.24h-10.05v4.31h10.49Zm2.66-12.94c.15,0,.22.08.22.24v1.12c0,.15-.07.22-.22.22h-3.1v4.22c0,.16-.07.24-.22.24h-1.28c-.15,0-.22-.08-.22-.24v-10.21c0-.15.07-.22.22-.22h1.28c.15,0,.22.07.22.22v4.4h3.1Z"/>
        <path d="m416.93,312.99c-.15,0-.22-.07-.22-.22v-.99c0-.16.07-.24.22-.24h17.82c.13,0,.2.08.2.24v.99c0,.15-.07.22-.2.22h-17.82Zm2.79,9.5c-.15,0-.22-.07-.22-.22v-4.18c0-.16.07-.24.22-.24h10.74v-1.74h-10.78c-.15,0-.22-.08-.22-.24v-.92c0-.16.07-.24.22-.24h12.25c.15,0,.22.08.22.24v4.07c0,.16-.07.24-.22.24h-10.71v1.8h11.37c.15,0,.22.08.22.24v.97c0,.15-.07.22-.22.22h-12.87Zm1.66-13.23c-1.03-.58-1.55-1.4-1.55-2.45s.51-1.87,1.54-2.45c1.03-.58,2.5-.87,4.42-.87s3.42.29,4.44.87c1.03.58,1.54,1.4,1.54,2.45s-.51,1.87-1.54,2.45-2.51.87-4.44.87-3.38-.29-4.41-.87Zm7.62-1.07c.7-.34,1.06-.8,1.06-1.39s-.35-1.06-1.06-1.39c-.7-.32-1.77-.48-3.21-.48s-2.49.16-3.19.48-1.06.78-1.06,1.39.36,1.05,1.07,1.39c.71.34,1.77.51,3.18.51s2.51-.17,3.21-.51Z"/>
        <path d="m459.08,314.33c.13,0,.2.07.2.22v1.12c0,.16-.07.24-.2.24h-8.05v6.18c0,.16-.08.24-.24.24h-1.25c-.16,0-.24-.08-.24-.24v-6.18h-8.03c-.15,0-.22-.08-.22-.24v-1.12c0-.15.07-.22.22-.22h17.82Zm-16.57-3.5l-.02-.09c0-.1.05-.16.15-.18,1.99-.5,3.6-1.2,4.82-2.11,1.22-.91,1.83-1.92,1.83-3.04v-1.47c0-.15.07-.22.22-.22h1.3c.15,0,.22.07.22.22v1.47c0,.73.29,1.44.87,2.12.58.68,1.37,1.28,2.38,1.79,1,.51,2.12.92,3.35,1.21.15.04.2.14.15.29l-.42,1.08c-.04.13-.14.19-.29.18-1.58-.37-3-.92-4.26-1.65s-2.14-1.52-2.65-2.35c-.53.85-1.4,1.63-2.61,2.33-1.21.7-2.66,1.26-4.34,1.67h-.07c-.12,0-.2-.05-.24-.15l-.4-1.1Z"/>
        <path d="m468.77,312.62c-.79-.39-1.39-.93-1.83-1.63-.43-.7-.65-1.49-.65-2.39s.22-1.69.65-2.4,1.04-1.25,1.83-1.65c.78-.4,1.68-.59,2.7-.59s1.91.2,2.69.59c.78.4,1.39.95,1.83,1.65s.65,1.5.65,2.4-.22,1.69-.65,2.39c-.43.7-1.04,1.24-1.83,1.63s-1.68.58-2.69.58-1.91-.19-2.7-.58Zm14.56,8.58c0,.07-.01.13-.05.19l-.75.95s-.1.07-.15.07c-.04,0-.11-.02-.2-.07-.79-.56-1.48-1.16-2.07-1.8-.59-.64-1.03-1.3-1.32-1.98-.56,1.38-1.66,2.68-3.3,3.89-.06.06-.14.09-.24.09-.09,0-.17-.03-.24-.09-1.58-1.16-2.66-2.45-3.21-3.87-.54,1.35-1.68,2.64-3.41,3.87-.15.09-.26.09-.35,0l-.79-.92s-.07-.1-.07-.15.04-.11.11-.15c1.13-.76,2.02-1.59,2.68-2.49.66-.89.99-1.86.99-2.88v-.7c0-.15.08-.22.24-.22h1.23c.15,0,.22.07.22.22v.7c0,.92.24,1.79.71,2.6s1.1,1.53,1.88,2.18c.79-.6,1.43-1.31,1.91-2.13.48-.82.73-1.69.73-2.62v-.79c0-.15.07-.22.22-.22h1.23c.15,0,.22.07.22.22v.79c0,.94.34,1.86,1.03,2.77.69.91,1.57,1.72,2.64,2.42.06.03.09.08.1.14Zm-14.4-14.84c-.63.59-.95,1.33-.95,2.24s.32,1.65.95,2.23c.63.58,1.47.87,2.53.87s1.88-.29,2.52-.87.96-1.32.96-2.23-.32-1.66-.96-2.24c-.64-.59-1.48-.88-2.52-.88s-1.9.29-2.53.88Zm11.31,7.41c-.16,0-.24-.07-.24-.22v-10.1c0-.15.08-.22.24-.22h1.25c.16,0,.24.07.24.22v10.1c0,.15-.08.22-.24.22h-1.25Z"/>
        <path d="m502.83,312.09c.13,0,.2.08.2.24v1.03c0,.13-.07.2-.2.2h-17.82c-.06,0-.11-.02-.15-.05-.04-.04-.07-.08-.07-.14v-1.03c0-.16.07-.24.22-.24h17.82Zm-16.24-2.82s-.02-.07-.02-.11c0-.1.04-.16.13-.18,1.91-.53,3.44-1.19,4.59-1.99,1.15-.8,1.73-1.64,1.73-2.52v-.81c0-.15.08-.22.24-.22h1.3c.15,0,.22.07.22.22v.81c0,.88.58,1.72,1.73,2.52,1.15.8,2.68,1.46,4.59,1.99.13.04.17.14.11.29l-.44,1.06c-.04.13-.13.18-.26.13-1.7-.46-3.12-1.02-4.27-1.71-1.14-.68-1.92-1.39-2.33-2.12-.41.73-1.18,1.44-2.32,2.12-1.14.68-2.56,1.25-4.26,1.71-.03.01-.07.02-.11.02-.09,0-.15-.05-.2-.15l-.42-1.06Zm13.44,6.05c.15,0,.22.07.22.22v6.67c0,.16-.07.24-.22.24h-12.25c-.16,0-.24-.08-.24-.24v-6.67c0-.15.08-.22.24-.22h1.28c.15,0,.22.07.22.22v1.83h9.26v-1.83c0-.15.07-.22.22-.22h1.28Zm-10.76,3.48v2.18h9.26v-2.18h-9.26Z"/>
        <path d="m505.98,317.52c-.15,0-.22-.08-.22-.24v-12.03c0-.15.07-.22.22-.22h1.3c.13,0,.2.07.2.22v10.69h2.29c1,0,2.06-.05,3.2-.15,1.14-.1,2.19-.26,3.16-.46l.07-.02c.12,0,.19.07.22.22l.15,1.1v.04c0,.07-.06.13-.18.18-2.27.45-4.58.68-6.93.68h-3.48Zm13.11,4.82c-.15,0-.22-.08-.22-.24v-18.63c0-.15.07-.22.22-.22h1.28c.16,0,.24.07.24.22v18.63c0,.16-.08.24-.24.24h-1.28Z"/>
        <path d="m535.42,316.71v.04c0,.06-.02.1-.06.13-.04.03-.08.05-.12.07-2.19.46-4.5.68-6.95.68h-3.23c-.19,0-.29-.1-.29-.29v-11.88c0-.15.07-.22.22-.22h8.91c.15,0,.22.07.22.22v1.1c0,.15-.07.22-.22.22h-7.41v9.31h2.11c.98,0,2.05-.06,3.19-.17,1.14-.11,2.2-.27,3.17-.47h.07c.12,0,.19.06.22.18l.18,1.08Zm6.73-6.36c.15,0,.22.08.22.24v1.12c0,.15-.07.22-.22.22h-3.1v10.16c0,.16-.07.24-.22.24h-1.28c-.15,0-.22-.08-.22-.24v-18.63c0-.15.07-.22.22-.22h1.28c.15,0,.22.07.22.22v6.89h3.1Z"/>
        <path d="m544.07,320.47c-.24-.23-.36-.54-.36-.9s.12-.67.36-.9c.24-.24.55-.35.91-.35s.67.12.91.35c.24.23.36.54.36.9s-.12.67-.36.9-.55.35-.91.35-.67-.12-.91-.35Zm.36-4.42c-.16,0-.24-.08-.24-.24l-.13-11.11c0-.16.07-.24.22-.24h1.34c.16,0,.24.08.24.24l-.15,11.11c0,.16-.07.24-.22.24h-1.06Z"/>
      </g>
    </g>
  </g>
</svg>