<?xml version="1.0" encoding="UTF-8"?>
<svg id="_레이어_2" data-name="레이어 2" xmlns="http://www.w3.org/2000/svg" viewBox="0 0 650 350">
  <defs>
    <style>
      .cls-1 {
        fill: #ebf3ff;
      }

      .cls-2 {
        fill: #fff;
      }

      .cls-3 {
        fill: #f99746;
      }

      .cls-4 {
        fill: #8cb4f4;
      }

      .cls-5 {
        fill: #0f2549;
      }

      .cls-6 {
        fill: #ffd4dc;
      }

      .cls-7 {
        fill: #2e3552;
      }

      .cls-8 {
        fill: #73a2e5;
      }

      .cls-9 {
        fill: #ef687a;
      }

      .cls-10 {
        fill: #ed975d;
      }

      .cls-11 {
        fill: #1b3051;
      }

      .cls-12 {
        fill: #ed7d2b;
      }

      .cls-13 {
        fill: #29002e;
      }

      .cls-14 {
        fill: #ffb27d;
      }

      .cls-15 {
        fill: #233862;
      }

      .cls-16 {
        fill: #2b478b;
      }

      .cls-17 {
        fill: #182d4f;
      }
    </style>
  </defs>
  <g id="_레이어_1-2" data-name="레이어 1">
    <rect class="cls-6" width="650" height="350" rx="35.94" ry="35.94"/>
    <rect class="cls-9" x="44.54" y="51.33" width="310.56" height="33.62"/>
    <g>
      <path class="cls-2" d="m55.83,65.59v-1.76h7.35v6.5h-2.27v-4.74h-5.08Zm11.58,5.6v4.83h-10.98v-4.83h10.98Zm-8.71,1.74v1.34h6.44v-1.34h-6.44Zm8.71-9.25v6.86h-2.27v-6.86h2.27Z"/>
      <path class="cls-2" d="m71.66,73.69v-5.24h2.27v5.24h4.23v1.74h-8.72v-1.74h2.22Zm3.68-1.66v-6.3h-5.4v-1.76h7.67v8.05h-2.27Zm5.94-3.83h1.26v1.76h-1.26v5.78h-2.27v-12.05h2.27v4.51Z"/>
      <path class="cls-2" d="m86.97,73.69v-1.77c-.45-.1-.87-.26-1.25-.49-.38-.23-.71-.52-.98-.87s-.49-.75-.65-1.21c-.16-.46-.24-.97-.24-1.53,0-.68.11-1.29.33-1.82s.52-.97.9-1.33c.38-.36.82-.63,1.33-.82.51-.19,1.05-.28,1.63-.28s1.11.09,1.62.28c.51.19.96.46,1.34.82.38.36.68.8.9,1.33.22.53.33,1.13.33,1.82,0,.55-.08,1.05-.23,1.5s-.36.85-.63,1.2c-.27.35-.58.63-.95.86-.37.23-.76.4-1.18.52v1.8h3.37v1.74h-9.01v-1.74h3.38Zm1.07-3.4c.27,0,.52-.06.76-.19s.44-.3.61-.52.31-.48.4-.79c.1-.3.14-.63.14-.99s-.05-.7-.14-1.01c-.1-.31-.23-.57-.4-.79s-.38-.39-.61-.51-.49-.18-.76-.18c-.29,0-.55.06-.79.19-.24.12-.44.3-.61.52-.17.22-.3.48-.39.79-.09.31-.14.64-.14.99s.05.7.14,1,.23.56.4.79c.17.22.37.39.61.51.24.12.49.18.77.18Zm7.68,5.45h-2.27v-12.05h2.27v12.05Z"/>
      <path class="cls-2" d="m106.44,75.74v-5.72l-1.4.48c-.04.99-.16,1.82-.36,2.49s-.46,1.21-.79,1.62c-.32.41-.69.7-1.1.87-.41.17-.86.26-1.33.26-.5,0-.97-.1-1.41-.3-.44-.2-.82-.53-1.14-.99-.32-.46-.58-1.07-.77-1.83-.19-.76-.28-1.71-.28-2.84s.09-2.07.28-2.83c.19-.76.44-1.38.77-1.84.32-.46.7-.79,1.14-.99.44-.2.91-.3,1.41-.3.45,0,.88.08,1.29.25.4.16.77.43,1.08.81.32.38.58.88.79,1.51.21.62.34,1.39.4,2.31l1.43-.49v-4.52h2.08v12.05h-2.08Zm-6.51-5.95c0,.85.04,1.55.13,2.1.09.54.2.97.35,1.28.14.31.31.53.49.64.18.11.37.17.56.17s.38-.06.56-.17c.18-.12.34-.33.48-.64.14-.31.25-.74.34-1.28.09-.54.13-1.25.13-2.11s-.04-1.54-.13-2.08c-.09-.54-.2-.97-.34-1.28-.14-.31-.3-.53-.48-.64-.18-.11-.37-.17-.56-.17s-.38.06-.56.17c-.18.12-.35.33-.49.64-.14.31-.26.74-.35,1.28-.09.54-.13,1.24-.13,2.1Zm11.74,5.95h-2.09v-12.05h2.09v12.05Z"/>
      <path class="cls-2" d="m118.34,69.08c0,.72-.07,1.4-.22,2.03l3.54,2.71-1.11,1.67-3.19-2.48c-.37.56-.83,1.04-1.4,1.46-.57.41-1.28.76-2.12,1.04l-1-1.67c.58-.2,1.07-.43,1.48-.68.41-.25.74-.56,1-.93.26-.37.45-.81.57-1.32.12-.51.18-1.12.18-1.84v-5.26h2.27v5.27Zm6.7,6.66h-2.27v-6.44l-2.69.92v-1.94l2.69-.92v-3.66h2.27v12.05Z"/>
      <path class="cls-2" d="m133.34,73.69v-5.24h2.27v5.24h4.23v1.74h-8.72v-1.74h2.22Zm3.68-1.66v-6.3h-5.4v-1.76h7.67v8.05h-2.27Zm5.94-3.83h1.26v1.76h-1.26v5.78h-2.27v-12.05h2.27v4.51Z"/>
      <path class="cls-2" d="m148.65,73.69v-1.77c-.45-.1-.87-.26-1.25-.49-.38-.23-.71-.52-.98-.87s-.49-.75-.65-1.21c-.16-.46-.24-.97-.24-1.53,0-.68.11-1.29.33-1.82s.52-.97.9-1.33c.38-.36.82-.63,1.33-.82.51-.19,1.05-.28,1.63-.28s1.11.09,1.62.28c.51.19.96.46,1.34.82.38.36.68.8.9,1.33.22.53.33,1.13.33,1.82,0,.55-.08,1.05-.23,1.5s-.36.85-.63,1.2c-.27.35-.58.63-.95.86-.37.23-.76.4-1.18.52v1.8h3.37v1.74h-9.01v-1.74h3.38Zm1.07-3.4c.27,0,.52-.06.76-.19s.44-.3.61-.52.31-.48.4-.79c.1-.3.14-.63.14-.99s-.05-.7-.14-1.01c-.1-.31-.23-.57-.4-.79s-.38-.39-.61-.51-.49-.18-.76-.18c-.29,0-.55.06-.79.19-.24.12-.44.3-.61.52-.17.22-.3.48-.39.79-.09.31-.14.64-.14.99s.05.7.14,1,.23.56.4.79c.17.22.37.39.61.51.24.12.49.18.77.18Zm7.68,5.45h-2.27v-12.05h2.27v12.05Z"/>
      <path class="cls-2" d="m164.77,75.59v-9.86h-4.8v-1.76h7.06v11.61h-2.27Zm6.36-7.39h1.26v1.76h-1.26v5.78h-2.27v-12.05h2.27v4.51Z"/>
      <path class="cls-2" d="m183.05,65.85c0,.34-.04.69-.12,1.05l3.22,2.05-1.17,1.5-2.89-1.84c-.37.42-.84.79-1.42,1.11-.58.32-1.29.57-2.14.75l-.97-1.58c1.13-.24,1.94-.6,2.45-1.08.51-.48.76-1.13.76-1.96v-2.18h2.27v2.19Zm1.23,10.46c-.91,0-1.72-.05-2.43-.16-.71-.11-1.32-.27-1.81-.49s-.87-.49-1.13-.82c-.26-.33-.39-.72-.39-1.17s.13-.83.39-1.16c.26-.33.64-.61,1.13-.82.5-.22,1.1-.38,1.81-.48.71-.11,1.52-.16,2.43-.16s1.71.05,2.43.16c.71.11,1.32.27,1.81.48.5.22.87.49,1.13.82.26.33.39.72.39,1.16s-.13.84-.39,1.17c-.26.33-.64.6-1.13.82s-1.1.38-1.81.49c-.71.11-1.52.16-2.43.16Zm0-1.76c1.11,0,1.97-.07,2.58-.2.61-.13.92-.36.92-.68s-.31-.54-.92-.68c-.61-.13-1.47-.2-2.58-.2s-1.97.07-2.58.2c-.61.13-.92.36-.92.68s.31.54.92.68c.61.13,1.47.2,2.58.2Zm5.47-10.86v7.15h-2.27v-3.73l-2.6.59v-1.86l2.6-.59v-1.56h2.27Z"/>
      <path class="cls-2" d="m197.21,69.08c0,.72-.07,1.4-.22,2.03l3.54,2.71-1.11,1.67-3.19-2.48c-.37.56-.83,1.04-1.4,1.46-.57.41-1.28.76-2.12,1.04l-1-1.67c.58-.2,1.07-.43,1.48-.68s.74-.56,1-.93.45-.81.57-1.32c.12-.51.18-1.12.18-1.84v-5.26h2.27v5.27Zm6.27-.88h1.26v1.76h-1.26v5.78h-2.27v-12.05h2.27v4.51Z"/>
      <path class="cls-2" d="m209.17,70.03v-1.02h-2.87v-5.17h7.96v1.76h-5.71v1.66h5.85v1.76h-2.96v1.02h3.51v1.74h-9.01v-1.74h3.23Zm-.29,2.46v1.79h9.33v1.74h-11.6v-3.53h2.27Zm9.19.65h-2.27v-9.45h2.27v9.45Z"/>
      <path class="cls-2" d="m225.2,64.04h10.65v8h-4.19v1.95h4.9v1.76h-12.06v-1.76h4.9v-1.95h-4.19v-8Zm2.27,6.24h6.11v-4.48h-6.11v4.48Z"/>
      <path class="cls-2" d="m238.65,69.76h12.06v1.76h-12.06v-1.76Zm2.98,2.59v1.92h8.52v1.76h-10.79v-3.67h2.27Zm8.38-5.32v1.76h-10.5v-4.96h10.36v1.76h-8.09v1.44h8.23Z"/>
      <path class="cls-2" d="m259.72,73.69v-1.56c-.92-.13-1.62-.44-2.09-.91-.47-.47-.71-1.09-.71-1.84,0-.9.34-1.6,1.02-2.1.68-.5,1.67-.75,2.98-.75s2.32.25,3,.75,1.03,1.2,1.03,2.1c0,.78-.25,1.4-.75,1.87-.5.47-1.24.77-2.21.91v1.53h3.51v1.74h-9.01v-1.74h3.23Zm2.34-9.42h3.23v1.76h-8.74v-1.76h3.24v-1.05h2.27v1.05Zm-1.14,4.02c-.23,0-.45.02-.66.06-.21.04-.4.1-.56.19-.16.09-.28.2-.38.34-.09.14-.14.31-.14.51s.04.37.14.51c.09.14.22.25.38.34.16.09.34.15.56.19.21.04.43.06.66.06s.45-.02.66-.06c.21-.04.4-.1.56-.19.16-.09.29-.2.39-.34.1-.14.14-.31.14-.51s-.05-.37-.15-.51c-.1-.14-.23-.25-.4-.34-.16-.09-.35-.15-.56-.19-.21-.04-.43-.06-.65-.06Zm7.7,7.45h-2.27v-12.05h2.27v12.05Z"/>
      <path class="cls-2" d="m274.02,73.32v-1.54h-3.38v-1.76h9.01v1.76h-3.37v1.54h-2.27Zm-3.16-6.84c0-.87.36-1.55,1.08-2.04.72-.48,1.73-.73,3.03-.73,1.03,0,1.88.15,2.55.46.67.31,1.13.75,1.38,1.33l1.6-.36v-1.44h2.27v9.45h-2.27v-6.21l-1.53.35c-.2.63-.65,1.12-1.34,1.46-.69.34-1.58.5-2.66.5-1.3,0-2.31-.24-3.03-.73-.72-.48-1.08-1.16-1.08-2.04Zm2.73,6.02v1.79h9.33v1.74h-11.6v-3.53h2.27Zm-.46-6.02c0,.16.05.31.16.44.11.13.25.24.42.32.17.09.37.15.59.19.22.04.45.06.68.06s.46-.02.69-.07c.23-.05.43-.12.61-.2.18-.09.32-.19.43-.32s.16-.27.16-.43c0-.32-.18-.57-.53-.75s-.8-.27-1.35-.27-.98.09-1.33.26-.52.43-.52.76Z"/>
      <path class="cls-2" d="m290.06,73.39v-1.95h-4.9v-1.76h12.06v1.76h-4.9v1.95h-2.27Zm-1.92-1.04v1.92h8.52v1.76h-10.79v-3.67h2.27Zm.14-7.69h5.82v-.82h2.27v4.96h-10.36v-4.96h2.27v.82Zm5.82,1.69h-5.82v.76h5.82v-.76Z"/>
      <path class="cls-2" d="m299.31,68.71h12.06v1.61h-12.06v-1.61Zm9.09,4.14v-.5h-8.38v-1.34h10.65v3.18h-8.38v.5h8.52v1.34h-10.79v-3.18h8.38Zm2.27-6.58v1.76h-10.5v-4.18h10.36v1.76h-8.09v.66h8.23Z"/>
      <path class="cls-2" d="m321.8,75.74v-5.72l-1.4.48c-.04.99-.16,1.82-.36,2.49s-.46,1.21-.79,1.62c-.32.41-.69.7-1.1.87-.41.17-.86.26-1.33.26-.5,0-.97-.1-1.41-.3-.44-.2-.82-.53-1.14-.99-.32-.46-.58-1.07-.77-1.83-.19-.76-.28-1.71-.28-2.84s.09-2.07.28-2.83c.19-.76.44-1.38.77-1.84.32-.46.7-.79,1.14-.99.44-.2.91-.3,1.41-.3.45,0,.88.08,1.28.25.4.16.77.43,1.08.81.32.38.58.88.79,1.51.21.62.34,1.39.4,2.31l1.43-.49v-4.52h2.08v12.05h-2.08Zm-6.51-5.95c0,.85.04,1.55.13,2.1s.2.97.35,1.28c.14.31.31.53.49.64.18.11.37.17.56.17s.38-.06.56-.17c.18-.12.34-.33.48-.64.14-.31.25-.74.34-1.28.09-.54.13-1.25.13-2.11s-.04-1.54-.13-2.08c-.09-.54-.2-.97-.34-1.28-.14-.31-.3-.53-.48-.64-.18-.11-.37-.17-.56-.17s-.38.06-.56.17c-.18.12-.35.33-.49.64-.14.31-.26.74-.35,1.28-.09.54-.13,1.24-.13,2.1Zm11.74,5.95h-2.09v-12.05h2.09v12.05Z"/>
      <path class="cls-2" d="m332.94,75.59v-9.86h-4.12v-1.76h6.2v4.93l1.37-.48v-4.74h2.08v12.05h-2.08v-5.5l-1.37.48v4.88h-2.08Zm8.68.14h-2.09v-12.05h2.09v12.05Z"/>
    </g>
    <g>
      <path class="cls-13" d="m53.04,152.16v-18.03h7.8v18.03h14.55v6h-30v-6h7.65Zm12.67-5.7v-21.65h-18.58v-6.04h26.37v27.7h-7.8Zm20.41-13.18h4.32v6.04h-4.32v19.87h-7.8v-41.42h7.8v15.51Z"/>
      <path class="cls-13" d="m102.71,152.16v-6.09c-1.56-.33-2.99-.89-4.3-1.68-1.31-.79-2.43-1.79-3.38-3-.94-1.21-1.69-2.59-2.24-4.16-.55-1.57-.82-3.33-.82-5.28,0-2.35.38-4.43,1.14-6.24.76-1.82,1.8-3.34,3.1-4.58,1.31-1.24,2.83-2.18,4.57-2.82,1.74-.64,3.6-.97,5.59-.97s3.81.32,5.56.97c1.76.64,3.29,1.59,4.59,2.82,1.31,1.24,2.34,2.77,3.1,4.58.76,1.82,1.14,3.9,1.14,6.24,0,1.88-.27,3.6-.79,5.15-.53,1.55-1.25,2.92-2.16,4.11-.91,1.19-2,2.18-3.25,2.97-1.26.79-2.62,1.39-4.07,1.78v6.19h11.57v6h-30.99v-6h11.62Zm3.68-11.69c.93,0,1.8-.21,2.61-.64.81-.43,1.51-1.02,2.11-1.78s1.06-1.66,1.39-2.7c.33-1.04.5-2.17.5-3.39s-.17-2.41-.5-3.47c-.33-1.06-.8-1.96-1.39-2.72s-1.3-1.35-2.11-1.76c-.81-.41-1.68-.62-2.61-.62-.99,0-1.9.22-2.71.64-.81.43-1.51,1.02-2.09,1.78-.58.76-1.03,1.67-1.34,2.73-.32,1.06-.47,2.2-.47,3.42s.17,2.4.5,3.44c.33,1.04.79,1.94,1.37,2.7.58.76,1.27,1.35,2.09,1.76.81.41,1.7.62,2.66.62Zm26.42,18.73h-7.8v-41.42h7.8v41.42Z"/>
      <path class="cls-13" d="m155.46,127.18c0,1.16-.13,2.36-.4,3.62l11.08,7.04-4.02,5.15-9.93-6.34c-1.26,1.45-2.88,2.73-4.87,3.82-1.99,1.09-4.44,1.95-7.35,2.58l-3.33-5.45c3.87-.83,6.68-2.06,8.42-3.72,1.74-1.65,2.61-3.9,2.61-6.74v-9.46h7.8v9.51Zm-6.9,18.88v8.13h30.45v6h-38.25v-14.12h7.8Zm29.95-28.29v29.58h-7.8v-17.34l-8.94,2.03v-6.39l8.94-2.03v-5.85h7.8Z"/>
      <path class="cls-13" d="m199.02,125.7c0,1.22-.12,2.31-.35,3.27l9.73,6.89-4.32,5.35-8.59-6.14c-2.32,2.54-5.6,4.54-9.83,5.99l-3.38-5.75c3.28-.92,5.59-2.16,6.93-3.69,1.34-1.54,2.01-3.53,2.01-5.97v-7.88h7.8v7.93Zm8.44,35.48c-7.29,0-12.76-.74-16.41-2.21-3.66-1.47-5.49-3.76-5.49-6.86s1.83-5.38,5.49-6.84c3.66-1.45,9.13-2.18,16.41-2.18s12.76.73,16.42,2.18c3.66,1.45,5.49,3.73,5.49,6.84s-1.83,5.39-5.49,6.86c-3.66,1.47-9.13,2.21-16.42,2.21Zm0-6.04c4.8,0,8.35-.23,10.65-.69,2.3-.46,3.45-1.24,3.45-2.33s-1.15-1.87-3.45-2.33c-2.3-.46-5.85-.69-10.65-.69s-8.35.23-10.65.69c-2.3.46-3.45,1.24-3.45,2.33s1.15,1.87,3.45,2.33c2.3.46,5.85.69,10.65.69Zm2.19-13.82v-23.53h7.15v8.62l4.37-1.54v-7.08h7.2v24.53h-7.2v-10.75l-4.37,1.54v8.22h-7.15Z"/>
      <path class="cls-13" d="m260.31,134.57v6.04h-26.77v-22.35h7.8v16.3h18.97Zm13.06,9.02v16.6h-37.75v-16.6h37.75Zm-29.95,6v4.61h22.15v-4.61h-22.15Zm29.95-31.81v23.58h-7.8v-23.58h7.8Z"/>
      <path class="cls-9" d="m64.07,195.76c0,2.48-.25,4.81-.75,6.99l12.17,9.32-3.82,5.75-10.98-8.52c-1.26,1.92-2.86,3.58-4.82,5-1.95,1.42-4.39,2.61-7.3,3.57l-3.43-5.75c1.99-.69,3.68-1.47,5.09-2.33,1.41-.86,2.56-1.92,3.45-3.2.89-1.27,1.55-2.78,1.96-4.53.41-1.75.62-3.86.62-6.34v-18.08h7.8v18.13Zm21.56-3.02h4.32v6.04h-4.32v19.87h-7.8v-41.42h7.8v15.51Z"/>
      <path class="cls-9" d="m91.49,188.18c0-1.65.32-3.15.97-4.51.65-1.35,1.56-2.51,2.73-3.47,1.17-.96,2.61-1.69,4.3-2.2,1.69-.51,3.58-.77,5.66-.77,3.44,0,6.31.69,8.59,2.06,2.29,1.37,3.81,3.25,4.57,5.62l6.71-1.54v-6.14h7.8v22.3h-7.8v-9.96l-6.61,1.49c-.66,2.48-2.15,4.43-4.47,5.87-2.32,1.44-5.25,2.16-8.79,2.16-2.09,0-3.97-.26-5.66-.79-1.69-.53-3.12-1.26-4.3-2.21-1.18-.94-2.09-2.08-2.73-3.42-.65-1.34-.97-2.83-.97-4.48Zm11.37,13.58v2.92h22.15v-2.92h7.8v17.89h-37.75v-17.89h7.8Zm2.28-8.72c1.69,0,3.09-.45,4.2-1.34,1.11-.89,1.66-2.06,1.66-3.52s-.55-2.68-1.66-3.57c-1.11-.89-2.51-1.34-4.2-1.34s-3.09.45-4.2,1.34c-1.11.89-1.66,2.08-1.66,3.57s.55,2.63,1.66,3.52c1.11.89,2.51,1.34,4.2,1.34Zm19.87,20.61v-2.97h-22.15v2.97h22.15Z"/>
      <path class="cls-9" d="m151.54,186.99c4.3,0,7.61.86,9.91,2.58,2.3,1.72,3.45,4.13,3.45,7.23,0,2.68-.84,4.81-2.51,6.42-1.67,1.6-4.07,2.63-7.18,3.1v5.3h11.57v6h-30v-6h10.63v-5.35c-2.98-.5-5.25-1.55-6.8-3.17-1.56-1.62-2.33-3.72-2.33-6.29,0-3.1,1.15-5.52,3.45-7.23,2.3-1.72,5.57-2.58,9.81-2.58Zm3.92-7.78h10.63v6.04h-29.06v-6.04h10.63v-3.62h7.8v3.62Zm-3.92,13.82c-.7,0-1.37.07-2.01.2-.65.13-1.23.35-1.74.64-.51.3-.93.69-1.24,1.16-.32.48-.47,1.07-.47,1.76s.16,1.28.47,1.76c.31.48.73.87,1.24,1.16.51.3,1.09.51,1.74.64.65.13,1.32.2,2.01.2s1.32-.07,1.99-.2c.66-.13,1.26-.35,1.79-.64.53-.3.96-.68,1.29-1.16.33-.48.5-1.06.5-1.76s-.17-1.28-.5-1.76c-.33-.48-.77-.87-1.32-1.16-.55-.3-1.15-.51-1.81-.64-.66-.13-1.31-.2-1.94-.2Zm25.98-.3h4.32v6.04h-4.32v19.87h-7.8v-41.42h7.8v15.51Z"/>
      <path class="cls-9" d="m200.86,189.86v-6.09h-16.49v-6.04h24.29v24.33h-7.8v-6.14h-16.49v-6.04h16.49Zm-6.61,15.66v8.13h30.45v6h-38.25v-14.12h7.8Zm29.95-28.29v29.58h-7.8v-15.11l-6.26,1.44v-6.19l6.26-1.44v-8.27h7.8Z"/>
      <path class="cls-9" d="m246.85,183.17c0,1.12-.12,2.15-.35,3.07l11.03,6.59-4.02,5.15-10.13-6.09c-1.26,1.32-2.87,2.51-4.84,3.57-1.97,1.06-4.36,1.92-7.18,2.58l-3.33-5.45c3.87-.82,6.68-2.02,8.42-3.59,1.74-1.57,2.61-3.53,2.61-5.87v-5.99h7.8v6.04Zm15.25,24.03v-2.13h-29.95v-5.15h37.75v12.44h-29.95v2.13h30.45v5.15h-38.25v-12.44h29.95Zm7.8-29.98v20.46h-7.8v-10.7l-8.94,2.03v-6.39l8.94-2.03v-3.37h7.8Z"/>
      <path class="cls-9" d="m283.55,183.77v2.38h18.97v6.04h-18.97v2.33h19.47v6.04h-27.27v-22.84h26.77v6.04h-18.97Zm13.21,36.86c-3.11,0-5.89-.18-8.34-.55-2.45-.36-4.53-.93-6.23-1.68-1.71-.76-3-1.7-3.9-2.82-.89-1.12-1.34-2.46-1.34-4.01s.45-2.85,1.34-3.99c.89-1.14,2.19-2.08,3.9-2.82s3.78-1.3,6.23-1.66c2.45-.36,5.23-.55,8.34-.55s5.89.18,8.34.55c2.45.36,4.53.92,6.23,1.66s3.01,1.68,3.9,2.82c.89,1.14,1.34,2.47,1.34,3.99s-.45,2.89-1.34,4.01c-.89,1.12-2.19,2.06-3.9,2.82-1.71.76-3.78,1.32-6.23,1.68-2.45.36-5.23.55-8.34.55Zm0-6.04c3.81,0,6.76-.23,8.87-.69,2.1-.46,3.15-1.24,3.15-2.33s-1.05-1.87-3.15-2.33c-2.1-.46-5.06-.69-8.87-.69s-6.76.23-8.87.69c-2.1.46-3.16,1.24-3.16,2.33s1.05,1.87,3.16,2.33c2.1.46,5.06.69,8.87.69Zm18.82-37.36v24.53h-7.8v-24.53h7.8Z"/>
    </g>
    <g>
      <path d="m48.58,257.78h2.5v10.51h6.67v1.93h-9.18v-12.44Z"/>
      <path d="m65.06,270.22h-2.54l-3.91-9.22h2.55l2.63,6.31,2.63-6.31h2.55l-3.91,9.22Z"/>
      <path d="m78.87,270.54c-.61,0-1.19-.07-1.72-.22-.53-.15-1.01-.36-1.43-.63s-.78-.61-1.07-1c-.29-.39-.5-.83-.63-1.31l2.04-.82c.13.29.28.57.45.82.17.25.38.47.6.65.23.18.49.32.78.43.29.1.62.16.99.16.39,0,.74-.06,1.05-.18.31-.12.57-.29.78-.51.21-.22.37-.47.48-.75.11-.28.16-.59.16-.92,0-.73-.22-1.31-.67-1.75-.44-.44-1.1-.66-1.97-.66-.32,0-.66.09-1.04.26-.37.17-.69.43-.96.77h-2.27v-7.08h8.73v1.93h-6.23v2.88c.64-.45,1.45-.68,2.42-.68.6,0,1.17.1,1.71.3.54.2,1.01.48,1.42.85s.73.82.97,1.35c.24.53.36,1.13.36,1.81,0,.56-.12,1.1-.35,1.62-.23.52-.57.98-1,1.38-.43.4-.96.72-1.57.96-.61.24-1.3.36-2.06.36Z"/>
      <path d="m94.22,263.71c0,1.2-.13,2.22-.39,3.05-.26.83-.6,1.51-1.01,2.02-.42.51-.9.88-1.44,1.11s-1.1.35-1.67.35-1.14-.12-1.69-.35-1.02-.6-1.44-1.11c-.42-.51-.75-1.18-1.01-2.02-.25-.83-.38-1.85-.38-3.05s.13-2.22.38-3.04c.25-.83.59-1.5,1.01-2.02.42-.52.9-.89,1.44-1.12s1.11-.35,1.69-.35,1.13.12,1.67.35,1.02.61,1.44,1.12c.42.52.76,1.19,1.01,2.02.26.83.39,1.84.39,3.04Zm-6.56,0c0,.9.06,1.64.17,2.23.11.59.26,1.06.44,1.42.19.35.4.6.65.74s.51.21.78.21.52-.07.77-.21.46-.39.65-.73c.18-.35.33-.82.44-1.42.11-.6.17-1.35.17-2.25s-.06-1.64-.17-2.23c-.11-.59-.26-1.06-.44-1.41-.19-.35-.4-.59-.65-.73s-.5-.21-.77-.21-.54.07-.78.21-.46.39-.65.74c-.19.35-.33.83-.44,1.42-.11.59-.17,1.33-.17,2.23Zm10.71,6.53h-2.49v-13.22h2.49v13.22Z"/>
      <path d="m105.92,259.39c0,.37-.04.75-.13,1.16l3.53,2.24-1.28,1.64-3.17-2.02c-.4.46-.92.87-1.55,1.22-.63.35-1.42.62-2.35.82l-1.06-1.74c1.24-.26,2.13-.66,2.69-1.18.56-.53.83-1.24.83-2.15v-2.39h2.49v2.4Zm1.11,11.48c-.95,0-1.8-.06-2.56-.17-.76-.12-1.39-.29-1.92-.54-.52-.24-.92-.54-1.2-.9s-.41-.78-.41-1.28.14-.91.41-1.27c.27-.36.67-.66,1.2-.9.52-.24,1.16-.41,1.92-.53.76-.12,1.61-.17,2.56-.17s1.8.06,2.56.17c.76.12,1.39.29,1.92.53.52.24.92.54,1.2.9.27.36.41.79.41,1.27s-.14.92-.41,1.28c-.28.36-.67.66-1.2.9-.52.24-1.16.42-1.92.54-.76.12-1.61.17-2.56.17Zm0-1.93c1.13,0,2.01-.07,2.65-.22.63-.15.95-.39.95-.74s-.32-.6-.95-.74-1.52-.22-2.65-.22-2.01.07-2.65.22-.95.39-.95.74.32.6.95.74c.63.15,1.52.22,2.65.22Zm5.77-7.51v3.27h-2.49v-7.68h2.49v2.48h1.38v1.93h-1.38Z"/>
      <path d="m124.74,267.99v1.91h-9.89v-1.91h9.89Zm-9.6-6.45c0-.75.12-1.41.36-1.99.24-.58.57-1.07.99-1.46.42-.39.9-.69,1.46-.9s1.15-.31,1.78-.31,1.21.1,1.77.31c.56.21,1.05.51,1.47.9.42.4.75.88.99,1.46.24.58.36,1.24.36,1.99s-.12,1.39-.36,1.97c-.24.57-.57,1.06-.99,1.45-.42.39-.91.69-1.47.9-.56.21-1.15.31-1.77.31s-1.23-.1-1.78-.31-1.04-.51-1.46-.9c-.42-.4-.75-.88-.99-1.45-.24-.58-.36-1.23-.36-1.97Zm4.6,2.72c.3,0,.57-.07.83-.2.26-.14.48-.33.67-.57s.34-.53.44-.86c.11-.33.16-.69.16-1.08s-.05-.77-.16-1.11c-.11-.34-.25-.63-.44-.87-.19-.24-.42-.43-.67-.56-.26-.13-.54-.2-.83-.2-.32,0-.6.07-.86.21-.26.14-.48.33-.67.57-.18.24-.33.53-.43.87-.1.34-.15.7-.15,1.09s.05.77.16,1.1.25.62.44.86c.18.24.41.43.67.56.26.13.54.2.85.2Zm8.43,5.98h-2.49v-13.22h2.49v13.22Z"/>
      <path d="m135.99,267.99v-5.75h2.49v5.75h4.64v1.91h-9.57v-1.91h2.44Zm4.04-1.82v-6.91h-5.93v-1.93h8.41v8.84h-2.49Zm6.51-4.2h1.38v1.93h-1.38v6.34h-2.49v-13.22h2.49v4.95Z"/>
      <path d="m152.16,267.99v-1.94c-.5-.11-.95-.29-1.37-.54-.42-.25-.78-.57-1.08-.96-.3-.38-.54-.83-.71-1.33-.17-.5-.26-1.06-.26-1.68,0-.75.12-1.41.36-1.99.24-.58.57-1.07.99-1.46.42-.39.9-.69,1.46-.9s1.15-.31,1.78-.31,1.21.1,1.77.31c.56.21,1.05.51,1.47.9.42.4.75.88.99,1.46.24.58.36,1.24.36,1.99,0,.6-.08,1.15-.25,1.64-.17.49-.4.93-.69,1.31-.29.38-.64.69-1.04.95-.4.25-.83.44-1.3.57v1.98h3.69v1.91h-9.89v-1.91h3.71Zm1.17-3.73c.3,0,.57-.07.83-.2.26-.14.48-.33.67-.57s.34-.53.44-.86c.11-.33.16-.69.16-1.08s-.05-.77-.16-1.11c-.11-.34-.25-.63-.44-.87-.19-.24-.42-.43-.67-.56-.26-.13-.54-.2-.83-.2-.32,0-.6.07-.86.21-.26.14-.48.33-.67.57-.18.24-.33.53-.43.87-.1.34-.15.7-.15,1.09s.05.77.16,1.1.25.62.44.86c.18.24.41.43.67.56.26.13.54.2.85.2Zm8.43,5.98h-2.49v-13.22h2.49v13.22Z"/>
      <path d="m169.3,260.03c0,.37-.04.75-.13,1.15l3.53,2.24-1.28,1.64-3.17-2.02c-.4.46-.92.87-1.55,1.22-.63.35-1.42.62-2.35.82l-1.06-1.74c1.24-.26,2.13-.66,2.69-1.18.56-.53.83-1.24.83-2.15v-3.02h2.49v3.04Zm-2.2,6.02v2.59h9.71v1.91h-12.2v-4.51h2.49Zm9.56-9.03v9.44h-2.49v-5.53l-2.85.65v-2.04l2.85-.65v-1.87h2.49Z"/>
      <path d="m183.52,259.55c0,.39-.04.74-.11,1.04l3.11,2.2-1.38,1.71-2.74-1.96c-.74.81-1.78,1.45-3.14,1.91l-1.08-1.83c1.05-.29,1.78-.69,2.21-1.18.43-.49.64-1.12.64-1.91v-2.51h2.49v2.53Zm2.69,11.32c-2.33,0-4.07-.24-5.24-.7-1.17-.47-1.75-1.2-1.75-2.19s.58-1.72,1.75-2.18c1.17-.46,2.91-.7,5.24-.7s4.07.23,5.24.7,1.75,1.19,1.75,2.18-.58,1.72-1.75,2.19c-1.17.47-2.91.7-5.24.7Zm0-1.93c1.53,0,2.66-.07,3.4-.22.74-.15,1.1-.39,1.1-.74s-.37-.6-1.1-.74c-.73-.15-1.87-.22-3.4-.22s-2.67.07-3.4.22c-.74.15-1.1.39-1.1.74s.37.6,1.1.74c.73.15,1.87.22,3.4.22Zm.7-4.41v-7.51h2.28v2.75l1.39-.49v-2.26h2.3v7.83h-2.3v-3.43l-1.39.49v2.62h-2.28Z"/>
      <path d="m203.39,262.38v1.93h-8.54v-7.13h2.49v5.2h6.05Zm4.17,2.88v5.3h-12.04v-5.3h12.04Zm-9.56,1.91v1.47h7.07v-1.47h-7.07Zm9.56-10.15v7.52h-2.49v-7.52h2.49Z"/>
      <path d="m209.54,262.52h13.23v1.77h-13.23v-1.77Zm9.97,4.54v-.55h-9.19v-1.47h11.68v3.49h-9.19v.55h9.35v1.47h-11.84v-3.49h9.19Zm2.49-7.22v1.93h-11.52v-4.58h11.36v1.93h-8.87v.73h9.03Z"/>
      <path d="m227.59,258.13v-.79h4.58v5.22l1.41-.49v-5.04h2.28v13.22h-2.28v-6.04l-1.41.49v5.39h-2.28v-10.81h-1.74v10.81h-2.28v-10.02h-1.84v-1.93h3.57Zm11.73,12.11h-2.3v-13.22h2.3v13.22Z"/>
      <path d="m48.42,278.08v-1.93h8.07v7.13h-2.49v-5.2h-5.58Zm12.71,6.15v5.3h-12.04v-5.3h12.04Zm-9.56,1.91v1.47h7.07v-1.47h-7.07Zm9.56-10.15v7.53h-2.49v-7.53h2.49Z"/>
      <path d="m65.16,286.96v-5.75h2.49v5.75h4.64v1.91h-9.57v-1.91h2.44Zm4.04-1.82v-6.91h-5.93v-1.93h8.41v8.84h-2.49Zm6.51-4.21h1.38v1.93h-1.38v6.34h-2.49v-13.22h2.49v4.95Z"/>
      <path d="m81.32,286.96v-1.94c-.5-.1-.95-.28-1.37-.54-.42-.25-.78-.57-1.08-.96s-.54-.83-.71-1.33c-.17-.5-.26-1.06-.26-1.68,0-.75.12-1.41.36-1.99s.57-1.07.99-1.46c.42-.39.9-.69,1.46-.9s1.15-.31,1.78-.31,1.21.1,1.77.31c.56.21,1.05.51,1.47.9.42.4.75.88.99,1.46.24.58.36,1.24.36,1.99,0,.6-.08,1.15-.25,1.64s-.4.93-.69,1.31c-.29.38-.64.7-1.04.95-.4.25-.83.44-1.3.57v1.98h3.69v1.91h-9.89v-1.91h3.71Zm1.17-3.73c.3,0,.57-.07.83-.2s.48-.33.67-.57c.19-.24.34-.53.44-.86.11-.33.16-.69.16-1.08s-.05-.77-.16-1.11c-.11-.34-.25-.63-.44-.87s-.42-.43-.67-.56-.54-.2-.83-.2c-.32,0-.6.07-.86.21-.26.14-.48.33-.67.57-.18.24-.33.53-.43.87-.1.34-.15.7-.15,1.09s.05.77.16,1.1.25.62.44.86c.18.24.41.43.67.56.26.13.54.2.85.2Zm8.43,5.98h-2.49v-13.22h2.49v13.22Z"/>
      <path d="m96.71,282.8h5.37v-1.14h-4.44v-5.52h2.49v.9h6.39v-.9h2.49v5.52h-4.44v1.14h5.37v1.93h-13.23v-1.93Zm3.26,2.69v2.1h9.35v1.93h-11.84v-4.03h2.49Zm6.54-6.59h-6.39v.92h6.39v-.92Z"/>
      <path d="m117.17,281.9c0,.79-.08,1.53-.24,2.23l3.88,2.97-1.22,1.83-3.5-2.72c-.4.61-.91,1.14-1.54,1.6s-1.4.83-2.33,1.14l-1.09-1.83c.63-.22,1.17-.47,1.62-.74.45-.27.82-.61,1.1-1.02.29-.41.49-.89.63-1.45.13-.56.2-1.23.2-2.02v-5.77h2.49v5.79Zm6.88-.96h1.38v1.93h-1.38v6.34h-2.49v-13.22h2.49v4.95Z"/>
      <path d="m135.99,286.96v1.91h-9.89v-1.91h9.89Zm-9.6-6.45c0-.75.12-1.41.36-1.99s.57-1.07.99-1.46c.42-.39.9-.69,1.46-.9s1.15-.31,1.78-.31,1.21.1,1.77.31c.56.21,1.05.51,1.47.9.42.4.75.88.99,1.46.24.58.36,1.24.36,1.99s-.12,1.39-.36,1.97c-.24.58-.57,1.06-.99,1.45-.42.39-.91.69-1.47.9-.56.21-1.15.31-1.77.31s-1.23-.1-1.78-.31-1.04-.51-1.46-.9c-.42-.4-.75-.88-.99-1.45s-.36-1.23-.36-1.97Zm4.6,2.72c.3,0,.57-.07.83-.2s.48-.33.67-.57c.19-.24.34-.53.44-.86.11-.33.16-.69.16-1.08s-.05-.77-.16-1.11c-.11-.34-.25-.63-.44-.87s-.42-.43-.67-.56-.54-.2-.83-.2c-.32,0-.6.07-.86.21-.26.14-.48.33-.67.57-.18.24-.33.53-.43.87-.1.34-.15.7-.15,1.09s.05.77.16,1.1.25.62.44.86c.18.24.41.43.67.56.26.13.54.2.85.2Zm8.43,5.98h-2.49v-13.22h2.49v13.22Z"/>
      <path d="m145.41,278.24v-1.93h8.07v7.38h-5.58v3.43h5.89v1.93h-8.38v-7.29h5.58v-3.52h-5.58Zm12.71,10.97h-2.49v-13.22h2.49v13.22Z"/>
      <path d="m160.1,287.28h5.37v-3.07h2.49v3.07h5.37v1.93h-13.23v-1.93Zm8.1-10.91v1.98c0,.76-.11,1.47-.32,2.13l5.42,3-1.22,1.74-5.21-2.88c-1.15,1.4-3.04,2.41-5.67,3.04l-.93-1.82c1.9-.39,3.28-1.01,4.14-1.87.86-.86,1.29-1.98,1.29-3.36v-1.96h2.5Z"/>
      <path d="m174.99,287.28h13.23v1.93h-13.23v-1.93Zm8.1-10.91v1.98c0,.76-.11,1.47-.32,2.13l5.42,3-1.22,1.74-5.21-2.88c-1.15,1.4-3.04,2.41-5.67,3.04l-.93-1.82c1.9-.39,3.28-1.01,4.14-1.87.86-.86,1.29-1.98,1.29-3.36v-1.96h2.5Z"/>
      <path d="m189.89,281.97h13.23v1.77h-13.23v-1.77Zm9.97,4.25v-.49h-9.19v-1.41h11.68v3.3h-9.19v.49h9.35v1.41h-11.84v-3.3h9.19Zm-.16-8.17v-.51h-8.87v-1.41h11.36v3.32h-8.87v.49h9.03v1.41h-11.52v-3.3h8.87Z"/>
      <path d="m208.59,282.41h5.37v-1.12h2.49v1.12h5.37v1.93h-13.23v-1.93Zm6.62,7.43c-.95,0-1.8-.04-2.54-.11-.74-.07-1.37-.2-1.89-.39-.51-.19-.9-.43-1.17-.74-.27-.31-.4-.7-.4-1.18s.14-.86.4-1.17c.27-.31.66-.55,1.17-.74.51-.18,1.14-.31,1.89-.39.75-.07,1.59-.11,2.54-.11s1.8.04,2.54.11c.74.07,1.37.2,1.89.39.51.19.9.43,1.17.74s.4.69.4,1.17-.14.87-.4,1.18-.66.56-1.17.74c-.51.18-1.14.31-1.89.39-.75.07-1.59.11-2.54.11Zm-5.93-9.66c.9-.11,1.64-.21,2.24-.32.6-.11,1.07-.23,1.43-.37.35-.14.6-.29.75-.47.15-.17.23-.38.25-.62h-4.44v-1.91h4.44v-1.15h2.49v1.15h4.44v1.91h-4.45c0,.25-.04.5-.13.73l4.88,1.09-.76,1.58-5.34-1.23c-.57.37-1.29.66-2.15.87s-1.85.36-2.96.46l-.68-1.72Zm5.93,7.73c1.21,0,2.11-.02,2.67-.07.56-.05.85-.19.85-.42s-.28-.37-.85-.42c-.56-.05-1.46-.07-2.67-.07s-2.1.02-2.67.07c-.57.05-.85.19-.85.42s.28.37.85.42c.56.05,1.45.07,2.67.07Z"/>
      <path d="m227.29,281.86h5.37v-.89h-4.44v-4.82h11.36v1.93h-8.87v.96h9.03v1.93h-4.59v.89h5.37v1.93h-13.23v-1.93Zm6.62,7.98c-.95,0-1.8-.05-2.54-.14-.74-.1-1.37-.24-1.89-.45-.51-.21-.9-.48-1.17-.81-.27-.34-.4-.75-.4-1.25s.14-.9.4-1.23c.27-.34.66-.61,1.17-.82.51-.21,1.14-.36,1.89-.45.75-.09,1.59-.14,2.54-.14s1.8.05,2.54.14c.74.09,1.37.24,1.89.45.51.21.9.48,1.17.82s.4.75.4,1.23-.14.91-.4,1.25c-.27.34-.66.61-1.17.81-.51.21-1.14.36-1.89.45-.75.1-1.59.14-2.54.14Zm0-1.93c1.21,0,2.11-.05,2.67-.16s.85-.29.85-.57-.28-.46-.85-.57-1.46-.16-2.67-.16-2.1.05-2.67.16c-.57.11-.85.3-.85.57s.28.46.85.57c.56.11,1.45.16,2.67.16Z"/>
      <path d="m245.49,286.55v-1.69h-3.71v-1.93h9.89v1.93h-3.69v1.69h-2.49Zm-3.47-7.51c0-.96.4-1.7,1.19-2.24.79-.53,1.9-.8,3.33-.8,1.13,0,2.06.17,2.8.51s1.24.82,1.51,1.45l1.76-.39v-1.58h2.49v10.37h-2.49v-6.81l-1.68.38c-.22.7-.71,1.23-1.47,1.6-.76.37-1.73.55-2.92.55-1.43,0-2.54-.27-3.33-.8-.79-.53-1.19-1.28-1.19-2.24Zm3,6.61v1.96h10.24v1.91h-12.73v-3.87h2.49Zm-.51-6.61c0,.18.06.34.17.48.12.14.27.26.46.36.19.1.41.16.65.21.24.05.49.07.74.07s.5-.03.75-.08c.25-.05.47-.13.67-.22.19-.1.35-.21.47-.35s.18-.29.18-.47c0-.35-.19-.62-.58-.82-.39-.2-.88-.3-1.48-.3s-1.08.1-1.46.28-.57.47-.57.84Z"/>
      <path d="m262.25,277.26h2.99v1.93h-8.48v-1.93h3v-1.63h2.49v1.63Zm2.61,7.45c0,.81-.1,1.5-.29,2.07s-.47,1.04-.82,1.4c-.35.36-.76.63-1.23.79-.47.16-.98.25-1.53.25s-1.07-.08-1.54-.25c-.46-.16-.87-.43-1.21-.79-.34-.36-.61-.83-.8-1.4-.19-.57-.29-1.26-.29-2.07s.1-1.49.29-2.06c.19-.57.46-1.04.8-1.4.34-.36.75-.62,1.21-.79.47-.17.98-.25,1.54-.25s1.06.08,1.53.25c.47.17.88.43,1.23.79.35.36.62.83.82,1.4s.29,1.26.29,2.06Zm-5.43,0c0,.82.13,1.46.4,1.9.26.45.66.67,1.17.67s.88-.22,1.16-.66.42-1.09.42-1.93-.14-1.45-.42-1.9-.67-.66-1.16-.66-.91.22-1.17.67c-.26.45-.4,1.08-.4,1.91Zm6.48,4.51v-13.22h2.28v5.63l1.47-.52v-5.11h2.3v13.22h-2.3v-5.98l-1.47.52v5.45h-2.28Z"/>
      <path d="m278.65,281.9c0,.79-.08,1.53-.24,2.23l3.88,2.97-1.22,1.83-3.5-2.72c-.4.61-.91,1.14-1.54,1.6-.62.45-1.4.83-2.33,1.14l-1.09-1.83c.63-.22,1.18-.47,1.62-.74s.82-.61,1.1-1.02c.29-.41.49-.89.63-1.45.13-.56.2-1.23.2-2.02v-5.77h2.49v5.79Zm7.35,7.3h-2.49v-7.07l-2.95,1.01v-2.13l2.95-1.01v-4.02h2.49v13.22Z"/>
      <path d="m53.78,300.87c0,.79-.08,1.53-.24,2.23l3.88,2.97-1.22,1.83-3.5-2.72c-.4.61-.91,1.14-1.54,1.6s-1.4.83-2.33,1.14l-1.09-1.83c.63-.22,1.17-.47,1.62-.74.45-.28.82-.61,1.1-1.02.29-.41.49-.89.63-1.45.13-.56.2-1.23.2-2.02v-5.77h2.49v5.79Zm6.88-.96h1.38v1.93h-1.38v6.34h-2.49v-13.22h2.49v4.95Z"/>
      <path d="m62.85,298.45c0-.53.1-1.01.31-1.44.21-.43.5-.8.87-1.11.37-.31.83-.54,1.37-.7.54-.16,1.14-.24,1.81-.24,1.1,0,2.01.22,2.74.66.73.44,1.21,1.04,1.46,1.79l2.14-.49v-1.96h2.49v7.11h-2.49v-3.18l-2.11.47c-.21.79-.69,1.42-1.43,1.87-.74.46-1.67.69-2.8.69-.67,0-1.27-.08-1.81-.25-.54-.17-1-.4-1.37-.7-.38-.3-.67-.66-.87-1.09-.21-.43-.31-.9-.31-1.43Zm3.63,4.33v.93h7.07v-.93h2.49v5.71h-12.04v-5.71h2.49Zm.73-2.78c.54,0,.98-.14,1.34-.43.35-.28.53-.66.53-1.12s-.18-.85-.53-1.14-.8-.43-1.34-.43-.99.14-1.34.43-.53.66-.53,1.14.18.84.53,1.12c.35.29.8.43,1.34.43Zm6.34,6.58v-.95h-7.07v.95h7.07Z"/>
      <path d="m82.32,298.07c1.37,0,2.43.27,3.16.82.73.55,1.1,1.32,1.1,2.31,0,.85-.27,1.54-.8,2.05-.53.51-1.3.84-2.29.99v1.69h3.69v1.91h-9.57v-1.91h3.39v-1.71c-.95-.16-1.67-.5-2.17-1.01-.5-.51-.74-1.18-.74-2.01,0-.99.37-1.76,1.1-2.31.73-.55,1.78-.82,3.13-.82Zm1.25-2.48h3.39v1.93h-9.27v-1.93h3.39v-1.16h2.49v1.16Zm-1.25,4.41c-.22,0-.44.02-.64.06-.21.04-.39.11-.55.21-.16.09-.3.22-.4.37-.1.15-.15.34-.15.56s.05.41.15.56c.1.15.23.28.4.37.16.09.35.16.55.2.21.04.42.06.64.06s.42-.02.63-.06c.21-.04.4-.11.57-.2.17-.1.31-.22.41-.37.11-.15.16-.34.16-.56s-.05-.41-.16-.56c-.11-.15-.25-.28-.42-.37-.17-.1-.37-.16-.58-.21s-.42-.06-.62-.06Zm8.29-.1h1.38v1.93h-1.38v6.34h-2.49v-13.22h2.49v4.95Z"/>
      <path d="m105.82,295.28v1.93h-3.39v3.67c0,.8-.08,1.53-.25,2.2l4.06,3-1.22,1.83-3.71-2.78c-.4.63-.93,1.18-1.58,1.64-.66.46-1.45.85-2.39,1.15l-1.09-1.83c.63-.22,1.18-.47,1.65-.74.46-.28.85-.61,1.16-1.02.31-.41.53-.89.68-1.45.15-.56.22-1.23.22-2.02v-3.65h-3.23v-1.93h9.11Zm3.8,12.9h-2.49v-13.22h2.49v13.22Z"/>
      <path d="m114.92,305.52v-1.69h-3.71v-1.93h9.89v1.93h-3.69v1.69h-2.49Zm-3.47-7.51c0-.96.4-1.7,1.19-2.24.79-.53,1.9-.8,3.33-.8,1.13,0,2.06.17,2.8.51s1.24.82,1.51,1.45l1.76-.39v-1.58h2.49v10.37h-2.49v-6.81l-1.68.38c-.22.69-.71,1.23-1.47,1.6-.76.37-1.73.55-2.92.55-1.43,0-2.54-.27-3.33-.8-.79-.53-1.19-1.28-1.19-2.24Zm3,6.61v1.96h10.24v1.91h-12.72v-3.87h2.49Zm-.51-6.61c0,.18.06.34.17.48.12.14.27.26.46.36.19.1.41.17.65.21s.49.07.74.07.5-.03.75-.08c.25-.05.47-.13.67-.22.2-.1.35-.21.47-.35.12-.14.17-.29.17-.47,0-.35-.19-.62-.58-.82s-.88-.3-1.48-.3-1.08.09-1.46.28c-.38.19-.57.47-.57.84Z"/>
      <path d="m126.5,300.46h13.23v1.77h-13.23v-1.77Zm12.46-3.24c0,.89-.5,1.51-1.49,1.87-.99.36-2.45.55-4.36.55s-3.36-.18-4.35-.55c-.99-.36-1.48-.99-1.48-1.87s.49-1.51,1.48-1.87c.99-.37,2.44-.55,4.35-.55s3.36.18,4.36.55c.99.36,1.49.99,1.49,1.87Zm-2.49,7.78v-.55h-9.19v-1.47h11.68v3.49h-9.19v.55h9.35v1.47h-11.84v-3.49h9.19Zm0-7.78c0-.24-.3-.41-.91-.51s-1.42-.14-2.45-.14-1.82.05-2.43.15c-.61.1-.91.27-.91.5s.3.41.91.5c.61.1,1.42.14,2.43.14s1.84-.05,2.45-.14c.61-.09.91-.26.91-.5Z"/>
      <path d="m150.37,296.22h3v1.93h-8.48v-1.93h3v-1.63h2.49v1.63Zm2.61,7.45c0,.81-.1,1.5-.29,2.07-.2.57-.47,1.04-.82,1.4-.35.36-.76.63-1.23.79-.47.16-.98.25-1.53.25s-1.07-.08-1.54-.25c-.46-.16-.87-.43-1.21-.79-.34-.36-.61-.83-.8-1.4-.19-.57-.29-1.26-.29-2.07s.09-1.49.29-2.06c.19-.58.46-1.04.8-1.4.34-.36.75-.62,1.21-.79.46-.17.98-.25,1.54-.25s1.06.08,1.53.25c.47.17.88.43,1.23.79.35.36.62.82.82,1.4.2.57.29,1.26.29,2.06Zm-5.44,0c0,.82.13,1.46.4,1.91.26.45.65.67,1.17.67s.88-.22,1.17-.66c.28-.44.42-1.09.42-1.93s-.14-1.45-.42-1.9c-.28-.44-.67-.66-1.17-.66s-.91.22-1.17.67c-.26.45-.4,1.08-.4,1.91Zm6.48,4.51v-13.22h2.28v5.63l1.47-.52v-5.11h2.3v13.22h-2.3v-5.98l-1.47.52v5.45h-2.28Z"/>
      <path d="m161.21,306.25h13.23v1.93h-13.23v-1.93Zm12.61-4.06v1.93h-11.84v-8.84h11.68v1.93h-9.19v4.98h9.35Z"/>
      <path d="m176.31,296.92v-1.8h8.07v4.39h-5.58v.78h5.89v1.8h-8.38v-4.38h5.58v-.79h-5.58Zm3.15,5.86v.93h7.07v-.93h2.49v5.71h-12.04v-5.71h2.49Zm7.07,3.79v-.95h-7.07v.95h7.07Zm2.49-11.62v7.11h-2.49v-7.11h2.49Z"/>
      <path d="m193.69,295.28v10.81h6.05v1.93h-8.54v-12.74h2.49Zm10.22,12.9h-2.49v-13.22h2.49v13.22Z"/>
      <path d="m214.32,295.28v1.93h-5.74v8.88h5.89v1.93h-8.38v-12.74h8.22Zm4.01,4.63h1.38v1.93h-1.38v6.34h-2.49v-13.22h2.49v4.95Z"/>
      <path d="m221.47,304.84v-9.75h2.49v9.75h-2.49Zm0,3.65v-2.32h2.49v2.32h-2.49Z"/>
    </g>
    <g>
      <g>
        <path class="cls-4" d="m415.23,306.41h.1c.83-.02,1.48-.7,1.4-1.48l-5.56-55.53-4.85.43,7.98,55.83c.06.44.46.76.93.75Z"/>
        <path class="cls-4" d="m361.69,306.41h-.1c-.83-.02-1.48-.7-1.4-1.48l5.56-55.53,4.85.43-7.98,55.83c-.06.44-.46.76-.93.75Z"/>
        <path class="cls-4" d="m454.46,306.41h.1c.83-.02,1.48-.7,1.4-1.48l-5.56-55.53-4.85.43,7.98,55.83c.06.44.46.76.93.75Z"/>
        <path class="cls-4" d="m363.35,241.32l-9.87-48.74c-1.27-6.6,4.2-12.63,11.3-12.47l19.03.43c6.57.15,12.28,4.54,14.1,10.85l14.44,49.92h-49.01Z"/>
        <path class="cls-4" d="m369.32,241.32l-9.87-48.74c-1.27-6.6,4.2-12.63,11.3-12.47l19.03.43c6.57.15,12.28,4.54,14.1,10.85l14.44,49.92h-49.01Z"/>
        <path class="cls-4" d="m367.79,241.32h71.92c2.45,0,4.44,1.99,4.44,4.44v4.44h-76.37c-2.45,0-4.44-1.99-4.44-4.44h0c0-2.45,1.99-4.44,4.44-4.44Z" transform="translate(807.51 491.53) rotate(-180)"/>
        <rect class="cls-4" x="399.23" y="241.32" width="52.44" height="8.89" rx="4.44" ry="4.44" transform="translate(850.89 491.53) rotate(-180)"/>
      </g>
      <g>
        <path class="cls-15" d="m428.96,231.12c-4.07,7.09-9.2,9.83-9.2,9.83h-21.32s33.62-15.24,30.52-9.83Z"/>
        <g>
          <path class="cls-14" d="m455.25,301.57c-.23,2.24,2.88,2.81,6.49,3.03,3.61.22,2.51.95,7.45,1.9,4.94.95,6.93-.38,7.3-1.05.33-.59-1.96-1.54-4.4-2.62-.31-.13-.61-.27-.92-.41-2.75-1.24-4.27-3.73-6.39-6.05-2.01-2.19-3.87-9.17-3.87-9.17l-6.71-1.51s1.82,6.28,2.45,8.96c.37,1.58-.22,3.33-.74,4.66-.28.72-.56,1.47-.64,2.26Z"/>
          <path class="cls-5" d="m461.74,304.6c3.61.22,2.51.95,7.45,1.9,4.94.95,6.93-.38,7.3-1.05.33-.59-1.96-1.54-4.4-2.62l-.04.04s-3.49,1.14-7.49,0c-3.26-.92-6.41-2.91-8.65-3.57-.28.72-.56,1.47-.64,2.26-.23,2.24,2.88,2.81,6.49,3.03Z"/>
          <path class="cls-15" d="m445.09,223.86c-3.61-2.53-27.48-7.05-39.67-8.36l-13.47-11.69s-11.46,16.98-11.55,29.97c-.04,6.06,2.75,6.66,2.75,6.66,0,0,43.17.32,45.06.52,3.1.32,7.18,8.04,8.2,15.06,1.02,7.03,19.02,35.61,19.02,35.61,0,0,3.75,1.2,5.49,1.1,1.87-.11,2.73-.74,2.73-.74,0,0-10.43-62.42-18.57-68.13Z"/>
          <path class="cls-14" d="m444.08,301.57c-.23,2.24,2.88,2.81,6.49,3.03,3.61.22,2.51.95,7.45,1.9,4.94.95,6.93-.38,7.3-1.05.33-.59-1.96-1.54-4.4-2.62-.31-.13-.61-.27-.92-.41-2.75-1.24-4.27-3.73-6.39-6.05-2.01-2.19-3.87-9.17-3.87-9.17l-6.71-1.51s1.82,6.28,2.45,8.96c.37,1.58-.22,3.33-.74,4.66-.28.72-.56,1.47-.64,2.26Z"/>
          <path class="cls-15" d="m450.57,304.6c3.61.22,2.51.95,7.45,1.9,4.94.95,6.93-.38,7.3-1.05.33-.59-1.96-1.54-4.4-2.62l-.04.04s-3.49,1.14-7.49,0c-3.26-.92-6.41-2.91-8.65-3.57-.28.72-.56,1.47-.64,2.26-.23,2.24,2.88,2.81,6.49,3.03Z"/>
          <path class="cls-16" d="m433.82,223.86c-3.14-2.2-12.57-3.91-22.98-5.18-2.88-.35-5.24-2.44-5.94-5.26h0l-24.21-9.62s-11.46,16.98-11.55,29.97c-.04,6.06,2.75,6.66,2.75,6.66,0,0,43.17.32,45.06.52,3.1.32,7.18,8.04,8.2,15.06,1.02,7.03,19.02,35.61,19.02,35.61,0,0,3.75,1.2,5.49,1.1,1.87-.11,2.73-.74,2.73-.74,0,0-10.43-62.42-18.57-68.13Z"/>
          <path class="cls-15" d="m401.42,133.27c-3.33-1.75-8.39-1.98-9.21-2.09-9.84-1.32-15.77,12.98-16.12,17.31-.64,7.99-4.87,9.21-10.82,14.21-11.93,10.03-8.43,21.69-1.91,26.02,3.91,2.6,10.81,0,10.81,0,.1.07,18.86-10.49,28.11-15.58,13.87-1.97,7.61-35.41-.87-39.86Z"/>
          <path class="cls-14" d="m399.37,168.21s-4.37,2.03-7.56.98c-3-.99-5.64-5.5-5.6-5.51,1.3-.19,2.63-1.47,2.99-9.08l.58.15,9.69,2.45s-.38,3.07-.54,5.97c-.13,2.44-.11,4.76.44,5.05Z"/>
          <path class="cls-10" d="m399.47,157.19s0,.63-.36,3.49c-5.48-1.38-7.9-3.2-9.6-5.28l9.97,1.79Z"/>
          <path class="cls-14" d="m401.54,157.58s-12.82,2.09-13.99-5.92c-1.18-8-3.62-13.12,4.51-14.79,8.13-1.67,10.18,1.15,11.22,3.72,1.04,2.58,1.57,16.23-1.74,16.98Z"/>
          <path class="cls-15" d="m401.55,136.53s-5.82,9.19-11.02,11.36c-5.2,2.18-7.75,1.07-7.75,1.07,0,0,2.36-3.58,2.98-8.4.18-1.42,1.11-2.63,2.43-3.17,3.73-1.49,10.94-3.85,13.35-.87Z"/>
          <path class="cls-15" d="m396.44,137.42s3.41,1.75,4.82,3.39c1.36,1.58,2.92,5.87,2.81,7.8,0,0,1.68-9.24-1.82-12.41-3.72-3.37-5.8,1.22-5.8,1.22Z"/>
          <path class="cls-2" d="m409.62,187.76c-.39,26.05-.11,20.61-2.96,23.08-.69.6-2.62.95-5.16,1.12-7.99.53-22.03-.79-22.57-2.26-1.84-5.11-.54-6.7-2.08-14.52-.16-.83-.36-1.73-.59-2.71-1.28-5.37-2.53-7.2,2.02-15.83,4.12-7.82,8.97-14.17,9.36-13.94,10.88,6.46,11.25,1.04,11.25,1.04,0,0,10.91,11.31,10.72,24.02Z"/>
          <path class="cls-2" d="m398.9,163.75s11.14,1.89,12.45,6.71c1.31,4.82,9.05,33.16,9.05,33.16,0,0-5.69,1.02-8.32-1.61-2.63-2.63-9.15-24.39-9.15-24.39l-4.03-13.87Z"/>
          <path class="cls-1" d="m401.51,211.96c-7.99.53-22.03-.79-22.57-2.26-1.84-5.11-.54-6.7-2.08-14.52l3.85-10.85s-.64,12.08,2.93,15.26c3.56,3.18,14.59,6.13,16.32,8.79.84,1.27,1.38,2.55,1.55,3.58Z"/>
          <path class="cls-14" d="m392.35,206.88s7.88-1.75,9.15-1.06c1.27.7,4.38,3.25,4.77,4.13.39.89-2.83-.67-3.88-.95-.68-.18-2.46.44-3.35.73-3.72,1.24-6,.6-6,.6l-.7-3.46Z"/>
          <path class="cls-2" d="m387.65,162.7s-11.15.65-14.82,5.76c-5.16,7.19-15.39,37.85-9.52,41.94,6.6,4.6,30.05,1.2,30.05,1.2,0,0,.78-3.65-.31-5.41-1.09-1.76-18.73-4.61-19.54-5.43-.81-.81,10.18-15.88,10.18-18.32s3.96-19.74,3.96-19.74Z"/>
          <path class="cls-14" d="m401.89,208.02s1.65,2.13,2.19,2.38c.54.25.89.19.89.19l-1.11-2-1.97-.57Z"/>
          <path class="cls-14" d="m401.51,205.82l4.8,2.33s-.2.33-.8.31c-.59-.03-2.08-.57-2.08-.57l-1.92-2.07Z"/>
        </g>
      </g>
      <g>
        <path class="cls-12" d="m419.19,211.35h-22.3c0-.98.8-1.78,1.78-1.78h20.52v1.78Z"/>
        <polygon class="cls-12" points="419.13 187.06 453.61 187.06 445.34 211.35 410.64 211.35 419.13 187.06"/>
        <polygon class="cls-3" points="454.11 187.06 445.84 211.35 411.14 211.35 419.64 187.06 454.11 187.06"/>
        <path class="cls-2" d="m435.53,198.98c-.21.93-1.14,1.68-2.07,1.68s-1.51-.75-1.29-1.68c.21-.93,1.14-1.68,2.07-1.68s1.51.75,1.29,1.68Z"/>
      </g>
      <g>
        <rect class="cls-17" x="388.04" y="211.35" width="153.39" height="5.46" rx="2.73" ry="2.73"/>
        <path class="cls-17" d="m543.97,306.82h.06c.77-.1,1.32-.79,1.22-1.55l-13.46-91.14-4.93.14,15.84,91.63c.1.59.66.99,1.26.92Z"/>
        <path class="cls-17" d="m384.13,306.82h-.06c-.77-.1-1.32-.79-1.22-1.55l13.46-91.14,4.93.14-15.84,91.63c-.1.59-.66.99-1.26.92Z"/>
        <path class="cls-17" d="m415.3,306.82h-.06c-.77-.1-1.32-.79-1.22-1.55l13.46-91.14,4.93.14-15.84,91.63c-.1.59-.66.99-1.26.92Z"/>
      </g>
      <rect class="cls-7" x="351.48" y="305.96" width="261.85" height="1.61" rx=".81" ry=".81"/>
      <g>
        <path class="cls-15" d="m494.73,306.74h26.72c1.28-1.57.81-7.35.62-9.24-.04-.38-.07-.6-.07-.6,0,0-9.12-7.3-10.38-1.71-.04.18-.08.35-.14.52-1.58,5.23-8.66,7.6-12.75,8.26-2.66.43-3.64,1.81-4,2.78Z"/>
        <path class="cls-15" d="m567.63,219.93c-.96,0-45.76,8.41-53.17,17.58-3.7,4.58-4.25,57.5-4.25,57.5,0,0,4.58,5.68,14.47,2.38,0,0,7.25-36.21,6.72-47.19-.15-3.04,30.61-.44,36.24-1.9,5.63-1.46,19.38-13.7,16.35-19.67-3.03-5.97-16.35-8.71-16.35-8.71Z"/>
        <path class="cls-14" d="m514.64,206.97s-9.04.12-11.17,1.04c-2.14.92-6.47,3.02-5.31,3.34,1.16.32,6.7-.13,7.89.05,1.2.18,2.67-.05,3.4-.05.73,0,4.15,0,4.15,0l1.04-4.38Z"/>
        <path class="cls-14" d="m504.08,185.28s-3.08-2.2-6.07-2.63c-1.71-.24-3.37-.55-4.37-.9-2.76-.97-8.28-5.94-7.87-6.52,1.34-1.87,7.79,2.08,8.91,1.66,1.13-.42-2.16-2.76-1.02-3.59.6-.43,2,1.72,3.14,1.94,1.55.29,2.75,2.48,3.22,2.59.91.22,4.87,3.17,4.87,3.17l-.82,4.28Z"/>
        <path class="cls-12" d="m563.16,159.57s-6.88,2.13-13.66,20.8c-6.78,18.66-9.35,19.67-11.82,20.4-2.46.73-24.09,5.04-24.09,5.04v5.54h33.32s12.49-11.89,16.24-19.89c3.75-8,0-31.89,0-31.89Z"/>
        <path class="cls-11" d="m482.92,306.74h26.72c1.28-1.57.81-7.35.62-9.24-.04-.38-.07-.6-.07-.6,0,0-9.12-7.3-10.38-1.71-.04.18-.08.35-.14.52-1.58,5.23-8.66,7.6-12.75,8.26-2.66.43-3.64,1.81-4,2.78Z"/>
        <path class="cls-16" d="m554.43,219.93c-.96,0-45.76,8.41-53.17,17.58-3.7,4.58-4.25,57.5-4.25,57.5,0,0,4.58,5.68,14.47,2.38,0,0,7.25-36.21,6.72-47.19-.15-3.04,30.61-.44,36.24-1.9,5.63-1.46,19.38-13.7,16.35-19.67-3.03-5.97-16.35-8.71-16.35-8.71Z"/>
        <path class="cls-14" d="m557.23,165.49c3.22-.27,6.6-1.13,9.52-2.07,3.65-1.18,6.59-2.92,4.7-6.25-1.75-3.08-4.58-9.95-4.39-15.64l-6.79,5.47-4.61,3.72s.02,2.19.52,6.03c.09.7.2,1.46.33,2.26.1.65-.2,1.3-.76,1.65-.03.02-.07.04-.1.06-2.29,1.44-1.11,4.98,1.59,4.75Z"/>
        <path class="cls-10" d="m555.66,149.81s-.24.8.17,3.74c4.11-.67,7.96-3.95,7.96-3.95-2.09-.58-2.86-2.84-4.42-2.63l-3.71,2.84Z"/>
        <path class="cls-14" d="m551.85,150.49s15.82,2.63,17.31-7.25c1.49-9.88,4.53-16.19-5.51-18.29-10.04-2.1-12.58,1.38-13.87,4.56-1.3,3.18-2,20.05,2.08,20.99Z"/>
        <path class="cls-16" d="m547.45,125.13c-.68,2.38,1.14,5.28,4.19,6.23,4.53,1.42,3.53,6.97,5.57,6.9,2.04-.08,2.86-3.2,4.68-.7,1.55,2.13-1.29,4.65-1.1,5.81.34,2,3.47,6.1,6.3,5.89,2.83-.21,8.11-13.63,7.05-17.79-1.06-4.15-5.29-8.53-9.29-9.14-4-.6-9.56,1.12-10.85,1.12s-6.2.39-6.56,1.67Z"/>
        <path class="cls-3" d="m584.19,173.29c-2.29-9.21-8.61-18.87-12.88-18.86-7.28.01-17.75,1.94-21.98,12.36-3.11,7.68-7.27,51.86-2.57,55.01,10.73,7.18,35.6,21.85,40.02,6.89,4.05-13.7,1.39-39.43-2.58-55.41Z"/>
        <path class="cls-3" d="m566.5,164.13c-2.08-5.41-8.78-7.27-13.35-3.72-2.47,1.92-5.5,4.66-9.16,8.56-13.59,14.47-16.36,14.38-18.91,14.09-2.55-.3-24.12-4.88-24.12-4.88,0,0-1.1.81-1.75,2.13-.87,1.76-.43,2.96-.43,2.96-.84-.55,7.65,5.31,11.87,7.64,5.58,3.08,13.99,5.97,17.34,7.07.95.31,1.97.3,2.91-.04,4.97-1.79,21.67-8.32,35.26-19.65,3.58-2.99,2.27-9.14.34-14.15Z"/>
        <path class="cls-2" d="m572.04,154.52l-1.65-3.71s-14.76,1.2-17.24,9.6c0,0,11.44-5.71,18.89-5.89Z"/>
      </g>
      <g>
        <path class="cls-4" d="m607.88,306.41h.1c.83-.02,1.48-.7,1.4-1.48l-5.56-55.53-4.85.43,7.98,55.83c.06.44.46.76.93.75Z"/>
        <path class="cls-4" d="m579.26,306.41h.1c.83-.02,1.48-.7,1.4-1.48l-5.56-55.53-4.85.43,7.98,55.83c.06.44.46.76.93.75Z"/>
        <path class="cls-8" d="m525.53,306.41h-.1c-.83-.02-1.48-.7-1.4-1.48l5.56-55.53,4.85.43-7.98,55.83c-.06.44-.46.76-.93.75Z"/>
        <path class="cls-4" d="m606.31,241.53l5.28-46.38c.69-6.68-1.54-13.23-11.19-13.73l-16.97-1.03c-10.06-.41-14.6,7.95-15.87,14.4l-10.07,50.98,48.82-4.23Z"/>
        <path class="cls-8" d="m529.86,241.32h76.37v4.44c0,2.45-1.99,4.44-4.44,4.44h-71.92c-2.45,0-4.44-1.99-4.44-4.44h0c0-2.45,1.99-4.44,4.44-4.44Z"/>
        <path class="cls-4" d="m561.93,241.32h44.29v4.44c0,2.45-1.99,4.44-4.44,4.44h-39.85c-2.45,0-4.44-1.99-4.44-4.44h0c0-2.45,1.99-4.44,4.44-4.44Z"/>
      </g>
    </g>
  </g>
</svg>