<?xml version="1.0" encoding="UTF-8"?>
<svg xmlns="http://www.w3.org/2000/svg" viewBox="0 0 650 350">
  <defs>
    <style>
      .cls-1 {
        fill: #fcaaba;
      }

      .cls-2 {
        fill: #006;
      }

      .cls-3 {
        fill: #fff;
      }

      .cls-4 {
        isolation: isolate;
      }

      .cls-5 {
        fill: #ff0a6b;
      }

      .cls-6 {
        mix-blend-mode: overlay;
      }
    </style>
  </defs>
  <g class="cls-4">
    <g id="_레이어_2" data-name="레이어 2">
      <g id="_레이어_1-2" data-name="레이어 1">
        <g>
          <rect class="cls-1" width="650" height="350" rx="35.94" ry="35.94"/>
          <g>
            <path d="m71.48,283.73c.13,0,.2.07.2.22v1.12c0,.16-.07.24-.2.24h-8.05v6.18c0,.16-.08.24-.24.24h-1.25c-.16,0-.24-.08-.24-.24v-6.18h-8.03c-.15,0-.22-.08-.22-.24v-1.12c0-.15.07-.22.22-.22h17.82Zm-16.57-3.5l-.02-.09c0-.1.05-.16.15-.18,1.99-.5,3.6-1.2,4.82-2.11,1.22-.91,1.83-1.92,1.83-3.04v-1.47c0-.15.07-.22.22-.22h1.3c.15,0,.22.07.22.22v1.47c0,.73.29,1.44.87,2.12.58.68,1.37,1.28,2.38,1.79,1,.51,2.12.92,3.35,1.21.15.04.2.14.15.29l-.42,1.08c-.04.13-.14.19-.29.18-1.58-.37-3-.92-4.26-1.65s-2.14-1.52-2.65-2.35c-.53.85-1.4,1.63-2.61,2.33-1.21.7-2.66,1.26-4.35,1.67h-.07c-.12,0-.2-.05-.24-.15l-.4-1.1Z"/>
            <path d="m88.99,272.64c.16,0,.24.07.24.22v9.95c0,.15-.08.22-.24.22h-1.25c-.16,0-.24-.07-.24-.22v-4.27h-3.41c-.15,1.19-.69,2.15-1.62,2.87-.93.73-2.1,1.09-3.51,1.09-1.01,0-1.91-.19-2.68-.57-.78-.38-1.38-.92-1.81-1.62-.43-.7-.65-1.48-.65-2.37s.22-1.67.65-2.36c.43-.7,1.04-1.24,1.83-1.63.79-.39,1.68-.58,2.67-.58,1.33,0,2.46.33,3.39,1s1.49,1.55,1.69,2.65h3.45v-4.16c0-.15.08-.22.24-.22h1.25Zm-7.51,7.5c.64-.57.96-1.31.96-2.2s-.32-1.63-.96-2.2-1.48-.86-2.52-.86-1.88.29-2.51.86-.95,1.31-.95,2.2.31,1.63.95,2.2c.63.57,1.47.86,2.51.86s1.88-.29,2.52-.86Zm7.54,3.96c.15,0,.22.08.22.24v7.13c0,.16-.07.24-.22.24h-11.55c-.16,0-.24-.08-.24-.24v-7.13c0-.16.08-.24.24-.24h1.28c.15,0,.22.08.22.24v2h8.54v-2c0-.16.08-.24.24-.24h1.28Zm-10.05,3.7v2.46h8.54v-2.46h-8.54Z"/>
            <path d="m98.45,283.18c-.06.03-.12.04-.18.04-.07,0-.13-.03-.18-.09l-.68-.95c-.04-.07-.07-.13-.07-.18,0-.09.04-.15.11-.2,1.51-.84,2.7-1.81,3.57-2.92.87-1.11,1.31-2.35,1.31-3.73v-1.47c0-.15.07-.22.22-.22h1.28c.15,0,.22.07.22.22v1.47c0,1.32.41,2.48,1.24,3.48.83,1,1.97,1.88,3.42,2.66.09.04.13.1.13.18,0,.04-.02.1-.07.18l-.64.99c-.04.07-.1.11-.18.11-.06,0-.12-.02-.18-.07-1.09-.59-2.03-1.25-2.83-2-.8-.75-1.38-1.52-1.75-2.31-.76,1.8-2.35,3.4-4.77,4.8Zm12.68,1.93c1.12.7,1.68,1.66,1.68,2.89s-.56,2.19-1.68,2.88-2.65,1.03-4.59,1.03-3.47-.34-4.6-1.03c-1.13-.69-1.69-1.65-1.69-2.88s.56-2.2,1.69-2.89c1.13-.7,2.66-1.04,4.6-1.04s3.46.35,4.59,1.04Zm-1.22,4.69c.79-.42,1.19-1.02,1.19-1.79s-.4-1.4-1.19-1.81-1.91-.63-3.37-.63-2.57.21-3.37.63-1.19,1.02-1.19,1.81.4,1.38,1.19,1.79,1.91.63,3.37.63,2.57-.21,3.37-.63Zm5.79-12.73c.15,0,.22.07.22.22v1.12c0,.16-.07.24-.22.24h-3.1v4.58c0,.13-.07.2-.22.2h-1.28c-.15,0-.22-.07-.22-.2v-10.36c0-.15.07-.22.22-.22h1.28c.15,0,.22.07.22.22v4.2h3.1Z"/>
            <path d="m134.66,281.82c.13,0,.2.08.2.24v1.03c0,.15-.07.22-.2.22h-8.05v2h5.32c.15,0,.22.07.22.22v6.07c0,.15-.07.22-.22.22h-12.39c-.15,0-.22-.07-.22-.22v-6.07c0-.15.07-.22.22-.22h5.32v-2h-8.03c-.15,0-.22-.07-.22-.22v-1.03c0-.16.07-.24.22-.24h17.82Zm-15.38-1.96c-.16,0-.24-.07-.24-.2v-1.01c0-.16.08-.24.24-.24h2.53v-3.81h-2.44c-.15,0-.22-.07-.22-.22v-1.03c0-.15.07-.22.22-.22h12.72c.16,0,.24.07.24.22v1.03c0,.15-.08.22-.24.22h-2.42v3.81h2.53c.16,0,.24.08.24.24v1.01c0,.13-.08.2-.24.2h-12.91Zm1.76,10.47h9.39v-3.56h-9.39v3.56Zm6.91-15.73h-4.42v3.81h4.42v-3.81Z"/>
            <path d="m148.35,287.98v.04c0,.09-.07.15-.22.18-2.07.41-4.93.62-8.58.62h-3.54c-.15,0-.22-.07-.22-.2v-1.08c0-.16.07-.24.22-.24h3.1c.87,0,1.51,0,1.94-.02v-1.91c-1.2-.13-2.14-.52-2.82-1.15-.67-.64-1.01-1.43-1.01-2.39,0-1.07.42-1.94,1.27-2.61.84-.67,1.99-1,3.44-1s2.6.33,3.43,1c.84.67,1.25,1.54,1.25,2.61,0,.97-.34,1.77-1.02,2.41-.68.64-1.62,1.02-2.83,1.13v1.87c2.13-.1,3.86-.28,5.19-.53h.04c.12,0,.19.07.22.22l.13,1.06Zm-12.19-11.04c-.15,0-.22-.07-.22-.22v-1.06c0-.15.07-.22.22-.22h4.88v-2.31c0-.16.07-.24.22-.24h1.28c.15,0,.22.08.22.24v2.31h4.8c.13,0,.2.07.2.22v1.06c0,.15-.07.22-.2.22h-11.4Zm3.54,6.45c.53.4,1.27.59,2.22.59s1.69-.2,2.22-.59c.53-.4.79-.92.79-1.56s-.26-1.17-.79-1.56c-.53-.4-1.27-.59-2.22-.59s-1.69.2-2.22.59-.79.92-.79,1.56.26,1.17.79,1.56Zm14.85-3.04c.15,0,.22.08.22.24v1.12c0,.06-.02.11-.07.14-.04.04-.1.05-.15.05h-3.1v9.59c0,.16-.07.24-.22.24h-1.28c-.15,0-.22-.08-.22-.24v-18.63c0-.15.07-.22.22-.22h1.28c.15,0,.22.07.22.22v7.48h3.1Z"/>
            <path d="m170.94,275.55c0,1.39-.35,2.66-1.06,3.81-.7,1.14-1.75,2.11-3.13,2.9s-3.07,1.36-5.05,1.72h-.09c-.12,0-.18-.04-.2-.11l-.33-1.08v-.07c0-.15.07-.23.2-.24,3.24-.62,5.47-1.74,6.69-3.37-1.42.19-2.62.29-3.59.29h-2.86c-.16,0-.24-.07-.24-.22v-1.03c0-.13.08-.2.24-.2h2.68c1.73,0,3.25-.08,4.55-.24.25-.63.4-1.37.44-2.22h-7.15c-.16,0-.24-.07-.24-.22v-1.06c0-.16.08-.24.24-.24h8.65c.16,0,.24.08.24.24v1.34Zm6.09,14.41c.16,0,.24.08.24.24v1.1c0,.15-.08.22-.24.22h-11.81c-.16,0-.24-.07-.24-.22v-5.76c0-.13.08-.2.24-.2h1.21c.07,0,.14.02.2.05.06.04.09.08.09.14v4.42h10.32Zm-5.74-9.94c-.16,0-.24-.07-.24-.22v-1.08c0-.15.08-.22.24-.22h3.72v-5.63c0-.15.08-.22.24-.22h1.25c.16,0,.24.07.24.22v13.93c0,.15-.08.22-.24.22h-1.25c-.16,0-.24-.07-.24-.22v-6.78h-3.72Z"/>
            <path d="m181.39,282.19c-.09.03-.15.04-.2.04-.07,0-.13-.03-.18-.09l-.66-.97c-.04-.07-.07-.13-.07-.18,0-.09.04-.15.11-.2,1.51-.82,2.68-1.75,3.52-2.77s1.25-2.13,1.25-3.3v-1.25c0-.13.07-.2.2-.2h1.3c.13,0,.2.07.2.2v1.25c0,1.13.41,2.17,1.22,3.12.81.95,1.93,1.81,3.36,2.57.13.09.15.2.07.33l-.64.99c-.07.09-.2.11-.37.07-1.09-.6-2.01-1.27-2.77-1.99s-1.32-1.46-1.67-2.21c-.82,1.79-2.38,3.32-4.66,4.58Zm15.14,8.1c.16,0,.24.08.24.24v.99c0,.16-.08.24-.24.24h-12.12c-.16,0-.24-.08-.24-.24v-4.55c0-.07.02-.13.07-.18s.1-.07.18-.07h10.05v-1.98h-10.1c-.16,0-.24-.08-.24-.24v-.97c0-.15.08-.22.24-.22h11.59c.15,0,.22.07.22.22v4.38c0,.16-.08.24-.24.24h-10.05v2.13h10.65Zm-6.12-12.98c-.16,0-.24-.08-.24-.24v-1.06c0-.16.08-.24.24-.24h4.03v-2.9c0-.15.08-.22.24-.22h1.25c.16,0,.24.07.24.22v9.15c0,.15-.08.22-.24.22h-1.25c-.16,0-.24-.07-.24-.22v-4.71h-4.03Z"/>
            <path d="m204.71,282.94h-3.92c-.16,0-.24-.07-.24-.22v-8.93c0-.16.08-.24.24-.24h9.22c.15,0,.22.08.22.24v.97c0,.15-.07.22-.22.22h-7.74v2.51h7.44c.13,0,.2.07.2.22v.95c0,.15-.07.22-.2.22h-7.44v2.64h2.77c.98,0,2.02-.05,3.11-.14s2.1-.23,3.03-.41h.07c.13,0,.21.07.22.2l.13.9v.07c0,.09-.06.15-.18.2-1.97.41-4.2.62-6.71.62Zm9.42,2.46c1.1.64,1.65,1.56,1.65,2.75s-.55,2.13-1.65,2.78c-1.1.65-2.61.98-4.53.98s-3.43-.33-4.53-.98c-1.1-.65-1.65-1.58-1.65-2.78s.55-2.11,1.65-2.75c1.1-.65,2.61-.97,4.53-.97s3.43.32,4.53.97Zm-1.21,4.44c.78-.38,1.17-.95,1.17-1.69s-.39-1.29-1.17-1.66c-.78-.37-1.88-.56-3.32-.56s-2.52.19-3.3.56-1.17.93-1.17,1.66.38,1.31,1.15,1.69c.77.38,1.87.57,3.31.57s2.54-.19,3.32-.57Zm1.19-5.92c-.16,0-.24-.07-.24-.22v-10.85c0-.15.08-.22.24-.22h1.25c.16,0,.24.07.24.22v10.85c0,.15-.08.22-.24.22h-1.25Z"/>
            <path d="m219.27,293.37c-.07,0-.12-.02-.15-.07s-.04-.1-.02-.18l.97-3.01c-.22-.1-.4-.25-.53-.45-.13-.2-.2-.43-.2-.69,0-.35.12-.65.37-.89.25-.24.55-.36.9-.36s.67.12.91.35.36.54.36.9c0,.25-.04.52-.13.8-.09.29-.25.7-.48,1.24l-.97,2.18c-.04.12-.12.18-.24.18h-.79Z"/>
            <path d="m246.71,283.73c.13,0,.2.07.2.22v1.12c0,.16-.07.24-.2.24h-8.05v6.18c0,.16-.08.24-.24.24h-1.25c-.16,0-.24-.08-.24-.24v-6.18h-8.03c-.15,0-.22-.08-.22-.24v-1.12c0-.15.07-.22.22-.22h17.82Zm-16.57-3.5l-.02-.09c0-.1.05-.16.15-.18,1.99-.5,3.6-1.2,4.82-2.11,1.22-.91,1.83-1.92,1.83-3.04v-1.47c0-.15.07-.22.22-.22h1.3c.15,0,.22.07.22.22v1.47c0,.73.29,1.44.87,2.12.58.68,1.37,1.28,2.38,1.79,1,.51,2.12.92,3.35,1.21.15.04.2.14.15.29l-.42,1.08c-.04.13-.14.19-.29.18-1.58-.37-3-.92-4.26-1.65s-2.14-1.52-2.65-2.35c-.53.85-1.4,1.63-2.61,2.33-1.21.7-2.66,1.26-4.34,1.67h-.07c-.12,0-.2-.05-.24-.15l-.4-1.1Z"/>
            <path d="m264.22,272.64c.16,0,.24.07.24.22v9.95c0,.15-.08.22-.24.22h-1.25c-.16,0-.24-.07-.24-.22v-4.27h-3.41c-.15,1.19-.69,2.15-1.62,2.87-.93.73-2.1,1.09-3.51,1.09-1.01,0-1.91-.19-2.68-.57-.78-.38-1.38-.92-1.81-1.62-.43-.7-.65-1.48-.65-2.37s.22-1.67.65-2.36c.43-.7,1.04-1.24,1.83-1.63.79-.39,1.68-.58,2.67-.58,1.33,0,2.46.33,3.39,1s1.49,1.55,1.69,2.65h3.45v-4.16c0-.15.08-.22.24-.22h1.25Zm-7.51,7.5c.64-.57.96-1.31.96-2.2s-.32-1.63-.96-2.2-1.48-.86-2.52-.86-1.88.29-2.51.86-.95,1.31-.95,2.2.31,1.63.95,2.2c.63.57,1.47.86,2.51.86s1.88-.29,2.52-.86Zm7.54,3.96c.15,0,.22.08.22.24v7.13c0,.16-.07.24-.22.24h-11.55c-.16,0-.24-.08-.24-.24v-7.13c0-.16.08-.24.24-.24h1.28c.15,0,.22.08.22.24v2h8.54v-2c0-.16.08-.24.24-.24h1.28Zm-10.05,3.7v2.46h8.54v-2.46h-8.54Z"/>
            <path d="m290.46,288.09c.13,0,.2.07.2.22v1.12c0,.16-.07.24-.2.24h-17.82c-.15,0-.22-.08-.22-.24v-1.12c0-.15.07-.22.22-.22h8.03v-4.4c0-.15.08-.22.24-.22h1.25c.16,0,.24.07.24.22v4.4h8.05Zm-16.65-5.48l-.02-.09c0-.09.05-.15.15-.18,1.98-.7,3.6-1.63,4.85-2.77,1.25-1.14,1.88-2.38,1.88-3.72v-1.67c0-.15.07-.22.22-.22h1.3c.15,0,.22.07.22.22v1.67c0,.88.3,1.74.91,2.59.61.84,1.42,1.6,2.43,2.27,1.01.67,2.13,1.21,3.34,1.62.07.01.12.04.14.09.02.04.02.1-.01.18l-.48,1.03c-.04.15-.14.2-.29.15-1.57-.5-2.99-1.21-4.26-2.13-1.27-.92-2.15-1.88-2.65-2.88-.51,1-1.38,1.94-2.61,2.84s-2.67,1.62-4.34,2.18l-.11.02c-.07,0-.14-.05-.2-.15l-.48-1.04Z"/>
            <path d="m299.51,274.73c.16,0,.24.07.24.22v2.02c0,2.16-.53,4.12-1.59,5.91-1.06,1.78-2.75,3.52-5.07,5.2-.06.03-.1.04-.13.04-.06,0-.12-.04-.2-.11l-.81-.95c-.03-.06-.04-.11-.04-.15,0-.09.04-.16.11-.22,2.1-1.5,3.62-3.02,4.58-4.57.95-1.55,1.43-3.27,1.43-5.16v-.66h-5.35c-.15,0-.22-.08-.22-.24v-1.12c0-.15.07-.22.22-.22h6.84Zm9.33-2.09c.13,0,.2.07.2.22v18.63c0,.16-.07.24-.2.24h-1.28c-.16,0-.24-.08-.24-.24v-10.05h-3.1v9.46c0,.16-.07.24-.22.24h-1.25c-.15,0-.22-.08-.22-.24v-17.6c0-.16.07-.24.22-.24h1.25c.15,0,.22.08.22.24v6.56h3.1v-7c0-.15.08-.22.24-.22h1.28Z"/>
            <path d="m326.74,275.55c0,1.39-.35,2.66-1.06,3.81-.7,1.14-1.75,2.11-3.13,2.9s-3.07,1.36-5.05,1.72h-.09c-.12,0-.18-.04-.2-.11l-.33-1.08v-.07c0-.15.07-.23.2-.24,3.24-.62,5.47-1.74,6.69-3.37-1.42.19-2.62.29-3.59.29h-2.86c-.16,0-.24-.07-.24-.22v-1.03c0-.13.08-.2.24-.2h2.68c1.73,0,3.25-.08,4.55-.24.25-.63.4-1.37.44-2.22h-7.15c-.16,0-.24-.07-.24-.22v-1.06c0-.16.08-.24.24-.24h8.65c.16,0,.24.08.24.24v1.34Zm6.09,14.41c.16,0,.24.08.24.24v1.1c0,.15-.08.22-.24.22h-11.81c-.16,0-.24-.07-.24-.22v-5.76c0-.13.08-.2.24-.2h1.21c.07,0,.14.02.2.05.06.04.09.08.09.14v4.42h10.32Zm-5.74-9.94c-.16,0-.24-.07-.24-.22v-1.08c0-.15.08-.22.24-.22h3.72v-5.63c0-.15.08-.22.24-.22h1.25c.16,0,.24.07.24.22v13.93c0,.15-.08.22-.24.22h-1.25c-.16,0-.24-.07-.24-.22v-6.78h-3.72Z"/>
            <path d="m344.74,283.31v.04c0,.09-.06.15-.18.18-1.51.32-3.48.48-5.92.48h-2.27c-.15,0-.22-.07-.22-.2v-9.72c0-.15.07-.22.22-.22h6.71c.15,0,.22.07.22.22v.97c0,.16-.07.24-.22.24h-5.24v2.86h4.91c.16,0,.24.08.24.24v.92c0,.15-.08.22-.24.22h-4.91v3.06h1.06c.89,0,1.83-.04,2.82-.11.98-.07,1.85-.18,2.6-.33h.07c.1,0,.18.06.22.18l.13.97Zm8.29,6.64c.15,0,.22.08.22.24v1.1c0,.15-.07.22-.22.22h-13.05c-.15,0-.22-.07-.22-.22v-5.43c0-.15.07-.22.22-.22h1.3c.15,0,.22.07.22.22v4.09h11.53Zm-8.82-10.78c-.15,0-.22-.07-.22-.22v-1.1c0-.16.07-.24.22-.24h2.55v-4.53c0-.16.07-.24.22-.24h1.25c.13,0,.2.08.2.24v13.4c0,.13-.07.2-.2.2h-1.25c-.15,0-.22-.07-.22-.2v-7.3h-2.55Zm7.11,7.72c-.16,0-.24-.07-.24-.22v-13.82c0-.15.08-.22.24-.22h1.28c.13,0,.2.07.2.22v13.82c0,.15-.07.22-.2.22h-1.28Z"/>
            <path d="m373.07,287.98c.13,0,.2.07.2.22v1.12c0,.16-.07.24-.2.24h-17.82c-.15,0-.22-.08-.22-.24v-1.12c0-.15.07-.22.22-.22h17.82Zm-16.72-4.55l-.02-.09c0-.07.06-.13.18-.18,2.04-.51,3.68-1.2,4.92-2.06,1.24-.86,1.86-1.85,1.86-2.98v-.46h-6.23c-.16,0-.24-.07-.24-.22v-1.1c0-.07.02-.13.07-.18s.1-.07.18-.07h6.23v-2.33c0-.15.07-.22.22-.22h1.3c.15,0,.22.07.22.22v2.33h6.23c.07,0,.13.02.18.07s.07.1.07.18v1.1c0,.15-.08.22-.24.22h-6.23v.46c0,1.11.64,2.12,1.91,3,1.28.89,2.88,1.55,4.82,1.99.09.02.14.05.16.11.02.06.02.12-.01.18l-.42,1.06c-.04.12-.13.16-.26.13-1.63-.38-3.08-.92-4.37-1.62-1.28-.7-2.18-1.46-2.7-2.28-.5.81-1.38,1.56-2.64,2.24-1.26.69-2.75,1.24-4.47,1.65h-.09c-.12,0-.19-.04-.22-.13l-.4-1.03Z"/>
            <path d="m385,277.59c0,1.6.34,3.13,1.02,4.59.68,1.46,1.59,2.75,2.74,3.86.07.07.11.14.11.2s-.03.12-.09.18l-.79.75c-.04.06-.1.09-.18.09s-.13-.03-.18-.09c-.82-.84-1.54-1.75-2.15-2.75s-1.05-1.96-1.33-2.88c-.25,1.03-.67,2.05-1.25,3.08-.59,1.03-1.36,2.02-2.31,2.97-.04.04-.1.07-.18.07-.06,0-.12-.02-.18-.07l-.79-.75c-.04-.07-.07-.13-.07-.18,0-.07.02-.13.07-.18,1.28-1.22,2.23-2.58,2.87-4.08.64-1.5.96-3.11.96-4.81v-1.52h-3.1c-.15,0-.22-.07-.22-.22v-1.12c0-.16.07-.24.22-.24h7.74c.16,0,.24.08.24.24v1.12c0,.15-.08.22-.24.22h-2.93v1.52Zm7.11-4.53c.13,0,.2.08.2.24v17.6c0,.16-.07.24-.2.24h-1.25c-.16,0-.24-.08-.24-.24v-10.19h-2.97c-.16,0-.24-.08-.24-.24v-1.12c0-.15.08-.22.24-.22h2.97v-5.83c0-.16.08-.24.24-.24h1.25Zm4.25-.42c.13,0,.2.07.2.22v18.63c0,.16-.07.24-.2.24h-1.28c-.16,0-.24-.08-.24-.24v-18.63c0-.15.08-.22.24-.22h1.28Z"/>
            <path d="m403.06,281.28c-.79.67-1.81,1.33-3.06,1.99-.06.03-.1.04-.13.04-.07,0-.15-.04-.22-.13l-.64-.95s-.04-.08-.04-.15c0-.12.04-.19.11-.22,1.6-.82,2.8-1.66,3.62-2.52s1.22-1.9,1.22-3.11v-.84h-4.11c-.16,0-.24-.08-.24-.24v-1.06c0-.15.08-.22.24-.22h9.88c.16,0,.24.07.24.22v1.06c0,.16-.08.24-.24.24h-4.03v.84c0,.81.2,1.51.59,2.12.4.61.92,1.15,1.58,1.62.66.47,1.5.96,2.53,1.47.12.07.14.19.07.35l-.57.99c-.03.06-.08.09-.14.1-.07,0-.14,0-.21-.03-2.39-1.2-3.95-2.46-4.69-3.76-.38.79-.97,1.52-1.76,2.19Zm10.93,3.31c.13,0,.2.07.2.22v6.88c0,.15-.07.22-.2.22h-1.3c-.15,0-.22-.07-.22-.22v-5.57h-10.34c-.15,0-.22-.07-.22-.22v-1.1c0-.15.07-.22.22-.22h11.86Zm3.3-7.33c.15,0,.22.08.22.24v1.12c0,.15-.07.22-.22.22h-3.1v4.47c0,.13-.07.2-.22.2h-1.28c-.06,0-.11-.02-.15-.05s-.07-.08-.07-.14v-10.45c0-.15.07-.22.22-.22h1.28c.15,0,.22.07.22.22v4.4h3.1Z"/>
            <path d="m435.31,286.17c0,.06-.03.12-.09.18l-.79.88c-.06.06-.12.09-.18.09-.04,0-.1-.02-.18-.07-1.1-.97-2.06-1.97-2.87-3.01-.81-1.04-1.38-1.99-1.71-2.84-.38,1.03-.96,2.07-1.74,3.12-.78,1.06-1.77,2.05-2.97,2.99-.07.04-.14.07-.2.07-.07,0-.13-.02-.18-.07l-.75-.92c-.06-.06-.09-.11-.09-.15,0-.07.04-.13.11-.18,3.26-2.57,4.88-5.51,4.88-8.84v-1.14h-4.16c-.15,0-.22-.08-.22-.24v-1.1c0-.16.07-.24.22-.24h9.88c.16,0,.24.08.24.24v1.1c0,.16-.08.24-.24.24h-4v1.14c0,1.61.44,3.12,1.33,4.53.89,1.41,2.08,2.76,3.58,4.07.07.04.11.1.11.15Zm3.96-13.53c.16,0,.24.07.24.22v18.63c0,.16-.08.24-.24.24h-1.28c-.15,0-.22-.08-.22-.24v-18.63c0-.15.07-.22.22-.22h1.28Z"/>
            <path d="m448.07,282.76h-4.99c-.16,0-.24-.08-.24-.24v-1.03c0-.15.08-.22.24-.22h3.61c3.62,0,6.57-.21,8.84-.64h.07c.1,0,.17.07.2.2l.11.99v.04c0,.1-.07.17-.2.2-1.58.32-3.56.54-5.92.66v2.9c0,.16-.07.24-.22.24h-1.25c-.16,0-.24-.08-.24-.24v-2.86Zm-2.61-3.86c-.86-.59-1.29-1.4-1.29-2.41s.43-1.84,1.29-2.43c.86-.59,2.07-.89,3.64-.89s2.77.3,3.64.89c.87.59,1.31,1.4,1.31,2.43s-.44,1.81-1.31,2.41c-.87.59-2.09.89-3.64.89s-2.78-.3-3.64-.89Zm1.23-3.83c-.57.34-.85.82-.85,1.42s.28,1.05.85,1.4c.56.35,1.37.52,2.41.52s1.82-.17,2.39-.52c.56-.34.85-.81.85-1.4s-.28-1.06-.85-1.41-1.36-.53-2.39-.53-1.84.17-2.41.52Zm12.62,14.95c.15,0,.22.08.22.24v1.08c0,.16-.07.24-.22.24h-12.85c-.15,0-.22-.08-.22-.24v-4.47c0-.16.07-.24.22-.24h1.23c.18,0,.26.08.26.24v3.15h11.35Zm-2.13-5.7v-11.46c0-.15.08-.22.24-.22h1.25c.16,0,.24.07.24.22v14.63c0,.13-.08.2-.24.2h-1.25c-.16,0-.24-.07-.24-.2v-1.76h-4.84c-.15,0-.22-.07-.22-.22v-.97c0-.15.07-.22.22-.22h4.84Z"/>
            <path d="m462.59,293.37c-.07,0-.12-.02-.15-.07s-.04-.1-.02-.18l.97-3.01c-.22-.1-.4-.25-.53-.45-.13-.2-.2-.43-.2-.69,0-.35.12-.65.37-.89.25-.24.55-.36.9-.36s.67.12.91.35.36.54.36.9c0,.25-.04.52-.13.8-.09.29-.25.7-.48,1.24l-.97,2.18c-.04.12-.12.18-.24.18h-.79Z"/>
            <path d="m482.24,274.64c.15,0,.22.07.22.22v11.71c0,.16-.07.24-.22.24h-9.02c-.15,0-.22-.08-.22-.24v-11.71c0-.15.07-.22.22-.22h9.02Zm-7.52,10.58h6.03v-9.02h-6.03v9.02Zm15.77-5.48c.15,0,.22.08.22.24v1.12c0,.15-.07.22-.22.22h-3.1v10.16c0,.16-.07.24-.22.24h-1.28c-.15,0-.22-.08-.22-.24v-18.63c0-.15.07-.22.22-.22h1.28c.15,0,.22.07.22.22v6.89h3.1Z"/>
            <path d="m503.75,273.06c.16,0,.24.08.24.24v17.6c0,.16-.08.24-.24.24h-1.23c-.15,0-.22-.08-.22-.24v-9.09h-4c-1.03,2.3-2.91,4.46-5.65,6.47-.06.03-.1.04-.13.04-.06,0-.12-.04-.2-.11l-.81-.95c-.03-.06-.04-.11-.04-.15,0-.07.04-.14.11-.2,2.49-1.76,4.19-3.64,5.08-5.65-1.01.16-2.03.24-3.06.24h-1.76c-.15,0-.22-.07-.22-.22v-1.12c0-.15.07-.22.22-.22h1.56c1.33,0,2.61-.09,3.83-.26.23-.88.35-1.82.35-2.82v-.77h-5.35c-.15,0-.22-.07-.22-.22v-1.12c0-.16.07-.24.22-.24h6.84c.16,0,.24.08.24.24v2.11c0,1.14-.15,2.27-.44,3.37h3.43v-6.93c0-.16.07-.24.22-.24h1.23Zm4.64-.42c.13,0,.2.07.2.22v18.63c0,.16-.07.24-.2.24h-1.28c-.16,0-.24-.08-.24-.24v-18.63c0-.15.08-.22.24-.22h1.28Z"/>
            <path d="m516.32,282.94h-3.92c-.16,0-.24-.07-.24-.22v-8.93c0-.16.08-.24.24-.24h9.22c.15,0,.22.08.22.24v.97c0,.15-.07.22-.22.22h-7.74v2.51h7.44c.13,0,.2.07.2.22v.95c0,.15-.07.22-.2.22h-7.44v2.64h2.77c.98,0,2.02-.05,3.11-.14s2.1-.23,3.03-.41h.07c.13,0,.21.07.22.2l.13.9v.07c0,.09-.06.15-.18.2-1.97.41-4.2.62-6.71.62Zm9.42,2.46c1.1.64,1.65,1.56,1.65,2.75s-.55,2.13-1.65,2.78c-1.1.65-2.61.98-4.53.98s-3.43-.33-4.53-.98c-1.1-.65-1.65-1.58-1.65-2.78s.55-2.11,1.65-2.75c1.1-.65,2.61-.97,4.53-.97s3.43.32,4.53.97Zm-1.21,4.44c.78-.38,1.17-.95,1.17-1.69s-.39-1.29-1.17-1.66c-.78-.37-1.88-.56-3.32-.56s-2.52.19-3.3.56-1.17.93-1.17,1.66.38,1.31,1.15,1.69c.77.38,1.87.57,3.31.57s2.54-.19,3.32-.57Zm1.19-5.92c-.16,0-.24-.07-.24-.22v-10.85c0-.15.08-.22.24-.22h1.25c.16,0,.24.07.24.22v10.85c0,.15-.08.22-.24.22h-1.25Z"/>
            <path d="m545.73,275.55c0,1.39-.35,2.66-1.06,3.81-.7,1.14-1.75,2.11-3.13,2.9s-3.07,1.36-5.05,1.72h-.09c-.12,0-.18-.04-.2-.11l-.33-1.08v-.07c0-.15.07-.23.2-.24,3.24-.62,5.47-1.74,6.69-3.37-1.42.19-2.62.29-3.59.29h-2.86c-.16,0-.24-.07-.24-.22v-1.03c0-.13.08-.2.24-.2h2.68c1.73,0,3.25-.08,4.55-.24.25-.63.4-1.37.44-2.22h-7.15c-.16,0-.24-.07-.24-.22v-1.06c0-.16.08-.24.24-.24h8.65c.16,0,.24.08.24.24v1.34Zm6.09,14.41c.16,0,.24.08.24.24v1.1c0,.15-.08.22-.24.22h-11.81c-.16,0-.24-.07-.24-.22v-5.76c0-.13.08-.2.24-.2h1.21c.07,0,.14.02.2.05.06.04.09.08.09.14v4.42h10.32Zm-5.74-9.94c-.16,0-.24-.07-.24-.22v-1.08c0-.15.08-.22.24-.22h3.72v-5.63c0-.15.08-.22.24-.22h1.25c.16,0,.24.07.24.22v13.93c0,.15-.08.22-.24.22h-1.25c-.16,0-.24-.07-.24-.22v-6.78h-3.72Z"/>
            <path d="m556.18,282.19c-.09.03-.15.04-.2.04-.07,0-.13-.03-.18-.09l-.66-.97c-.04-.07-.07-.13-.07-.18,0-.09.04-.15.11-.2,1.51-.82,2.68-1.75,3.52-2.77s1.25-2.13,1.25-3.3v-1.25c0-.13.07-.2.2-.2h1.3c.13,0,.2.07.2.2v1.25c0,1.13.41,2.17,1.22,3.12.81.95,1.93,1.81,3.36,2.57.13.09.15.2.07.33l-.64.99c-.07.09-.2.11-.37.07-1.09-.6-2.01-1.27-2.77-1.99s-1.32-1.46-1.67-2.21c-.82,1.79-2.38,3.32-4.66,4.58Zm15.14,8.1c.16,0,.24.08.24.24v.99c0,.16-.08.24-.24.24h-12.12c-.16,0-.24-.08-.24-.24v-4.55c0-.07.02-.13.07-.18s.1-.07.18-.07h10.05v-1.98h-10.1c-.16,0-.24-.08-.24-.24v-.97c0-.15.08-.22.24-.22h11.59c.15,0,.22.07.22.22v4.38c0,.16-.08.24-.24.24h-10.05v2.13h10.65Zm-6.12-12.98c-.16,0-.24-.08-.24-.24v-1.06c0-.16.08-.24.24-.24h4.03v-2.9c0-.15.08-.22.24-.22h1.25c.16,0,.24.07.24.22v9.15c0,.15-.08.22-.24.22h-1.25c-.16,0-.24-.07-.24-.22v-4.71h-4.03Z"/>
            <path d="m579.5,282.94h-3.92c-.16,0-.24-.07-.24-.22v-8.93c0-.16.08-.24.24-.24h9.22c.15,0,.22.08.22.24v.97c0,.15-.07.22-.22.22h-7.74v2.51h7.44c.13,0,.2.07.2.22v.95c0,.15-.07.22-.2.22h-7.44v2.64h2.77c.98,0,2.02-.05,3.11-.14s2.1-.23,3.03-.41h.07c.13,0,.21.07.22.2l.13.9v.07c0,.09-.06.15-.18.2-1.97.41-4.2.62-6.71.62Zm9.42,2.46c1.1.64,1.65,1.56,1.65,2.75s-.55,2.13-1.65,2.78c-1.1.65-2.61.98-4.53.98s-3.43-.33-4.53-.98c-1.1-.65-1.65-1.58-1.65-2.78s.55-2.11,1.65-2.75c1.1-.65,2.61-.97,4.53-.97s3.43.32,4.53.97Zm-1.21,4.44c.78-.38,1.17-.95,1.17-1.69s-.39-1.29-1.17-1.66c-.78-.37-1.88-.56-3.32-.56s-2.52.19-3.3.56-1.17.93-1.17,1.66.38,1.31,1.15,1.69c.77.38,1.87.57,3.31.57s2.54-.19,3.32-.57Zm1.19-5.92c-.16,0-.24-.07-.24-.22v-10.85c0-.15.08-.22.24-.22h1.25c.16,0,.24.07.24.22v10.85c0,.15-.08.22-.24.22h-1.25Z"/>
            <path d="m594.06,293.37c-.07,0-.12-.02-.15-.07s-.04-.1-.02-.18l.97-3.01c-.22-.1-.4-.25-.53-.45-.13-.2-.2-.43-.2-.69,0-.35.12-.65.37-.89.25-.24.55-.36.9-.36s.67.12.91.35.36.54.36.9c0,.25-.04.52-.13.8-.09.29-.25.7-.48,1.24l-.97,2.18c-.04.12-.12.18-.24.18h-.79Z"/>
            <path d="m115.2,311.27c-.09,0-.15-.04-.18-.13l-.33-1.06s-.02-.07-.02-.11c0-.09.06-.15.18-.18,2.42-.63,4.25-1.45,5.5-2.46s1.87-2.18,1.87-3.5v-.4h-6.58c-.15,0-.22-.08-.22-.24v-1.1c0-.15.07-.22.22-.22h8.1c.15,0,.22.07.22.22v1.69c0,1.7-.73,3.19-2.2,4.48s-3.61,2.28-6.42,2.98c-.03.01-.07.02-.13.02Zm3.12,8.45c-.16,0-.24-.08-.24-.24v-6.89c0-.13.08-.2.24-.2h11.55c.15,0,.22.07.22.2v6.89c0,.16-.07.24-.22.24h-11.55Zm1.5-5.83v4.31h8.54v-4.31h-8.54Zm8.78-2.57c-.16,0-.24-.08-.24-.24v-10.21c0-.15.08-.22.24-.22h1.25c.16,0,.24.07.24.22v10.21c0,.16-.08.24-.24.24h-1.25Z"/>
            <path d="m145.45,315.23v.04c0,.09-.07.15-.22.2-2.11.41-4.97.62-8.58.62h-3.54c-.15,0-.22-.08-.22-.24v-1.08c0-.13.07-.2.22-.2h3.89v-5.68c0-.13.08-.2.24-.2h1.28c.15,0,.22.07.22.2v5.63c2.57-.07,4.67-.26,6.31-.55h.07c.1,0,.17.07.2.2l.13,1.06Zm-11.2-10.93c-.16,0-.24-.07-.24-.22v-1.1c0-.15.08-.22.24-.22h9.48c.13,0,.2.07.2.22v1.63c0,2.45-.21,4.72-.64,6.8-.01.13-.1.2-.26.2l-1.21-.13c-.13-.01-.18-.1-.15-.26.16-.91.29-1.94.4-3.1.1-1.16.15-2.24.15-3.26v-.55h-7.96Zm17.4,3.98c.15,0,.22.08.22.24v1.12c0,.15-.07.22-.22.22h-3.1v9.64c0,.16-.07.24-.22.24h-1.28c-.15,0-.22-.08-.22-.24v-18.63c0-.15.07-.22.22-.22h1.28c.15,0,.22.07.22.22v7.41h3.1Z"/>
            <path d="m166.02,315.34v.04c0,.1-.07.17-.2.2-2,.4-4.88.59-8.65.59h-3.96c-.15,0-.22-.07-.22-.2v-1.08c0-.16.07-.24.22-.24h5.04v-3.3c-1.29-.18-2.31-.68-3.06-1.52s-1.12-1.85-1.12-3.04c0-.88.21-1.67.62-2.36.41-.7,1-1.24,1.76-1.64s1.65-.59,2.66-.59,1.9.2,2.67.59c.77.4,1.36.94,1.78,1.64.42.7.63,1.48.63,2.36,0,1.19-.38,2.2-1.13,3.04-.76.84-1.78,1.33-3.07,1.5v3.28c2.33-.07,4.22-.26,5.65-.55h.04c.1,0,.17.07.2.22l.13,1.06Zm-9.32-6.34c.61.57,1.41.86,2.41.86s1.8-.29,2.42-.86.92-1.3.92-2.2-.31-1.63-.92-2.2-1.42-.86-2.42-.86-1.8.29-2.41.86-.91,1.31-.91,2.2.3,1.63.91,2.2Zm12-8.36c.16,0,.24.07.24.22v18.63c0,.16-.08.24-.24.24h-1.25c-.15,0-.22-.08-.22-.24v-18.63c0-.15.07-.22.22-.22h1.25Z"/>
            <path d="m178.54,318c-.16,0-.24-.08-.24-.24v-15.69c0-.15.08-.22.24-.22h5.26c1.76,0,3.09.38,3.98,1.13.89.76,1.34,1.74,1.34,2.96,0,.87-.21,1.61-.62,2.23-.41.62-1.01,1.08-1.8,1.38,1.06.26,1.85.73,2.39,1.4.54.67.8,1.51.8,2.54,0,1.39-.48,2.49-1.43,3.3-.95.81-2.41,1.21-4.38,1.21h-5.54Zm5.28-9.2c1.16,0,2.02-.23,2.58-.68s.85-1.1.85-1.94-.3-1.46-.9-1.92c-.6-.46-1.49-.69-2.66-.69h-3.54v5.24h3.67Zm.26,7.46c1.31,0,2.28-.25,2.94-.75.65-.5.98-1.22.98-2.16s-.33-1.63-.98-2.12c-.65-.49-1.63-.74-2.94-.74h-3.94v5.76h3.94Z"/>
            <path d="m192.64,318c-.16,0-.24-.08-.24-.24v-.4c0-.09.04-.18.11-.29l3.92-4.33c1.16-1.28,2.03-2.3,2.62-3.08s.98-1.44,1.19-1.98c.21-.54.31-1.11.31-1.69,0-.82-.28-1.47-.85-1.94-.57-.47-1.3-.7-2.21-.7-.85,0-1.58.22-2.18.66-.6.44-1.04,1.08-1.32,1.91-.04.15-.14.2-.29.15l-1.3-.35c-.16-.03-.22-.12-.18-.29.4-1.23,1.06-2.19,1.98-2.87.92-.68,2.04-1.02,3.34-1.02.95,0,1.8.18,2.54.54s1.32.86,1.73,1.51c.41.65.62,1.39.62,2.24,0,.75-.11,1.46-.34,2.13s-.68,1.47-1.35,2.4c-.67.92-1.67,2.08-2.99,3.48l-2.27,2.42h7.37c.15,0,.22.07.22.22v1.28c0,.16-.07.24-.22.24h-10.21Z"/>
            <path d="m209.33,317.29c-1.15-.68-2.05-1.66-2.68-2.93-.64-1.27-.96-2.75-.96-4.43s.32-3.16.97-4.43,1.55-2.24,2.71-2.93c1.16-.68,2.49-1.02,4-1.02,1.63,0,3.01.37,4.16,1.1,1.14.73,1.99,1.78,2.55,3.15l.02.09c0,.1-.06.18-.18.22l-1.34.4-.09.02c-.07,0-.14-.05-.2-.15-.95-2.01-2.59-3.01-4.91-3.01-1.22,0-2.26.28-3.13.84-.87.56-1.53,1.33-1.98,2.32-.45.99-.67,2.13-.67,3.42s.23,2.45.68,3.44c.45.99,1.11,1.76,1.98,2.31.87.55,1.91.82,3.12.82,1.29,0,2.38-.31,3.27-.95.89-.63,1.54-1.54,1.97-2.73.04-.15.14-.2.29-.15l1.34.4c.13.04.18.12.15.24-.48,1.53-1.33,2.74-2.53,3.64-1.2.9-2.71,1.35-4.53,1.35-1.53,0-2.86-.34-4.01-1.02Z"/>
            <path d="m235.23,302.69c.16,0,.24.07.24.22v11.77c0,.15-.08.22-.24.22h-7.41c-.15,0-.22-.07-.22-.22v-11.77c0-.15.07-.22.22-.22h7.41Zm-5.94,10.65h4.49v-9.09h-4.49v9.09Zm14.74-12.69c.13,0,.2.07.2.22v18.63c0,.16-.07.24-.2.24h-1.28c-.16,0-.24-.08-.24-.24v-10.05h-2.84v9.46c0,.16-.07.24-.22.24h-1.23c-.16,0-.24-.08-.24-.24v-17.6c0-.16.08-.24.24-.24h1.23c.15,0,.22.08.22.24v6.56h2.84v-7c0-.15.08-.22.24-.22h1.28Z"/>
            <path d="m251.06,309.67c-.8.7-1.81,1.37-3.05,2.01-.09.03-.14.04-.15.04-.09,0-.16-.04-.22-.13l-.62-.95s-.04-.08-.04-.15c0-.1.04-.17.11-.2,1.58-.82,2.78-1.68,3.6-2.57.81-.89,1.22-1.96,1.22-3.19v-.2h-4.22c-.15,0-.22-.08-.22-.24v-1.06c0-.15.07-.22.22-.22h4.22v-2.07c0-.16.07-.24.22-.24h1.3c.15,0,.22.08.22.24v2.07h4.11c.16,0,.24.07.24.22v1.06c0,.16-.08.24-.24.24h-4.11v.2c0,.81.19,1.52.58,2.13.39.62.91,1.16,1.57,1.62s1.5.96,2.53,1.48c.06.03.09.07.11.13s0,.12-.04.2l-.57.99c-.03.06-.07.1-.13.11-.06.01-.12,0-.2-.04-2.39-1.2-3.95-2.45-4.66-3.74-.38.81-.97,1.56-1.77,2.25Zm10.29,3.78c1.13.65,1.69,1.57,1.69,2.74s-.56,2.11-1.69,2.75c-1.13.65-2.69.97-4.69.97s-3.56-.32-4.7-.97c-1.14-.64-1.71-1.56-1.71-2.75s.57-2.09,1.71-2.74,2.7-.98,4.7-.98,3.56.33,4.69.98Zm-1.23,4.41c.82-.37,1.23-.92,1.23-1.67s-.41-1.28-1.23-1.65c-.82-.37-1.97-.55-3.45-.55s-2.63.18-3.44.55c-.81.37-1.22.92-1.22,1.65s.41,1.29,1.23,1.66c.82.37,1.97.56,3.43.56s2.63-.18,3.45-.55Zm1.23-6.01c-.16,0-.24-.07-.24-.22v-10.78c0-.15.08-.22.24-.22h1.25c.16,0,.24.07.24.22v10.78c0,.15-.08.22-.24.22h-1.25Z"/>
            <path d="m275.31,310.03c-.77.67-1.78,1.29-3.02,1.86-.04.01-.1.02-.18.02-.1,0-.16-.03-.18-.09l-.57-.97s-.04-.08-.04-.15c0-.1.04-.17.11-.2,1.58-.72,2.77-1.51,3.55-2.39.79-.87,1.18-1.94,1.18-3.2v-1.5h-4.03c-.15,0-.22-.07-.22-.22v-1.1c0-.07.01-.13.04-.16.03-.04.09-.06.18-.06h9.68c.09,0,.15.02.18.06.03.04.04.09.04.16v1.1c0,.15-.07.22-.22.22h-3.94v1.5c0,1.19.38,2.16,1.14,2.93.76.76,1.91,1.49,3.45,2.18.06.03.1.07.11.13s0,.12-.04.2l-.51,1.01c-.02.06-.07.09-.15.09-.04,0-.11-.01-.2-.04-1.09-.47-2.03-1.01-2.83-1.63-.8-.62-1.4-1.28-1.79-2-.4.84-.98,1.59-1.75,2.26Zm12.16,7.93c.16,0,.24.08.24.24v1.1c0,.15-.08.22-.24.22h-12.14c-.15,0-.22-.07-.22-.22v-5.79c0-.16.07-.24.22-.24h1.23c.18,0,.26.08.26.24v4.44h10.65Zm-2.02-12.23v-4.86c0-.15.08-.22.24-.22h1.25c.16,0,.24.07.24.22v13.71c0,.15-.08.22-.24.22h-1.25c-.16,0-.24-.07-.24-.22v-7.3h-3.94c-.15,0-.22-.07-.22-.22v-1.08c0-.16.07-.24.22-.24h3.94Z"/>
            <path d="m308.27,310.15c.13,0,.2.07.2.22v1.03c0,.15-.07.22-.2.22h-17.82c-.15,0-.22-.07-.22-.22v-1.03c0-.15.07-.22.22-.22h4.69v-2.79c-1.38-.63-2.07-1.58-2.07-2.86,0-1.12.54-1.99,1.61-2.64,1.07-.64,2.62-.97,4.66-.97s3.59.32,4.66.97c1.07.65,1.61,1.53,1.61,2.64,0,.62-.18,1.17-.53,1.66-.35.49-.87.89-1.56,1.2v2.79h4.75Zm-4.28,3.78c1.08.63,1.62,1.51,1.62,2.64s-.54,2.01-1.62,2.65c-1.08.64-2.63.96-4.65.96s-3.55-.32-4.63-.96c-1.08-.64-1.62-1.52-1.62-2.65s.54-2.01,1.62-2.64c1.08-.63,2.62-.95,4.63-.95s3.58.32,4.65.95Zm-8.07-11.01c-.74.37-1.11.9-1.11,1.57s.37,1.18,1.12,1.56c.75.38,1.88.57,3.41.57s2.67-.19,3.42-.57c.75-.38,1.13-.9,1.13-1.56s-.37-1.2-1.12-1.57-1.89-.56-3.43-.56-2.68.19-3.42.56Zm6.83,15.21c.76-.38,1.14-.9,1.14-1.56s-.38-1.18-1.13-1.56c-.76-.38-1.9-.57-3.42-.57s-2.64.19-3.39.57c-.75.38-1.12.9-1.12,1.56s.37,1.18,1.12,1.56c.75.38,1.88.57,3.39.57s2.65-.19,3.41-.57Zm-5.87-7.99h4.93v-2.27c-.72.13-1.54.2-2.46.2s-1.73-.07-2.46-.2v2.27Z"/>
            <path d="m317.91,311.91c-1.42.09-3.03.13-4.82.13h-3.48c-.15,0-.22-.07-.22-.2v-1.03c0-.16.07-.24.22-.24h4v-4.14c0-.16.08-.24.24-.24h1.28c.16,0,.24.08.24.24v4.09c2.57-.07,4.63-.26,6.18-.55h.04c.12,0,.19.07.22.22l.11,1.01v.04c0,.09-.07.15-.2.18-1.13.23-2.41.4-3.83.48Zm-7.11-8.62c-.15,0-.22-.07-.22-.22v-1.06c0-.13.07-.2.22-.2h9.42c.13,0,.2.07.2.2v1.36c0,.79-.04,1.67-.12,2.64-.08.97-.2,1.83-.34,2.57-.03.13-.12.2-.26.2l-1.21-.13c-.15-.01-.21-.11-.18-.29.13-.64.23-1.43.31-2.36.07-.93.11-1.74.11-2.43v-.29h-7.92Zm14.87,14.72c.16,0,.24.08.24.24v1.1c0,.16-.08.24-.24.24h-12.45c-.16,0-.24-.08-.24-.24v-5.21c0-.06.02-.11.07-.14.04-.04.1-.05.18-.05h1.28c.15,0,.22.07.22.2v3.87h10.96Zm2.49-11.35c.15,0,.22.08.22.24v1.12c0,.15-.07.22-.22.22h-3.1v7.04c0,.16-.07.24-.22.24h-1.28c-.15,0-.22-.08-.22-.24v-14.41c0-.15.07-.22.22-.22h1.28c.15,0,.22.07.22.22v5.79h3.1Z"/>
            <path d="m344.61,308.39c-.43.7-1.04,1.25-1.83,1.64s-1.68.58-2.69.58-1.91-.19-2.7-.58c-.79-.39-1.39-.93-1.83-1.63-.43-.7-.65-1.49-.65-2.39s.22-1.69.65-2.4c.43-.7,1.04-1.25,1.83-1.65.78-.4,1.68-.59,2.7-.59s1.91.2,2.69.59,1.39.95,1.83,1.65c.43.71.65,1.5.65,2.4s-.22,1.67-.65,2.38Zm-7.04-.14c.64.58,1.48.87,2.52.87s1.88-.29,2.52-.87.96-1.32.96-2.23-.32-1.66-.96-2.24c-.64-.59-1.48-.88-2.52-.88s-1.88.29-2.52.88c-.64.59-.96,1.33-.96,2.24s.32,1.65.96,2.23Zm12.57,3.82c.15,0,.22.07.22.22v7.2c0,.16-.07.24-.22.24h-11.55c-.16,0-.24-.08-.24-.24v-7.2c0-.15.08-.22.24-.22h1.28c.13,0,.2.07.2.22v2.07h8.6v-2.07c0-.15.07-.22.2-.22h1.28Zm-10.08,3.74v2.46h8.6v-2.46h-8.6Zm10.05-15.16c.16,0,.24.07.24.22v9.97c0,.13-.08.2-.24.2h-1.25c-.07,0-.13-.02-.18-.05-.04-.04-.07-.08-.07-.14v-9.97c0-.15.08-.22.24-.22h1.25Z"/>
            <path d="m357.9,309.44c-.76.65-1.77,1.25-3.01,1.83-.09.03-.14.04-.15.04-.1,0-.17-.04-.2-.13l-.57-.95s-.04-.1-.04-.18c0-.09.04-.15.11-.18,1.61-.73,2.8-1.52,3.58-2.35.77-.84,1.16-1.88,1.16-3.15v-1.1h-4.03c-.15,0-.22-.08-.22-.24v-1.06c0-.15.07-.22.22-.22h9.68c.15,0,.22.07.22.22v1.06c0,.16-.07.24-.22.24h-3.94v1.1c0,1.19.38,2.16,1.14,2.93.76.76,1.91,1.49,3.45,2.18.06.03.1.07.11.13s0,.12-.04.2l-.51,1.01c-.02.06-.07.09-.15.09-.04,0-.11-.01-.2-.04-1.1-.47-2.05-1.02-2.85-1.64-.8-.62-1.4-1.29-1.79-2.01-.4.84-.98,1.58-1.74,2.22Zm11.66,2.9c.15,0,.22.07.22.22v6.91c0,.16-.07.24-.22.24h-11.55c-.16,0-.24-.08-.24-.24v-6.91c0-.15.08-.22.24-.22h11.55Zm-10.05,5.85h8.54v-4.36h-8.54v4.36Zm10.03-17.56c.16,0,.24.07.24.22v10.25c0,.16-.08.24-.24.24h-1.25c-.16,0-.24-.08-.24-.24v-4.2h-3.94c-.15,0-.22-.08-.22-.24v-1.06c0-.15.07-.22.22-.22h3.94v-4.53c0-.15.08-.22.24-.22h1.25Z"/>
            <path d="m378.19,302.78c.15,0,.22.07.22.22v1.98c0,3.37-1.38,6.56-4.14,9.57-.07.07-.14.11-.2.11s-.12-.03-.18-.09l-.97-.77s-.07-.09-.07-.15c0-.07.03-.14.09-.2,1.28-1.39,2.22-2.8,2.84-4.22.62-1.42.92-2.84.92-4.25v-.66h-3.01c-.16,0-.24-.07-.24-.22v-1.1c0-.15.08-.22.24-.22h4.49Zm5.83,0c.16,0,.24.07.24.22v1.98c0,1.98-.27,3.8-.83,5.47-.55,1.66-1.51,3.39-2.87,5.18-.1.12-.21.14-.33.07l-1.06-.73c-.06-.04-.09-.09-.09-.15s.02-.12.07-.18c1.23-1.58,2.1-3.13,2.61-4.63.51-1.5.77-3.18.8-5.03l.02-.66h-3.12c-.13,0-.2-.07-.2-.22v-1.1c0-.15.07-.22.2-.22h4.55Zm7.33,4.97c.15,0,.22.08.22.24v1.12c0,.15-.07.22-.22.22h-2.88v10.16c0,.16-.07.24-.22.24h-1.23c-.15,0-.22-.08-.22-.24v-18.63c0-.15.07-.22.22-.22h1.23c.15,0,.22.07.22.22v6.89h2.88Z"/>
            <path d="m404.46,314.17c0,.06-.03.12-.09.18l-.79.88c-.06.06-.12.09-.18.09-.04,0-.1-.02-.18-.07-1.1-.97-2.06-1.97-2.87-3.01-.81-1.04-1.38-1.99-1.71-2.84-.38,1.03-.96,2.07-1.74,3.12-.78,1.06-1.77,2.05-2.97,2.99-.07.04-.14.07-.2.07-.07,0-.13-.02-.18-.07l-.75-.92c-.06-.06-.09-.11-.09-.15,0-.07.04-.13.11-.18,3.26-2.57,4.88-5.51,4.88-8.84v-1.14h-4.16c-.15,0-.22-.08-.22-.24v-1.1c0-.16.07-.24.22-.24h9.88c.16,0,.24.08.24.24v1.1c0,.16-.08.24-.24.24h-4v1.14c0,1.61.44,3.12,1.33,4.53.89,1.41,2.08,2.76,3.58,4.07.07.04.11.1.11.15Zm3.96-13.53c.16,0,.24.07.24.22v18.63c0,.16-.08.24-.24.24h-1.28c-.15,0-.22-.08-.22-.24v-18.63c0-.15.07-.22.22-.22h1.28Z"/>
            <path d="m434.64,316.15c.13,0,.2.08.2.24v1.12c0,.15-.07.22-.2.22h-17.82c-.15,0-.22-.07-.22-.22v-1.12c0-.16.07-.24.22-.24h8.03v-4.73h-5.3c-.15,0-.22-.07-.22-.2v-8.73c0-.13.08-.2.24-.2h12.21c.15,0,.22.07.22.2v1.12c0,.16-.07.24-.22.24h-10.74v6.01h10.96c.15,0,.22.08.22.24v1.12c0,.13-.07.2-.22.2h-5.41v4.73h8.05Z"/>
            <path d="m448.32,315.34v.04c0,.1-.07.17-.22.2-1.13.22-2.4.37-3.81.46s-3,.13-4.77.13h-3.54c-.15,0-.22-.07-.22-.2v-1.08c0-.16.07-.24.22-.24h3.1c.81,0,1.41,0,1.8-.02v-3.3c-1.26-.16-2.25-.66-2.98-1.5-.73-.84-1.09-1.85-1.09-3.04,0-.88.2-1.67.61-2.36.4-.7.98-1.24,1.73-1.64s1.62-.59,2.62-.59,1.87.2,2.62.59,1.32.94,1.73,1.64c.4.7.61,1.48.61,2.36,0,1.2-.37,2.22-1.1,3.05-.73.83-1.73,1.33-2.99,1.51v3.23c2.14-.07,3.91-.25,5.3-.53h.04c.12,0,.19.07.22.22l.13,1.06Zm-8.9-6.35c.59.58,1.38.87,2.34.87s1.77-.29,2.35-.86c.59-.57.88-1.3.88-2.2s-.29-1.63-.88-2.2c-.59-.57-1.37-.86-2.35-.86s-1.75.29-2.34.87c-.59.58-.89,1.31-.89,2.19s.3,1.61.89,2.19Zm15.1-.72c.15,0,.22.08.22.24v1.12c0,.15-.07.22-.22.22h-3.1v9.64c0,.16-.07.24-.22.24h-1.28c-.15,0-.22-.08-.22-.24v-18.63c0-.15.07-.22.22-.22h1.28c.15,0,.22.07.22.22v7.41h3.1Z"/>
            <path d="m455.67,317.74c-.15,0-.22-.07-.22-.22v-1.12c0-.16.07-.24.22-.24h17.82c.13,0,.2.08.2.24v1.12c0,.15-.07.22-.2.22h-17.82Zm2.73-6.31c-.15,0-.22-.07-.22-.2v-8.73c0-.13.08-.2.24-.2h12.21c.15,0,.22.07.22.2v1.12c0,.16-.07.24-.22.24h-10.74v6.01h10.96c.13,0,.2.08.2.24v1.12c0,.13-.07.2-.2.2h-12.45Z"/>
            <path d="m480.36,310.76h-3.85c-.21,0-.31-.09-.31-.29v-4.86c0-.06.02-.11.07-.15.04-.04.1-.07.18-.07h7.46v-2.42h-7.5c-.16,0-.24-.07-.24-.22v-.97c0-.16.08-.24.24-.24h9c.15,0,.22.08.22.24v4.77c0,.15-.07.22-.22.22h-7.46v2.55h2.75c1.01,0,2.06-.04,3.16-.13,1.09-.09,2.09-.23,2.98-.42h.07c.13,0,.21.07.22.2l.13.88v.07c0,.1-.06.18-.18.22-2.08.41-4.32.62-6.71.62Zm10.67,1.72c.15,0,.22.07.22.22v6.78c0,.16-.07.24-.22.24h-11.55c-.16,0-.24-.08-.24-.24v-6.78c0-.15.08-.22.24-.22h1.3c.13,0,.2.07.2.22v1.87h8.54v-1.87c0-.15.08-.22.24-.22h1.28Zm-10.05,3.54v2.24h8.54v-2.24h-8.54Zm10.03-15.38c.16,0,.24.07.24.22v10.36c0,.15-.08.22-.24.22h-1.25c-.16,0-.24-.07-.24-.22v-10.36c0-.15.08-.22.24-.22h1.25Z"/>
            <path d="m496.06,314.92c-.15,0-.22-.08-.22-.24v-12.03c0-.15.07-.22.22-.22h1.3c.13,0,.2.07.2.22v10.69h2.29c1,0,2.06-.05,3.2-.15,1.14-.1,2.19-.26,3.16-.46l.07-.02c.12,0,.19.07.22.22l.15,1.1v.04c0,.07-.06.13-.18.18-2.27.46-4.58.68-6.93.68h-3.48Zm13.11,4.82c-.15,0-.22-.08-.22-.24v-18.63c0-.15.07-.22.22-.22h1.28c.16,0,.24.07.24.22v18.63c0,.16-.08.24-.24.24h-1.28Z"/>
            <path d="m525.5,314.11v.04c0,.06-.02.1-.06.13-.04.03-.08.05-.12.07-2.19.46-4.5.68-6.95.68h-3.23c-.19,0-.29-.09-.29-.29v-11.88c0-.15.07-.22.22-.22h8.91c.15,0,.22.07.22.22v1.1c0,.15-.07.22-.22.22h-7.41v9.31h2.11c.98,0,2.05-.05,3.19-.17,1.14-.11,2.2-.27,3.17-.47h.07c.12,0,.19.06.22.18l.18,1.08Zm6.73-6.36c.15,0,.22.08.22.24v1.12c0,.15-.07.22-.22.22h-3.1v10.16c0,.16-.07.24-.22.24h-1.28c-.15,0-.22-.08-.22-.24v-18.63c0-.15.07-.22.22-.22h1.28c.15,0,.22.07.22.22v6.89h3.1Z"/>
            <path d="m534.2,317.87c-.24-.23-.36-.54-.36-.9s.12-.67.36-.9c.24-.23.55-.35.91-.35s.67.12.91.35.36.54.36.9-.12.67-.36.9-.55.35-.91.35-.67-.12-.91-.35Z"/>
          </g>
          <g>
            <path d="m223.46,188.02v.04c0,.07-.06.13-.18.18-2.3.46-4.62.68-6.95.68h-3.12c-.21,0-.31-.1-.31-.29v-11.99c0-.15.08-.22.24-.22h1.28c.15,0,.22.07.22.22v10.69h2c1.01,0,2.08-.05,3.21-.15,1.13-.1,2.18-.26,3.15-.46l.07-.02c.12,0,.19.07.22.22l.18,1.1Zm6.73-6.27c.15,0,.22.08.22.24v1.12c0,.15-.07.22-.22.22h-3.1v10.16c0,.16-.07.24-.22.24h-1.28c-.15,0-.22-.08-.22-.24v-18.63c0-.15.07-.22.22-.22h1.28c.15,0,.22.07.22.22v6.89h3.1Z"/>
            <path d="m241.59,184.43c0,.16-.07.24-.22.24h-9.02c-.15,0-.22-.08-.22-.24v-8.23c0-.16.07-.24.22-.24h9.02c.15,0,.22.08.22.24v8.23Zm-7.74-1.25h6.03v-5.7h-6.03v5.7Zm13.29,8.78c.16,0,.24.08.24.24v1.1c0,.15-.08.22-.24.22h-11.92c-.16,0-.24-.07-.24-.22v-6.23c0-.15.08-.22.24-.22h1.28c.15,0,.22.07.22.22v4.88h10.43Zm2.49-11.64c.15,0,.22.08.22.24v1.12c0,.15-.07.22-.22.22h-3.1v6.67c0,.15-.07.22-.22.22h-1.28c-.15,0-.22-.07-.22-.22v-13.71c0-.15.07-.22.22-.22h1.28c.15,0,.22.07.22.22v5.46h3.1Z"/>
            <path d="m251.18,189.98c-.15,0-.22-.08-.22-.24v-1.08c0-.06.02-.11.07-.14.04-.04.09-.06.15-.06h3.52c3.83,0,6.8-.2,8.91-.59h.07c.09,0,.15.07.18.2l.13,1.06v.04c0,.07-.07.14-.2.2-2.07.41-4.95.62-8.65.62h-3.96Zm3.19-5.07c-.75-.4-1.32-.95-1.73-1.65-.4-.7-.61-1.49-.61-2.39s.2-1.69.61-2.4c.4-.71.98-1.26,1.74-1.66.76-.4,1.63-.6,2.63-.6s1.9.2,2.66.6c.76.4,1.35.96,1.75,1.66.4.7.61,1.5.61,2.4s-.2,1.69-.61,2.4c-.4.71-.99,1.25-1.75,1.65s-1.65.59-2.66.59-1.89-.2-2.64-.61Zm5.03-1.76c.59-.58.89-1.34.89-2.28s-.3-1.7-.89-2.28-1.39-.87-2.39-.87-1.77.29-2.36.87c-.59.58-.89,1.34-.89,2.28s.3,1.7.89,2.28c.59.58,1.38.87,2.36.87s1.79-.29,2.39-.87Zm6.02,10.59c-.15,0-.22-.08-.22-.24v-18.63c0-.15.07-.22.22-.22h1.25c.16,0,.24.07.24.22v18.63c0,.16-.08.24-.24.24h-1.25Z"/>
            <path d="m279.38,184.03c-.77.67-1.78,1.29-3.02,1.86-.04.01-.1.02-.18.02-.1,0-.16-.03-.18-.09l-.57-.97s-.04-.08-.04-.15c0-.1.04-.17.11-.2,1.58-.72,2.77-1.51,3.55-2.39.79-.87,1.18-1.94,1.18-3.2v-1.5h-4.03c-.15,0-.22-.07-.22-.22v-1.1c0-.07.01-.13.04-.16.03-.04.09-.06.18-.06h9.68c.09,0,.15.02.18.06.03.04.04.09.04.16v1.1c0,.15-.07.22-.22.22h-3.94v1.5c0,1.19.38,2.16,1.14,2.93.76.76,1.91,1.49,3.45,2.18.06.03.1.07.11.13s0,.12-.04.2l-.51,1.01c-.02.06-.07.09-.15.09-.04,0-.11-.01-.2-.04-1.09-.47-2.03-1.01-2.83-1.63-.8-.62-1.4-1.28-1.79-2-.4.84-.98,1.59-1.75,2.26Zm12.16,7.93c.16,0,.24.08.24.24v1.1c0,.15-.08.22-.24.22h-12.14c-.15,0-.22-.07-.22-.22v-5.79c0-.16.07-.24.22-.24h1.23c.18,0,.26.08.26.24v4.44h10.65Zm-2.02-12.23v-4.86c0-.15.08-.22.24-.22h1.25c.16,0,.24.07.24.22v13.71c0,.15-.08.22-.24.22h-1.25c-.16,0-.24-.07-.24-.22v-7.3h-3.94c-.15,0-.22-.07-.22-.22v-1.08c0-.16.07-.24.22-.24h3.94Z"/>
            <path d="m312.34,184.34c.13,0,.2.08.2.24v1.03c0,.16-.07.24-.2.24h-7.85v3.7c0,.15-.07.22-.22.22h-1.3c-.13,0-.2-.07-.2-.22v-3.7h-8.25c-.15,0-.22-.08-.22-.24v-1.03c0-.07.02-.13.07-.18s.09-.07.15-.07h17.82Zm-2.29,7.81c.15,0,.22.07.22.22v1.01c0,.16-.07.24-.22.24h-12.76c-.16,0-.24-.08-.24-.24v-5.35c0-.15.08-.22.24-.22h1.28c.15,0,.22.07.22.22v4.11h11.26Zm-12.61-9.88c-.16,0-.24-.07-.24-.2v-6.53c0-.13.08-.2.24-.2h11.95c.15,0,.22.07.22.2v6.53c0,.13-.07.2-.22.2h-11.95Zm10.45-5.46h-8.95v4h8.95v-4Z"/>
            <path d="m326.03,189.98v.04c0,.09-.07.15-.22.18-2.07.41-4.93.62-8.58.62h-3.54c-.15,0-.22-.07-.22-.2v-1.08c0-.16.07-.24.22-.24h3.1c.87,0,1.51,0,1.94-.02v-1.91c-1.2-.13-2.14-.52-2.82-1.15-.67-.64-1.01-1.43-1.01-2.39,0-1.07.42-1.94,1.27-2.61.84-.67,1.99-1,3.44-1s2.6.33,3.43,1c.84.67,1.25,1.54,1.25,2.61,0,.97-.34,1.77-1.02,2.41-.68.64-1.62,1.02-2.83,1.13v1.87c2.13-.1,3.86-.28,5.19-.53h.04c.12,0,.19.07.22.22l.13,1.06Zm-12.19-11.04c-.15,0-.22-.07-.22-.22v-1.06c0-.15.07-.22.22-.22h4.88v-2.31c0-.16.07-.24.22-.24h1.28c.15,0,.22.08.22.24v2.31h4.8c.13,0,.2.07.2.22v1.06c0,.15-.07.22-.2.22h-11.4Zm3.54,6.45c.53.4,1.27.59,2.22.59s1.69-.2,2.22-.59c.53-.4.79-.92.79-1.56s-.26-1.17-.79-1.56c-.53-.4-1.27-.59-2.22-.59s-1.69.2-2.22.59-.79.92-.79,1.56.26,1.17.79,1.56Zm14.85-3.04c.15,0,.22.08.22.24v1.12c0,.06-.02.11-.07.14-.04.04-.1.05-.15.05h-3.1v9.59c0,.16-.07.24-.22.24h-1.28c-.15,0-.22-.08-.22-.24v-18.63c0-.15.07-.22.22-.22h1.28c.15,0,.22.07.22.22v7.48h3.1Z"/>
            <path d="m346.4,185.69v.04c0,.09-.07.15-.22.2-2.07.4-4.95.59-8.65.59h-3.89c-.15,0-.22-.07-.22-.22v-1.01c0-.16.07-.24.22-.24h3.48c.87,0,1.51,0,1.94-.02v-2.71h-3.37c-.16,0-.24-.07-.24-.22v-6.34c0-.16.08-.24.24-.24h8.65c.13,0,.2.08.2.24v1.01c0,.15-.07.22-.2.22h-7.17v3.85h7.37c.15,0,.22.08.22.24v1.01c0,.15-.07.22-.22.22h-3.74v2.66c2.16-.1,3.89-.28,5.21-.53h.04c.12,0,.19.07.22.22l.13,1.01Zm3.52,6.34c.15,0,.22.08.22.24v1.08c0,.16-.07.24-.22.24h-12.1c-.16,0-.24-.08-.24-.24v-4.99c0-.15.08-.22.24-.22h1.28c.15,0,.22.07.22.22v3.67h10.6Zm-1.89-2.62c-.15,0-.22-.08-.22-.24v-14.3c0-.15.07-.22.22-.22h1.25c.16,0,.24.07.24.22v14.3c0,.16-.08.24-.24.24h-1.25Z"/>
            <path d="m375.53,185.73c.13,0,.2.07.2.22v1.12c0,.16-.07.24-.2.24h-8.05v6.18c0,.16-.08.24-.24.24h-1.25c-.16,0-.24-.08-.24-.24v-6.18h-8.03c-.15,0-.22-.08-.22-.24v-1.12c0-.15.07-.22.22-.22h17.82Zm-16.57-3.5l-.02-.09c0-.1.05-.16.15-.18,1.99-.5,3.6-1.2,4.82-2.11,1.22-.91,1.83-1.92,1.83-3.04v-1.47c0-.15.07-.22.22-.22h1.3c.15,0,.22.07.22.22v1.47c0,.73.29,1.44.87,2.12.58.68,1.37,1.28,2.38,1.79,1,.51,2.12.92,3.35,1.21.15.04.2.14.15.29l-.42,1.08c-.04.13-.14.19-.29.18-1.58-.37-3-.92-4.26-1.65s-2.14-1.52-2.65-2.35c-.53.85-1.4,1.63-2.61,2.33-1.21.7-2.66,1.26-4.34,1.67h-.07c-.12,0-.2-.05-.24-.15l-.4-1.1Z"/>
            <path d="m393.04,174.64c.16,0,.24.07.24.22v9.95c0,.15-.08.22-.24.22h-1.25c-.16,0-.24-.07-.24-.22v-4.27h-3.41c-.15,1.19-.69,2.15-1.62,2.87-.93.73-2.1,1.09-3.51,1.09-1.01,0-1.91-.19-2.68-.57-.78-.38-1.38-.92-1.81-1.62-.43-.7-.65-1.48-.65-2.37s.22-1.67.65-2.36c.43-.7,1.04-1.24,1.83-1.63.79-.39,1.68-.58,2.67-.58,1.33,0,2.46.33,3.39,1s1.49,1.55,1.69,2.65h3.45v-4.16c0-.15.08-.22.24-.22h1.25Zm-7.51,7.5c.64-.57.96-1.31.96-2.2s-.32-1.63-.96-2.2-1.48-.86-2.52-.86-1.88.29-2.51.86-.95,1.31-.95,2.2.31,1.63.95,2.2c.63.57,1.47.86,2.51.86s1.88-.29,2.52-.86Zm7.54,3.96c.15,0,.22.08.22.24v7.13c0,.16-.07.24-.22.24h-11.55c-.16,0-.24-.08-.24-.24v-7.13c0-.16.08-.24.24-.24h1.28c.15,0,.22.08.22.24v2h8.54v-2c0-.16.08-.24.24-.24h1.28Zm-10.05,3.7v2.46h8.54v-2.46h-8.54Z"/>
            <path d="m406.81,184.12c0,.15-.07.22-.22.22h-9.02c-.15,0-.22-.07-.22-.22v-8.23c0-.16.07-.24.22-.24h1.28c.15,0,.22.08.22.24v2.66h6.05v-2.66c0-.16.07-.24.22-.24h1.25c.15,0,.22.08.22.24v8.23Zm-7.74-4.09v2.79h6.05v-2.79h-6.05Zm11.2,7.14c1.13.68,1.69,1.64,1.69,2.87s-.56,2.17-1.69,2.85c-1.13.68-2.65,1.02-4.58,1.02s-3.45-.34-4.59-1.02c-1.14-.68-1.71-1.63-1.71-2.85s.56-2.19,1.69-2.87c1.13-.68,2.66-1.02,4.6-1.02s3.45.34,4.58,1.02Zm-1.22,4.63c.8-.41,1.2-1,1.2-1.76s-.4-1.35-1.21-1.77-1.92-.63-3.34-.63-2.56.21-3.36.63-1.2,1.01-1.2,1.77.4,1.35,1.2,1.76c.8.41,1.92.62,3.36.62s2.55-.21,3.35-.62Zm5.8-12.54c.15,0,.22.08.22.24v1.12c0,.15-.07.22-.22.22h-3.1v4.47c0,.13-.07.2-.22.2h-1.28c-.06,0-.11-.02-.15-.05s-.07-.08-.07-.14v-10.45c0-.15.07-.22.22-.22h1.28c.15,0,.22.07.22.22v4.4h3.1Z"/>
            <path d="m420.37,182.88c-.79.77-1.79,1.51-3.03,2.23-.09.03-.15.04-.2.04-.07,0-.13-.02-.18-.07l-.66-.97s-.07-.1-.07-.18.04-.12.11-.15c1.52-.88,2.72-1.85,3.57-2.93.86-1.07,1.29-2.29,1.29-3.65v-1.41c0-.15.07-.22.22-.22h1.28c.15,0,.22.07.22.22v1.41c0,2.42,1.55,4.49,4.66,6.2.09.04.13.1.13.18,0,.04-.02.1-.07.18l-.64.99c-.04.06-.1.09-.18.09l-.18-.04c-1.08-.62-2.03-1.3-2.83-2.06-.8-.75-1.38-1.53-1.75-2.32-.37.87-.94,1.68-1.73,2.45Zm11.54,3.6c.15,0,.22.07.22.22v7c0,.15-.07.22-.22.22h-1.28c-.16,0-.24-.07-.24-.22v-5.65h-10.69c-.13,0-.2-.08-.2-.24v-1.1c0-.15.07-.22.2-.22h12.21Zm-.02-11.84c.16,0,.24.07.24.22v10.34c0,.13-.08.2-.24.2h-1.25c-.16,0-.24-.07-.24-.2v-10.34c0-.15.08-.22.24-.22h1.25Z"/>
            <path d="m435.81,195.37c-.07,0-.12-.02-.15-.07s-.04-.1-.02-.18l.97-3.01c-.22-.1-.4-.25-.53-.45-.13-.2-.2-.43-.2-.69,0-.35.12-.65.37-.89.25-.24.55-.36.9-.36s.67.12.91.35.36.54.36.9c0,.25-.04.52-.13.8-.09.29-.25.7-.48,1.24l-.97,2.18c-.04.12-.12.18-.24.18h-.79Z"/>
            <path d="m223.52,216.02v.04c0,.07-.06.13-.18.18-2.3.46-4.62.68-6.95.68h-3.12c-.21,0-.31-.1-.31-.29v-11.99c0-.15.08-.22.24-.22h1.28c.15,0,.22.07.22.22v10.69h2c1.01,0,2.08-.05,3.21-.15,1.13-.1,2.18-.26,3.15-.46l.07-.02c.12,0,.19.07.22.22l.18,1.1Zm6.73-6.27c.15,0,.22.08.22.24v1.12c0,.15-.07.22-.22.22h-3.1v10.16c0,.16-.07.24-.22.24h-1.28c-.15,0-.22-.08-.22-.24v-18.63c0-.15.07-.22.22-.22h1.28c.15,0,.22.07.22.22v6.89h3.1Z"/>
            <path d="m241.65,212.43c0,.16-.07.24-.22.24h-9.02c-.15,0-.22-.08-.22-.24v-8.23c0-.16.07-.24.22-.24h9.02c.15,0,.22.08.22.24v8.23Zm-7.74-1.25h6.03v-5.7h-6.03v5.7Zm13.29,8.78c.16,0,.24.08.24.24v1.1c0,.15-.08.22-.24.22h-11.92c-.16,0-.24-.07-.24-.22v-6.23c0-.15.08-.22.24-.22h1.28c.15,0,.22.07.22.22v4.88h10.43Zm2.49-11.64c.15,0,.22.08.22.24v1.12c0,.15-.07.22-.22.22h-3.1v6.67c0,.15-.07.22-.22.22h-1.28c-.15,0-.22-.07-.22-.22v-13.71c0-.15.07-.22.22-.22h1.28c.15,0,.22.07.22.22v5.46h3.1Z"/>
            <path d="m251.24,217.98c-.15,0-.22-.08-.22-.24v-1.08c0-.06.02-.11.07-.14.04-.04.09-.06.15-.06h3.52c3.83,0,6.8-.2,8.91-.59h.07c.09,0,.15.07.18.2l.13,1.06v.04c0,.07-.07.14-.2.2-2.07.41-4.95.62-8.65.62h-3.96Zm3.19-5.07c-.75-.4-1.32-.95-1.73-1.65-.4-.7-.61-1.49-.61-2.39s.2-1.69.61-2.4c.4-.71.98-1.26,1.74-1.66.76-.4,1.63-.6,2.63-.6s1.9.2,2.66.6c.76.4,1.35.96,1.75,1.66.4.7.61,1.5.61,2.4s-.2,1.69-.61,2.4c-.4.71-.99,1.25-1.75,1.65s-1.65.59-2.66.59-1.89-.2-2.64-.61Zm5.03-1.76c.59-.58.89-1.34.89-2.28s-.3-1.7-.89-2.28-1.39-.87-2.39-.87-1.77.29-2.36.87c-.59.58-.89,1.34-.89,2.28s.3,1.7.89,2.28c.59.58,1.38.87,2.36.87s1.79-.29,2.39-.87Zm6.02,10.59c-.15,0-.22-.08-.22-.24v-18.63c0-.15.07-.22.22-.22h1.25c.16,0,.24.07.24.22v18.63c0,.16-.08.24-.24.24h-1.25Z"/>
            <path d="m280.54,208.14c0,1.55.35,3.04,1.04,4.46.7,1.42,1.62,2.68,2.78,3.79.07.07.11.14.11.2,0,.04-.03.1-.09.15l-.79.77c-.06.06-.12.09-.18.09-.03,0-.09-.03-.18-.09-.82-.81-1.54-1.7-2.17-2.67-.62-.98-1.08-1.9-1.35-2.78-.25.97-.67,1.95-1.26,2.96-.59,1-1.38,1.97-2.34,2.89-.04.06-.1.09-.18.09-.06,0-.12-.03-.18-.09l-.79-.75c-.06-.06-.09-.11-.09-.15,0-.06.04-.12.11-.2,1.28-1.19,2.24-2.52,2.88-3.98s.97-3.03.97-4.69v-.51h-3.28c-.15,0-.22-.07-.22-.2v-1.14c0-.15.07-.22.22-.22h3.28v-2.71c0-.13.08-.2.24-.2h1.23c.15,0,.22.07.22.2v2.71h3.1c.16,0,.24.07.24.22v1.14c0,.13-.08.2-.24.2h-3.1v.51Zm7.13-5.08c.13,0,.2.08.2.24v17.6c0,.16-.07.24-.2.24h-1.25c-.16,0-.24-.08-.24-.24v-9.26h-2.95c-.16,0-.24-.08-.24-.24v-1.1c0-.15.08-.22.24-.22h2.95v-6.78c0-.16.08-.24.24-.24h1.25Zm4.25-.42c.13,0,.2.07.2.22v18.63c0,.16-.07.24-.2.24h-1.28c-.16,0-.24-.08-.24-.24v-18.63c0-.15.08-.22.24-.22h1.28Z"/>
            <path d="m306.7,203.06c.16,0,.24.08.24.24v17.6c0,.16-.08.24-.24.24h-1.23c-.15,0-.22-.08-.22-.24v-6.51h-3.48c-.16,0-.24-.08-.24-.24v-1.1c0-.15.08-.22.24-.22h3.48v-3.61h-3.41c-.29,1.66-.95,3.2-1.96,4.64-1.01,1.44-2.44,2.85-4.29,4.22-.06.03-.1.04-.13.04-.06,0-.12-.04-.2-.11l-.81-.95c-.03-.06-.04-.11-.04-.15,0-.09.04-.16.11-.22,2.04-1.5,3.51-3.01,4.42-4.55.91-1.54,1.36-3.26,1.36-5.15v-.68h-5.13c-.15,0-.22-.08-.22-.24v-1.12c0-.15.07-.22.22-.22h6.64c.15,0,.22.07.22.22v1.98c0,.34,0,.59-.02.75h3.23v-4.38c0-.16.07-.24.22-.24h1.23Zm4.64-.42c.13,0,.2.07.2.22v18.63c0,.16-.07.24-.2.24h-1.28c-.16,0-.24-.08-.24-.24v-18.63c0-.15.08-.22.24-.22h1.28Z"/>
            <path d="m326.08,217.98v.04c0,.09-.07.15-.22.18-2.07.41-4.93.62-8.58.62h-3.54c-.15,0-.22-.07-.22-.2v-1.08c0-.16.07-.24.22-.24h3.1c.87,0,1.51,0,1.94-.02v-1.91c-1.2-.13-2.14-.52-2.82-1.15-.67-.64-1.01-1.43-1.01-2.39,0-1.07.42-1.94,1.27-2.61.84-.67,1.99-1,3.44-1s2.6.33,3.43,1c.84.67,1.25,1.54,1.25,2.61,0,.97-.34,1.77-1.02,2.41-.68.64-1.62,1.02-2.83,1.13v1.87c2.13-.1,3.86-.28,5.19-.53h.04c.12,0,.19.07.22.22l.13,1.06Zm-12.19-11.04c-.15,0-.22-.07-.22-.22v-1.06c0-.15.07-.22.22-.22h4.88v-2.31c0-.16.07-.24.22-.24h1.28c.15,0,.22.08.22.24v2.31h4.8c.13,0,.2.07.2.22v1.06c0,.15-.07.22-.2.22h-11.4Zm3.54,6.45c.53.4,1.27.59,2.22.59s1.69-.2,2.22-.59c.53-.4.79-.92.79-1.56s-.26-1.17-.79-1.56c-.53-.4-1.27-.59-2.22-.59s-1.69.2-2.22.59-.79.92-.79,1.56.26,1.17.79,1.56Zm14.85-3.04c.15,0,.22.08.22.24v1.12c0,.06-.02.11-.07.14-.04.04-.1.05-.15.05h-3.1v9.59c0,.16-.07.24-.22.24h-1.28c-.15,0-.22-.08-.22-.24v-18.63c0-.15.07-.22.22-.22h1.28c.15,0,.22.07.22.22v7.48h3.1Z"/>
            <path d="m346.45,213.69v.04c0,.09-.07.15-.22.2-2.07.4-4.95.59-8.65.59h-3.89c-.15,0-.22-.07-.22-.22v-1.01c0-.16.07-.24.22-.24h3.48c.87,0,1.51,0,1.94-.02v-2.71h-3.37c-.16,0-.24-.07-.24-.22v-6.34c0-.16.08-.24.24-.24h8.65c.13,0,.2.08.2.24v1.01c0,.15-.07.22-.2.22h-7.17v3.85h7.37c.15,0,.22.08.22.24v1.01c0,.15-.07.22-.22.22h-3.74v2.66c2.16-.1,3.89-.28,5.21-.53h.04c.12,0,.19.07.22.22l.13,1.01Zm3.52,6.34c.15,0,.22.08.22.24v1.08c0,.16-.07.24-.22.24h-12.1c-.16,0-.24-.08-.24-.24v-4.99c0-.15.08-.22.24-.22h1.28c.15,0,.22.07.22.22v3.67h10.6Zm-1.89-2.62c-.15,0-.22-.08-.22-.24v-14.3c0-.15.07-.22.22-.22h1.25c.16,0,.24.07.24.22v14.3c0,.16-.08.24-.24.24h-1.25Z"/>
            <path d="m375.58,213.73c.13,0,.2.07.2.22v1.12c0,.16-.07.24-.2.24h-8.05v6.18c0,.16-.08.24-.24.24h-1.25c-.16,0-.24-.08-.24-.24v-6.18h-8.03c-.15,0-.22-.08-.22-.24v-1.12c0-.15.07-.22.22-.22h17.82Zm-16.57-3.5l-.02-.09c0-.1.05-.16.15-.18,1.99-.5,3.6-1.2,4.82-2.11,1.22-.91,1.83-1.92,1.83-3.04v-1.47c0-.15.07-.22.22-.22h1.3c.15,0,.22.07.22.22v1.47c0,.73.29,1.44.87,2.12.58.68,1.37,1.28,2.38,1.79,1,.51,2.12.92,3.35,1.21.15.04.2.14.15.29l-.42,1.08c-.04.13-.14.19-.29.18-1.58-.37-3-.92-4.26-1.65s-2.14-1.52-2.65-2.35c-.53.85-1.4,1.63-2.61,2.33-1.21.7-2.66,1.26-4.34,1.67h-.07c-.12,0-.2-.05-.24-.15l-.4-1.1Z"/>
            <path d="m393.09,202.64c.16,0,.24.07.24.22v9.95c0,.15-.08.22-.24.22h-1.25c-.16,0-.24-.07-.24-.22v-4.27h-3.41c-.15,1.19-.69,2.15-1.62,2.87-.93.73-2.1,1.09-3.51,1.09-1.01,0-1.91-.19-2.68-.57-.78-.38-1.38-.92-1.81-1.62-.43-.7-.65-1.48-.65-2.37s.22-1.67.65-2.36c.43-.7,1.04-1.24,1.83-1.63.79-.39,1.68-.58,2.67-.58,1.33,0,2.46.33,3.39,1s1.49,1.55,1.69,2.65h3.45v-4.16c0-.15.08-.22.24-.22h1.25Zm-7.51,7.5c.64-.57.96-1.31.96-2.2s-.32-1.63-.96-2.2-1.48-.86-2.52-.86-1.88.29-2.51.86-.95,1.31-.95,2.2.31,1.63.95,2.2c.63.57,1.47.86,2.51.86s1.88-.29,2.52-.86Zm7.54,3.96c.15,0,.22.08.22.24v7.13c0,.16-.07.24-.22.24h-11.55c-.16,0-.24-.08-.24-.24v-7.13c0-.16.08-.24.24-.24h1.28c.15,0,.22.08.22.24v2h8.54v-2c0-.16.08-.24.24-.24h1.28Zm-10.05,3.7v2.46h8.54v-2.46h-8.54Z"/>
            <path d="m408.25,216.17c0,.06-.03.12-.09.18l-.77.88c-.12.12-.23.12-.35.02-1.1-.95-2.06-1.95-2.87-2.99-.81-1.04-1.39-1.99-1.73-2.86-.37,1.03-.94,2.07-1.73,3.12-.79,1.06-1.78,2.05-2.98,2.99-.06.04-.12.07-.18.07s-.12-.03-.18-.09l-.77-.9c-.06-.06-.09-.11-.09-.15,0-.07.04-.13.11-.18,3.27-2.58,4.91-5.53,4.91-8.84v-1.14h-4.16c-.16,0-.24-.08-.24-.24v-1.1c0-.16.08-.24.24-.24h9.88c.16,0,.24.08.24.24v1.1c0,.16-.08.24-.24.24h-4v1.14c0,1.61.44,3.13,1.33,4.54.89,1.42,2.07,2.77,3.55,4.06.07.04.11.1.11.15Zm6.64-6.47c.15,0,.22.08.22.24v1.12c0,.15-.07.22-.22.22h-3.1v10.23c0,.16-.07.24-.22.24h-1.28c-.15,0-.22-.08-.22-.24v-18.63c0-.15.07-.22.22-.22h1.28c.15,0,.22.07.22.22v6.82h3.1Z"/>
            <path d="m433.86,218.15c.13,0,.2.08.2.24v1.12c0,.15-.07.22-.2.22h-17.82c-.15,0-.22-.07-.22-.22v-1.12c0-.16.07-.24.22-.24h4.88v-3.72h-2.11c-.15,0-.22-.07-.22-.22v-5.43c0-.15.07-.22.22-.22h10.74v-2.84h-10.78c-.15,0-.22-.08-.22-.24v-1.06c0-.15.07-.22.22-.22h12.3c.13,0,.2.07.2.22v5.35c0,.16-.07.24-.22.24h-10.71v2.9h11.15c.16,0,.24.08.24.24v1.06c0,.15-.08.22-.24.22h-2.51v3.72h4.88Zm-6.62-3.72h-4.58v3.72h4.58v-3.72Z"/>
            <path d="m436.25,219.87c-.24-.23-.36-.54-.36-.9s.12-.67.36-.9.55-.35.91-.35.67.12.91.35.36.54.36.9-.12.67-.36.9-.55.35-.91.35-.67-.12-.91-.35Zm.36-4.42c-.16,0-.24-.08-.24-.24l-.13-11.11c0-.16.07-.24.22-.24h1.34c.16,0,.24.08.24.24l-.15,11.11c0,.16-.07.24-.22.24h-1.06Z"/>
            <path d="m106.69,232.73c.16,0,.24.07.24.22v2.02c0,2.16-.53,4.12-1.59,5.91-1.06,1.78-2.75,3.52-5.07,5.2-.06.03-.1.04-.13.04-.06,0-.12-.04-.2-.11l-.81-.95c-.03-.06-.04-.11-.04-.15,0-.09.04-.16.11-.22,2.1-1.5,3.62-3.02,4.58-4.57.95-1.55,1.43-3.27,1.43-5.16v-.66h-5.35c-.15,0-.22-.08-.22-.24v-1.12c0-.15.07-.22.22-.22h6.84Zm9.33-2.09c.13,0,.2.07.2.22v18.63c0,.16-.07.24-.2.24h-1.28c-.16,0-.24-.08-.24-.24v-10.05h-3.1v9.46c0,.16-.07.24-.22.24h-1.25c-.15,0-.22-.08-.22-.24v-17.6c0-.16.07-.24.22-.24h1.25c.15,0,.22.08.22.24v6.56h3.1v-7c0-.15.08-.22.24-.22h1.28Z"/>
            <path d="m121.85,240.51c-.78-.4-1.38-.97-1.8-1.7-.43-.73-.64-1.57-.64-2.51s.21-1.77.64-2.51,1.03-1.31,1.8-1.72c.78-.41,1.67-.62,2.68-.62s1.91.21,2.68.62,1.38.98,1.82,1.72.65,1.57.65,2.51-.22,1.77-.65,2.51c-.43.73-1.04,1.3-1.82,1.7s-1.67.6-2.68.6-1.91-.2-2.68-.6Zm5.2-1.8c.62-.61.94-1.41.94-2.41s-.31-1.8-.94-2.42c-.62-.62-1.46-.92-2.52-.92s-1.89.31-2.51.92-.92,1.42-.92,2.42.31,1.8.92,2.41c.62.61,1.45.91,2.51.91s1.9-.3,2.52-.91Zm-4.08,10.81c-.15,0-.22-.07-.22-.22v-6.07c0-.15.07-.22.22-.22h1.28c.15,0,.22.07.22.22v4.73h10.65c.16,0,.24.08.24.24v1.1c0,.15-.08.22-.24.22h-12.14Zm10.36-4.73c-.16,0-.24-.07-.24-.22v-13.71c0-.15.08-.22.24-.22h1.25c.16,0,.24.07.24.22v13.71c0,.15-.08.22-.24.22h-1.25Z"/>
            <path d="m150.18,245.23v.04c0,.09-.07.15-.22.2-2.11.41-4.97.62-8.58.62h-3.54c-.15,0-.22-.08-.22-.24v-1.08c0-.13.07-.2.22-.2h3.89v-5.68c0-.13.08-.2.24-.2h1.28c.15,0,.22.07.22.2v5.63c2.57-.07,4.67-.26,6.31-.55h.07c.1,0,.17.07.2.2l.13,1.06Zm-11.2-10.93c-.16,0-.24-.07-.24-.22v-1.1c0-.15.08-.22.24-.22h9.48c.13,0,.2.07.2.22v1.63c0,2.45-.21,4.72-.64,6.8-.01.13-.1.2-.26.2l-1.21-.13c-.13-.01-.18-.1-.15-.26.16-.91.29-1.94.4-3.1.1-1.16.15-2.24.15-3.26v-.55h-7.96Zm17.4,3.98c.15,0,.22.08.22.24v1.12c0,.15-.07.22-.22.22h-3.1v9.64c0,.16-.07.24-.22.24h-1.28c-.15,0-.22-.08-.22-.24v-18.63c0-.15.07-.22.22-.22h1.28c.15,0,.22.07.22.22v7.41h3.1Z"/>
            <path d="m170.75,245.34v.04c0,.1-.07.17-.2.2-2,.4-4.88.59-8.65.59h-3.96c-.15,0-.22-.07-.22-.2v-1.08c0-.16.07-.24.22-.24h5.04v-3.3c-1.29-.18-2.31-.68-3.06-1.52s-1.12-1.85-1.12-3.04c0-.88.21-1.67.62-2.36.41-.7,1-1.24,1.76-1.64s1.65-.59,2.66-.59,1.9.2,2.67.59c.77.4,1.36.94,1.78,1.64.42.7.63,1.48.63,2.36,0,1.19-.38,2.2-1.13,3.04-.76.84-1.78,1.33-3.07,1.5v3.28c2.33-.07,4.22-.26,5.65-.55h.04c.1,0,.17.07.2.22l.13,1.06Zm-9.32-6.34c.61.57,1.41.86,2.41.86s1.8-.29,2.42-.86.92-1.3.92-2.2-.31-1.63-.92-2.2-1.42-.86-2.42-.86-1.8.29-2.41.86-.91,1.31-.91,2.2.3,1.63.91,2.2Zm12-8.36c.16,0,.24.07.24.22v18.63c0,.16-.08.24-.24.24h-1.25c-.15,0-.22-.08-.22-.24v-18.63c0-.15.07-.22.22-.22h1.25Z"/>
            <path d="m176.96,241.03c-.06,0-.11-.02-.15-.05-.04-.04-.07-.08-.07-.14v-.97c0-.06.02-.11.07-.14.04-.04.09-.05.15-.05h17.82c.13,0,.2.07.2.2v.97c0,.13-.07.2-.2.2h-17.82Zm2.79,8.93c-.15,0-.22-.07-.22-.22v-3.92c0-.15.07-.22.22-.22h10.74v-1.63h-10.78c-.15,0-.22-.08-.22-.24v-.86c0-.15.07-.22.22-.22h12.25c.15,0,.22.07.22.22v3.81c0,.16-.07.24-.22.24h-10.71v1.69h11.37c.15,0,.22.07.22.22v.9c0,.15-.07.22-.22.22h-12.87Zm.2-11.79c-.16,0-.24-.07-.24-.22v-3.85c0-.15.08-.22.24-.22h10.32v-1.61h-10.41c-.15,0-.22-.08-.22-.24v-.88c0-.16.07-.24.22-.24h11.9c.15,0,.22.08.22.24v3.81c0,.15-.08.22-.24.22h-10.32v1.67h10.85c.16,0,.24.08.24.24v.86c0,.15-.08.22-.24.22h-12.32Z"/>
            <path d="m205.69,240.34h-2.57c-.21,0-.31-.09-.31-.29v-8.49c0-.15.08-.22.24-.22h1.28c.15,0,.22.07.22.22v7.22h1.45c2.14,0,4.2-.17,6.18-.51h.04c.1,0,.18.07.22.2l.13,1.05v.07c0,.12-.07.18-.2.2-2.08.37-4.31.55-6.69.55Zm11.53,2.02c.15,0,.22.07.22.22v6.89c0,.16-.07.24-.22.24h-11.59c-.16,0-.24-.08-.24-.24v-6.89c0-.15.08-.22.24-.22h11.59Zm-10.1,5.83h8.6v-4.33h-8.6v4.33Zm10.08-17.56c.16,0,.24.07.24.22v10.3c0,.15-.08.22-.24.22h-1.25c-.16,0-.24-.07-.24-.22v-5.06h-5.85c-.16,0-.24-.08-.24-.24v-1.06c0-.16.08-.24.24-.24h5.85v-3.7c0-.15.08-.22.24-.22h1.25Z"/>
            <path d="m236.64,230.64c.16,0,.24.07.24.22v18.63c0,.16-.08.24-.24.24h-1.28c-.15,0-.22-.08-.22-.24v-9.94h-3.34c-.12,1.85-.65,3.27-1.61,4.28s-2.16,1.51-3.63,1.51c-1.03,0-1.94-.25-2.73-.75-.79-.5-1.42-1.24-1.87-2.22-.46-.98-.68-2.16-.68-3.54s.23-2.56.68-3.53c.45-.97,1.08-1.71,1.87-2.21.79-.5,1.7-.75,2.73-.75,1.45,0,2.65.49,3.61,1.46.95.98,1.5,2.37,1.63,4.17h3.34v-7.11c0-.15.07-.22.22-.22h1.28Zm-7.5,11.84c.64-.85.97-2.07.97-3.65s-.32-2.78-.97-3.64c-.65-.86-1.5-1.29-2.57-1.29s-1.93.43-2.57,1.29c-.65.86-.97,2.07-.97,3.64s.32,2.8.97,3.65c.65.85,1.5,1.28,2.57,1.28s1.93-.43,2.57-1.28Z"/>
            <path d="m252,244.08s-.03.1-.09.15l-.79.88c-.04.06-.1.09-.18.09-.04,0-.1-.02-.18-.07-1.1-.95-2.05-1.95-2.86-2.99s-1.38-2-1.72-2.86c-.37,1.03-.94,2.06-1.73,3.11-.78,1.05-1.78,2.05-2.98,3-.06.04-.12.07-.2.07s-.13-.02-.18-.07l-.75-.9c-.06-.06-.09-.12-.09-.18,0-.07.04-.13.11-.18,3.27-2.58,4.91-5.55,4.91-8.91v-2.75c0-.13.07-.2.2-.2h1.3c.13,0,.2.07.2.2v2.75c0,3.01,1.63,5.9,4.91,8.67.07.07.11.13.11.18Zm4.07-13.44c.16,0,.24.07.24.22v18.63c0,.16-.08.24-.24.24h-1.28c-.15,0-.22-.08-.22-.24v-11.11h-4.16c-.16,0-.24-.07-.24-.22v-1.12c0-.16.08-.24.24-.24h4.16v-5.94c0-.15.07-.22.22-.22h1.28Z"/>
            <path d="m276.11,243.75c0,.06-.03.12-.09.18l-.77.88c-.12.12-.23.12-.35.02-1.1-.94-2.06-1.93-2.87-2.98-.81-1.05-1.39-2.01-1.73-2.87-.37,1.03-.94,2.06-1.72,3.11-.78,1.05-1.77,2.05-2.99,3-.15.07-.26.07-.35,0l-.77-.92c-.06-.06-.09-.12-.09-.18s.04-.11.11-.15c1.58-1.26,2.8-2.62,3.64-4.08.84-1.46,1.27-3.07,1.27-4.83v-2.4c0-.13.07-.2.22-.2h1.28c.15,0,.22.07.22.2v2.4c0,1.64.44,3.18,1.33,4.6.89,1.42,2.07,2.77,3.55,4.05.07.07.11.13.11.18Zm6.64-6.09c.15,0,.22.07.22.22v1.12c0,.16-.07.24-.22.24h-3.1v10.25c0,.16-.07.24-.22.24h-1.28c-.15,0-.22-.08-.22-.24v-18.63c0-.15.07-.22.22-.22h1.28c.15,0,.22.07.22.22v6.8h3.1Z"/>
            <path d="m299.8,230.64c.16,0,.24.07.24.22v9.95c0,.15-.08.22-.24.22h-1.25c-.16,0-.24-.07-.24-.22v-4.27h-3.41c-.15,1.19-.69,2.15-1.62,2.87-.93.73-2.1,1.09-3.51,1.09-1.01,0-1.91-.19-2.68-.57-.78-.38-1.38-.92-1.81-1.62-.43-.7-.65-1.48-.65-2.37s.22-1.67.65-2.36c.43-.7,1.04-1.24,1.83-1.63.79-.39,1.68-.58,2.67-.58,1.33,0,2.46.33,3.39,1s1.49,1.55,1.69,2.65h3.45v-4.16c0-.15.08-.22.24-.22h1.25Zm-7.51,7.5c.64-.57.96-1.31.96-2.2s-.32-1.63-.96-2.2-1.48-.86-2.52-.86-1.88.29-2.51.86-.95,1.31-.95,2.2.31,1.63.95,2.2c.63.57,1.47.86,2.51.86s1.88-.29,2.52-.86Zm7.54,3.96c.15,0,.22.08.22.24v7.13c0,.16-.07.24-.22.24h-11.55c-.16,0-.24-.08-.24-.24v-7.13c0-.16.08-.24.24-.24h1.28c.15,0,.22.08.22.24v2h8.54v-2c0-.16.08-.24.24-.24h1.28Zm-10.05,3.7v2.46h8.54v-2.46h-8.54Z"/>
            <path d="m303.32,247.74c-.15,0-.22-.07-.22-.22v-1.12c0-.16.07-.24.22-.24h17.82c.13,0,.2.08.2.24v1.12c0,.15-.07.22-.2.22h-17.82Zm5.53-6.12c-1.02-.4-1.83-.98-2.44-1.76-.61-.78-.91-1.7-.91-2.77s.3-2.01.91-2.78c.61-.77,1.42-1.35,2.44-1.75,1.02-.4,2.14-.59,3.36-.59s2.36.2,3.38.59c1.02.4,1.83.98,2.43,1.75.6.77.9,1.7.9,2.78s-.3,2-.9,2.77c-.6.78-1.41,1.37-2.43,1.76s-2.15.59-3.38.59-2.34-.2-3.36-.59Zm6.93-1.91c.93-.63,1.4-1.5,1.4-2.62s-.47-1.99-1.4-2.62c-.93-.63-2.12-.95-3.58-.95s-2.63.32-3.56.95c-.94.63-1.41,1.5-1.41,2.62s.47,1.99,1.41,2.62c.94.63,2.13.95,3.56.95s2.64-.32,3.58-.95Z"/>
            <path d="m340.57,246.15c.13,0,.2.08.2.24v1.12c0,.15-.07.22-.2.22h-17.82c-.15,0-.22-.07-.22-.22v-1.12c0-.16.07-.24.22-.24h8.03v-3.72h-5.19c-.15,0-.22-.07-.22-.22v-5.43c0-.15.07-.22.22-.22h10.6v-2.84h-10.65c-.15,0-.22-.08-.22-.24v-1.06c0-.15.07-.22.22-.22h12.17c.15,0,.22.07.22.22v5.35c0,.16-.08.24-.24.24h-10.58v2.9h11.02c.16,0,.24.08.24.24v1.06c0,.15-.08.22-.24.22h-5.61v3.72h8.05Z"/>
            <path d="m350.29,242.65h-3.48c-.15,0-.22-.07-.22-.22v-1.01c0-.13.07-.2.22-.2h3.06c.91,0,1.58,0,2.02-.02v-1.72c-1.17-.13-2.09-.48-2.76-1.03-.67-.56-1-1.25-1-2.09,0-.47.13-.88.38-1.24s.57-.65.94-.87h-2.31c-.13,0-.2-.08-.2-.24v-1.01c0-.15.07-.22.2-.22h4.84v-2.09c0-.15.08-.22.24-.22h1.25c.15,0,.22.07.22.22v2.09h4.73c.13,0,.2.07.2.22v1.01c0,.16-.07.24-.2.24h-2.2c.37.22.68.51.94.87.26.36.38.77.38,1.24,0,.85-.35,1.56-1.06,2.12-.7.57-1.66.9-2.86,1v1.65c2.08-.1,3.79-.27,5.13-.51h.07c.1,0,.17.07.2.22l.11.97v.02c0,.09-.07.15-.22.2-2.17.41-5.05.62-8.62.62Zm11.77,1.43c.13,0,.2.07.2.22v5.5c0,.15-.07.22-.2.22h-1.3c-.15,0-.22-.07-.22-.22v-4.29h-10.82c-.15,0-.22-.07-.22-.22v-.99c0-.15.07-.22.22-.22h12.34Zm-11.5-6.45c.54.35,1.29.53,2.28.53s1.72-.18,2.27-.53c.54-.35.81-.81.81-1.39s-.29-1.02-.86-1.38-1.31-.54-2.22-.54-1.67.18-2.23.53c-.56.35-.85.81-.85,1.39s.27,1.03.8,1.39Zm14.79-1.32c.15,0,.22.08.22.24v1.08c0,.15-.07.22-.22.22h-3.1v4.99c0,.15-.07.22-.22.22h-1.28c-.15,0-.22-.07-.22-.22v-11.99c0-.15.07-.22.22-.22h1.28c.15,0,.22.07.22.22v5.46h3.1Z"/>
            <path d="m370.54,239.24c-.8.69-1.81,1.36-3.05,2.02-.06.03-.1.04-.13.04-.07,0-.15-.04-.22-.13l-.64-.95s-.04-.08-.04-.15c0-.12.04-.19.11-.22,1.58-.81,2.79-1.66,3.61-2.55.82-.89,1.23-1.96,1.23-3.19v-.84h-4.11c-.16,0-.24-.08-.24-.24v-1.06c0-.15.08-.22.24-.22h9.88c.16,0,.24.07.24.22v1.06c0,.16-.08.24-.24.24h-4.03v.84c0,.81.2,1.51.59,2.12.4.61.92,1.15,1.58,1.62.66.47,1.5.96,2.53,1.47.12.07.14.19.07.35l-.57.99c-.03.06-.08.1-.14.11-.07.01-.14,0-.21-.04-2.39-1.22-3.95-2.46-4.69-3.74-.38.81-.97,1.55-1.77,2.24Zm9.68,3.98c1.12.67,1.68,1.62,1.68,2.84s-.56,2.16-1.68,2.84c-1.12.67-2.65,1.01-4.59,1.01s-3.49-.34-4.61-1.01c-1.12-.68-1.68-1.62-1.68-2.84s.56-2.16,1.68-2.84c1.12-.67,2.66-1.01,4.61-1.01s3.46.34,4.59,1.01Zm-1.22,4.59c.79-.4,1.19-.99,1.19-1.75s-.4-1.35-1.19-1.75c-.79-.4-1.91-.6-3.37-.6s-2.57.2-3.37.6c-.79.4-1.19.99-1.19,1.75s.4,1.35,1.19,1.75c.79.4,1.91.61,3.37.61s2.57-.2,3.37-.61Zm5.79-12.66c.15,0,.22.08.22.24v1.12c0,.15-.07.22-.22.22h-3.1v4.64c0,.13-.07.2-.22.2h-1.28c-.06,0-.11-.02-.15-.05-.04-.04-.07-.08-.07-.14v-10.52c0-.15.07-.22.22-.22h1.28c.15,0,.22.07.22.22v4.29h3.1Z"/>
            <path d="m397.9,243.86c0,.06-.03.12-.09.18l-.79.88c-.06.06-.12.09-.18.09-.04,0-.1-.02-.18-.07-1.1-.94-2.06-1.93-2.87-2.98-.81-1.05-1.39-2.01-1.73-2.87-.37,1.01-.94,2.04-1.72,3.09-.78,1.05-1.77,2.05-2.97,3-.07.04-.14.07-.2.07-.07,0-.13-.02-.18-.07l-.75-.9c-.06-.06-.09-.12-.09-.18s.04-.11.11-.15c1.58-1.26,2.79-2.62,3.63-4.08s1.25-3.07,1.25-4.83v-2.51c0-.13.07-.2.22-.2h1.28c.15,0,.22.07.22.2v2.51c0,1.64.45,3.17,1.34,4.59.89,1.42,2.08,2.77,3.56,4.06.07.07.11.13.11.18Zm3.96-13.22c.16,0,.24.07.24.22v18.63c0,.16-.08.24-.24.24h-1.28c-.15,0-.22-.08-.22-.24v-18.63c0-.15.07-.22.22-.22h1.28Z"/>
            <path d="m415.92,232.53c.16,0,.24.07.24.22v2.22c0,2.3-.79,4.4-2.37,6.3-1.58,1.9-3.82,3.56-6.74,4.98-.06.03-.11.04-.15.04-.06,0-.11-.04-.15-.11l-.59-1.1c-.03-.06-.04-.1-.04-.13,0-.07.04-.13.13-.18,3.37-1.6,5.71-3.5,7.02-5.7-1.61.19-2.95.29-4,.29h-2.77c-.15,0-.22-.07-.22-.22v-1.12c0-.15.07-.22.22-.22h2.51c1.83,0,3.5-.11,4.99-.33.28-.78.42-1.61.42-2.51v-.88h-7.48c-.06,0-.11-.02-.15-.05s-.07-.08-.07-.14v-1.14c0-.15.07-.22.22-.22h9Zm5.37-1.89c.16,0,.24.07.24.22v18.63c0,.16-.08.24-.24.24h-1.28c-.15,0-.22-.08-.22-.24v-18.63c0-.15.07-.22.22-.22h1.28Z"/>
            <path d="m442.6,245.98c.13,0,.2.07.2.22v1.12c0,.16-.07.24-.2.24h-17.82c-.15,0-.22-.08-.22-.24v-1.12c0-.15.07-.22.22-.22h6.97v-6.56c0-.13.08-.2.24-.2h1.25c.16,0,.24.07.24.2v6.56h9.11Zm-15.31-11.92c-.15,0-.22-.07-.22-.22v-1.12c0-.15.07-.22.22-.22h12.67c.16,0,.24.07.24.22v1.96c0,1.36-.08,2.76-.24,4.18-.16,1.42-.38,2.72-.66,3.89-.03.18-.13.24-.31.2l-1.14-.18c-.07-.01-.12-.05-.15-.11s-.04-.12-.02-.18c.25-1.09.44-2.31.58-3.69.14-1.37.21-2.65.21-3.84v-.9h-11.18Z"/>
            <path d="m445.57,240.92c-.09.03-.15.04-.2.04-.07,0-.13-.03-.18-.09l-.66-.95s-.07-.1-.07-.18.04-.13.11-.18c1.51-.82,2.7-1.78,3.56-2.88.87-1.1,1.3-2.35,1.3-3.74v-1.23c0-.16.07-.24.22-.24h1.28c.15,0,.22.08.22.24v1.23c0,1.32.42,2.5,1.27,3.55.84,1.05,1.98,1.95,3.4,2.72.15.06.17.17.07.33l-.64.99c-.03.07-.09.11-.18.11l-.18-.04c-1.07-.59-2.01-1.27-2.82-2.06-.81-.78-1.39-1.59-1.76-2.41-.72,1.8-2.3,3.39-4.75,4.77Zm14.87,7.3c.15,0,.22.07.22.2v1.06c0,.16-.07.24-.22.24h-12.5c-.15,0-.22-.08-.22-.24v-1.06c0-.13.07-.2.22-.2h2.31v-4.66h-2.2c-.16,0-.24-.07-.24-.22v-1.06c0-.15.08-.22.24-.22h12.28c.15,0,.22.07.22.22v1.06c0,.15-.07.22-.22.22h-2.2v4.66h2.31Zm-4.03-4.66h-4.44v4.66h4.44v-4.66Zm2.44-2.57c-.16,0-.24-.07-.24-.22v-9.9c0-.15.08-.22.24-.22h1.25c.16,0,.24.07.24.22v9.9c0,.15-.08.22-.24.22h-1.25Z"/>
            <path d="m463.64,247.74c-.15,0-.22-.07-.22-.22v-1.12c0-.16.07-.24.22-.24h17.82c.13,0,.2.08.2.24v1.12c0,.15-.07.22-.2.22h-17.82Zm5.53-6.12c-1.02-.4-1.83-.98-2.44-1.76-.61-.78-.91-1.7-.91-2.77s.3-2.01.91-2.78c.61-.77,1.42-1.35,2.44-1.75,1.02-.4,2.14-.59,3.36-.59s2.36.2,3.38.59c1.02.4,1.83.98,2.43,1.75.6.77.9,1.7.9,2.78s-.3,2-.9,2.77c-.6.78-1.41,1.37-2.43,1.76s-2.15.59-3.38.59-2.34-.2-3.36-.59Zm6.93-1.91c.93-.63,1.4-1.5,1.4-2.62s-.47-1.99-1.4-2.62c-.93-.63-2.12-.95-3.58-.95s-2.63.32-3.56.95c-.94.63-1.41,1.5-1.41,2.62s.47,1.99,1.41,2.62c.94.63,2.13.95,3.56.95s2.64-.32,3.58-.95Z"/>
            <path d="m484.43,241.64c-.06.04-.12.07-.18.07-.07,0-.13-.03-.18-.09l-.68-.95c-.04-.07-.07-.13-.07-.18,0-.07.04-.13.11-.18,3.24-1.92,4.86-4.2,4.86-6.84v-1.67c0-.15.07-.22.22-.22h1.28c.15,0,.22.07.22.22v1.67c0,1.33.42,2.52,1.24,3.55.83,1.03,1.97,1.97,3.42,2.8.09.04.13.1.13.18,0,.04-.02.1-.07.18l-.64.99c-.04.07-.1.11-.18.11-.04,0-.1-.02-.18-.07-1.07-.63-2.01-1.34-2.8-2.12-.8-.79-1.38-1.59-1.75-2.41-.76,1.83-2.35,3.48-4.77,4.95Zm15.07,6.31c.16,0,.24.08.24.24v1.1c0,.15-.08.22-.24.22h-12.14c-.15,0-.22-.07-.22-.22v-6.16c0-.07.01-.13.04-.17.03-.04.09-.05.18-.05h1.28c.15,0,.22.07.22.22v4.82h10.65Zm-1.78-3.28c-.07,0-.13-.02-.18-.05s-.07-.08-.07-.14v-13.62c0-.15.08-.22.24-.22h1.25c.16,0,.24.07.24.22v13.62c0,.13-.08.2-.24.2h-1.25Z"/>
            <path d="m512.1,232.75c.16,0,.24.07.24.2v2.02c0,2.26-.68,4.23-2.05,5.92-1.36,1.69-3.46,3.24-6.29,4.66-.06.03-.1.04-.13.04-.07,0-.14-.04-.2-.13l-.59-1.04c-.03-.06-.04-.11-.04-.15,0-.07.04-.13.13-.18,2.55-1.25,4.43-2.58,5.62-4,1.2-1.42,1.79-3.13,1.79-5.12v-.66h-6.8c-.15,0-.22-.07-.22-.22v-1.14c0-.13.07-.2.22-.2h8.32Zm8.67,4.99c.15,0,.22.08.22.24v1.12c0,.15-.07.22-.22.22h-3.1v10.16c0,.16-.07.24-.22.24h-1.28c-.15,0-.22-.08-.22-.24v-18.63c0-.15.07-.22.22-.22h1.28c.15,0,.22.07.22.22v6.89h3.1Z"/>
            <path d="m539.73,246.09c.13,0,.2.07.2.22v1.12c0,.16-.07.24-.2.24h-17.82c-.15,0-.22-.08-.22-.24v-1.12c0-.15.07-.22.22-.22h4.51v-5.17c-.75-.43-1.33-.97-1.75-1.64-.42-.67-.63-1.44-.63-2.32,0-1.08.3-2,.9-2.75s1.42-1.31,2.44-1.68c1.03-.38,2.16-.56,3.41-.56s2.38.19,3.41.56c1.03.37,1.84.93,2.44,1.68s.9,1.67.9,2.75c0,.88-.21,1.65-.62,2.32-.41.67-.99,1.21-1.74,1.64v5.17h4.53Zm-12.54-11.68c-.94.59-1.41,1.44-1.41,2.55s.47,1.96,1.41,2.54,2.14.87,3.61.87,2.67-.29,3.61-.88c.94-.59,1.41-1.43,1.41-2.53s-.47-1.97-1.41-2.55c-.94-.59-2.14-.88-3.61-.88s-2.67.29-3.61.88Zm.95,11.68h5.32v-4.49c-.81.22-1.69.33-2.66.33s-1.86-.11-2.66-.33v4.49Z"/>
            <path d="m545.1,244.44c-.15,0-.22-.08-.22-.24l-.07-4.49c0-.16.08-.24.24-.24h.88c1.14,0,2.02-.3,2.63-.89.61-.59.91-1.39.91-2.39,0-.84-.28-1.52-.83-2.04-.55-.53-1.29-.79-2.23-.79-.82,0-1.51.21-2.06.63s-1,1.04-1.35,1.88c-.07.15-.18.2-.31.15l-1.3-.35c-.15-.04-.2-.14-.15-.29.37-1.22,1.02-2.16,1.95-2.83.93-.67,2.04-1,3.33-1,.95,0,1.8.19,2.53.57s1.3.91,1.72,1.59c.41.68.62,1.46.62,2.32s-.18,1.65-.53,2.36c-.35.71-.87,1.29-1.54,1.75-.67.45-1.47.73-2.38.81l-.37.04-.04,3.19c0,.16-.07.24-.22.24h-1.21Zm-.3,3.43c-.24-.23-.36-.53-.36-.88s.12-.64.36-.87.54-.34.89-.34.67.11.91.34.36.52.36.87-.12.66-.36.89c-.24.23-.55.34-.91.34s-.65-.12-.89-.35Z"/>
          </g>
          <g>
            <g>
              <g class="cls-6">
                <path d="m32.01,132.16v-60.49l-12.12,5.38v-9.59c7.72-3.94,12.78-7.56,15.17-10.85l9.85-1.76v75.01l-12.9,2.3Z"/>
              </g>
              <path class="cls-3" d="m37.62,130.59v-60.49l-12.12,5.37v-9.59c7.72-3.94,12.78-7.56,15.17-10.85l9.85-1.76v75.01l-12.9,2.3Z"/>
              <path class="cls-5" d="m42.68,129.42v-60.49l-12.12,5.37v-9.59c7.72-3.94,12.78-7.56,15.17-10.85l9.85-1.76v75.01l-12.9,2.3Z"/>
            </g>
            <polygon class="cls-3" points="137.91 47.07 70.45 59.13 70.45 53.93 137.91 41.88 137.91 47.07"/>
            <polygon class="cls-3" points="124.04 111.94 70.45 121.46 70.45 116.27 124.04 106.75 124.04 111.94"/>
          </g>
          <g>
            <g>
              <g class="cls-6">
                <path d="m160.65,135v-9.05l18.39-31.96c.27-.5,1.01-1.76,2.23-3.77,1.21-2.01,2.01-3.4,2.41-4.18.39-.78.95-1.96,1.66-3.55.71-1.59,1.2-3.05,1.45-4.38.26-1.33.39-2.72.39-4.16,0-2.96-.52-5.11-1.57-6.46-1.04-1.35-2.66-1.77-4.83-1.26-4.6,1.03-6.9,5.45-6.9,13.27v3.12l-12.71,2.27v-3.21c0-3.44.36-6.57,1.09-9.4.73-2.83,1.85-5.4,3.36-7.73s3.55-4.25,6.11-5.8c2.56-1.54,5.56-2.62,9.01-3.24,6.36-1.13,11.16-.28,14.42,2.56,3.25,2.84,4.88,7.4,4.88,13.67,0,2.14-.2,4.2-.59,6.17-.39,1.97-1.03,3.94-1.91,5.9-.88,1.97-1.7,3.64-2.45,5.01-.76,1.37-1.8,3.16-3.13,5.35-.15.24-.27.42-.34.56-.08.13-.17.29-.3.48-.12.19-.23.37-.32.53l-15.49,26.24,22.57-4.03v10.36l-37.41,6.68Z"/>
              </g>
              <path class="cls-3" d="m166.26,133.43v-9.05l18.39-31.96c.27-.5,1.01-1.76,2.23-3.77,1.21-2.01,2.01-3.4,2.41-4.18.39-.78.95-1.96,1.66-3.55.71-1.59,1.2-3.05,1.45-4.38.26-1.33.39-2.72.39-4.16,0-2.96-.52-5.11-1.57-6.46-1.04-1.35-2.66-1.77-4.83-1.26-4.6,1.03-6.9,5.45-6.9,13.27v3.12l-12.71,2.27v-3.21c0-3.44.36-6.57,1.09-9.4.73-2.83,1.85-5.4,3.36-7.73,1.51-2.32,3.55-4.25,6.11-5.8,2.56-1.54,5.56-2.62,9.01-3.24,6.36-1.13,11.16-.28,14.42,2.56,3.25,2.84,4.88,7.4,4.88,13.67,0,2.14-.2,4.2-.59,6.17-.39,1.97-1.03,3.94-1.91,5.9-.88,1.97-1.7,3.64-2.45,5.01-.76,1.37-1.8,3.16-3.13,5.35-.15.24-.26.42-.34.56-.08.13-.17.29-.3.48-.12.19-.23.37-.32.53l-15.48,26.24,22.57-4.03v10.36l-37.41,6.68Z"/>
              <path class="cls-5" d="m171.32,132.26v-9.05l18.39-31.97c.27-.5,1.01-1.75,2.23-3.77,1.21-2.01,2.01-3.4,2.41-4.18.39-.78.95-1.96,1.66-3.55.71-1.59,1.2-3.05,1.45-4.38s.39-2.72.39-4.16c0-2.95-.52-5.11-1.57-6.46-1.04-1.35-2.66-1.77-4.83-1.26-4.6,1.03-6.9,5.45-6.9,13.27v3.12l-12.71,2.27v-3.21c0-3.44.36-6.57,1.09-9.4.73-2.83,1.85-5.4,3.36-7.73,1.51-2.32,3.55-4.25,6.11-5.79,2.56-1.54,5.56-2.62,9.01-3.24,6.36-1.13,11.16-.28,14.42,2.56,3.25,2.84,4.88,7.4,4.88,13.67,0,2.14-.2,4.2-.59,6.17-.39,1.97-1.03,3.94-1.91,5.9-.88,1.97-1.7,3.64-2.45,5.01-.76,1.37-1.8,3.16-3.13,5.36-.15.24-.27.42-.34.56-.08.13-.17.3-.3.48s-.23.36-.32.53l-15.48,26.24,22.57-4.03v10.36l-37.41,6.68Z"/>
            </g>
            <polygon class="cls-3" points="300.16 47.07 215.03 59.13 215.03 53.93 300.16 41.88 300.16 47.07"/>
            <polygon class="cls-3" points="284.03 111.94 215.03 121.46 215.03 116.27 284.03 106.75 284.03 111.94"/>
          </g>
          <g>
            <g>
              <g class="cls-6">
                <path d="m338.55,128.76c-6.72,1.2-11.69.23-14.89-2.91-3.21-3.14-4.81-8.08-4.81-14.84v-2.67l12.9-2.3v2.08c.06,3.79.57,6.51,1.52,8.14.95,1.64,2.75,2.23,5.38,1.76,1.15-.21,2.14-.58,2.97-1.12.83-.54,1.49-1.16,1.97-1.87.49-.7.86-1.62,1.11-2.73.26-1.12.43-2.22.52-3.33.09-1.1.14-2.44.14-4.01,0-3.98-.65-6.9-1.95-8.75-1.3-1.85-3.57-2.58-6.81-2.18-.12.02-.45.07-1,.16-.54.08-.86.13-.96.15v-10.77c.97-.17,1.55-.29,1.73-.35,3.33-.69,5.66-1.97,6.99-3.85,1.33-1.88,2-4.71,2-8.48,0-3.32-.51-5.72-1.52-7.19-1.01-1.48-2.81-1.99-5.38-1.53-1.09.2-2.04.55-2.84,1.05-.8.5-1.45,1.1-1.93,1.79-.48.69-.87,1.54-1.16,2.54-.29,1-.48,2.01-.59,3.02-.11,1.01-.18,2.19-.21,3.52v2.53l-12.9,2.3v-3.48c0-6.39,1.7-11.65,5.11-15.77,3.41-4.12,8.24-6.74,14.51-7.86,6.33-1.13,11.19-.28,14.6,2.55,3.41,2.83,5.11,7.43,5.11,13.79,0,4.25-.93,7.96-2.77,11.12-1.85,3.17-4.3,5.46-7.36,6.88,3.24.54,5.74,2.17,7.49,4.88,1.75,2.72,2.63,6.54,2.63,11.45,0,7.15-1.58,13.01-4.72,17.58-3.15,4.57-8.11,7.46-14.89,8.68Z"/>
              </g>
              <path class="cls-3" d="m344.16,127.19c-6.72,1.2-11.68.23-14.89-2.91s-4.81-8.08-4.81-14.84v-2.67l12.9-2.3v2.08c.06,3.79.57,6.51,1.52,8.14.96,1.64,2.75,2.22,5.38,1.76,1.15-.21,2.14-.58,2.97-1.12.83-.54,1.49-1.16,1.97-1.87.49-.7.86-1.62,1.11-2.73.26-1.12.43-2.22.52-3.33.09-1.1.14-2.44.14-4.01,0-3.98-.65-6.9-1.95-8.75-1.3-1.85-3.57-2.58-6.81-2.18-.12.02-.45.07-1,.16-.54.08-.86.13-.96.15v-10.77c.97-.17,1.55-.29,1.73-.35,3.33-.69,5.66-1.97,6.99-3.85,1.33-1.88,2-4.71,2-8.48,0-3.32-.51-5.72-1.52-7.19-1.01-1.48-2.81-1.99-5.38-1.53-1.09.2-2.04.55-2.84,1.05-.8.5-1.45,1.1-1.93,1.79-.48.69-.87,1.54-1.16,2.54-.29,1-.48,2.01-.59,3.02-.11,1.01-.18,2.19-.21,3.52v2.53l-12.9,2.3v-3.48c0-6.39,1.7-11.65,5.11-15.77,3.41-4.12,8.24-6.74,14.51-7.86,6.33-1.13,11.19-.28,14.6,2.55,3.41,2.83,5.11,7.43,5.11,13.79,0,4.25-.93,7.96-2.77,11.12-1.85,3.17-4.3,5.46-7.36,6.88,3.24.54,5.74,2.17,7.49,4.88,1.75,2.72,2.63,6.54,2.63,11.45,0,7.15-1.58,13.01-4.73,17.58-3.15,4.57-8.11,7.46-14.89,8.68Z"/>
              <path class="cls-5" d="m349.22,126.02c-6.72,1.2-11.68.23-14.89-2.91-3.21-3.14-4.81-8.08-4.81-14.84v-2.67l12.9-2.3v2.08c.06,3.79.57,6.51,1.52,8.14.95,1.64,2.75,2.23,5.38,1.76,1.15-.21,2.14-.58,2.97-1.12.83-.54,1.49-1.16,1.97-1.87.49-.7.86-1.61,1.11-2.73.26-1.12.43-2.22.52-3.33.09-1.1.14-2.44.14-4.01,0-3.98-.65-6.9-1.95-8.74-1.3-1.85-3.57-2.58-6.81-2.18-.12.02-.45.07-1,.16-.54.08-.86.13-.96.15v-10.77c.97-.17,1.55-.29,1.73-.35,3.33-.69,5.66-1.97,6.99-3.85,1.33-1.88,2-4.71,2-8.48,0-3.32-.51-5.72-1.52-7.19-1.01-1.48-2.81-1.99-5.38-1.53-1.09.2-2.04.55-2.84,1.05-.8.5-1.45,1.1-1.93,1.79-.48.69-.87,1.54-1.16,2.54-.29,1-.48,2.01-.59,3.02-.11,1.01-.18,2.19-.21,3.52v2.53l-12.9,2.3v-3.48c0-6.39,1.7-11.65,5.11-15.77,3.41-4.12,8.24-6.74,14.51-7.86,6.33-1.13,11.19-.28,14.6,2.55,3.41,2.83,5.11,7.43,5.11,13.79,0,4.25-.93,7.96-2.77,11.12-1.85,3.17-4.3,5.46-7.36,6.88,3.24.54,5.74,2.17,7.49,4.88,1.75,2.72,2.63,6.53,2.63,11.45,0,7.15-1.58,13.01-4.73,17.58-3.15,4.57-8.11,7.46-14.89,8.67Z"/>
            </g>
            <polygon class="cls-3" points="440.73 43.3 373.27 55.35 373.27 50.16 440.73 38.1 440.73 43.3"/>
            <polygon class="cls-3" points="426.86 108.16 373.27 117.68 373.27 112.49 426.86 102.97 426.86 108.16"/>
          </g>
          <g>
            <g>
              <g class="cls-6">
                <path d="m484.24,127.51v-18.32l-22.11,3.95v-11.85l19.12-48.29,15.17-2.71v46.06l7.81-1.39v10.68l-7.81,1.39v18.32l-12.17,2.17Zm-10.94-27.04l10.94-1.95v-31.81l-10.94,33.76Z"/>
              </g>
              <path class="cls-3" d="m489.85,125.94v-18.32l-22.11,3.95v-11.85l19.12-48.29,15.17-2.71v46.06l7.81-1.39v10.68l-7.81,1.39v18.32l-12.17,2.17Zm-10.94-27.04l10.94-1.95v-31.81l-10.94,33.76Z"/>
              <path class="cls-5" d="m494.91,124.78v-18.32l-22.11,3.95v-11.85l19.12-48.29,15.17-2.71v46.06l7.81-1.4v10.68l-7.81,1.39v18.32l-12.17,2.17Zm-10.94-27.05l10.94-1.95v-31.81l-10.94,33.76Z"/>
            </g>
            <polygon class="cls-3" points="602.97 43.3 517.84 55.35 517.84 50.16 602.97 38.1 602.97 43.3"/>
            <polygon class="cls-3" points="586.84 108.16 517.84 117.68 517.84 112.49 586.84 102.97 586.84 108.16"/>
          </g>
          <g>
            <path class="cls-2" d="m76.21,69.77c.06.39.08.8.05,1.24l4.09,1.8-1.08,1.95-3.67-1.62c-.35.56-.83,1.07-1.44,1.54-.61.47-1.39.89-2.34,1.25l-1.4-1.67c1.26-.48,2.14-1.04,2.64-1.69.5-.65.67-1.45.53-2.41l-.39-2.52,2.62-.41.39,2.54Zm3.04,11.95c-1,.15-1.91.23-2.73.23-.82,0-1.52-.08-2.11-.25-.59-.17-1.06-.42-1.41-.76-.35-.33-.56-.76-.64-1.29-.08-.51,0-.98.23-1.41.23-.43.6-.81,1.11-1.15.51-.33,1.16-.63,1.94-.87.78-.25,1.67-.45,2.67-.6,1-.16,1.91-.23,2.73-.23.81,0,1.52.08,2.11.25.59.17,1.06.42,1.41.76.35.34.56.77.64,1.28.08.52,0,1-.22,1.42-.23.42-.6.81-1.11,1.15-.51.34-1.16.63-1.93.88-.78.25-1.67.45-2.67.6Zm-.31-2.04c1.19-.18,2.11-.41,2.75-.67.64-.26.94-.57.88-.94-.06-.37-.43-.58-1.12-.63-.69-.05-1.63.01-2.83.2-1.19.18-2.11.41-2.75.67-.64.26-.94.57-.88.94.06.37.43.58,1.12.63.69.05,1.63-.01,2.83-.2Zm4.85-8.87l.53,3.46-2.62.41-1.25-8.12,2.62-.41.41,2.62,1.45-.22.32,2.04-1.45.22Z"/>
            <path class="cls-2" d="m86.5,65.77l12.31-1.9.32,2.04-1.82.28.24,1.52,1.82-.28.31,2.04-12.31,1.9-.32-2.04,1.84-.28-.23-1.52-1.84.28-.31-2.04Zm.17,6.51l13.95-2.16.32,2.04-5.66.88.14.89,4.84-.75.75,4.84-12.31,1.9-.75-4.84,4.84-.75-.14-.89-5.66.88-.31-2.04Zm4.19,4.28l.16,1,7.07-1.09-.15-1-7.07,1.09Zm.66-7.92l3.41-.53-.24-1.52-3.41.53.23,1.52Z"/>
            <path class="cls-2" d="m107.33,63.08l3.57-.55.32,2.04-9.77,1.51-.31-2.04,3.57-.55-.19-1.22,2.62-.41.19,1.22Zm-.91,2.83c1.45-.22,2.6-.11,3.47.35.86.46,1.38,1.21,1.54,2.26.14.9-.03,1.67-.51,2.29-.48.63-1.23,1.1-2.25,1.42l.28,1.79,3.89-.6.31,2.02-10.09,1.56-.31-2.02,3.57-.55-.28-1.8c-1.03-.01-1.85-.25-2.45-.72s-.98-1.13-1.11-2c-.16-1.05.1-1.92.78-2.62.68-.7,1.74-1.16,3.17-1.38Zm.32,2.04c-.23.04-.46.09-.67.17-.21.08-.39.18-.55.31-.16.13-.28.28-.36.46-.08.18-.1.38-.07.62.04.24.12.42.25.57.13.14.29.25.48.33.19.07.39.12.62.13.22.01.45,0,.69-.04.22-.03.44-.09.66-.17.22-.08.4-.18.57-.31.16-.13.29-.28.37-.46.09-.18.11-.38.08-.62-.04-.23-.12-.42-.26-.57-.14-.14-.3-.25-.5-.32-.2-.07-.41-.11-.64-.12s-.45,0-.66.03Zm8.72-1.45l1.45-.22.32,2.04-1.45.22,1.04,6.7-2.62.41-2.16-13.96,2.62-.41.81,5.23Z"/>
            <path class="cls-2" d="m80.14,95.83l-.32-2.05-5.55.86-.31-2.04,8.17-1.26,1.27,8.2-2.62.41-.32-2.07-5.55.86-.31-2.04,5.55-.86Zm-1.41,5.62l.42,2.74,10.24-1.58.31,2.02-12.86,1.99-.74-4.76,2.62-.41Zm8.6-11.09l1.54,9.97-2.62.41-.79-5.09-2.03.81-.32-2.09,2.03-.81-.43-2.79,2.62-.41Z"/>
            <path class="cls-2" d="m95.59,91.14c.06.38.07.73.04,1.05l4.05,1.65-1.08,1.95-3.73-1.53c-.35.51-.83,1-1.44,1.45-.61.46-1.37.87-2.28,1.24l-1.4-1.67c1.26-.48,2.14-1.03,2.64-1.65.5-.62.69-1.32.57-2.12l-.31-2.02,2.62-.41.32,2.04Zm6.38,7.31l-.11-.72-10.07,1.56-.27-1.74,12.7-1.96.65,4.19-10.07,1.56.11.72,10.24-1.58.27,1.74-12.86,1.99-.65-4.19,10.07-1.56Zm1.06-10.51l1.07,6.9-2.62.41-.56-3.61-2.9,1.15-.33-2.16,2.9-1.15-.17-1.13,2.62-.41Z"/>
            <path class="cls-2" d="m108.3,89.38l.12.8,6.38-.99.31,2.04-6.38.99.12.78,6.55-1.01.32,2.04-9.17,1.42-1.19-7.7,9-1.39.32,2.04-6.38.99Zm6.36,11.74c-1.05.16-1.99.24-2.83.25s-1.57-.08-2.18-.24c-.61-.17-1.1-.42-1.46-.75s-.58-.76-.66-1.28c-.08-.51,0-.98.24-1.41s.63-.82,1.16-1.16c.53-.34,1.2-.63,2.01-.88s1.73-.46,2.78-.62c1.05-.16,1.99-.25,2.83-.25.84,0,1.57.07,2.18.24.61.16,1.1.41,1.46.75.36.34.58.76.66,1.27.08.52,0,1-.24,1.42-.24.42-.63.81-1.16,1.16-.53.34-1.2.64-2.01.89-.81.25-1.73.46-2.78.62Zm-.32-2.04c1.28-.2,2.26-.43,2.95-.69.68-.27,1-.58.94-.95-.06-.37-.45-.57-1.18-.62-.73-.05-1.74.03-3.02.23-1.28.2-2.26.43-2.95.7-.68.26-1,.58-.94.95.06.37.45.58,1.18.62.73.05,1.74-.03,3.02-.23Zm4.38-13.57l1.28,8.27-2.62.41-1.28-8.27,2.62-.41Z"/>
          </g>
          <g>
            <path class="cls-2" d="m226.07,65.71l.32,2.09c.12.8.13,1.57.01,2.31l6.2,2.29-1,2.04-5.96-2.19c-.99,1.67-2.81,3.05-5.48,4.13l-1.28-1.77c1.94-.72,3.29-1.61,4.06-2.65s1.04-2.3.81-3.76l-.32-2.07,2.64-.41Zm-6.75,12.85l5.66-.88-.5-3.24,2.62-.41.5,3.24,5.66-.88.31,2.04-13.95,2.16-.31-2.04Z"/>
            <path class="cls-2" d="m240.29,77.23l-1.77-11.43-4.76.74-.31-2.04,7.17-1.11,2.08,13.46-2.41.37Zm3.77-.41l-2.16-13.96,2.41-.37.91,5.91,1.39-.75-.83-5.39,2.42-.37,2.16,13.96-2.42.37-.98-6.31-1.39.75.9,5.8-2.41.37Z"/>
            <path class="cls-2" d="m260.38,67.24c.2,1.27.23,2.36.09,3.29-.14.92-.38,1.69-.74,2.3s-.8,1.08-1.34,1.41-1.1.55-1.71.64c-.61.09-1.22.06-1.84-.09-.61-.16-1.18-.47-1.7-.94-.52-.47-.99-1.13-1.39-1.97-.4-.84-.7-1.89-.9-3.16-.2-1.27-.23-2.36-.1-3.28.13-.92.38-1.68.73-2.29s.8-1.09,1.34-1.42c.54-.33,1.11-.55,1.72-.64.6-.09,1.21-.06,1.82.09.61.16,1.18.47,1.7.95.53.48.99,1.13,1.4,1.96.41.83.71,1.88.91,3.15Zm-6.92,1.07c.15.95.33,1.72.54,2.33.21.61.45,1.08.7,1.42.25.34.52.57.81.68s.57.14.86.1c.28-.04.54-.16.78-.35.24-.19.43-.48.57-.88.14-.4.22-.92.24-1.57s-.04-1.45-.19-2.41c-.15-.95-.33-1.72-.54-2.33-.21-.61-.45-1.08-.7-1.41-.25-.34-.52-.56-.81-.67-.28-.11-.57-.14-.84-.1-.29.04-.55.16-.79.35-.24.19-.43.49-.56.89-.14.4-.22.92-.24,1.57-.02.64.04,1.44.19,2.38Zm12.36,5.15l-2.62.41-2.16-13.96,2.62-.41,2.16,13.96Z"/>
            <path class="cls-2" d="m274.52,58.16l2.08,13.46-8.5,1.31-2.08-13.46,8.5-1.31Zm-4.11,12.33l3.26-.5-1.45-9.39-3.26.5,1.45,9.39Zm11.11.54l-2.62.41-2.16-13.96,2.62-.41,2.16,13.96Z"/>
            <path class="cls-2" d="m291.11,55.59l.32,2.04-3.58.55.6,3.88c.13.85.16,1.63.09,2.36l4.77,2.51-.99,2.14-4.36-2.33c-.32.73-.79,1.4-1.4,2-.62.6-1.39,1.13-2.33,1.61l-1.45-1.76c.63-.34,1.17-.69,1.62-1.05s.8-.79,1.05-1.26c.26-.48.42-1.03.48-1.64.06-.61.03-1.34-.1-2.17l-.6-3.86-3.41.53-.31-2.04,9.6-1.49Zm6.12,13.01l-2.62.41-2.16-13.96,2.62-.41,2.16,13.96Z"/>
            <path class="cls-2" d="m229.05,90.06l.32,2.04-2.62.41.6,3.88c.07.46.12.89.14,1.3.02.41.03.82,0,1.22l3.87,2.65-1.18,2-3.17-2.28c-.26.66-.64,1.26-1.13,1.8-.49.54-1.12,1.03-1.87,1.45l-1.45-1.76c.51-.32.93-.65,1.27-1,.33-.35.59-.75.77-1.22.18-.47.28-1,.3-1.61.02-.61-.03-1.33-.16-2.17l-.6-3.86-2.52.39-.32-2.04,7.77-1.2Zm3.31,13.44l-1.12-7.22-2.23,1.18-.32-2.09,2.23-1.18-.72-4.66,2.41-.37,2.16,13.96-2.41.37Zm6.05-.94l-2.42.38-2.16-13.96,2.42-.38,2.16,13.96Z"/>
            <path class="cls-2" d="m247.4,87.06l.31,2.04-3.41.53.18,1.14c.02.13.04.26.04.39s.01.26,0,.38l4.07,1.66-.98,1.96-3.74-1.53c-.7,1.1-1.99,2.02-3.87,2.77l-1.4-1.67c.59-.23,1.11-.46,1.54-.7.44-.24.79-.5,1.07-.78s.47-.6.57-.94c.11-.35.13-.74.06-1.17l-.17-1.12-3.24.5-.31-2.04,9.27-1.43Zm3.4,13.94l-.48-3.07-9.57,1.48-.31-2.02,12.19-1.88.79,5.09-2.62.41Zm1.16-9.88l.56,3.62-2.62.41-1.31-8.45,2.62-.41.43,2.79,1.45-.22.31,2.04-1.45.22Z"/>
          </g>
          <g>
            <path class="cls-2" d="m382.75,63.13l2.08,13.46-8.17,1.26-2.08-13.46,8.17-1.26Zm-3.78,12.28l2.92-.45-1.45-9.39-2.92.45,1.45,9.39Zm9.26-8.12l1.45-.22.32,2.04-1.45.22,1.04,6.7-2.62.41-2.16-13.96,2.62-.41.81,5.23Z"/>
            <path class="cls-2" d="m395.98,67.32l-.63-4.06-4.76.74-.32-2.04,7.17-1.11.87,5.63,1.5-.8-.84-5.41,2.41-.37,2.16,13.96-2.41.37-1-6.46-1.5.8.89,5.75-2.41.37-.82-5.33-4.76.74-.31-2.04,4.76-.74Zm11.2,5.98l-2.42.38-2.16-13.96,2.42-.37,2.16,13.96Z"/>
            <path class="cls-2" d="m410.06,60.82l.12.8,6.38-.99.32,2.04-6.38.99.12.78,6.55-1.01.32,2.04-9.17,1.42-1.19-7.7,9-1.39.31,2.04-6.38.99Zm6.37,11.74c-1.05.16-1.99.25-2.84.25-.84,0-1.57-.08-2.18-.24-.61-.17-1.1-.42-1.46-.75-.36-.33-.58-.76-.66-1.28-.08-.51,0-.98.24-1.41.24-.43.63-.82,1.16-1.16.54-.34,1.21-.63,2.01-.88.81-.25,1.73-.46,2.78-.62s1.99-.25,2.83-.25c.84,0,1.57.07,2.18.24.61.16,1.1.41,1.46.75.36.34.58.76.66,1.27.08.52,0,1-.24,1.42s-.63.81-1.16,1.16c-.53.34-1.2.64-2.01.89-.8.25-1.73.46-2.78.62Zm-.32-2.04c1.28-.2,2.26-.43,2.95-.69.68-.27,1-.58.94-.95-.06-.37-.45-.57-1.18-.62-.73-.05-1.74.03-3.02.23s-2.26.43-2.95.7c-.68.26-1,.58-.94.95.06.37.45.58,1.18.62.73.05,1.74-.03,3.02-.23Zm4.38-13.57l1.28,8.27-2.62.41-1.28-8.27,2.62-.41Z"/>
            <path class="cls-2" d="m384.49,91.76l-.32-2.05-5.55.86-.31-2.04,8.17-1.26,1.27,8.2-2.62.41-.32-2.07-5.55.86-.31-2.04,5.55-.86Zm-1.41,5.62l.42,2.74,10.24-1.58.31,2.02-12.86,1.99-.74-4.76,2.62-.41Zm8.6-11.1l1.54,9.97-2.62.41-.79-5.09-2.03.81-.32-2.09,2.03-.81-.43-2.79,2.62-.41Z"/>
            <path class="cls-2" d="m399.94,87.06c.06.38.07.73.04,1.05l4.05,1.65-1.08,1.95-3.73-1.53c-.35.51-.83,1-1.44,1.45-.61.46-1.37.87-2.28,1.24l-1.4-1.67c1.26-.48,2.14-1.03,2.64-1.65s.69-1.32.57-2.12l-.31-2.02,2.62-.41.32,2.04Zm6.38,7.31l-.11-.72-10.07,1.56-.27-1.74,12.69-1.96.65,4.19-10.07,1.56.11.72,10.24-1.58.27,1.74-12.86,1.99-.65-4.19,10.07-1.56Zm1.06-10.51l1.07,6.9-2.62.41-.56-3.61-2.9,1.15-.33-2.16,2.9-1.15-.18-1.14,2.62-.41Z"/>
            <path class="cls-2" d="m412.65,85.3l.12.8,6.38-.99.31,2.04-6.38.99.12.79,6.55-1.01.32,2.04-9.17,1.42-1.19-7.7,9-1.39.32,2.04-6.38.99Zm6.36,11.74c-1.05.16-1.99.25-2.83.25-.84,0-1.57-.08-2.18-.24-.61-.17-1.1-.42-1.46-.75-.36-.33-.58-.76-.66-1.28-.08-.51,0-.98.24-1.41.24-.43.63-.82,1.16-1.16.54-.34,1.21-.63,2.01-.88.81-.25,1.73-.45,2.78-.62s1.99-.25,2.83-.25c.84,0,1.57.08,2.18.24.61.16,1.1.41,1.46.75.36.34.58.76.66,1.28.08.52,0,1-.24,1.42-.24.43-.63.81-1.16,1.16-.53.34-1.2.64-2.01.89-.81.25-1.73.46-2.78.62Zm-.31-2.04c1.28-.2,2.26-.43,2.95-.69.68-.27,1-.58.94-.95-.06-.37-.45-.58-1.18-.62-.73-.05-1.74.03-3.02.23s-2.26.43-2.95.7c-.68.26-1,.58-.94.95.06.37.45.57,1.18.62.73.05,1.74-.03,3.02-.23Zm4.38-13.57l1.28,8.27-2.62.41-1.28-8.27,2.62-.41Z"/>
          </g>
          <g>
            <path class="cls-2" d="m532.41,64.85c.09.61.04,1.2-.15,1.77-.2.57-.57,1.06-1.12,1.47.37.06.72.16,1.05.3.32.14.61.34.86.59.25.25.46.56.63.92.17.36.29.78.37,1.26.09.59.07,1.12-.05,1.58-.13.46-.34.87-.63,1.2-.29.33-.64.61-1.05.81-.41.21-.86.35-1.34.42l-8.13,1.26-2.03-13.15,7.5-1.16c.48-.07.94-.08,1.4-.03.45.06.87.19,1.24.4s.69.51.95.9.43.87.52,1.45Zm-3.73,2.44c.46-.2.79-.46.99-.79.2-.33.27-.71.2-1.12-.07-.48-.28-.82-.63-1.01-.34-.2-.73-.26-1.15-.2l-4.38.68.67,4.34,4.29-1.9Zm2.57,3.78c-.09-.57-.37-1-.85-1.3-.48-.3-1.07-.44-1.76-.41l-3.94,1.84.45,2.91,4.29-.66c.69-.11,1.19-.36,1.5-.76.31-.4.41-.94.31-1.6Z"/>
            <path class="cls-2" d="m536.48,74.33l-.24-1.54,3.73-4.44c.33-.39.62-.77.89-1.15.27-.37.49-.74.68-1.1s.32-.71.4-1.05.1-.68.05-1c-.11-.69-.39-1.2-.84-1.54-.45-.33-1.03-.45-1.73-.34-.66.1-1.21.44-1.67,1.02-.46.58-.77,1.28-.94,2.1l-2.21-.8c.11-.55.28-1.07.53-1.56.24-.49.56-.92.95-1.31.39-.38.86-.71,1.4-.97s1.16-.45,1.86-.55c.61-.09,1.21-.1,1.8-.01.59.09,1.13.27,1.61.55.48.28.89.68,1.21,1.18.32.5.53,1.12.62,1.86.05.39.02.81-.07,1.25-.1.44-.25.9-.46,1.36-.21.47-.46.94-.77,1.41s-.64.93-1.02,1.38l-2.2,2.61,6.13-.95.31,2.02-10.04,1.55Z"/>
            <path class="cls-2" d="m547.49,65.89c-.15-.99-.13-1.93.08-2.83s.56-1.7,1.07-2.41c.51-.71,1.17-1.31,1.97-1.79.8-.48,1.72-.8,2.76-.96,2.49-.39,4.67.38,6.51,2.29l-1.48,1.58c-.54-.71-1.23-1.24-2.06-1.57-.83-.33-1.7-.43-2.63-.29-.63.1-1.2.32-1.69.66s-.9.77-1.22,1.27c-.32.5-.53,1.06-.65,1.69-.12.63-.13,1.28-.02,1.95.11.69.32,1.31.63,1.87.31.56.71,1.02,1.19,1.41s1.03.65,1.63.82c.61.16,1.26.19,1.96.08.43-.07.84-.2,1.21-.39.37-.19.71-.43,1.01-.72.3-.29.58-.61.82-.97.24-.36.44-.75.61-1.15l1.89,1.14c-.57,1.17-1.3,2.1-2.2,2.8-.9.7-2.02,1.15-3.36,1.36-.98.15-1.92.13-2.81-.06s-1.7-.54-2.42-1.04-1.32-1.16-1.81-1.95c-.49-.8-.81-1.72-.98-2.78Z"/>
            <path class="cls-2" d="m572.11,54.88l2.08,13.46-7.17,1.11-2.08-13.46,7.17-1.11Zm-3,12.16l2.36-.36-1.45-9.39-2.36.36,1.45,9.39Zm6.44,1.26l-2.16-13.96,2.41-.37.91,5.91,1.39-.74-.83-5.4,2.42-.38,2.16,13.96-2.42.38-.98-6.31-1.39.74.9,5.8-2.41.37Z"/>
            <path class="cls-2" d="m587.67,52.82l3.58-.55.31,2.04-3.57.55.04.29c.06.38.07.76.04,1.16l4.26,1.36-.98,1.96-4.08-1.29c-.75,1-2,1.86-3.78,2.55l-1.4-1.67c.65-.25,1.19-.5,1.64-.75.45-.25.81-.52,1.08-.81.27-.29.46-.61.55-.96.09-.35.11-.74.04-1.18l-.04-.27-3.41.53-.32-2.04,3.41-.53-.21-1.39,2.62-.41.21,1.39Zm3.41,13.77c-1.05.16-1.99.25-2.83.25-.84,0-1.57-.08-2.18-.24-.61-.17-1.1-.42-1.46-.75-.36-.33-.58-.76-.66-1.28-.08-.51,0-.98.24-1.41s.63-.82,1.16-1.16c.53-.34,1.2-.63,2.01-.88.81-.25,1.73-.46,2.78-.62,1.05-.16,1.99-.24,2.83-.25.84,0,1.57.07,2.18.24.61.16,1.1.41,1.46.75.36.34.58.76.66,1.27.08.53,0,1-.24,1.42-.24.42-.63.81-1.16,1.15-.53.34-1.2.64-2.01.89-.81.25-1.73.46-2.78.62Zm-.32-2.04c1.28-.2,2.26-.43,2.95-.69.68-.27,1-.58.94-.95-.06-.37-.45-.57-1.18-.62-.73-.05-1.74.03-3.02.23-1.28.2-2.26.43-2.94.7-.68.26-1,.58-.94.95.06.37.45.58,1.18.62.73.05,1.74-.03,3.02-.23Zm4.38-13.57l1.28,8.27-2.62.41-1.28-8.27,2.62-.41Z"/>
            <path class="cls-2" d="m533.34,85.58l.32,2.04-3.41.53.23,1.47c.02.13.04.27.04.39,0,.13.01.26,0,.38l4.07,1.66-.98,1.96-3.74-1.52c-.7,1.1-1.99,2.02-3.87,2.77l-1.4-1.67c.59-.23,1.11-.46,1.54-.7s.79-.5,1.07-.78.47-.6.57-.94c.11-.35.12-.74.06-1.17l-.22-1.45-3.24.5-.32-2.04,9.27-1.43Zm-4.28,10.26l.42,2.74,10.24-1.58.31,2.02-12.86,1.99-.74-4.76,2.62-.41Zm8.6-11.1l1.54,9.97-2.62.4-.79-5.08-2.02.79-.32-2.09,2.02-.79-.43-2.8,2.62-.41Z"/>
            <path class="cls-2" d="m553.28,84.98c.08.54,0,1-.23,1.39-.24.39-.61.73-1.11,1.03l.24,1.54,2.49-.38.32,2.04-13.95,2.16-.32-2.04,2.49-.38-.24-1.54c-.57-.13-1.02-.34-1.37-.64-.34-.3-.56-.72-.64-1.25-.08-.53,0-1,.24-1.4.24-.39.61-.74,1.11-1.04.5-.29,1.12-.54,1.87-.75.74-.21,1.58-.38,2.5-.52.92-.14,1.77-.23,2.54-.26.77-.03,1.44.02,2.02.15.57.13,1.03.34,1.38.65.35.31.57.72.65,1.26Zm-4.28,13c-1,.16-1.9.24-2.71.26-.8.02-1.49-.04-2.06-.17-.57-.13-1.03-.36-1.37-.67-.34-.31-.55-.73-.63-1.25-.08-.51,0-.97.23-1.37.23-.4.6-.75,1.1-1.06.5-.31,1.14-.57,1.91-.78.77-.21,1.66-.4,2.66-.56,1-.16,1.9-.25,2.7-.27.8-.03,1.49.03,2.06.17.57.14,1.03.37,1.37.68.34.31.55.72.63,1.24.08.52,0,.99-.22,1.39-.23.4-.6.75-1.1,1.05-.51.3-1.14.56-1.91.78-.77.22-1.66.41-2.66.57Zm1.66-12.59c-.04-.29-.35-.44-.92-.45-.57,0-1.48.08-2.73.28-1.24.19-2.12.38-2.67.56-.54.18-.79.42-.75.71.04.29.35.44.92.44.57,0,1.47-.09,2.71-.28,1.25-.19,2.14-.38,2.69-.55s.79-.41.75-.7Zm-1.98,10.55c1.28-.2,2.21-.4,2.79-.6.58-.2.85-.45.8-.74-.04-.29-.37-.44-.99-.46-.61-.02-1.56.07-2.84.27-1.28.2-2.21.4-2.79.6-.58.2-.85.45-.8.74.04.29.37.44.99.46.61.02,1.56-.07,2.84-.27Zm-1.14-7.26c-.67.1-1.29.18-1.86.24l.16,1,3.72-.58-.16-1.02c-.29.07-.58.13-.89.19-.31.06-.63.11-.97.17Z"/>
            <path class="cls-2" d="m555.96,84.17l-.32-2.04,8.87-1.37.86,5.58-2.62.41-.55-3.54-6.25.97Zm2.68,4.15l-.46-2.99,2.62-.41.46,2.99,4.89-.76.31,2.04-10.09,1.56-.32-2.04,2.57-.4Zm1.29,2.83l.41,2.66,10.46-1.62.31,2.02-13.08,2.02-.72-4.68,2.62-.41Zm9.63-5.88l.87,5.63-2.62.41-1.69-10.96,2.62-.41.51,3.29,1.45-.22.32,2.04-1.45.22Z"/>
            <path class="cls-2" d="m575.45,82.68c-.09-.56-.05-1.08.1-1.57.15-.49.41-.93.78-1.32.37-.39.83-.71,1.39-.98.56-.26,1.2-.45,1.92-.56.72-.11,1.39-.13,2-.05.61.08,1.15.25,1.62.51.47.26.85.6,1.14,1.02.29.42.48.91.57,1.47.09.56.05,1.08-.1,1.56-.15.49-.41.92-.78,1.3s-.83.71-1.39.98-1.2.46-1.92.57c-.72.11-1.39.12-2,.04-.61-.09-1.15-.26-1.62-.51-.47-.25-.85-.59-1.14-1-.29-.42-.48-.9-.57-1.46Zm4.53,3.98l.15.99,7.45-1.15-.15-.99,2.62-.41.93,6.03-12.69,1.96-.93-6.03,2.62-.41Zm.48-3.08c.61-.09,1.1-.32,1.46-.69.36-.36.5-.79.43-1.28-.08-.5-.34-.87-.79-1.11-.45-.24-.99-.31-1.6-.21s-1.1.32-1.46.69c-.36.36-.5.8-.42,1.3.08.49.34.85.79,1.09.45.24.99.31,1.6.21Zm7.59,5.94l-.15-1-7.45,1.15.15,1,7.45-1.15Zm.72-12.68l1.16,7.52-2.62.41-1.16-7.52,2.62-.41Z"/>
            <path class="cls-2" d="m600.16,75.25l.31,2.04-3.41.53.12.8c.02.13.04.27.04.39,0,.13.01.26,0,.38l4.07,1.66-.98,1.96-3.74-1.53c-.7,1.1-1.98,2.02-3.87,2.77l-1.4-1.67c.59-.23,1.11-.46,1.54-.7s.79-.5,1.07-.78c.28-.28.47-.6.57-.94.11-.35.12-.74.06-1.17l-.12-.79-3.24.5-.32-2.04,9.27-1.43Zm5.66,7.86l.87,5.6-12.7,1.96-.87-5.6,12.7-1.96Zm-9.76,3.58l.24,1.55,7.45-1.15-.24-1.55-7.45,1.15Zm8.41-12.28l1.23,7.95-2.62.41-.54-3.47-2.02.79-.32-2.09,2.02-.79-.37-2.39,2.62-.41Z"/>
          </g>
        </g>
      </g>
    </g>
  </g>
</svg>