<?xml version="1.0" encoding="UTF-8"?>
<svg xmlns="http://www.w3.org/2000/svg" viewBox="0 0 650 350">
  <defs>
    <style>
      .cls-1 {
        fill: #fff;
      }

      .cls-2 {
        fill: #f2cbac;
      }

      .cls-3 {
        fill: #eeb923;
      }

      .cls-4 {
        fill: #ce2749;
      }

      .cls-5 {
        opacity: .07;
      }

      .cls-5, .cls-6 {
        mix-blend-mode: multiply;
      }

      .cls-7 {
        fill: #a28473;
      }

      .cls-8 {
        font-family: LINESeedSansKR-Regular, 'LINE Seed Sans KR';
        font-size: 22px;
      }

      .cls-9 {
        fill: #987c66;
      }

      .cls-6 {
        opacity: .2;
      }

      .cls-10 {
        isolation: isolate;
      }

      .cls-11 {
        fill: #c9c9c9;
      }

      .cls-12 {
        opacity: .08;
      }

      .cls-13 {
        fill: #4f88af;
      }

      .cls-14 {
        fill: #34789a;
      }

      .cls-15 {
        fill: #ffde88;
      }

      .cls-16 {
        fill: #343433;
      }

      .cls-17 {
        opacity: .16;
      }

      .cls-18 {
        fill: #2c2c2c;
      }

      .cls-19 {
        fill: #efefef;
      }

      .cls-20 {
        fill: #c4af96;
      }

      .cls-21 {
        fill: #dadadb;
      }

      .cls-22 {
        fill: #e2e4e3;
      }

      .cls-23 {
        fill: #e4e4e2;
      }

      .cls-24 {
        fill: #bac6a9;
      }

      .cls-25 {
        fill: #9ec2a8;
      }

      .cls-26 {
        fill: #f7f0e2;
      }
    </style>
  </defs>
  <g class="cls-10">
    <g id="_레이어_2" data-name="레이어 2">
      <g id="_레이어_1-2" data-name="레이어 1">
        <g>
          <rect class="cls-3" width="650" height="350" rx="35.94" ry="35.94"/>
          <g>
            <g>
              <path class="cls-4" d="m40.2,92.04h5.4v1.97h-5.4c-.06,0-.11-.05-.11-.11v-1.76c0-.06.05-.11.11-.11Z"/>
              <path class="cls-13" d="m42.37,95.89h5.4v1.97h-5.4c-.06,0-.11-.05-.11-.11v-1.76c0-.06.05-.11.11-.11Z"/>
              <path class="cls-25" d="m43.76,99.56h5.4v1.97h-5.4c-.06,0-.11-.05-.11-.11v-1.76c0-.06.05-.11.11-.11Z"/>
            </g>
            <g>
              <g>
                <path class="cls-9" d="m207.71,318.7l28.38-22.3c1.5-1.18.69-3.64-1.2-3.64H71.09l-22,25.94h158.63Z"/>
                <polygon class="cls-22" points="201.09 286.14 201.09 315.12 228.22 296.09 227.3 275.99 201.09 286.14"/>
                <path class="cls-9" d="m207.71,283.92l23.23-9.43c1.34-.54.97-2.59-.47-2.6l-152.87-.98-28.51,11.66,158.63,1.36Z"/>
                <rect class="cls-7" x="49.08" y="282.56" width="158.63" height="36.14"/>
                <polygon class="cls-12" points="207.71 283.92 227.4 275.99 227.46 277.41 207.7 289.93 207.71 283.92"/>
              </g>
              <rect class="cls-19" x="57.91" y="289.93" width="106.42" height="22.28"/>
              <g>
                <ellipse class="cls-18" cx="184.68" cy="300.87" rx="8.01" ry="8.23"/>
                <path class="cls-24" d="m184.68,309.48c-4.62,0-8.38-3.86-8.38-8.61s3.76-8.61,8.38-8.61,8.38,3.86,8.38,8.61-3.76,8.61-8.38,8.61Zm0-16.45c-4.21,0-7.63,3.52-7.63,7.84s3.42,7.84,7.63,7.84,7.63-3.52,7.63-7.84-3.42-7.84-7.63-7.84Z"/>
              </g>
            </g>
            <g>
              <g>
                <path class="cls-14" d="m185.04,39.61l42.75,25.25c2.23,1.44.81,4.07-1.59,4.07l-161.81-3.49-13.75-18.27,134.41-7.56Z"/>
                <polygon class="cls-23" points="183.64 75.51 182.24 40.71 217.83 61.75 216.55 87.09 183.64 75.51"/>
                <path class="cls-14" d="m184.82,73.56l36.95,14.34c1.93.75,1.4,3.21-.67,3.11l-152.2-7.12-18.77-10.34h134.69Z"/>
                <polygon class="cls-13" points="185.04 39.61 50.04 47.19 50.13 73.56 184.82 73.56 185.04 39.61"/>
              </g>
              <polygon class="cls-1" points="55.7 70.47 55.63 51.17 141.47 45.65 141.55 70.03 55.7 70.47"/>
            </g>
            <rect class="cls-11" x="53.24" y="241.95" width="157.82" height="36.74"/>
            <rect class="cls-25" x="49.49" y="216.09" width="157.82" height="25.95"/>
            <rect class="cls-13" x="55.54" y="185.23" width="157.82" height="30.92"/>
            <rect class="cls-4" x="45.6" y="150.4" width="157.82" height="36.82"/>
            <rect class="cls-15" x="49.16" y="113.35" width="157.82" height="36.82"/>
            <rect class="cls-2" x="52.72" y="100.54" width="157.82" height="12.66"/>
            <rect class="cls-2" x="45.6" y="90.54" width="157.82" height="12.66"/>
            <path class="cls-22" d="m208.16,84.18H50.33c.51-2.08.51-4.25,0-6.33h0l157.82,3.17v3.17Z"/>
            <path class="cls-21" d="m211.07,90.51H53.24c.69-2.05.69-4.28,0-6.33h157.82v6.33Z"/>
            <rect class="cls-19" x="56.85" y="156.08" width="97.98" height="25.46"/>
            <g>
              <ellipse class="cls-16" cx="187.93" cy="198.91" rx="7.74" ry="7.95"/>
              <path class="cls-20" d="m187.93,207.25c-4.48,0-8.12-3.74-8.12-8.34s3.64-8.34,8.12-8.34,8.12,3.74,8.12,8.34-3.64,8.34-8.12,8.34Zm0-15.91c-4.06,0-7.37,3.39-7.37,7.57s3.3,7.57,7.37,7.57,7.37-3.39,7.37-7.57-3.3-7.57-7.37-7.57Z"/>
            </g>
            <g>
              <ellipse class="cls-16" cx="184.68" cy="169.12" rx="7.74" ry="7.95"/>
              <path class="cls-20" d="m184.68,177.46c-4.48,0-8.12-3.74-8.12-8.34s3.64-8.34,8.12-8.34,8.12,3.74,8.12,8.34-3.64,8.34-8.12,8.34Zm0-15.91c-4.06,0-7.37,3.39-7.37,7.57s3.3,7.57,7.37,7.57,7.37-3.39,7.37-7.57-3.3-7.57-7.37-7.57Z"/>
            </g>
            <g>
              <ellipse class="cls-16" cx="183.67" cy="135.7" rx="7.74" ry="7.95"/>
              <path class="cls-20" d="m183.67,144.04c-4.48,0-8.12-3.74-8.12-8.34s3.64-8.34,8.12-8.34,8.12,3.74,8.12,8.34-3.64,8.34-8.12,8.34Zm0-15.91c-4.06,0-7.37,3.39-7.37,7.57s3.3,7.57,7.37,7.57,7.37-3.39,7.37-7.57-3.3-7.57-7.37-7.57Z"/>
            </g>
            <g>
              <ellipse class="cls-16" cx="187.18" cy="261.56" rx="7.74" ry="7.95"/>
              <path class="cls-20" d="m187.18,269.9c-4.48,0-8.12-3.74-8.12-8.34s3.64-8.34,8.12-8.34,8.12,3.74,8.12,8.34-3.64,8.34-8.12,8.34Zm0-15.91c-4.06,0-7.37,3.39-7.37,7.57s3.3,7.57,7.37,7.57,7.37-3.39,7.37-7.57-3.3-7.57-7.37-7.57Z"/>
            </g>
            <g>
              <ellipse class="cls-16" cx="162.95" cy="56.58" rx="7.74" ry="7.95"/>
              <path class="cls-20" d="m162.95,64.92c-4.48,0-8.12-3.74-8.12-8.34s3.64-8.34,8.12-8.34,8.12,3.74,8.12,8.34-3.64,8.34-8.12,8.34Zm0-15.91c-4.06,0-7.37,3.39-7.37,7.57s3.3,7.57,7.37,7.57,7.37-3.39,7.37-7.57-3.3-7.57-7.37-7.57Z"/>
            </g>
            <path class="cls-19" d="m165.8,134.52s50.41,29.5,83.96-21.01l42.25,26.84s-63.42,26.56-68.28,24.89c-35.92-12.38-57.93-30.72-57.93-30.72Z"/>
            <path class="cls-19" d="m185.04,61.97s9.3,4.26,34.59-8.66l27.09,10.59s-27.82,15.53-30.44,14.63c-19.37-6.68-31.24-16.57-31.24-16.57Z"/>
            <path class="cls-5" d="m209.64,223.85c-15.53-16.25-16.93-38.62-16.93-38.62,0,0-2.65,26.7,6.36,61.28.36,1.38,5.22,5.52,11.89,10.66-.15-11.12-.73-22.22-1.32-33.32Z"/>
            <path class="cls-19" d="m196.94,175.61s3.43,54.75,59.03,55.17l1.26,46.97s-52.72-36.19-53.94-40.86c-9.01-34.58-6.36-61.28-6.36-61.28Z"/>
            <path class="cls-22" d="m71.56,78.54c-3.48-.72-6.99-1.3-10.5-1.82-3.33-.49-6.73-.7-10.04-1.32,2.01.38,4.03.76,6.04,1.14-3.27-.68-6.55-1.36-9.82-2.04,1.96,1.34,3.65,2,4.8,2.31.02,0,.01.04,0,.03l-4.86-.31s-.03.03,0,.04c3.84,2.14,6.53,2,6.53,2,0,0,16.55-.32,16.55-.32l1.32.28Z"/>
            <polygon class="cls-19" points="202.43 74.65 222.97 82.29 222.97 83.04 184.42 70.47 202.43 74.65"/>
            <g>
              <path class="cls-6" d="m100.48,90.51s72.1,34.91,74.67,47.82l20.14-16.82s-64.46-30.74-94.81-31Z"/>
              <path class="cls-22" d="m198.03,132.68h0c-17.61-13.87-37.49-24.39-58.71-31.06l-38.84-11.11h144.32l-46.77,42.17Z"/>
            </g>
            <path class="cls-26" d="m59.35,122.16v5.99c2.25.68,3.9,2.82,3.9,5.35s-1.64,4.67-3.9,5.35v6.56h31.66v-23.25h-31.66Z"/>
            <path class="cls-19" d="m63.37,220.53v4.4c2.25.5,3.9,2.07,3.9,3.93s-1.64,3.43-3.9,3.93v4.82h31.66v-17.07h-31.66Z"/>
            <rect class="cls-7" x="83.25" y="124" width=".76" height="19.45"/>
            <rect class="cls-2" x="85.57" y="124" width="3.56" height="19.45"/>
            <rect class="cls-19" x="66.07" y="251.24" width="91.08" height="18.3"/>
            <rect class="cls-19" x="66.07" y="189.76" width="91.08" height="18.3"/>
            <g class="cls-17">
              <rect class="cls-13" x="73.15" y="224.42" width="2.14" height="10.97"/>
              <rect class="cls-13" x="78.12" y="224.42" width="2.14" height="10.97"/>
              <rect class="cls-13" x="84.5" y="224.42" width="2.14" height="10.97"/>
            </g>
            <rect class="cls-15" x="189.25" y="222.19" width="3.44" height="15.4"/>
          </g>
          <text class="cls-8" transform="translate(331.65 107)"><tspan x="0" y="0">김과외 특급자료실은 입시, </tspan><tspan x="11.1" y="32">교과서와 EBS 지문분석,</tspan><tspan x="19.43" y="64">변형문제, 모의고사 등 </tspan><tspan x="2.45" y="96">다양한 자료를 제공합니다.</tspan><tspan x="-58.28" y="128">김과외 자료를 과외시간에 활용해보세요.</tspan><tspan x="-24.28" y="160">과외 준비 시간을 줄일 수 있어요!</tspan></text>
        </g>
      </g>
    </g>
  </g>
</svg>