<?xml version="1.0" encoding="UTF-8"?>
<svg id="_레이어_2" data-name="레이어 2" xmlns="http://www.w3.org/2000/svg" xmlns:xlink="http://www.w3.org/1999/xlink" viewBox="0 0 574.86 318.4">
  <defs>
    <style>
      .cls-1 {
        fill: #fff;
      }

      .cls-2 {
        fill: #222;
      }

      .cls-3 {
        fill: #4cc7cf;
        fill-rule: evenodd;
      }

      .cls-4 {
        fill: #333;
      }

      .cls-5 {
        clip-path: url(#clippath);
      }

      .cls-6 {
        fill: none;
      }

      .cls-7 {
        fill: #ccc;
      }

      .cls-8 {
        fill: #b3b3b3;
      }

      .cls-9 {
        fill: #1a1a1a;
      }
    </style>
    <clipPath id="clippath">
      <rect class="cls-6" x="21.33" y="-13.27" width="10.56" height="47.69" transform="translate(13.3 35.93) rotate(-83.97)"/>
    </clipPath>
  </defs>
  <g id="_레이어_1-2" data-name="레이어 1">
    <g>
      <path class="cls-4" d="m550.86,34.8c0-2.15-1.75-3.9-3.9-3.9H43.76c-2.15,0-3.9,1.75-3.9,3.9v3.6h511v-3.6Z"/>
      <path class="cls-9" d="m564.86,38.4H25.86c-5.52,0-10,4.48-10,10v205c0,35.9,29.1,65,65,65h429c35.9,0,65-29.1,65-65V48.4c0-5.52-4.48-10-10-10Z"/>
      <rect class="cls-8" x="45.47" y="28.79" width="9.97" height="2.11" rx=".58" ry=".58"/>
      <rect class="cls-8" x="56.41" y="28.79" width="4.1" height="2.11" rx=".58" ry=".58"/>
      <rect class="cls-8" x="61.42" y="28.79" width="4.1" height="2.11" rx=".58" ry=".58"/>
      <rect class="cls-8" x="66.42" y="28.79" width="4.1" height="2.11" rx=".58" ry=".58"/>
      <rect class="cls-8" x="71.43" y="28.79" width="4.1" height="2.11" rx=".58" ry=".58"/>
      <rect class="cls-8" x="76.66" y="28.79" width="4.1" height="2.11" rx=".58" ry=".58"/>
      <rect class="cls-8" x="81.67" y="28.79" width="4.1" height="2.11" rx=".58" ry=".58"/>
      <rect class="cls-8" x="86.67" y="28.79" width="4.1" height="2.11" rx=".58" ry=".58"/>
      <rect class="cls-8" x="91.68" y="28.79" width="4.1" height="2.11" rx=".58" ry=".58"/>
      <rect class="cls-8" x="97.02" y="28.79" width="4.1" height="2.11" rx=".58" ry=".58"/>
      <rect class="cls-8" x="102.03" y="28.79" width="4.1" height="2.11" rx=".58" ry=".58"/>
      <rect class="cls-8" x="107.03" y="28.79" width="4.1" height="2.11" rx=".58" ry=".58"/>
      <rect class="cls-8" x="112.04" y="28.79" width="4.1" height="2.11" rx=".58" ry=".58"/>
      <rect class="cls-8" x="117.27" y="28.79" width="4.1" height="2.11" rx=".58" ry=".58"/>
      <rect class="cls-8" x="122.28" y="28.79" width="4.1" height="2.11" rx=".58" ry=".58"/>
      <rect class="cls-8" x="127.28" y="28.79" width="4.1" height="2.11" rx=".58" ry=".58"/>
      <rect class="cls-8" x="132.29" y="28.79" width="4.1" height="2.11" rx=".58" ry=".58"/>
      <rect class="cls-8" x="137.72" y="28.79" width="4.1" height="2.11" rx=".58" ry=".58"/>
      <rect class="cls-8" x="142.72" y="28.79" width="4.1" height="2.11" rx=".58" ry=".58"/>
      <rect class="cls-8" x="147.73" y="28.79" width="4.1" height="2.11" rx=".58" ry=".58"/>
      <rect class="cls-8" x="152.73" y="28.79" width="4.1" height="2.11" rx=".58" ry=".58"/>
      <rect class="cls-8" x="157.97" y="28.79" width="4.1" height="2.11" rx=".58" ry=".58"/>
      <rect class="cls-8" x="162.97" y="28.79" width="4.1" height="2.11" rx=".58" ry=".58"/>
      <rect class="cls-8" x="167.98" y="28.79" width="4.1" height="2.11" rx=".58" ry=".58"/>
      <rect class="cls-8" x="172.98" y="28.79" width="4.1" height="2.11" rx=".58" ry=".58"/>
      <rect class="cls-8" x="178.33" y="28.79" width="4.1" height="2.11" rx=".58" ry=".58"/>
      <rect class="cls-8" x="183.34" y="28.79" width="4.1" height="2.11" rx=".58" ry=".58"/>
      <rect class="cls-8" x="188.34" y="28.79" width="4.1" height="2.11" rx=".58" ry=".58"/>
      <rect class="cls-8" x="193.34" y="28.79" width="4.1" height="2.11" rx=".58" ry=".58"/>
      <rect class="cls-8" x="198.58" y="28.79" width="4.1" height="2.11" rx=".58" ry=".58"/>
      <rect class="cls-8" x="203.59" y="28.79" width="4.1" height="2.11" rx=".58" ry=".58"/>
      <rect class="cls-8" x="208.59" y="28.79" width="4.1" height="2.11" rx=".58" ry=".58"/>
      <rect class="cls-8" x="213.59" y="28.79" width="4.1" height="2.11" rx=".58" ry=".58"/>
      <rect class="cls-8" x="218.79" y="28.79" width="4.1" height="2.11" rx=".58" ry=".58"/>
      <rect class="cls-8" x="223.79" y="28.79" width="4.1" height="2.11" rx=".58" ry=".58"/>
      <rect class="cls-8" x="228.8" y="28.79" width="4.1" height="2.11" rx=".58" ry=".58"/>
      <rect class="cls-8" x="233.8" y="28.79" width="4.1" height="2.11" rx=".58" ry=".58"/>
      <rect class="cls-8" x="239.04" y="28.79" width="4.1" height="2.11" rx=".58" ry=".58"/>
      <rect class="cls-8" x="244.04" y="28.79" width="4.1" height="2.11" rx=".58" ry=".58"/>
      <rect class="cls-8" x="249.05" y="28.79" width="4.1" height="2.11" rx=".58" ry=".58"/>
      <rect class="cls-8" x="254.05" y="28.79" width="4.1" height="2.11" rx=".58" ry=".58"/>
      <rect class="cls-8" x="259.4" y="28.79" width="4.1" height="2.11" rx=".58" ry=".58"/>
      <rect class="cls-8" x="264.4" y="28.79" width="4.1" height="2.11" rx=".58" ry=".58"/>
      <rect class="cls-8" x="269.41" y="28.79" width="4.1" height="2.11" rx=".58" ry=".58"/>
      <rect class="cls-8" x="274.41" y="28.79" width="4.1" height="2.11" rx=".58" ry=".58"/>
      <rect class="cls-8" x="279.65" y="28.79" width="4.1" height="2.11" rx=".58" ry=".58"/>
      <rect class="cls-8" x="284.65" y="28.79" width="4.1" height="2.11" rx=".58" ry=".58"/>
      <rect class="cls-8" x="289.66" y="28.79" width="4.1" height="2.11" rx=".58" ry=".58"/>
      <rect class="cls-8" x="294.66" y="28.79" width="4.1" height="2.11" rx=".58" ry=".58"/>
      <rect class="cls-8" x="300.09" y="28.79" width="4.1" height="2.11" rx=".58" ry=".58"/>
      <rect class="cls-8" x="305.1" y="28.79" width="4.1" height="2.11" rx=".58" ry=".58"/>
      <rect class="cls-8" x="310.1" y="28.79" width="4.1" height="2.11" rx=".58" ry=".58"/>
      <rect class="cls-8" x="315.11" y="28.79" width="4.1" height="2.11" rx=".58" ry=".58"/>
      <rect class="cls-8" x="320.34" y="28.79" width="4.1" height="2.11" rx=".58" ry=".58"/>
      <rect class="cls-8" x="325.35" y="28.79" width="4.1" height="2.11" rx=".58" ry=".58"/>
      <rect class="cls-8" x="330.35" y="28.79" width="4.1" height="2.11" rx=".58" ry=".58"/>
      <rect class="cls-8" x="335.36" y="28.79" width="4.1" height="2.11" rx=".58" ry=".58"/>
      <rect class="cls-8" x="340.71" y="28.79" width="4.1" height="2.11" rx=".58" ry=".58"/>
      <rect class="cls-8" x="345.71" y="28.79" width="4.1" height="2.11" rx=".58" ry=".58"/>
      <rect class="cls-8" x="350.71" y="28.79" width="4.1" height="2.11" rx=".58" ry=".58"/>
      <rect class="cls-8" x="355.72" y="28.79" width="4.1" height="2.11" rx=".58" ry=".58"/>
      <rect class="cls-8" x="360.96" y="28.79" width="4.1" height="2.11" rx=".58" ry=".58"/>
      <rect class="cls-8" x="365.96" y="28.79" width="4.1" height="2.11" rx=".58" ry=".58"/>
      <rect class="cls-8" x="370.96" y="28.79" width="4.1" height="2.11" rx=".58" ry=".58"/>
      <rect class="cls-8" x="375.97" y="28.79" width="4.1" height="2.11" rx=".58" ry=".58"/>
      <rect class="cls-8" x="381.45" y="28.72" width="4.1" height="2.11" rx=".58" ry=".58"/>
      <rect class="cls-8" x="386.46" y="28.72" width="4.1" height="2.11" rx=".58" ry=".58"/>
      <rect class="cls-8" x="391.46" y="28.72" width="4.1" height="2.11" rx=".58" ry=".58"/>
      <rect class="cls-8" x="396.46" y="28.72" width="4.1" height="2.11" rx=".58" ry=".58"/>
      <rect class="cls-8" x="401.7" y="28.72" width="4.1" height="2.11" rx=".58" ry=".58"/>
      <rect class="cls-8" x="406.71" y="28.72" width="4.1" height="2.11" rx=".58" ry=".58"/>
      <rect class="cls-8" x="411.71" y="28.72" width="4.1" height="2.11" rx=".58" ry=".58"/>
      <rect class="cls-8" x="416.71" y="28.72" width="4.1" height="2.11" rx=".58" ry=".58"/>
      <rect class="cls-8" x="422.14" y="28.72" width="4.1" height="2.11" rx=".58" ry=".58"/>
      <rect class="cls-8" x="427.15" y="28.72" width="4.1" height="2.11" rx=".58" ry=".58"/>
      <rect class="cls-8" x="432.15" y="28.72" width="4.1" height="2.11" rx=".58" ry=".58"/>
      <rect class="cls-8" x="437.16" y="28.72" width="4.1" height="2.11" rx=".58" ry=".58"/>
      <rect class="cls-8" x="442.39" y="28.72" width="4.1" height="2.11" rx=".58" ry=".58"/>
      <rect class="cls-8" x="447.4" y="28.72" width="4.1" height="2.11" rx=".58" ry=".58"/>
      <rect class="cls-8" x="452.4" y="28.72" width="4.1" height="2.11" rx=".58" ry=".58"/>
      <rect class="cls-8" x="457.41" y="28.72" width="4.1" height="2.11" rx=".58" ry=".58"/>
      <rect class="cls-8" x="462.76" y="28.72" width="4.1" height="2.11" rx=".58" ry=".58"/>
      <rect class="cls-8" x="467.76" y="28.72" width="4.1" height="2.11" rx=".58" ry=".58"/>
      <rect class="cls-8" x="472.77" y="28.72" width="4.1" height="2.11" rx=".58" ry=".58"/>
      <rect class="cls-8" x="477.77" y="28.72" width="4.1" height="2.11" rx=".58" ry=".58"/>
      <rect class="cls-8" x="483.01" y="28.72" width="4.1" height="2.11" rx=".58" ry=".58"/>
      <rect class="cls-8" x="488.01" y="28.72" width="4.1" height="2.11" rx=".58" ry=".58"/>
      <rect class="cls-8" x="493.02" y="28.72" width="4.1" height="2.11" rx=".58" ry=".58"/>
      <rect class="cls-8" x="498.02" y="28.72" width="4.1" height="2.11" rx=".58" ry=".58"/>
      <rect class="cls-8" x="503.06" y="28.79" width="4.1" height="2.11" rx=".58" ry=".58"/>
      <rect class="cls-8" x="508.29" y="28.79" width="4.1" height="2.11" rx=".58" ry=".58"/>
      <rect class="cls-8" x="513.3" y="28.79" width="4.1" height="2.11" rx=".58" ry=".58"/>
      <rect class="cls-8" x="518.3" y="28.79" width="4.1" height="2.11" rx=".58" ry=".58"/>
      <rect class="cls-8" x="523.31" y="28.79" width="4.1" height="2.11" rx=".58" ry=".58"/>
      <rect class="cls-8" x="528.66" y="28.79" width="4.1" height="2.11" rx=".58" ry=".58"/>
      <rect class="cls-8" x="533.66" y="28.79" width="4.1" height="2.11" rx=".58" ry=".58"/>
      <rect class="cls-8" x="538.66" y="28.79" width="4.1" height="2.11" rx=".58" ry=".58"/>
      <rect class="cls-9" x="56.42" y="26.09" width="18.2" height="4.81" rx="1.66" ry="1.66"/>
      <path class="cls-9" d="m71.36,20.64h-10.19c-2.53,0-4.58,3.08-4.58,6.87h2.25c0-2.21,1.2-4.01,2.67-4.01h8.7c.85,0,1.54,1.04,1.54,2.31v1.69h2.25v-2.9c0-2.19-1.18-3.97-2.64-3.97Z"/>
      <rect class="cls-1" x=".19" y="2.48" width="57.04" height="15.66" rx="4.77" ry="4.77" transform="translate(1.24 -2.96) rotate(6.03)"/>
      <g id="_그룹_75" data-name="그룹 75">
        <g class="cls-5">
          <g id="_그룹_3" data-name="그룹 3">
            <path id="_패스_9" data-name="패스 9" class="cls-3" d="m3.3,4.3c.1-.8.82-1.38,1.62-1.28.8.08,1.39.79,1.32,1.59l-.44,4.13,5.8-4.57c.64-.5,1.56-.4,2.08.22.5.6.42,1.5-.18,2-.01.01-.03.02-.04.03l-3.13,2.47,2.53,3.05c.5.6.43,1.5-.17,2-.01.01-.03.02-.04.03-.64.5-1.56.4-2.08-.22l-2.53-3.05-3.11,2.45c-.14.11-.29.19-.46.24-.21.08-.44.1-.67.08-.8-.08-1.39-.79-1.32-1.59l.8-7.58Z"/>
            <path id="_패스_10" data-name="패스 10" class="cls-2" d="m35.22,16.79l1.1-10.45,1.84.19-.41,3.84,1.46.15-.18,1.71-1.46-.15-.52,4.9-1.84-.19Z"/>
            <path id="_패스_11" data-name="패스 11" class="cls-2" d="m32.37,12.42l.47-4.43-4.61-.49.17-1.59,6.45.68-.63,6.01-1.84-.19Z"/>
            <path id="_패스_12" data-name="패스 12" class="cls-2" d="m33.64,14.2l-2.59-.27.38-3.64-1.86-.2-.38,3.64-2.16-.23-.17,1.59,6.61.7c.5.05,1.01-.05,1.44-.31.18-.11.34-.23.49-.38l.17-1.59c-.5.52-1.21.77-1.93.69Z"/>
            <rect id="_사각형_4" data-name="사각형 4" class="cls-2" x="44.24" y="12.09" width="10.51" height="1.85" transform="translate(31.36 60.87) rotate(-83.97)"/>
            <path id="_패스_13" data-name="패스 13" class="cls-2" d="m47.86,11h0c0-.06.01-.11.01-.17,0-.03,0-.05,0-.08s0-.06,0-.08,0-.07,0-.1c0-.02,0-.03,0-.05-.03-1.24-.79-2.36-1.94-2.84h0c-.05-.02-.1-.05-.15-.07-.04-.02-.08-.04-.13-.05h-.03s-.1-.05-.1-.05h0c-.32-.11-.65-.18-.98-.21-.29-.03-.58-.04-.88-.01h0c-.05,0-.1,0-.15.01h0c-1.28.09-2.38.93-2.82,2.13,0,.01,0,.03-.01.04-.01.03-.02.06-.03.1,0,.02-.01.04-.02.06s-.02.06-.02.09-.01.05-.02.08-.01.05-.02.08-.01.06-.02.1c0,.02,0,.04-.01.07,0,.05-.02.11-.02.16h0c0,.07-.01.12-.01.18,0,.02,0,.04,0,.07,0,.03,0,.07,0,.1s0,.05,0,.08,0,.05,0,.08,0,.06,0,.09,0,.04,0,.06c0,.03,0,.07,0,.1,0,.01,0,.03,0,.04.18,1.27,1.08,2.32,2.31,2.68h0s.09.03.14.05h0c.28.08.57.14.86.17.33.04.67.04,1,0h0s.1-.01.1-.01h.03s.09-.02.14-.03c.06-.01.11-.02.16-.03h0c1.22-.23,2.19-1.16,2.49-2.37,0-.02,0-.03.01-.05,0-.03.01-.06.02-.1s.01-.05.01-.08,0-.05.01-.07c0-.05.01-.1.02-.16h0s0,0,0,0Zm-3.86,1.33c-.94-.17-1.57-1.06-1.4-2,.17-.94,1.06-1.57,2-1.4.9.16,1.52.98,1.42,1.88-.1.95-.96,1.64-1.91,1.54-.04,0-.07,0-.11-.02"/>
            <path id="_패스_14" data-name="패스 14" class="cls-2" d="m43.12,12.45l-.29,2.72-3.26-.34-.17,1.59,7.06.75c.43.05.86-.03,1.24-.21.07-.03.13-.07.2-.1.18-.11.34-.23.49-.38l.17-1.59c-.5.52-1.21.77-1.93.69l-1.94-.2.29-2.72-1.86-.2Z"/>
            <path id="_패스_15" data-name="패스 15" class="cls-2" d="m22.81,6.68c-.29,2.74-3.44,3.56-7.18,3.16l.17-1.57c2.58.25,4.87-.24,4.99-1.35l.03-.31-4.79-.51.16-1.56,6.77.71-.15,1.42Z"/>
            <path id="_패스_16" data-name="패스 16" class="cls-2" d="m15.7,14.73l9.48,1,.45-4.3-9.48-1-.45,4.3Zm7.86-.69l-5.92-.63.14-1.28,5.92.63-.14,1.28Z"/>
            <rect id="_사각형_5" data-name="사각형 5" class="cls-2" x="22.22" y="7.08" width="5.68" height="1.85" transform="translate(14.47 32.08) rotate(-83.97)"/>
          </g>
        </g>
      </g>
      <path class="cls-7" d="m61.05,14.45c.34-.19.71-.29,1.12-.29,1.49,0,3.3,1.25,4.43,3.2.62,1.08.94,2.23.99,3.26h2.03c-.05-1.36-.46-2.85-1.28-4.26-2.05-3.55-5.69-5.15-8.28-3.65-.5.29-.91.66-1.25,1.11l2.04.79c.07-.05.13-.13.21-.17Z"/>
      <path class="cls-7" d="m66.36,23.64c-1.57.91-4.11-.43-5.55-2.92-.98-1.7-1.22-3.57-.79-4.88l-1.89-.74c-.66,1.86-.38,4.32.94,6.61,1.53,2.65,3.94,4.21,6.15,4.21.75,0,1.48-.18,2.13-.56.76-.44,1.32-1.09,1.7-1.87h-2.54c-.06.04-.1.1-.16.14Z"/>
      <path class="cls-1" d="m58.8,13.83l-2.25-.88-.52,1.34,2.1.82,1.89.74c.17-.51.45-.93.82-1.22l-2.04-.79Z"/>
    </g>
  </g>
</svg>