<?xml version="1.0" encoding="UTF-8"?>
<svg id="_레이어_1" data-name="레이어 1" xmlns="http://www.w3.org/2000/svg" viewBox="0 0 16 20">
  <defs>
    <style>
      .cls-1 {
        fill: #191210;
      }
    </style>
  </defs>
  <g id="_그룹_325" data-name="그룹 325">
    <path id="_패스_1219" data-name="패스 1219" class="cls-1" d="m13.36,10.62c.01-1.55.81-2.98,2.12-3.8-.82-1.19-2.15-1.93-3.59-1.99-1.53-.16-2.99.92-3.76.92s-1.97-.9-3.24-.87c-1.7.05-3.25,1-4.07,2.5-1.73,3.06-.45,7.6,1.25,10.08.82,1.22,1.81,2.58,3.1,2.53,1.25-.05,1.72-.82,3.22-.82s1.93.82,3.24.8c1.34-.03,2.19-1.24,3-2.46.59-.88,1.05-1.84,1.36-2.85-1.61-.7-2.64-2.29-2.64-4.05"/>
    <path id="_패스_1220" data-name="패스 1220" class="cls-1" d="m10.9,3.19c.77-.88,1.15-2.03,1.06-3.19-1.15.11-2.22.65-2.98,1.51-.77.84-1.16,1.96-1.08,3.1,1.17.02,2.28-.51,3.01-1.42"/>
  </g>
</svg>