<?xml version="1.0" encoding="UTF-8"?>
<svg id="_레이어_1" data-name="레이어 1" xmlns="http://www.w3.org/2000/svg" xmlns:xlink="http://www.w3.org/1999/xlink" viewBox="0 0 85 20">
  <defs>
    <style>
      .cls-1 {
        fill: none;
      }

      .cls-2 {
        clip-path: url(#clippath);
      }

      .cls-3 {
        fill: #1a1311;
      }
    </style>
    <clipPath id="clippath">
      <rect class="cls-1" width="85" height="20"/>
    </clipPath>
  </defs>
  <g id="_그룹_146" data-name="그룹 146">
    <g class="cls-2">
      <g id="_그룹_145" data-name="그룹 145">
        <path id="_패스_763" data-name="패스 763" class="cls-3" d="M13.78,10.62c.02-1.56,.85-3,2.19-3.8-.86-1.2-2.23-1.93-3.7-1.99-1.58-.16-3.08,.92-3.88,.92s-2.04-.9-3.35-.87c-1.74,.04-3.33,.99-4.19,2.5-1.79,3.06-.46,7.6,1.29,10.08,.85,1.22,1.86,2.58,3.2,2.53,1.29-.05,1.77-.82,3.32-.82s1.99,.82,3.35,.8c1.38-.03,2.26-1.24,3.1-2.46,.6-.88,1.08-1.84,1.41-2.85-1.64-.68-2.71-2.28-2.72-4.05"/>
        <path id="_패스_764" data-name="패스 764" class="cls-3" d="M11.23,3.19c.77-.88,1.15-2.03,1.06-3.19-1.15,.11-2.22,.65-2.98,1.51-.77,.84-1.16,1.96-1.08,3.1,1.17,.02,2.28-.51,3.01-1.42"/>
        <path id="_패스_765" data-name="패스 765" class="cls-3" d="M22.98,15.48l3.52-9.67h1.73l3.53,9.67h-1.59l-2.76-7.9h-.08l-2.77,7.9h-1.57Zm6.93-2.56h-5.09v-1.23h5.09v1.23Z"/>
        <path id="_패스_766" data-name="패스 766" class="cls-3" d="M32.89,8.22h1.4v1.17h.12s.03-.06,.05-.09c.12-.2,.27-.39,.43-.57,.18-.18,.4-.33,.64-.43,.32-.13,.66-.19,1-.18,.56,0,1.11,.15,1.59,.44,.48,.31,.86,.76,1.09,1.29,.27,.63,.41,1.31,.39,2,.02,.69-.12,1.37-.39,2-.23,.53-.61,.98-1.09,1.3-.47,.3-1.03,.46-1.59,.45-.35,.01-.69-.06-1.01-.19-.25-.1-.47-.25-.66-.44-.17-.18-.31-.37-.43-.58l-.03-.04h-.08v3.85h-1.44V8.22Zm1.64,4.96c.13,.36,.36,.67,.66,.9,.3,.22,.66,.33,1.03,.32,.38,.01,.75-.11,1.06-.33,.3-.23,.53-.55,.66-.91,.15-.42,.22-.87,.22-1.32,0-.44-.07-.88-.22-1.3-.13-.35-.35-.66-.65-.89-.31-.22-.68-.33-1.06-.32-.37-.01-.74,.09-1.05,.3-.3,.22-.53,.52-.65,.87-.15,.43-.23,.88-.23,1.33,0,.46,.07,.91,.23,1.34"/>
        <path id="_패스_767" data-name="패스 767" class="cls-3" d="M41.05,8.22h1.4v1.17h.12s.03-.06,.05-.09c.12-.2,.27-.39,.43-.57,.18-.18,.4-.33,.64-.43,.32-.13,.66-.19,1-.18,.56,0,1.11,.15,1.59,.44,.48,.31,.86,.76,1.09,1.29,.27,.63,.41,1.31,.39,2,.02,.69-.12,1.37-.39,2-.23,.53-.61,.98-1.09,1.3-.47,.3-1.03,.46-1.59,.45-.35,.01-.69-.06-1.01-.19-.25-.1-.47-.25-.66-.44-.17-.18-.31-.37-.43-.58l-.03-.04h-.08v3.85h-1.44V8.22Zm1.64,4.96c.13,.36,.36,.67,.66,.9,.3,.22,.66,.33,1.03,.32,.38,.01,.75-.11,1.06-.33,.3-.23,.53-.55,.66-.91,.15-.42,.22-.87,.22-1.32,0-.44-.07-.88-.22-1.3-.13-.35-.35-.66-.65-.89-.31-.22-.68-.33-1.06-.32-.37-.01-.74,.09-1.05,.3-.3,.22-.53,.52-.65,.87-.15,.43-.23,.88-.23,1.33,0,.46,.07,.91,.23,1.34"/>
        <path id="_패스_768" data-name="패스 768" class="cls-3" d="M57.75,7.59c-.18-.22-.43-.39-.7-.48-.32-.11-.66-.17-1-.16-.35,0-.71,.05-1.04,.18-.27,.1-.51,.27-.69,.5-.16,.21-.25,.47-.24,.74-.01,.38,.18,.75,.51,.94,.39,.24,.82,.41,1.28,.51l.94,.25c.73,.16,1.42,.48,2.03,.92,.55,.44,.84,1.11,.8,1.81,0,.52-.14,1.03-.43,1.47-.31,.45-.75,.8-1.25,1.01-.62,.25-1.28,.38-1.95,.36-.65,.02-1.3-.1-1.9-.35-.5-.21-.94-.55-1.26-.98-.31-.44-.49-.97-.51-1.51h1.49c.02,.31,.14,.61,.34,.85,.21,.24,.47,.42,.77,.52,.34,.12,.7,.18,1.06,.17,.38,0,.76-.06,1.12-.19,.3-.11,.57-.3,.77-.55,.18-.23,.28-.52,.28-.82,0-.25-.08-.49-.23-.68-.17-.2-.39-.35-.63-.45-.32-.13-.65-.24-.99-.33l-1.16-.3c-.7-.16-1.35-.49-1.89-.96-.44-.42-.68-1-.65-1.61,0-.52,.15-1.03,.45-1.46,.32-.44,.75-.77,1.25-.98,.56-.24,1.17-.35,1.78-.34,.6-.01,1.2,.11,1.76,.34,.48,.2,.9,.53,1.21,.96,.29,.4,.45,.88,.45,1.38h-1.44c-.03-.28-.13-.54-.31-.76"/>
        <path id="_패스_769" data-name="패스 769" class="cls-3" d="M64.55,9.36h-4.02v-1.14h4.02v1.14Zm-1.49-2.87v6.86c-.01,.2,.03,.41,.12,.59,.06,.13,.17,.23,.3,.29,.14,.06,.3,.08,.45,.08,.08,0,.16,0,.25,0s.18,0,.27,0h.2s0,1.22,0,1.22c-.3,.04-.59,.06-.89,.06-.37,0-.74-.07-1.08-.22-.32-.14-.59-.36-.78-.65-.21-.32-.31-.69-.3-1.07V6.49h1.46Z"/>
        <path id="_패스_770" data-name="패스 770" class="cls-3" d="M67.2,15.16c-.52-.31-.94-.77-1.21-1.31-.29-.61-.44-1.28-.43-1.96-.01-.68,.13-1.36,.43-1.97,.27-.55,.68-1,1.21-1.32,1.12-.62,2.49-.62,3.61,0,.52,.31,.94,.77,1.2,1.32,.29,.62,.43,1.29,.42,1.97,.01,.68-.13,1.35-.42,1.96-.26,.55-.68,1-1.2,1.31-1.12,.62-2.49,.62-3.61,0m2.9-1.06c.3-.24,.53-.56,.66-.92,.29-.84,.29-1.75,0-2.59-.13-.36-.36-.68-.66-.92-.31-.24-.69-.36-1.09-.35-.4-.01-.78,.11-1.1,.35-.3,.24-.54,.56-.67,.92-.3,.84-.3,1.75,0,2.59,.13,.36,.36,.68,.67,.92,.32,.23,.71,.35,1.1,.34,.39,.01,.77-.11,1.09-.34"/>
        <path id="_패스_771" data-name="패스 771" class="cls-3" d="M73.87,8.22h1.4v1.16h.08c.12-.38,.37-.71,.7-.93,.34-.23,.74-.35,1.14-.35,.21,0,.42,.01,.62,.04v1.36c-.08-.02-.2-.04-.34-.06-.14-.02-.28-.03-.42-.03-.31,0-.62,.07-.89,.21-.26,.14-.47,.34-.63,.59-.15,.25-.23,.54-.23,.84v4.42h-1.44v-7.25Z"/>
        <path id="_패스_772" data-name="패스 772" class="cls-3" d="M79.98,15.16c-.53-.3-.95-.76-1.22-1.3-.3-.61-.44-1.28-.43-1.96-.01-.68,.13-1.36,.43-1.97,.26-.55,.68-1.01,1.19-1.33,.54-.32,1.16-.48,1.78-.47,.56,0,1.12,.12,1.63,.38,.51,.27,.92,.69,1.19,1.2,.32,.64,.47,1.35,.45,2.07v.5h-5.85v-1.07h4.44c0-.34-.07-.68-.23-.98-.15-.29-.37-.52-.65-.69-.29-.17-.62-.25-.96-.25-.36,0-.72,.09-1.04,.28-.3,.18-.53,.45-.69,.76-.16,.31-.25,.66-.25,1.02v.83c-.01,.42,.08,.84,.26,1.23,.16,.33,.42,.6,.73,.78,.33,.18,.7,.28,1.08,.27,.24,0,.48-.04,.71-.11,.19-.06,.38-.16,.54-.28,.14-.11,.26-.24,.35-.4h1.47c-.11,.39-.31,.74-.58,1.03-.3,.31-.66,.54-1.06,.69-.46,.17-.94,.25-1.43,.24-.65,.02-1.29-.14-1.86-.46"/>
      </g>
    </g>
  </g>
</svg>