<?xml version="1.0" encoding="UTF-8"?>
<svg id="_레이어_1" data-name="레이어 1" xmlns="http://www.w3.org/2000/svg" xmlns:xlink="http://www.w3.org/1999/xlink" viewBox="0 0 96 20">
  <defs>
    <style>
      .cls-1 {
        fill: none;
      }

      .cls-2 {
        clip-path: url(#clippath);
      }

      .cls-3 {
        fill: #1a1311;
      }

      .cls-4 {
        clip-path: url(#clippath-1);
      }
    </style>
    <clipPath id="clippath">
      <rect class="cls-1" width="96" height="20"/>
    </clipPath>
    <clipPath id="clippath-1">
      <path class="cls-1" d="M.41,.93V19.25c0,.39,.32,.56,.71,.34l8.24-4.6,4.18-2.33,4.01-2.24c.47-.26,.42-.62,.03-.83s-4.04-2.26-4.04-2.26l-4.18-2.33L1.3,.51c-.12-.07-.26-.11-.41-.12-.26,0-.48,.2-.49,.47,0,.03,0,.05,0,.08"/>
    </clipPath>
  </defs>
  <g id="_그룹_144" data-name="그룹 144">
    <g id="_그룹_141" data-name="그룹 141">
      <g class="cls-2">
        <g id="_그룹_140" data-name="그룹 140">
          <path id="_패스_750" data-name="패스 750" class="cls-3" d="M28.58,6.97c-.24-.27-.53-.48-.86-.63-.36-.15-.75-.23-1.15-.22-.53,0-1.05,.14-1.5,.42-.46,.3-.82,.73-1.04,1.23-.27,.61-.4,1.28-.38,1.95-.02,.67,.11,1.33,.39,1.94,.23,.5,.59,.93,1.06,1.23,.9,.53,2,.57,2.93,.11,.39-.2,.71-.52,.92-.9,.22-.42,.34-.89,.33-1.36l.39,.07h-2.8v-1.2h3.87v1.09c.02,.73-.16,1.45-.52,2.08-.34,.59-.84,1.07-1.45,1.38-1.42,.69-3.08,.64-4.45-.12-.68-.41-1.22-1-1.56-1.71-.38-.81-.57-1.71-.55-2.61-.02-.9,.17-1.8,.56-2.61,.34-.71,.88-1.3,1.55-1.71,.69-.41,1.48-.61,2.27-.6,.66,0,1.31,.13,1.92,.4,.56,.25,1.06,.63,1.44,1.12,.37,.48,.62,1.04,.72,1.64h-1.53c-.11-.36-.29-.69-.54-.98"/>
          <path id="_패스_751" data-name="패스 751" class="cls-3" d="M33.61,14.18c-.52-.31-.94-.76-1.21-1.3-.29-.6-.44-1.27-.43-1.94-.01-.67,.13-1.34,.43-1.95,.27-.54,.69-.99,1.21-1.3,1.13-.62,2.49-.62,3.62,0,.52,.31,.94,.76,1.2,1.3,.29,.61,.43,1.28,.42,1.95,.01,.67-.13,1.34-.42,1.94-.26,.54-.68,.99-1.2,1.3-1.13,.62-2.49,.62-3.62,0m2.9-1.05c.3-.23,.53-.55,.66-.91,.29-.83,.29-1.74,0-2.57-.13-.36-.36-.68-.66-.92-.31-.23-.7-.35-1.09-.34-.39-.01-.78,.11-1.1,.34-.3,.24-.54,.55-.67,.92-.3,.83-.3,1.74,0,2.57,.13,.36,.36,.68,.67,.91,.32,.23,.71,.35,1.1,.34,.39,.01,.77-.11,1.09-.34"/>
          <path id="_패스_752" data-name="패스 752" class="cls-3" d="M41.58,14.18c-.52-.31-.94-.76-1.21-1.3-.29-.6-.44-1.27-.43-1.94-.01-.67,.13-1.34,.43-1.95,.27-.54,.69-.99,1.21-1.3,1.13-.62,2.49-.62,3.62,0,.52,.31,.94,.76,1.2,1.3,.29,.61,.43,1.28,.42,1.95,.01,.67-.13,1.34-.42,1.94-.26,.54-.68,.99-1.2,1.3-1.13,.62-2.49,.62-3.62,0m2.9-1.05c.3-.23,.53-.55,.66-.91,.29-.83,.29-1.74,0-2.57-.13-.36-.36-.68-.66-.92-.31-.23-.7-.35-1.09-.34-.39-.01-.78,.11-1.1,.34-.3,.24-.54,.55-.67,.92-.3,.83-.3,1.74,0,2.57,.13,.36,.36,.68,.67,.91,.32,.23,.71,.35,1.1,.34,.39,.01,.77-.11,1.09-.34"/>
          <path id="_패스_753" data-name="패스 753" class="cls-3" d="M49.71,17.09c-.43-.14-.81-.4-1.11-.74-.27-.32-.44-.72-.47-1.15h1.47c.06,.32,.27,.6,.56,.76,.37,.19,.79,.27,1.2,.25,.49,.03,.98-.1,1.38-.39,.34-.3,.53-.75,.49-1.21v-1.41h-.09l-.03,.04c-.12,.2-.26,.39-.42,.56-.19,.18-.41,.32-.66,.42-.33,.13-.68,.19-1.03,.18-.55,0-1.1-.14-1.58-.42-.48-.29-.86-.72-1.1-1.22-.28-.6-.42-1.26-.4-1.93-.02-.67,.12-1.33,.4-1.93,.24-.51,.62-.95,1.1-1.24,.48-.29,1.03-.44,1.59-.43,.34,0,.68,.05,1,.18,.24,.1,.46,.24,.64,.42,.16,.18,.31,.37,.44,.57,.02,.03,.04,.06,.05,.09h.09v-1.16h1.42v7.35c.05,1.06-.6,2.04-1.6,2.39-.55,.21-1.13,.31-1.72,.3-.55,0-1.1-.08-1.62-.26m2.65-4.15c.29-.2,.52-.48,.65-.81,.16-.4,.23-.83,.22-1.26,0-.44-.07-.88-.22-1.29-.13-.34-.36-.64-.65-.85-.31-.21-.67-.31-1.05-.3-.38-.01-.75,.1-1.06,.31-.3,.22-.52,.52-.65,.87-.15,.4-.23,.83-.22,1.26,0,.42,.07,.85,.22,1.24,.26,.7,.95,1.16,1.71,1.12,.37,.01,.73-.09,1.05-.28"/>
          <rect id="_사각형_188" data-name="사각형 188" class="cls-3" x="56.42" y="4.92" width="1.44" height="9.58"/>
          <path id="_패스_754" data-name="패스 754" class="cls-3" d="M60.93,14.19c-.52-.3-.95-.75-1.22-1.29-.3-.6-.44-1.27-.43-1.94-.01-.68,.13-1.34,.43-1.95,.26-.55,.68-1,1.19-1.32,.54-.32,1.16-.48,1.78-.47,.56,0,1.12,.12,1.63,.37,.51,.26,.92,.68,1.19,1.18,.32,.63,.47,1.34,.45,2.05v.5h-5.86v-1.06h4.44c0-.34-.07-.67-.23-.97-.15-.28-.37-.52-.65-.68-.29-.17-.63-.25-.96-.24-.73-.02-1.4,.38-1.73,1.03-.16,.31-.25,.66-.25,1.01v.82c-.01,.42,.08,.84,.26,1.21,.16,.32,.42,.59,.73,.77,.33,.18,.7,.28,1.08,.27,.24,0,.48-.04,.71-.11,.19-.06,.38-.16,.54-.28,.14-.11,.26-.24,.35-.4h1.47c-.11,.38-.31,.74-.58,1.02-.3,.3-.66,.54-1.06,.68-.46,.17-.94,.25-1.43,.24-.65,.02-1.29-.14-1.86-.46"/>
          <path id="_패스_755" data-name="패스 755" class="cls-3" d="M70.89,4.92h3.49c.65-.02,1.29,.12,1.88,.4,.49,.24,.89,.63,1.15,1.1,.26,.5,.39,1.05,.38,1.61,.01,.56-.12,1.11-.39,1.6-.26,.48-.67,.86-1.15,1.11-.58,.28-1.23,.42-1.88,.4h-2.41v-1.23h2.27c.4,.01,.8-.07,1.17-.24,.29-.14,.52-.37,.67-.66,.29-.62,.29-1.33,0-1.95-.15-.28-.38-.51-.67-.65-.37-.17-.77-.25-1.17-.23h-1.85V14.5h-1.49V4.92Z"/>
          <rect id="_사각형_189" data-name="사각형 189" class="cls-3" x="79.24" y="4.92" width="1.44" height="9.58"/>
          <path id="_패스_756" data-name="패스 756" class="cls-3" d="M86.38,11.28c-.11,0-.27,.02-.49,.04-.3,.01-.59,.03-.85,.05-.4,0-.79,.12-1.13,.33-.26,.18-.42,.48-.41,.79,0,.21,.06,.41,.18,.57,.13,.16,.3,.28,.49,.35,.23,.08,.48,.12,.72,.11,.34,0,.69-.07,.99-.22,.27-.13,.5-.34,.66-.59,.15-.24,.23-.52,.23-.81v-2.26c0-.24-.06-.49-.17-.7-.12-.2-.29-.35-.5-.44-.26-.11-.54-.16-.83-.15-.35-.02-.71,.07-1.01,.25-.25,.15-.43,.39-.5,.67h-1.45c.04-.39,.2-.76,.46-1.06,.28-.33,.64-.58,1.05-.73,.48-.18,.99-.27,1.5-.26,.46,0,.92,.07,1.36,.21,.43,.14,.81,.41,1.09,.77,.32,.45,.47,.99,.44,1.53v4.77h-1.4v-.99h-.05c-.18,.34-.46,.62-.79,.81-.42,.24-.9,.35-1.39,.34-.44,0-.87-.09-1.27-.26-.36-.16-.67-.42-.89-.75-.22-.35-.34-.76-.32-1.17-.06-.63,.24-1.25,.77-1.59,.6-.34,1.28-.53,1.98-.56,.22-.02,.46-.04,.73-.05l.79-.04h.5s.01,1.01,.01,1.01l-.49,.03"/>
          <path id="_패스_757" data-name="패스 757" class="cls-3" d="M89.81,17.17v-1.19c.09,0,.31,.02,.65,.03,.16,0,.31-.02,.46-.06,.14-.05,.27-.13,.36-.25,.15-.19,.26-.41,.33-.64l.19-.46-2.7-7.29h1.56l1.85,5.57h.08l1.86-5.57h1.56l-3.04,8.14c-.17,.51-.49,.96-.91,1.3-.43,.3-.95,.46-1.48,.44-.39,0-.65-.02-.77-.03"/>
        </g>
      </g>
    </g>
    <g id="_그룹_143" data-name="그룹 143">
      <g class="cls-4">
        <g id="_그룹_142" data-name="그룹 142">
          <path id="_패스_758" data-name="패스 758" class="cls-3" d="M.41,.65V19.83L9.53,10.24,.41,.65Z"/>
          <path id="_패스_759" data-name="패스 759" class="cls-3" d="M12.98,7.01l-4.13-2.23L0,.01V.08L10.23,9.56l2.75-2.55Z"/>
          <path id="_패스_760" data-name="패스 760" class="cls-3" d="M.64,19.92v.07l8.18-4.6,3.82-2.15-2.54-2.46L.64,19.92Z"/>
          <path id="_패스_761" data-name="패스 761" class="cls-3" d="M13.52,7.24l-2.81,2.9,2.78,2.93,4.81-2.89-4.77-2.94Z"/>
        </g>
      </g>
    </g>
  </g>
</svg>