<?xml version="1.0" encoding="UTF-8"?>
<svg id="_레이어_1" data-name="레이어 1" xmlns="http://www.w3.org/2000/svg" xmlns:xlink="http://www.w3.org/1999/xlink" viewBox="0 0 102 22">
  <defs>
    <style>
      .cls-1 {
        fill: none;
      }

      .cls-2 {
        clip-path: url(#clippath);
      }

      .cls-3 {
        fill: #222;
      }

      .cls-4 {
        fill-rule: evenodd;
      }
    </style>
    <clipPath id="clippath">
      <rect class="cls-1" y="0" width="102" height="22"/>
    </clipPath>
  </defs>
  <g id="_그룹_4" data-name="그룹 4">
    <g class="cls-2">
      <g id="_그룹_3" data-name="그룹 3">
        <path id="_패스_9" data-name="패스 9" class="cls-4" d="M0,3.01C.03,1.32,1.44-.03,3.14,0c1.7-.03,3.1,1.32,3.14,3.01V11.69L17.48,.93c1.25-1.18,3.19-1.18,4.44,0,1.18,1.11,1.23,2.96,.12,4.14-.04,.04-.08,.08-.12,.12l-6.04,5.8,6,5.76c1.18,1.11,1.23,2.96,.12,4.14-.04,.04-.08,.08-.12,.12-1.25,1.18-3.19,1.18-4.44,0l-6.01-5.76-6,5.76c-.26,.25-.57,.46-.91,.61-.44,.21-.92,.32-1.4,.31-1.7,.03-3.1-1.32-3.13-3.01V3.01Z"/>
        <path id="_패스_10" data-name="패스 10" class="cls-3" d="M70.05,21.93V0h3.92V8.06h3.12v3.6h-3.12v10.27h-3.92Z"/>
        <path id="_패스_11" data-name="패스 11" class="cls-3" d="M63.08,13.5V4.21h-9.82V.89h13.74V13.5h-3.92Z"/>
        <path id="_패스_12" data-name="패스 12" class="cls-3" d="M66.14,16.91h-5.52v-7.63h-3.97v7.63h-4.6v3.33h14.09c1.07,0,2.11-.33,2.97-.96,.35-.26,.67-.56,.94-.9v-3.33c-.95,1.18-2.38,1.87-3.9,1.86h0Z"/>
        <rect id="_사각형_4" data-name="사각형 4" class="cls-3" x="97.34" y="0" width="3.92" height="21.93"/>
        <path id="_패스_13" data-name="패스 13" class="cls-3" d="M95.41,7.14h0c0-.12,0-.24,0-.35,0-.05,0-.1-.01-.16s0-.12-.01-.18-.01-.14-.02-.21c0-.03,0-.07-.01-.1-.36-2.59-2.2-4.73-4.71-5.46h-.01c-.11-.04-.22-.07-.34-.1-.09-.03-.19-.05-.28-.08-.02,0-.05-.01-.07-.02l-.22-.06h-.01c-.7-.15-1.41-.22-2.12-.22-.62,0-1.23,.05-1.84,.16h-.01c-.11,.02-.21,.04-.31,.06h-.01c-2.65,.46-4.79,2.43-5.46,5.04,0,.03-.01,.06-.02,.08-.01,.07-.03,.14-.04,.21,0,.04-.02,.09-.02,.13-.01,.06-.02,.12-.03,.19s-.01,.11-.02,.17-.01,.11-.02,.17-.01,.14-.02,.21c0,.05,0,.09-.01,.14,0,.11,0,.23,0,.34v.03c0,.11,0,.23,0,.34,0,.05,0,.09,.01,.14,0,.07,.01,.14,.02,.21s.01,.11,.02,.17,.01,.11,.02,.17,.02,.12,.03,.19c0,.04,.01,.09,.02,.13,.01,.07,.03,.14,.04,.21,0,.03,.01,.06,.02,.08,.67,2.61,2.81,4.58,5.46,5.04h.01c.1,.02,.21,.04,.31,.06h.01c.61,.11,1.23,.17,1.84,.17,.71,0,1.42-.07,2.12-.22h.01l.22-.05s.05-.01,.07-.02c.1-.02,.19-.05,.28-.08,.11-.03,.23-.07,.34-.1h.02c2.51-.74,4.35-2.88,4.71-5.47,0-.03,0-.07,.01-.1,0-.07,.01-.14,.02-.21s.01-.12,.01-.17,0-.1,.01-.16c0-.11,0-.22,0-.33h0s0-.01,0-.01Zm-7.83,3.6c-2.01,.15-3.76-1.36-3.91-3.37,0-.08,0-.15,0-.23-.18-2.16,1.42-4.06,3.59-4.25s4.06,1.42,4.25,3.59c.18,2.16-1.42,4.06-3.59,4.25-.11,0-.22,.01-.33,.01"/>
        <path id="_패스_14" data-name="패스 14" class="cls-3" d="M85.74,11.2v5.7h-6.95v3.33h15.05c.91,0,1.8-.24,2.57-.7,.14-.08,.27-.17,.4-.26,.35-.26,.67-.56,.94-.9v-3.33c-.95,1.18-2.39,1.87-3.91,1.86h-4.12v-5.7h-3.97Z"/>
        <path id="_패스_15" data-name="패스 15" class="cls-3" d="M41.65,3.67c0,5.76-6.47,8.14-14.42,8.14v-3.29c5.5-.05,10.21-1.57,10.21-3.9v-.65h-10.21V.7h14.42V3.67Z"/>
        <path id="_패스_16" data-name="패스 16" class="cls-3" d="M28.45,21.93h20.2V12.92H28.45v9.01Zm16.41-3.16h-12.62v-2.68h12.62v2.68Z"/>
        <rect id="_사각형_5" data-name="사각형 5" class="cls-3" x="44.73" y="0" width="3.92" height="11.85"/>
      </g>
    </g>
  </g>
</svg>