<?xml version="1.0" encoding="UTF-8"?>
<svg id="Capa_1" data-name="Capa 1" xmlns="http://www.w3.org/2000/svg" xmlns:xlink="http://www.w3.org/1999/xlink" viewBox="0 0 132.35 149.99">
  <defs>
    <style>
      .cls-1 {
        fill: #674928;
      }

      .cls-2 {
        fill: #c19519;
      }

      .cls-3 {
        fill: #ebc220;
      }

      .cls-4 {
        clip-path: url(#clippath);
      }

      .cls-5 {
        fill: #c6dae5;
      }

      .cls-6 {
        fill: none;
      }

      .cls-7 {
        fill: #462c17;
      }
    </style>
    <clipPath id="clippath">
      <rect class="cls-6" x=".14" y="38.98" width="132.06" height="72.03" transform="translate(-32.76 89.64) rotate(-56.99)"/>
    </clipPath>
  </defs>
  <g id="_그룹_678" data-name="그룹 678">
    <g class="cls-4">
      <g id="_그룹_675" data-name="그룹 675">
        <path id="_패스_1520" data-name="패스 1520" class="cls-5" d="m99.28,24.03c-3.46-2.26-7.34-3.78-11.41-4.47-3.94-.68-7.98-.57-11.88.3-3.93.87-7.66,2.48-10.98,4.76-6.97,4.8-11.75,12.16-13.3,20.47-.73,3.96-.69,8.02.11,11.96.79,3.92,2.34,7.65,4.56,10.98,4.64,6.93,11.92,11.66,20.14,13.08,3.94.68,7.98.58,11.88-.3,3.93-.87,7.66-2.48,10.98-4.76,6.97-4.8,11.75-12.16,13.3-20.47.73-3.96.7-8.02-.11-11.97-.79-3.92-2.34-7.65-4.56-10.98-2.29-3.43-5.26-6.36-8.73-8.61"/>
        <rect id="_사각형_652" data-name="사각형 652" class="cls-3" x="29.25" y="121.9" width="4.21" height="13.41" transform="translate(-93.58 84.84) rotate(-56.99)"/>
        <rect id="_사각형_653" data-name="사각형 653" class="cls-3" x="57.65" y="78.17" width="4.21" height="13.41" transform="translate(-43.97 88.75) rotate(-56.99)"/>
        <rect id="_사각형_654" data-name="사각형 654" class="cls-1" x="21.58" y="101.53" width="47.94" height="10.42" transform="translate(-68.77 86.8) rotate(-56.99)"/>
        <rect id="_사각형_655" data-name="사각형 655" class="cls-1" x="59.75" y="78.55" width="5.07" height="4.88" transform="translate(-39.56 89.1) rotate(-56.99)"/>
        <path id="_패스_1521" data-name="패스 1521" class="cls-3" d="m99.31,23.98c-3.46-2.26-7.35-3.78-11.43-4.48-3.95-.68-7.99-.58-11.9.3-3.94.87-7.67,2.49-10.99,4.77-6.98,4.8-11.77,12.18-13.32,20.51-.73,3.96-.69,8.03.11,11.98.79,3.93,2.34,7.66,4.57,11,4.65,6.94,11.94,11.68,20.17,13.1,3.95.68,7.99.58,11.9-.3,3.94-.87,7.67-2.49,10.99-4.77,6.98-4.8,11.77-12.18,13.32-20.51.73-3.96.69-8.03-.11-11.98-.79-3.93-2.34-7.66-4.57-11-2.29-3.44-5.27-6.38-8.74-8.62m-37.06,57.05c-4.05-2.62-7.52-6.04-10.19-10.05-2.59-3.88-4.4-8.24-5.33-12.82-.94-4.6-.99-9.35-.13-13.97,1.81-9.71,7.39-18.31,15.53-23.91,3.87-2.66,8.22-4.55,12.81-5.56,4.56-1.02,9.27-1.13,13.87-.34,9.6,1.66,18.1,7.18,23.51,15.27,2.59,3.88,4.4,8.24,5.33,12.82.94,4.6.99,9.35.13,13.97-1.81,9.71-7.39,18.31-15.53,23.91-3.87,2.66-8.22,4.55-12.81,5.56-4.56,1.02-9.27,1.13-13.87.34-4.75-.81-9.29-2.59-13.33-5.22"/>
        <rect id="_사각형_656" data-name="사각형 656" class="cls-2" x="32.06" y="127.08" width="4.21" height="6.7" transform="translate(-93.83 88.03) rotate(-56.99)"/>
        <path id="_패스_1522" data-name="패스 1522" class="cls-2" d="m66.52,86.76l-5.62-3.65-2.29,3.53,5.62,3.65,2.29-3.53Z"/>
        <rect id="_사각형_657" data-name="사각형 657" class="cls-7" x="23.77" y="105.55" width="47.94" height="5.21" transform="translate(-68.97 89.27) rotate(-56.99)"/>
        <path id="_패스_1523" data-name="패스 1523" class="cls-7" d="m64.33,82.31c-.71-.39-1.4-.81-2.09-1.26l-1.34,2.07,2.04,1.33,1.39-2.14Z"/>
        <path id="_패스_1524" data-name="패스 1524" class="cls-2" d="m102.14,19.62l-2.83,4.36c3.47,2.25,6.44,5.18,8.74,8.62,2.22,3.33,3.78,7.07,4.57,11,.81,3.95.85,8.02.11,11.98-1.55,8.33-6.34,15.7-13.32,20.51-3.32,2.28-7.06,3.9-10.99,4.77-3.91.87-7.95.97-11.9.3-4.08-.7-7.96-2.22-11.43-4.48l-2.83,4.36c.69.45,1.38.86,2.09,1.26,3.49,1.95,7.29,3.29,11.24,3.96,4.6.79,9.31.68,13.87-.33,4.59-1.01,8.94-2.9,12.82-5.55,8.14-5.6,13.73-14.2,15.53-23.91.85-4.62.81-9.36-.14-13.97-.92-4.58-2.73-8.93-5.32-12.82-2.67-4.01-6.14-7.43-10.19-10.05"/>
      </g>
    </g>
  </g>
</svg>