<?xml version="1.0" encoding="UTF-8"?>
<svg id="Capa_1" data-name="Capa 1" xmlns="http://www.w3.org/2000/svg" viewBox="0 0 170.61 26.97">
  <defs>
    <style>
      .cls-1 {
        fill: #f5c51d;
      }
    </style>
  </defs>
  <path id="_패스_1535" data-name="패스 1535" class="cls-1" d="m11.78,1.31c.27-.95,1.25-1.51,2.21-1.24.6.17,1.07.64,1.24,1.24l1.94,6.25c.23.76.93,1.29,1.73,1.3h6.29c1.06.05,1.87.95,1.82,2.01-.03.56-.3,1.09-.75,1.43l-5.08,3.85c-.64.5-.9,1.34-.66,2.12l1.93,6.24c.35.95-.15,2-1.1,2.35-.57.21-1.2.12-1.69-.23l-5.09-3.85c-.63-.48-1.5-.48-2.13,0l-5.08,3.85c-.82.59-1.97.4-2.56-.42-.35-.49-.44-1.13-.23-1.69l1.94-6.24c.24-.77-.02-1.62-.66-2.12L.75,12.3c-.84-.64-1-1.84-.36-2.68.34-.45.87-.72,1.43-.75h6.29c.8,0,1.5-.54,1.73-1.3l1.94-6.25Z"/>
  <path id="_패스_1536" data-name="패스 1536" class="cls-1" d="m47.68,1.31c.27-.95,1.25-1.51,2.21-1.24.6.17,1.07.64,1.24,1.24l1.94,6.25c.23.76.93,1.29,1.73,1.3h6.29c1.06.05,1.87.95,1.82,2.01-.03.56-.3,1.09-.75,1.43l-5.08,3.85c-.64.5-.9,1.34-.66,2.12l1.93,6.24c.35.95-.15,2-1.1,2.35-.57.21-1.2.12-1.69-.23l-5.09-3.85c-.63-.48-1.5-.48-2.13,0l-5.08,3.85c-.82.59-1.97.4-2.56-.42-.35-.49-.44-1.13-.23-1.69l1.94-6.24c.24-.77-.02-1.62-.66-2.12l-5.09-3.85c-.84-.64-1-1.84-.36-2.68.34-.45.87-.72,1.43-.75h6.29c.8,0,1.5-.54,1.73-1.3l1.94-6.25Z"/>
  <path id="_패스_1537" data-name="패스 1537" class="cls-1" d="m83.58,1.31c.27-.95,1.25-1.51,2.21-1.24.6.17,1.07.64,1.24,1.24l1.94,6.25c.23.76.93,1.29,1.73,1.3h6.29c1.06.05,1.87.95,1.82,2.01-.03.56-.3,1.09-.75,1.43l-5.08,3.85c-.64.5-.9,1.34-.66,2.12l1.93,6.24c.35.95-.15,2-1.1,2.35-.57.21-1.2.12-1.69-.23l-5.09-3.85c-.63-.48-1.5-.48-2.13,0l-5.08,3.85c-.82.59-1.97.4-2.56-.42-.35-.49-.44-1.13-.23-1.69l1.94-6.24c.24-.77-.02-1.62-.66-2.12l-5.09-3.85c-.84-.64-1-1.84-.36-2.68.34-.45.87-.72,1.43-.75h6.29c.8,0,1.5-.54,1.73-1.3l1.94-6.25Z"/>
  <path id="_패스_1538" data-name="패스 1538" class="cls-1" d="m119.48,1.31c.27-.95,1.25-1.51,2.21-1.24.6.17,1.07.64,1.24,1.24l1.94,6.25c.23.76.93,1.29,1.73,1.3h6.29c1.06.05,1.87.95,1.82,2.01-.03.56-.3,1.09-.75,1.43l-5.08,3.85c-.64.5-.9,1.34-.66,2.12l1.93,6.24c.35.95-.15,2-1.1,2.35-.57.21-1.2.12-1.69-.23l-5.09-3.85c-.63-.48-1.5-.48-2.13,0l-5.08,3.85c-.82.59-1.97.4-2.56-.42-.35-.49-.44-1.13-.23-1.69l1.94-6.24c.24-.77-.02-1.62-.66-2.12l-5.09-3.85c-.84-.64-1-1.84-.36-2.68.34-.45.87-.72,1.43-.75h6.29c.8,0,1.5-.54,1.73-1.3l1.94-6.25Z"/>
  <path id="_패스_1539" data-name="패스 1539" class="cls-1" d="m155.38,1.31c.27-.95,1.25-1.51,2.21-1.24.6.17,1.07.64,1.24,1.24l1.94,6.25c.23.76.93,1.29,1.73,1.3h6.29c1.06.05,1.87.95,1.82,2.01-.03.56-.3,1.09-.75,1.43l-5.08,3.85c-.64.5-.9,1.34-.66,2.12l1.93,6.24c.35.95-.15,2-1.1,2.35-.57.21-1.2.12-1.69-.23l-5.09-3.85c-.63-.48-1.5-.48-2.13,0l-5.08,3.85c-.82.59-1.97.4-2.56-.42-.35-.49-.44-1.13-.23-1.69l1.94-6.24c.24-.77-.02-1.62-.66-2.12l-5.09-3.85c-.84-.64-1-1.84-.36-2.68.34-.45.87-.72,1.43-.75h6.29c.8,0,1.5-.54,1.73-1.3l1.94-6.25Z"/>
</svg>