<?xml version="1.0" encoding="UTF-8"?>
<svg id="_레이어_2" data-name="레이어 2" xmlns="http://www.w3.org/2000/svg" xmlns:xlink="http://www.w3.org/1999/xlink" viewBox="0 0 742 587">
  <defs>
    <style>
      .cls-1, .cls-2 {
        fill: none;
      }

      .cls-3 {
        clip-path: url(#clippath);
      }

      .cls-4 {
        fill: gold;
      }

      .cls-5 {
        fill: #a6a6a6;
      }

      .cls-2 {
        stroke: #000;
        stroke-miterlimit: 10;
      }
    </style>
    <clipPath id="clippath">
      <rect class="cls-1" width="742" height="586.74"/>
    </clipPath>
  </defs>
  <g id="_레이어_1-2" data-name="레이어 1">
    <g id="_그룹_186" data-name="그룹 186">
      <g id="_그룹_183" data-name="그룹 183">
        <g class="cls-3">
          <g id="_그룹_182" data-name="그룹 182">
            <path id="_패스_270" data-name="패스 270" class="cls-5" d="M371.55,33.84c-27.5-.02-49.82,22.04-49.84,49.28s22.26,49.34,49.76,49.36,49.82-22.04,49.84-49.28v-.04c.01-27.23-22.27-49.31-49.76-49.32h0m0,73.75c-13.49-.12-24.33-11.15-24.21-24.64s11.15-24.33,24.64-24.21c13.4,.12,24.2,11.01,24.21,24.4v.02c-.06,13.55-11.09,24.48-24.64,24.42h0"/>
            <path id="_패스_271" data-name="패스 271" class="cls-5" d="M381.39,49.35h0c-6.8-2.28-10.46-9.64-8.17-16.44,.01-.03,.02-.06,.03-.1l8.44-24.3c2.41-6.81,9.85-10.41,16.68-8.06,6.79,2.28,10.45,9.63,8.17,16.42-.01,.03-.02,.07-.04,.1h0l-8.44,24.3c-2.4,6.81-9.84,10.41-16.67,8.07h0"/>
            <path id="_패스_272" data-name="패스 272" class="cls-4" d="M164.38,218.96c.2,22.29-17.72,40.53-40.01,40.72-22.29,.2-40.53-17.72-40.72-40.01-.2-22.29,17.72-40.53,40.01-40.72,.12,0,.24,0,.36,0,22.19-.11,40.26,17.8,40.37,39.99,0,0,0,.02,0,.03"/>
            <line id="_선_50" data-name="선 50" class="cls-1" x1="141.11" y1="13.72" x2="4.88" y2="233.04"/>
            <line id="_선_51" data-name="선 51" class="cls-2" x1="141.11" y1="13.72" x2="4.88" y2="233.04"/>
            <line id="_선_52" data-name="선 52" class="cls-1" x1="119.85" y1="23.3" x2="256.09" y2="242.62"/>
            <line id="_선_53" data-name="선 53" class="cls-2" x1="119.85" y1="23.3" x2="256.09" y2="242.62"/>
            <path id="_패스_273" data-name="패스 273" class="cls-4" d="M687.65,398.48c-.03,41.36-33.92,74.87-75.68,74.83s-75.59-33.59-75.56-74.96c.03-41.34,33.88-74.83,75.62-74.83,41.78,.02,75.64,33.58,75.62,74.96h0"/>
            <line id="_선_54" data-name="선 54" class="cls-1" x1="610.56" y1="166.28" x2="485.07" y2="446.81"/>
            <line id="_선_55" data-name="선 55" class="cls-2" x1="610.56" y1="166.28" x2="485.07" y2="446.81"/>
            <line id="_선_56" data-name="선 56" class="cls-1" x1="610.56" y1="166.28" x2="736.06" y2="446.81"/>
            <line id="_선_57" data-name="선 57" class="cls-2" x1="610.56" y1="166.28" x2="736.06" y2="446.81"/>
            <path id="_패스_274" data-name="패스 274" class="cls-5" d="M346.91,83.15c0-4.63,1.32-9.16,3.83-13.06L105.53,3.83c-6.72-1.83-13.66,2.1-15.54,8.8-1.81,6.67,2.13,13.55,8.8,15.36,.03,0,.05,.01,.08,.02l251.75,68.02c-2.43-3.86-3.72-8.33-3.71-12.89"/>
            <path id="_패스_275" data-name="패스 275" class="cls-5" d="M642.59,148.96l-246.42-66.58c0,.26,.02,.52,.02,.79-.01,9.11-5.11,17.46-13.21,21.63l252.95,68.35c6.72,1.8,13.64-2.16,15.49-8.87,1.78-6.67-2.18-13.52-8.84-15.31"/>
            <rect id="_사각형_99" data-name="사각형 99" x="18.4" y="256.98" width="220.29" height="15.32"/>
            <path id="_패스_276" data-name="패스 276" d="M235.9,271.49h0c4.32,2.07,9.49,.27,11.6-4.02h0s11.16-23.03,11.16-23.03c2.1-4.24,.37-9.39-3.88-11.49-.03-.01-.05-.03-.08-.04-4.3-2.11-9.49-.36-11.65,3.92-.02,.05-.05,.1-.07,.14l-11.16,23.02c-2.06,4.27-.27,9.4,4,11.47,.02,.01,.05,.02,.07,.03"/>
            <path id="_패스_277" data-name="패스 277" d="M23.67,271.49h0c-4.32,2.06-9.49,.27-11.6-4.02h0S.91,244.45,.91,244.45c-2.07-4.26-.28-9.39,3.98-11.46,.03-.01,.06-.03,.08-.04,4.32-2.07,9.5-.27,11.61,4.03l11.17,23.02c2.06,4.27,.27,9.4-4,11.46-.02,.01-.05,.02-.07,.04"/>
            <rect id="_사각형_100" data-name="사각형 100" x="497.64" y="470.56" width="225.8" height="15.32"/>
            <path id="_패스_278" data-name="패스 278" d="M718.33,485.07h0c4.32,2.06,9.49,.27,11.6-4.02h0s11.16-23.03,11.16-23.03c2.1-4.25,.37-9.39-3.88-11.49-.03-.01-.05-.03-.08-.04-4.3-2.1-9.49-.35-11.65,3.92l-.07,.14-11.16,23.02c-2.06,4.27-.27,9.4,4,11.46,.02,.01,.05,.02,.07,.04"/>
            <path id="_패스_279" data-name="패스 279" d="M502.91,485.07h0c-4.32,2.06-9.49,.27-11.6-4.02h0s-11.16-23.03-11.16-23.03c-2.1-4.25-.37-9.39,3.88-11.49,.03-.01,.05-.03,.08-.04,4.3-2.1,9.49-.35,11.64,3.92l.07,.14,11.16,23.02c2.06,4.27,.27,9.4-4,11.46-.02,.01-.05,.02-.07,.04"/>
            <path id="_패스_280" data-name="패스 280" d="M104.08,232.65c-2.25,0-3.72-1.28-3.72-3.5v-.33c0-3.98,.9-5.91,3.72-7.78l4.7-3.09c.76-.44,1.23-1.26,1.23-2.14-.07-1.06-1-1.87-2.06-1.79-.04,0-.08,0-.13,.01-.84,.04-1.64,.39-2.25,.98-.39,.36-.85,.63-1.35,.8-1.01,.32-2.11,.14-2.97-.48-1.01-.93-1.15-2.47-.33-3.56,1.47-2.2,4.52-3.15,7.04-3.15,4.52,0,8.15,2.35,8.15,6.44,.22,2.76-1.17,5.39-3.56,6.77l-3.71,2.35c-1.53,.98-2.16,1.57-2.16,2.67v.21c0,.3,.12,.45,.45,.45h9.23v5.14h-12.28Z"/>
            <path id="_패스_281" data-name="패스 281" d="M126.96,217.24c4.88,0,8.48,2.26,8.48,7.75s-3.92,8.16-8.6,8.16c-2.46,0-5.6-.8-7.01-2.64-.84-1.1-.69-2.66,.33-3.59,.84-.64,1.94-.82,2.94-.5,.49,.19,.95,.46,1.35,.8,.68,.4,1.46,.58,2.25,.54,1.54-.01,2.8-1.22,2.88-2.76,0-1.6-1.35-2.73-3.24-2.73h-2.13c-3.53,0-4.61-1.1-4.4-4.45l.27-4.51c.21-3.35,.84-4.45,4.37-4.45h7.88c1.31,0,2.37,1.05,2.38,2.36h0c0,.08,0,.15-.01,.22,.12,1.25-.8,2.36-2.05,2.48,0,0,0,0,0,0-.1,0-.21,.01-.31,0h-5.9c-.54,0-.72,.06-.75,.62l-.12,2.08c-.03,.56,.18,.62,.72,.62h.68Z"/>
            <path id="_패스_282" data-name="패스 282" d="M139.9,217.63v-1.9c.07-1.96,1.71-3.49,3.67-3.43,1.87,.06,3.37,1.56,3.43,3.43v1.9c-.08,1.96-1.73,3.48-3.69,3.4-1.85-.08-3.33-1.56-3.4-3.4m4.37,.02v-1.93c.03-.45-.31-.83-.76-.86,0,0,0,0,0,0h-.05c-.46,0-.83,.36-.83,.82h0v1.98c-.03,.45,.31,.83,.76,.86,0,0,0,0,0,0h.07c.44,0,.81-.34,.81-.78v-.08m1.97,10.23c-.28,.86-1.16,1.39-2.05,1.23-.66-.19-1.1-.75-.58-1.82l6.86-13.68c.52-1.09,1.35-1.44,2.03-1.23,.64,.19,1.06,.73,.54,1.8l-6.8,13.7Zm3.4-2.13v-1.9c.08-1.96,1.73-3.48,3.69-3.4,1.85,.08,3.33,1.56,3.4,3.4v1.9c-.08,1.96-1.73,3.48-3.69,3.4-1.85-.08-3.33-1.56-3.4-3.4m4.37,.02v-1.93c.03-.45-.31-.83-.75-.86h0s-.06,0-.06,0c-.45,0-.83,.36-.83,.81v1.98c-.03,.45,.31,.83,.76,.86,0,0,0,0,0,0h.07c.44,0,.8-.34,.81-.78v-.08"/>
            <path id="_패스_283" data-name="패스 283" d="M553.78,387.88c0-10.35,8.85-14.54,17.14-14.54s17.14,4.2,17.14,14.54v1.44c-.03,3.41-1.61,6.62-4.3,8.72,3.1,2.19,5.25,5.27,5.25,9.34v2.88c0,10.22-9.36,14.8-18.09,14.8s-18.09-4.58-18.09-14.8v-2.88c.02-3.8,1.97-7.32,5.19-9.34-2.67-2.11-4.23-5.32-4.24-8.72v-1.44Zm22.96,20c0-2.82-3.16-4.64-5.82-4.64s-5.82,1.82-5.82,4.64v2.63c0,2.82,3.16,4.64,5.82,4.64s5.82-1.82,5.82-4.64v-2.63Zm-.82-20.44c0-2.82-2.47-4.27-4.99-4.27s-5,1.44-5,4.27v1.94c0,2.82,2.47,4.26,5,4.26s4.99-1.44,4.99-4.26v-1.94Z"/>
            <path id="_패스_284" data-name="패스 284" d="M594.32,408.38v-18.37c0-11.03,7.72-16.8,17.71-16.8s17.71,5.77,17.71,16.8v18.37c0,11.1-7.72,16.8-17.71,16.8s-17.71-5.7-17.71-16.8m22.7,.88v-20.12c.11-2.76-2.04-5.09-4.8-5.2-2.76-.11-5.09,2.04-5.2,4.8,0,.13,0,.27,0,.4v20.12c0,4.01,2.78,5.27,5,5.27s5-1.26,5-5.27"/>
            <path id="_패스_285" data-name="패스 285" d="M637.58,392.6v-3.96c0-4.64,3.19-7.12,7.43-7.12s7.39,2.48,7.39,7.12v3.96c0,4.68-3.15,7.12-7.39,7.12s-7.43-2.44-7.43-7.12m9.12,.04v-4.04c.06-.93-.64-1.74-1.57-1.8h0s-.08,0-.12,0c-.95,0-1.73,.76-1.74,1.71v4.14c-.06,.94,.65,1.74,1.59,1.8h.15c.92,.02,1.68-.71,1.7-1.64,0-.05,0-.11,0-.16m4.12,21.36c-1.09,2.24-2.87,2.96-4.28,2.56-1.37-.4-2.3-1.56-1.21-3.8l14.33-28.57c1.09-2.28,2.83-3,4.24-2.56,1.33,.4,2.22,1.52,1.13,3.76l-14.21,28.61Zm7.11-4.44v-3.96c0-4.64,3.19-7.12,7.43-7.12s7.39,2.48,7.39,7.12v3.96c0,4.68-3.15,7.12-7.39,7.12s-7.43-2.44-7.43-7.12m9.12,.04v-4.04c.06-.93-.64-1.74-1.57-1.8,0,0,0,0,0,0h-.11c-.95,0-1.73,.76-1.74,1.71h0v4.14c-.06,.94,.65,1.74,1.59,1.8h.15c.92,.02,1.68-.71,1.7-1.64,0-.05,0-.11,0-.16"/>
          </g>
        </g>
      </g>
      <g id="_그룹_184" data-name="그룹 184">
        <path id="_패스_777" data-name="패스 777" d="M556.39,512.31c-2.52,0-2.98-.6-2.98-3.02v-10.71c0-2.42,.46-3,2.98-3h6.25c.79-.01,1.45,.62,1.46,1.41,0,.07,0,.14-.01,.21,.1,.8-.46,1.53-1.26,1.63-.07,0-.13,.01-.2,.01h-4.92c-.35,0-.5,.12-.5,.56v2.83h5.05c.88,.05,1.55,.81,1.5,1.7-.05,.81-.69,1.45-1.5,1.5h-5.05v3.08c0,.45,.16,.56,.5,.56h5.81c.89,.1,1.54,.9,1.44,1.79-.08,.76-.68,1.36-1.44,1.44h-7.14Zm9.6-15.53c-.04-1,.73-1.84,1.73-1.88,.06,0,.12,0,.19,0,1.01-.05,1.87,.73,1.92,1.74,0,.05,0,.1,0,.14v4.9h.66c.93,.09,1.61,.91,1.53,1.84-.08,.81-.72,1.45-1.53,1.53h-.66v8.04h-3.83v-16.31Z"/>
        <path id="_패스_778" data-name="패스 778" d="M575.91,498.88v-1.51c-.04-1,.73-1.84,1.73-1.88,.06,0,.13,0,.19,0,1.02-.04,1.88,.76,1.92,1.78,0,.03,0,.06,0,.09v1.49c0,1.14-.06,2.23-.16,3.23,3.27,1.3,4.88,4.07,4.47,9.89h-3.76c.42-3.1-.06-5.15-1.37-6.25-.83,2.9-2.27,4.92-4.3,6.02-.84,.55-1.94,.46-2.67-.23-.57-.65-.51-1.64,.14-2.21,.05-.04,.1-.08,.15-.12,2.83-1.93,3.66-4.99,3.66-10.32Zm9.47-2.09c-.04-1,.73-1.84,1.73-1.88,.06,0,.13,0,.19,0,1.01-.05,1.87,.73,1.92,1.74,0,.05,0,.1,0,.14v4.9h.64c.93,.09,1.61,.91,1.53,1.84-.08,.81-.72,1.45-1.53,1.53h-.64v8.04h-3.83v-16.31Z"/>
        <path id="_패스_779" data-name="패스 779" d="M607.98,509.04v4.14h-3.95v-4.14h-5.46c-.87,.03-1.6-.65-1.63-1.52-.03-.87,.65-1.6,1.52-1.63,.04,0,.07,0,.11,0h14.87c.87-.03,1.6,.65,1.63,1.52,.03,.87-.65,1.6-1.52,1.63-.04,0-.07,0-.11,0h-5.46Zm-.23-10.84c3.31,.04,6.6,2.17,6.93,6.89h-3.91c-.23-2.24-2.17-3.91-4.41-3.8-1.72,2.32-4.41,3.74-7.3,3.85-.91,.07-1.71-.6-1.8-1.51-.12-.9,.51-1.73,1.42-1.86,0,0,.01,0,.02,0,2.66-.37,4.78-2.41,5.25-5.05,.09-1.06,1.03-1.84,2.09-1.75,.03,0,.06,0,.08,0,1.02,.02,1.83,.85,1.81,1.87,0,.06,0,.12-.01,.18-.02,.39-.07,.78-.15,1.17h0Z"/>
        <path id="_패스_780" data-name="패스 780" d="M627.34,509.04v4.14h-3.95v-4.14h-5.46c-.87,.03-1.6-.65-1.63-1.52-.03-.87,.65-1.6,1.52-1.63,.04,0,.07,0,.11,0h14.87c.87-.03,1.6,.65,1.63,1.52,.03,.87-.65,1.6-1.52,1.63-.04,0-.07,0-.11,0h-5.46Zm-.23-10.84c3.31,.04,6.6,2.17,6.93,6.89h-3.91c-.23-2.24-2.17-3.91-4.41-3.8-1.72,2.32-4.41,3.74-7.3,3.85-.91,.07-1.71-.6-1.8-1.51-.12-.9,.51-1.74,1.42-1.86,0,0,0,0,.01,0,2.66-.37,4.78-2.41,5.25-5.05,.09-1.06,1.03-1.84,2.09-1.75,.03,0,.06,0,.08,0,1.02,.02,1.83,.85,1.81,1.87,0,.06,0,.12-.01,.18-.02,.39-.07,.78-.15,1.17h0Z"/>
        <path id="_패스_781" data-name="패스 781" d="M639.36,509.6v-2.87c-1.69-.1-2.97-1.55-2.87-3.24,0-.01,0-.02,0-.03v-.39c0-1.9,1.16-3.41,3.72-3.41h8.46v-.58c0-.25-.08-.54-.52-.54h-10.05c-.84-.02-1.51-.72-1.49-1.57,.02-.81,.68-1.47,1.49-1.49h11.09c2.67,0,3.43,1.22,3.43,3.06v4.14h-11.4c-.48,0-.7,.17-.7,.54v.08c0,.37,.21,.54,.7,.54h10.28c.77-.05,1.44,.53,1.49,1.3,0,.06,0,.13,0,.19,.05,.75-.52,1.41-1.28,1.45-.07,0-.14,0-.21,0h-1.38v2.81h2.03c.86-.03,1.58,.64,1.61,1.49s-.64,1.58-1.49,1.61c-.04,0-.07,0-.11,0h-14.87c-.86,.03-1.58-.64-1.61-1.49s.64-1.58,1.49-1.61c.04,0,.07,0,.11,0h2.07Zm3.82,0h3.14v-2.81h-3.14v2.81Z"/>
      </g>
      <g id="_그룹_185" data-name="그룹 185">
        <path id="_패스_782" data-name="패스 782" d="M70.78,284.79v-.1c0-.31-.15-.43-.44-.43h-4.65c-.83,.04-1.54-.61-1.58-1.44s.61-1.54,1.44-1.58c.04,0,.09,0,.13,0h6.08c2.11,0,2.83,.87,2.83,2.61v.83c0,4.67-4.43,6.52-9.33,6.08-.89-.06-1.56-.83-1.5-1.72,0-.03,0-.05,0-.08,.06-.81,.77-1.41,1.57-1.35,.04,0,.08,0,.13,.02,2.93,.12,5.31-.63,5.31-2.84Zm-3.43,14.08c-2.34,0-2.77-.7-2.77-2.94v-1.57c0-2.25,.43-2.94,2.77-2.94h10.86c2.34,0,2.77,.7,2.77,2.94v4.51h-13.63Zm1.51-2.73h8.31v-1.51c0-.43-.1-.5-.49-.5h-7.82c-.39,0-.46,.08-.46,.5v.99c0,.47,.08,.52,.46,.52h0Zm8.11-13.54c-.04-1.02,.76-1.88,1.78-1.92,.06,0,.12,0,.18,0,1.03-.05,1.91,.75,1.95,1.78,0,.05,0,.09,0,.14v8.1h-3.92v-8.1Z"/>
        <path id="_패스_783" data-name="패스 783" d="M85.14,295.07v-5.96c-.07-.89,.59-1.68,1.48-1.75,.12,0,.24,0,.35,0,.9-.11,1.72,.53,1.83,1.43,.01,.1,.02,.21,0,.31v5.96h4.71c.86-.03,1.58,.64,1.61,1.5s-.64,1.58-1.5,1.61c-.04,0-.07,0-.11,0h-9.22c-.86,.04-1.59-.62-1.64-1.48s.62-1.59,1.48-1.64c.05,0,.11,0,.16,0h.83Zm5.58-8.85v-1.18c0-.33-.15-.46-.46-.46h-5.61c-.91,0-1.65-.73-1.65-1.64,0-.91,.73-1.65,1.64-1.65h6.92c2.19,0,2.86,.83,2.86,2.67v2.28c.11,2.09-.15,4.18-.75,6.18-.45,1.01-1.62,1.5-2.65,1.1-.81-.31-1.21-1.22-.9-2.03,.01-.03,.03-.07,.04-.1,.45-1.68,.64-3.42,.56-5.17h0Zm5.13-3.66c-.04-1,.73-1.84,1.73-1.88,.06,0,.13,0,.19,0,1.01-.05,1.86,.73,1.91,1.73,0,.05,0,.1,0,.14v4.9h.64c.93,.09,1.61,.91,1.53,1.84-.08,.81-.72,1.45-1.53,1.53h-.64v8.04h-3.83v-16.3Z"/>
        <path id="_패스_784" data-name="패스 784" d="M102.64,285.79c0-3.39,2.48-4.84,5.65-4.84s5.63,1.45,5.63,4.84v1.57c.15,2.29-1.49,4.31-3.76,4.65v3.06h3.23c.86-.03,1.58,.64,1.61,1.5s-.64,1.58-1.5,1.61c-.04,0-.07,0-.11,0h-9.74c-.86,.04-1.59-.62-1.64-1.48s.62-1.59,1.48-1.64c.05,0,.11,0,.16,0h2.75v-3.06c-2.28-.33-3.92-2.35-3.78-4.65v-1.57Zm3.8,1.7c0,1.28,.93,1.67,1.86,1.67s1.86-.39,1.86-1.67v-1.84c0-1.26-.93-1.67-1.86-1.67s-1.86,.41-1.86,1.67v1.84Zm9.29,11.37v-16.27c0-1.07,.87-1.94,1.94-1.94s1.94,.87,1.94,1.94v16.26h-3.87Z"/>
        <path id="_패스_785" data-name="패스 785" d="M137.82,294.82v4.14h-3.95v-4.14h-5.46c-.87,.03-1.6-.65-1.63-1.52-.03-.87,.65-1.6,1.52-1.63,.04,0,.07,0,.11,0h14.87c.87-.03,1.6,.65,1.63,1.52,.03,.87-.65,1.6-1.52,1.63-.04,0-.07,0-.11,0h-5.46Zm-.23-10.85c3.31,.04,6.6,2.17,6.93,6.89h-3.91c-.23-2.24-2.17-3.91-4.41-3.8-1.73,2.32-4.41,3.74-7.3,3.85-.91,.07-1.71-.6-1.8-1.51-.12-.9,.51-1.73,1.42-1.86,0,0,.01,0,.02,0,2.66-.37,4.78-2.41,5.25-5.05,.09-1.06,1.03-1.84,2.09-1.75,.03,0,.05,0,.08,0,1.02,.02,1.83,.85,1.81,1.87,0,.06,0,.12-.01,.18-.02,.39-.07,.78-.15,1.17Z"/>
        <path id="_패스_786" data-name="패스 786" d="M157.18,294.82v4.14h-3.95v-4.14h-5.46c-.87,.03-1.6-.65-1.63-1.52-.03-.87,.65-1.6,1.52-1.63,.04,0,.07,0,.11,0h14.87c.87-.03,1.6,.65,1.63,1.52,.03,.87-.65,1.6-1.52,1.63-.04,0-.07,0-.11,0h-5.46Zm-.23-10.85c3.31,.04,6.6,2.17,6.93,6.89h-3.91c-.23-2.24-2.17-3.91-4.41-3.8-1.73,2.32-4.41,3.74-7.3,3.85-.91,.07-1.71-.6-1.8-1.51-.12-.9,.51-1.73,1.42-1.86,0,0,.01,0,.02,0,2.66-.37,4.78-2.41,5.25-5.05,.09-1.06,1.03-1.84,2.09-1.75,.03,0,.05,0,.08,0,1.02,.02,1.83,.85,1.81,1.87,0,.06,0,.12-.01,.18-.02,.39-.07,.78-.15,1.17Z"/>
        <path id="_패스_787" data-name="패스 787" d="M169.19,295.38v-2.87c-1.69-.1-2.97-1.55-2.87-3.24,0-.01,0-.02,0-.03v-.39c0-1.9,1.16-3.41,3.72-3.41h8.46v-.58c0-.25-.08-.54-.52-.54h-10.05c-.84-.02-1.51-.72-1.49-1.57,.02-.81,.68-1.47,1.49-1.49h11.09c2.67,0,3.43,1.22,3.43,3.06v4.14h-11.4c-.48,0-.7,.17-.7,.54v.08c0,.37,.21,.54,.7,.54h10.28c.77-.05,1.44,.53,1.49,1.3,0,.06,0,.13,0,.19,.05,.75-.52,1.41-1.28,1.45-.07,0-.14,0-.21,0h-1.38v2.81h2.03c.86-.03,1.57,.64,1.61,1.49,.03,.86-.64,1.57-1.49,1.61-.04,0-.07,0-.11,0h-14.87c-.86,.03-1.57-.64-1.61-1.49-.03-.86,.64-1.57,1.49-1.61,.04,0,.07,0,.11,0h2.07Zm3.82,0h3.14v-2.81h-3.14v2.81Z"/>
      </g>
      <rect id="_사각형_263" data-name="사각형 263" class="cls-5" x="355.6" y="125.85" width="27.07" height="461.15"/>
    </g>
  </g>
</svg>