<?xml version="1.0" encoding="UTF-8"?>
<svg id="_레이어_2" data-name="레이어 2" xmlns="http://www.w3.org/2000/svg" viewBox="0 0 650 350">
  <defs>
    <style>
      .cls-1 {
        fill: #fff;
      }

      .cls-2, .cls-3 {
        fill: #8bc543;
      }

      .cls-4 {
        fill: #f9ca35;
      }

      .cls-5 {
        fill: #e8af2e;
      }

      .cls-6 {
        fill: #d0d2d3;
      }

      .cls-7 {
        fill: #e6e6e7;
      }

      .cls-8 {
        fill: #bbbdbf;
      }

      .cls-3 {
        stroke: #006738;
        stroke-miterlimit: 10;
        stroke-width: 9.57px;
      }

      .cls-9 {
        fill: #221f1f;
        opacity: .3;
      }

      .cls-10 {
        fill: #006738;
      }

      .cls-11 {
        fill: #c38728;
      }

      .cls-12 {
        fill: #fcc936;
      }

      .cls-13 {
        fill: #f7f7f7;
      }

      .cls-14 {
        fill: #fbfdc1;
      }

      .cls-15 {
        fill: #e2a540;
      }

      .cls-16 {
        fill: #744c29;
      }
    </style>
  </defs>
  <g id="_레이어_1-2" data-name="레이어 1">
    <rect class="cls-12" width="650" height="350" rx="35.94" ry="35.94"/>
    <g>
      <path class="cls-1" d="m45.99,47.14v-2.06h8.58v7.62h-2.65v-5.56h-5.93Zm13.52,6.57v5.66h-12.81v-5.66h12.81Zm-10.16,2.04v1.57h7.52v-1.57h-7.52Zm10.16-10.85v8.04h-2.65v-8.04h2.65Z"/>
      <path class="cls-1" d="m64.13,56.63v-6.15h2.65v6.15h4.94v2.04h-10.18v-2.04h2.6Zm4.3-1.94v-7.38h-6.3v-2.06h8.95v9.45h-2.65Zm6.93-4.49h1.47v2.06h-1.47v6.78h-2.65v-14.13h2.65v5.29Z"/>
      <path class="cls-1" d="m81.65,56.63v-2.08c-.53-.11-1.01-.3-1.46-.57-.44-.27-.83-.61-1.15-1.02-.32-.41-.57-.88-.76-1.42-.19-.54-.28-1.14-.28-1.8,0-.8.13-1.51.39-2.13.26-.62.61-1.14,1.05-1.56.44-.42.96-.74,1.55-.96.59-.22,1.22-.33,1.9-.33s1.29.11,1.89.33,1.11.54,1.56.96c.44.42.79.94,1.05,1.56.26.62.39,1.33.39,2.13,0,.64-.09,1.23-.27,1.76-.18.53-.42,1-.73,1.4s-.68.74-1.1,1.01c-.43.27-.89.47-1.38.61v2.11h3.93v2.04h-10.52v-2.04h3.94Zm1.25-3.99c.31,0,.61-.07.88-.22.28-.15.51-.35.72-.61s.36-.57.47-.92c.11-.35.17-.74.17-1.16s-.06-.82-.17-1.18c-.11-.36-.27-.67-.47-.93-.2-.26-.44-.46-.72-.6-.28-.14-.57-.21-.88-.21-.34,0-.64.07-.92.22-.28.15-.51.35-.71.61s-.35.57-.45.93-.16.75-.16,1.17.06.82.17,1.17.27.66.46.92c.2.26.43.46.71.6s.58.21.9.21Zm8.97,6.39h-2.65v-14.13h2.65v14.13Z"/>
      <path class="cls-1" d="m100.12,58.86v-11.56h-5.59v-2.06h8.24v13.62h-2.65Zm7.41-8.67h1.47v2.06h-1.47v6.78h-2.65v-14.13h2.65v5.29Z"/>
      <path class="cls-1" d="m122.7,45.24v2.06h-2.65v3.92c0,.46-.02.9-.06,1.31-.04.41-.1.81-.18,1.21l3.4,3.21-1.47,1.79-2.78-2.74c-.36.61-.82,1.14-1.39,1.61-.57.46-1.26.85-2.06,1.15l-1.16-1.96c.55-.24,1.02-.5,1.4-.79.38-.29.7-.66.94-1.09s.43-.95.54-1.55c.11-.6.17-1.32.17-2.16v-3.9h-2.54v-2.06h7.84Zm1.21,13.79v-7.3l-2.38.83v-2.11l2.38-.83v-4.71h2.43v14.13h-2.43Zm6.1,0h-2.44v-14.13h2.44v14.13Z"/>
      <path class="cls-1" d="m132.22,50.75h4.87v-2.13h2.65v2.13h6.56v2.06h-14.07v-2.06Zm7.04,8.96c-2.03,0-3.61-.24-4.72-.72-1.11-.48-1.67-1.24-1.67-2.29s.56-1.81,1.67-2.28c1.11-.47,2.68-.71,4.72-.71s3.61.24,4.72.71,1.67,1.23,1.67,2.28-.56,1.81-1.67,2.29c-1.11.48-2.69.72-4.72.72Zm3.39-12.57h-9.44v-2.06h12.08v4.8h-2.65v-2.74Zm-3.39,10.51c1.29,0,2.24-.08,2.84-.25.6-.17.9-.4.9-.69s-.3-.52-.9-.69c-.6-.17-1.55-.25-2.84-.25s-2.24.08-2.84.25c-.6.17-.9.4-.9.69s.3.52.9.69c.6.17,1.55.25,2.84.25Z"/>
      <path class="cls-1" d="m154.15,46.26h3.44v2.06h-9.52v-2.06h3.44v-1.74h2.65v1.74Zm3.03,7.96c0,.87-.12,1.61-.35,2.21s-.55,1.11-.95,1.5c-.4.39-.86.67-1.39.84-.53.17-1.08.26-1.67.26s-1.15-.09-1.68-.26-.98-.46-1.37-.84c-.39-.39-.7-.89-.94-1.5s-.35-1.35-.35-2.21.12-1.59.35-2.21c.23-.61.54-1.11.94-1.5s.85-.66,1.37-.85c.52-.18,1.08-.27,1.68-.27s1.14.09,1.67.27c.53.18.99.46,1.39.85.4.38.72.88.95,1.5.24.61.35,1.35.35,2.21Zm-6.07,0c0,.88.15,1.56.44,2.04.29.48.71.72,1.26.72s.95-.24,1.26-.71c.31-.47.46-1.16.46-2.06s-.15-1.55-.46-2.03-.73-.71-1.26-.71-.97.24-1.26.72c-.29.48-.44,1.16-.44,2.04Zm10.52-4.02h1.47v2.06h-1.47v6.78h-2.65v-14.13h2.65v5.29Z"/>
      <path class="cls-1" d="m164.58,51.68h14.07v2.06h-14.07v-2.06Zm3.47,3.21v2.42h9.94v2.06h-12.59v-4.48h2.65Zm.17-6.57h9.44v2.06h-12.08v-5.31h2.65v3.24Z"/>
      <path class="cls-1" d="m190.16,51.41v-4.11h-4.8v-2.06h7.23v13.62h-2.43v-5.39h-4.8v-2.06h4.8Zm3.78,7.62v-14.13h2.43v5.98l1.48-.52v-5.46h2.44v14.13h-2.44v-6.39l-1.48.52v5.86h-2.43Z"/>
      <path class="cls-1" d="m208.58,51.22c0,.86-.09,1.64-.27,2.35l4.31,3.21-1.3,1.96-3.94-2.97c-.43.68-.99,1.26-1.69,1.76-.7.5-1.55.91-2.54,1.23l-1.16-1.96c.67-.24,1.26-.5,1.75-.79.49-.29.9-.66,1.23-1.09.33-.43.57-.95.72-1.55.16-.6.24-1.32.24-2.16v-6.17h2.65v6.18Zm7.65,7.81h-2.65v-14.13h2.65v14.13Z"/>
      <path class="cls-1" d="m221.32,46.9h2.38v-1.82h2.43v7.96h-7.23v-7.96h2.43v1.82Zm9.86,12.47v-3.11h-11.58v-2.04h14.22v5.15h-2.65Zm-7.48-10.41h-2.38v2.01h2.38v-2.01Zm3.78,4.49v-8.55h2.43v3.11l1.48-.52v-2.59h2.44v8.55h-2.44v-3.68l-1.48.52v3.16h-2.43Z"/>
      <path class="cls-1" d="m245.9,46.26h3.18v2.06h-9.02v-2.06h3.18v-1.74h2.65v1.74Zm4.23,12.77v-2.64l-2.06.73c-.36.68-.85,1.16-1.46,1.46-.61.3-1.3.45-2.05.45-.6,0-1.14-.09-1.63-.26-.49-.17-.92-.46-1.29-.84-.36-.39-.65-.89-.85-1.5s-.3-1.35-.3-2.21.1-1.59.3-2.21c.2-.61.49-1.11.85-1.5s.79-.66,1.29-.85c.49-.18,1.04-.27,1.63-.27.64,0,1.23.11,1.76.32.53.21.99.56,1.36,1.03l2.44-.84v-5h2.43v14.13h-2.43Zm-7.23-4.82c0,.88.14,1.56.42,2.04.28.48.7.72,1.25.72s.94-.24,1.24-.71c.3-.47.45-1.16.45-2.06s-.15-1.55-.45-2.03c-.3-.47-.71-.71-1.24-.71s-.97.24-1.25.72c-.28.48-.42,1.16-.42,2.04Zm5.78,0v.22c0,.07,0,.13-.02.2l1.47-.51v-1.94l-1.58.54c.04.23.08.46.1.71.02.25.03.51.03.78Zm7.55,4.82h-2.44v-14.13h2.44v14.13Z"/>
      <path class="cls-1" d="m260.41,47.14v1.06h5.14v2.06h-5.14v1.05h5.31v2.06h-7.73v-8.3h7.57v2.06h-5.14Zm9.86,12.23v-3.11h-11.58v-2.04h14.22v5.15h-2.65Zm-3.71-5.91v-8.55h2.43v3.11l1.48-.52v-2.59h2.44v8.55h-2.44v-3.68l-1.48.52v3.16h-2.43Z"/>
    </g>
    <g>
      <path class="cls-1" d="m67.71,96.55v-.3c0-.97-.48-1.33-1.38-1.33h-14.45c-3.49,0-4.94-2.35-4.94-4.71s1.38-4.71,4.94-4.71h18.9c6.56,0,8.79,2.72,8.79,8.15v2.6c0,14.54-13.78,20.34-29.01,18.95-2.71-.24-4.87-2.41-4.63-5.61.24-2.84,2.41-4.28,5.3-4.16,9.09.36,16.49-1.99,16.49-8.87Zm-10.65,43.87c-7.28,0-8.61-2.17-8.61-9.17v-4.89c0-7,1.32-9.17,8.61-9.17h33.77c7.28,0,8.61,2.17,8.61,9.17v14.06h-42.37Zm4.69-8.51h25.82v-4.71c0-1.33-.3-1.57-1.5-1.57h-24.32c-1.2,0-1.44.24-1.44,1.57v3.08c0,1.45.24,1.63,1.44,1.63Zm25.22-42.18c0-3.92,2.89-5.97,6.08-5.97s6.08,2.11,6.08,5.97v25.23h-12.16v-25.23Z"/>
      <path class="cls-1" d="m112.43,128.59v-18.59c0-3.92,2.53-5.43,5.72-5.43s5.72,1.57,5.72,5.43v18.59h14.63c3.67,0,5.06,2.35,5.06,4.83s-1.44,4.89-5.06,4.89h-28.65c-3.61,0-5.12-2.35-5.12-4.89s1.44-4.83,5.12-4.83h2.59Zm17.33-27.58v-3.68c0-1.03-.48-1.45-1.44-1.45h-17.45c-3.49,0-5.12-2.59-5.12-5.13s1.57-5.13,5.12-5.13h21.49c6.8,0,8.91,2.59,8.91,8.33v7.12c0,9.05-.72,14.79-2.35,19.25-1.14,3.14-4.75,4.47-8.25,3.44-2.77-.85-3.55-3.86-2.65-6.64,1.2-3.68,1.75-8.63,1.75-16.11Zm15.95-11.41c0-3.86,2.83-5.85,5.96-5.85s5.96,2.05,5.96,5.85v15.27h1.99c3.67,0,4.75,2.84,4.75,5.25s-1.14,5.25-4.75,5.25h-1.99v25.04h-11.92v-50.81Z"/>
      <path class="cls-1" d="m166.89,99.68c0-10.56,7.7-15.09,17.58-15.09s17.51,4.53,17.51,15.09v4.89c0,8.39-4.81,12.97-11.68,14.48v9.53h10.05c3.67,0,5.06,2.35,5.06,4.83s-1.44,4.89-5.06,4.89h-30.27c-3.61,0-5.12-2.35-5.12-4.89s1.44-4.83,5.12-4.83h8.55v-9.53c-6.92-1.51-11.74-6.1-11.74-14.48v-4.89Zm11.8,5.31c0,3.98,2.89,5.19,5.78,5.19s5.78-1.21,5.78-5.19v-5.73c0-3.92-2.89-5.19-5.78-5.19s-5.78,1.27-5.78,5.19v5.73Zm28.89,35.42v-50.69c0-3.92,2.83-5.97,6.02-5.97s6.02,2.05,6.02,5.97v50.69h-12.04Z"/>
      <path class="cls-1" d="m95.82,183.5c3.61,0,4.94,2.11,4.94,4.41s-1.38,4.34-4.94,4.34h-46.47c-3.55,0-4.94-2.05-4.94-4.34s1.32-4.41,4.94-4.41h46.47Zm-44,19.92c-3.25,0-5.06-1.75-5.06-4.35s1.81-4.22,5.06-4.22h37.8c7.28,0,8.61,1.69,8.61,8.69v9.29h-12.04v-8.09c0-.97-.36-1.33-1.32-1.33h-33.04Zm43.03-46.59c2.35,0,3.31,1.87,3.31,3.44s-1.02,3.44-3.31,3.44h-34.79c-.84,0-1.14.24-1.14,1.03v1.15h35.57c2.41,0,3.31,1.57,3.31,3.14s-.9,3.14-3.31,3.14h-35.57v1.15c0,.84.3,1.03,1.14,1.03h35.51c2.35,0,3.25,1.87,3.25,3.32,0,1.69-.96,3.44-3.25,3.44h-41.89c-4.94,0-6.74-1.99-6.74-6.58v-11.04c0-4.65,1.81-6.64,6.74-6.64h41.17Z"/>
      <path class="cls-1" d="m112.61,166.55c-3.91,0-5.54-2.05-5.54-4.83,0-2.6,1.57-4.71,5.54-4.71h36.9c5.78,0,8.07,1.27,8.07,6.34v3.2c0,4.65-.78,7.79-1.87,10.14h.3c3.61,0,5,2.29,5,4.71s-1.44,4.71-5,4.71h-46.35c-3.55,0-5-2.29-5-4.71s1.38-4.71,5-4.71h34.19c1.14-2.47,1.75-5.25,1.75-8.27v-.66c0-.97-.42-1.21-1.5-1.21h-31.48Zm6.8,26.37h26.78c.3-3.44,3.07-4.71,6.08-4.71s6.02,1.51,6.02,5.37v19.25h-42.31c-7.28,0-8.61-2.17-8.61-9.17v-10.08c0-3.92,2.89-5.37,6.08-5.37,2.77,0,5.54,1.45,5.96,4.71Zm26.78,11.77v-3.98h-26.72v2.11c0,1.21.42,1.87,1.87,1.87h24.86Z"/>
      <path class="cls-1" d="m176.77,168.78h-7.7c-3.61,0-5.06-2.66-5.06-5.13s1.38-5.19,5.06-5.19h27.21c3.67,0,4.94,2.78,4.94,5.19s-1.32,5.13-4.94,5.13h-7.82v6.52c0,2.78-.18,5.37-.48,7.79,8.67,3.02,13.96,9.84,13.3,26.37h-11.26c.72-8.03-.9-12.97-4.51-15.63-2.83,7.6-7.58,12.91-13.78,15.51-2.59,1.09-6.26.24-7.46-2.11-1.2-2.23-.6-5.07,1.81-6.58,7.52-4.71,10.71-12.25,10.71-25.65v-6.22Zm29.13-6.76c0-3.86,2.83-5.85,5.96-5.85s5.96,2.05,5.96,5.85v15.27h1.99c3.67,0,4.75,2.84,4.75,5.25s-1.14,5.25-4.75,5.25h-1.99v25.04h-11.92v-50.81Z"/>
      <path class="cls-1" d="m236.59,201.97v-8.93c-6.14-.85-8.91-4.95-8.91-10.2v-1.21c0-5.91,3.61-10.62,11.56-10.62h26.3v-1.81c0-.78-.24-1.69-1.63-1.69h-31.24c-2.89,0-4.63-2.29-4.63-4.77s1.75-4.77,4.63-4.77h34.49c8.31,0,10.65,3.8,10.65,9.53v12.91h-35.45c-1.51,0-2.17.54-2.17,1.69v.24c0,1.15.66,1.69,2.17,1.69h31.96c3.37,0,4.63,2.41,4.63,4.65s-1.32,4.53-4.63,4.53h-4.27v8.75h6.32c3.67,0,5.06,2.41,5.06,4.83s-1.44,4.83-5.06,4.83h-46.23c-3.61,0-5.06-2.35-5.06-4.83s1.38-4.83,5.06-4.83h6.44Zm11.86,0h9.75v-8.75h-9.75v8.75Z"/>
      <path class="cls-1" d="m297.8,162.14v-.24c0-3.74,3.07-5.37,6.26-5.31,3.13.06,5.9,1.81,5.9,5.31v.24c0,1.51-.12,2.96-.3,4.34,8.55.72,14.51,6.46,13.84,18.23h-11.74c.54-5.31-1.32-8.63-5.18-9.23-3.55,6.04-9.33,9.54-15.29,9.84-3.13.18-5.3-1.51-5.84-3.8-.66-2.78.66-5.31,3.25-5.91,6.08-1.39,9.09-6.1,9.09-13.46Zm-.24,50.69c-5.48,0-8.55-3.86-8.55-8.21v-.72c0-4.34,3.07-7.12,8.55-7.12h30.27v-1.57c0-.72-.18-.97-.96-.97h-33.89c-2.35,0-3.31-1.75-3.31-3.56,0-1.69,1.02-3.5,3.31-3.5h39.72c5.36,0,7.34,1.57,7.34,6.34v9.66h-37.02c-.9,0-1.32.54-1.32,1.15v.18c0,.6.42,1.15,1.32,1.15h35.15c2.41,0,3.43,1.87,3.43,3.68,0,1.69-.96,3.5-3.43,3.5h-40.63Zm30.33-50.69c0-3.92,2.89-5.97,6.08-5.97s6.08,2.11,6.08,5.97v23.11h-12.16v-23.11Z"/>
    </g>
    <g>
      <path class="cls-14" d="m63.44,252.12c9.81,0,17.03,4.59,17.03,15.75s-7.88,16.6-17.27,16.6c-4.94,0-11.26-1.63-14.08-5.37-1.69-2.23-1.38-5.49.66-7.3,1.69-1.51,4.09-1.51,5.9-1.03,1.14.3,2.05,1.21,2.71,1.63,1.38.85,2.71,1.09,4.51,1.09,2.77,0,5.78-2.35,5.78-5.61s-2.71-5.55-6.5-5.55h-4.27c-7.1,0-9.27-2.23-8.85-9.05l.54-9.17c.42-6.82,1.69-9.05,8.79-9.05h15.83c3.43,0,4.75,2.84,4.75,5.25s-1.26,5.07-4.75,5.07h-11.86c-1.08,0-1.44.12-1.5,1.27l-.24,4.22c-.06,1.15.36,1.27,1.44,1.27h1.38Z"/>
      <path class="cls-14" d="m84.26,248.13v-5.98c0-7,4.75-10.74,11.07-10.74s11.01,3.74,11.01,10.74v5.98c0,7.06-4.69,10.74-11.01,10.74s-11.07-3.68-11.07-10.74Zm13.6.06v-6.09c0-1.99-1.51-2.72-2.53-2.72s-2.59.72-2.59,2.72v6.09c0,2.05,1.57,2.72,2.59,2.72s2.53-.66,2.53-2.72Zm6.14,32.23c-1.63,3.38-4.27,4.47-6.38,3.86-2.05-.6-3.43-2.35-1.81-5.73l21.37-43.09c1.63-3.44,4.21-4.53,6.32-3.86,1.99.6,3.31,2.29,1.69,5.67l-21.19,43.15Zm10.59-6.7v-5.98c0-7,4.75-10.74,11.07-10.74s11.01,3.74,11.01,10.74v5.98c0,7.06-4.69,10.74-11.01,10.74s-11.07-3.68-11.07-10.74Zm13.6.06v-6.09c0-1.99-1.5-2.72-2.53-2.72s-2.59.72-2.59,2.72v6.09c0,2.05,1.56,2.72,2.59,2.72s2.53-.66,2.53-2.72Z"/>
      <path class="cls-14" d="m173.94,262.92h-11.8c-3.61,0-5.06-2.6-5.06-5.07s1.38-5.07,5.06-5.07h12.04v-7.84c0-.85-.54-1.51-1.51-1.51h-10.11c-3.61,0-5.06-2.6-5.06-5.07s1.38-5.07,5.06-5.07h13.36c6.8,0,9.09,2.05,9.09,8.21v17.98c0,18.47-10.47,25.71-22.03,26.19-3.19.12-6.14-1.33-6.2-4.59-.06-2.84,1.32-4.95,4.57-5.31,7.76-.84,11.68-5.25,12.58-12.85Zm14.33-26.79c0-3.38,2.53-5.13,5.3-5.13s5.3,1.81,5.3,5.13v17.02h3.01v-17.02c0-3.38,2.59-5.13,5.36-5.13s5.36,1.81,5.36,5.13v51.54h-10.71v-24.62h-3.01v24.62h-10.59v-51.54Z"/>
      <path class="cls-14" d="m229.19,243.36v-4.71c0-3.86,2.95-5.85,6.08-5.85s6.02,2.17,6.02,5.85v4.65c0,3.56-.18,6.88-.54,10.02,10.35,3.92,15.59,12.61,14.39,30.9h-11.74c1.26-9.9-.48-16.41-4.82-19.79-2.71,9.17-7.52,15.45-13.84,19.07-3.07,1.75-6.68,1.39-8.31-.72-1.63-1.87-1.87-5.37.9-7.24,8.91-6.16,11.86-15.33,11.86-32.17Zm30.58,44.3v-50.69c0-3.92,2.83-5.97,6.02-5.97s6.02,2.05,6.02,5.97v50.69h-12.04Z"/>
      <path class="cls-14" d="m286.6,263.22c-6.38,0-8.01-2.23-8.01-8.33v-16.66c0-3.86,2.17-5.49,5.3-5.49s5.18,1.69,5.18,5.49v.66h6.74v-.66c0-3.86,2.05-5.49,5.18-5.49s5.12,1.69,5.12,5.49v24.98h-19.5Zm-.78,13.28c-3.37,0-5.24-1.93-5.24-4.77s1.87-4.77,5.24-4.77h38.52c7.52,0,8.91,2.05,8.91,9.29v11.41h-12.16v-9.72c0-.91-.48-1.45-1.44-1.45h-33.83Zm9.99-21.73v-7.54h-6.74v6.09c0,1.27.24,1.45,1.5,1.45h5.24Zm26.72-2.05h-2.95v11.89h-10.29v-28.48c0-3.38,2.41-5.13,5.18-5.13s5.12,1.81,5.12,5.13v7.54h2.95v-7.54c0-3.38,2.41-5.13,5.18-5.13s5.24,1.81,5.24,5.13v28.48h-10.41v-11.89Z"/>
    </g>
    <path class="cls-8" d="m483,171.7l-25.62-32.93s.59-5.97,17.12-5.39c16.54.58,40.49-3.9,55.97-4.25,17.91-.41,35.67,2.95,35.67,2.95l-26.77,39.62h-56.37Z"/>
    <g>
      <path class="cls-3" d="m565.69,90.53c-16.16,27.81-31.89,55.95-40.7,85.69-14.34-4.25-28.66-8.5-43.12-12.76,7.43-30.04,9.7-60.47,16.1-92.42,23.66,3.75,45.84,10.42,67.72,19.5Z"/>
      <path class="cls-10" d="m522.45,107.31c12.83,3.67,19.35,14.62,14.95,23.73-4.43,9.15-15.7,14.22-25.89,11.27-10.14-2.98-17.34-13.21-15.81-23.04,1.57-9.79,13.91-15.56,26.75-11.96Z"/>
      <path class="cls-10" d="m481.86,163.45c3.85,1.14,7.68,2.27,11.5,3.4,1.81-6.32-2.13-13.01-8.84-14.92-.8,3.85-1.68,7.69-2.67,11.52Z"/>
      <g>
        <path class="cls-2" d="m512.28,119.65c-1.65-.33-2.78.7-3.4,3.06-.63,2.37-.2,3.76,1.26,4.16.89.24,1.65.05,2.26-.6.63-.65,1.53-2.04,2.74-4.2,1.21-2.15,2.62-3.59,4.23-4.31,1.61-.72,3.45-.78,5.5-.19,2.38.7,3.9,2.1,4.51,4.18.62,2.07.47,4.18-.38,6.35-2.07,5.23-5.48,7.52-10.29,6.93.35-1.51.7-3.01,1.05-4.52,2.57.39,4.35-.8,5.38-3.6.97-2.62.37-4.26-1.81-4.9-.96-.28-1.79-.17-2.47.34-.68.51-1.7,1.87-3,4.1-1.3,2.22-2.65,3.7-4.05,4.45-1.4.75-2.9.89-4.52.44-1.73-.49-3.03-1.58-3.92-3.29-.89-1.7-1.04-3.87-.42-6.5,1.22-5.22,4.07-7.43,8.41-6.53-.36,1.53-.72,3.06-1.08,4.6Z"/>
        <path class="cls-2" d="m506.02,119.38c-.35,1.43-.69,2.85-1.03,4.28-1.53-.41-3.07-.81-4.62-1.21.31-1.43.61-2.86.92-4.29,1.6.41,3.18.82,4.74,1.23Z"/>
        <path class="cls-2" d="m533.5,127.24c-.58,1.37-1.15,2.73-1.71,4.1-1.5-.46-2.99-.9-4.48-1.35.52-1.38,1.06-2.76,1.6-4.14,1.53.46,3.06.92,4.59,1.39Z"/>
      </g>
      <path class="cls-10" d="m524.31,176.02c1.17-3.8,2.42-7.57,3.74-11.32-6.48-1.93-13.31,1.62-15.18,7.93,3.81,1.13,7.62,2.26,11.43,3.39Z"/>
      <path class="cls-10" d="m564.64,90.1c-5.83-2.4-11.67-4.62-17.54-6.66-2.84,6.45,2.26,13.97,11.49,17.39,2.02-3.58,4.05-7.16,6.05-10.73Z"/>
      <path class="cls-10" d="m497.96,71.03c-.78,4.09-1.52,8.15-2.22,12.18,9.76,1.77,18.77-1.79,20.78-8.59-6.11-1.4-12.3-2.6-18.57-3.59Z"/>
      <path class="cls-10" d="m509.3,149.85c2.27.67,3.56,2.94,2.9,5.09-.66,2.15-2.97,3.36-5.18,2.71-2.21-.65-3.51-2.92-2.92-5.09.6-2.16,2.92-3.38,5.2-2.72Z"/>
      <path class="cls-10" d="m527.87,91.52c3.15.9,4.97,3.46,4.11,5.66-.86,2.2-3.95,3.25-6.93,2.41-2.97-.84-4.86-3.3-4.17-5.56.7-2.25,3.84-3.41,6.99-2.51Z"/>
    </g>
    <g>
      <path class="cls-3" d="m555.35,75.18c-12,29.84-23.55,59.94-28.01,90.64-14.8-2.15-29.58-4.31-44.5-6.46,3.05-30.8.93-61.24,2.7-93.77,23.95.32,46.86,3.75,69.81,9.59Z"/>
      <path class="cls-10" d="m514.97,97.99c13.23,1.79,21.24,11.7,18.19,21.34-3.07,9.7-13.51,16.32-24.01,14.86-10.46-1.49-19.06-10.59-18.95-20.54.15-9.91,11.54-17.38,24.76-15.66Z"/>
      <path class="cls-10" d="m482.84,159.37c3.97.57,7.92,1.14,11.87,1.71.88-6.51-3.97-12.56-10.88-13.5-.24,3.93-.56,7.85-.99,11.78Z"/>
      <g>
        <path class="cls-2" d="m506.67,111.65c-1.67-.09-2.66,1.1-2.93,3.52-.28,2.44.34,3.74,1.85,3.94.92.11,1.63-.19,2.15-.92.53-.73,1.21-2.24,2.1-4.55.89-2.3,2.08-3.93,3.58-4.87,1.49-.94,3.31-1.27,5.41-.97,2.45.35,4.16,1.53,5.07,3.49.91,1.96,1.07,4.07.54,6.34-1.3,5.47-4.35,8.23-9.19,8.34.13-1.54.26-3.07.39-4.62,2.6.02,4.19-1.42,4.81-4.34.58-2.73-.24-4.27-2.49-4.59-1-.14-1.8.09-2.4.69-.6.6-1.42,2.1-2.38,4.49-.97,2.39-2.09,4.05-3.37,4.99-1.28.94-2.74,1.3-4.41,1.08-1.78-.23-3.23-1.13-4.35-2.69-1.12-1.56-1.58-3.68-1.34-6.37.46-5.33,2.96-7.93,7.38-7.66-.14,1.57-.28,3.14-.41,4.7Z"/>
        <path class="cls-2" d="m500.43,112.29c-.14,1.46-.27,2.92-.41,4.38-1.57-.19-3.15-.36-4.74-.54.09-1.46.19-2.92.29-4.38,1.63.18,3.25.35,4.86.54Z"/>
        <path class="cls-2" d="m528.75,116.13c-.38,1.43-.75,2.87-1.11,4.3-1.55-.24-3.09-.46-4.63-.69.32-1.44.65-2.88.99-4.33,1.58.24,3.16.47,4.74.72Z"/>
      </g>
      <path class="cls-10" d="m526.64,165.72c.62-3.92,1.31-7.84,2.09-11.74-6.69-.98-12.94,3.51-13.88,10.02,3.93.57,7.87,1.14,11.8,1.72Z"/>
      <path class="cls-10" d="m554.26,74.91c-6.11-1.54-12.21-2.9-18.32-4.08-1.89,6.79,4.24,13.5,13.87,15.57,1.49-3.83,2.98-7.67,4.45-11.49Z"/>
      <path class="cls-10" d="m485.54,65.59c-.19,4.16-.34,8.28-.45,12.37,9.92.35,18.32-4.46,19.34-11.47-6.25-.51-12.55-.82-18.89-.9Z"/>
      <path class="cls-10" d="m508.04,141.97c2.35.33,3.95,2.4,3.6,4.62-.35,2.22-2.45,3.76-4.74,3.43-2.27-.32-3.89-2.39-3.62-4.62.28-2.22,2.41-3.76,4.75-3.44Z"/>
      <path class="cls-10" d="m518.07,81.58c3.25.44,5.41,2.71,4.88,5.01-.53,2.3-3.44,3.78-6.51,3.38-3.06-.41-5.28-2.58-4.93-4.91.37-2.33,3.31-3.92,6.56-3.49Z"/>
    </g>
    <path class="cls-9" d="m586,304.23c0,5.12-37.25,9.27-78.31,9.27s-70.41-4.15-70.41-9.27,29.34-9.27,70.41-9.27,78.31,4.15,78.31,9.27Z"/>
    <g>
      <path class="cls-7" d="m483,171.7l-25.62-32.93s.59-10.19,17.12-9.62c16.54.58,34.17,7.69,49.64,8.42,22.17,1.04,42-5.49,42-5.49l-26.77,39.62h-56.37Z"/>
      <path class="cls-7" d="m571.92,232.24c-8.23-20.24-20.89-41.38-32.56-60.54h-56.37c-11.54,19.15-23.18,40.57-32.3,60.54-19.45,42.61-8.36,56.65,14.46,66.72,16.93,7.47,75.38,7.47,92.31,0,22.83-10.07,28.58-32,14.46-66.72Z"/>
      <g>
        <path class="cls-15" d="m521.47,227.73c-.34-4.05-4.08-6.1-11.24-6.12-7.18-.03-10.78,1.88-10.79,5.7,0,2.34,1.14,4.05,3.45,5.11,2.31,1.07,6.96,2.29,13.95,3.64,6.99,1.37,12.11,3.62,15.38,6.78,3.26,3.15,4.9,7.24,4.88,12.28-.02,5.87-2.66,10.4-7.93,13.58-5.25,3.18-11.28,4.75-18.06,4.74-16.37-.06-25.68-6.36-27.93-18.91l13.56-1.05c.98,6.59,5.81,9.89,14.49,9.92,8.14.03,12.21-2.71,12.23-8.23,0-2.44-.97-4.27-2.95-5.46-1.97-1.2-6.6-2.53-13.88-3.98-7.28-1.45-12.54-3.64-15.77-6.57-3.22-2.94-4.83-6.58-4.82-10.94.02-4.68,2.11-8.63,6.28-11.85,4.17-3.23,10.23-4.82,18.17-4.79,15.73.05,23.96,5.29,24.68,15.71l-13.71.44Z"/>
        <polygon class="cls-15" points="517.53 212.87 504.63 212.82 504.66 201.08 517.58 201.13 517.53 212.87"/>
        <rect class="cls-15" x="504.99" y="270.6" width="11.74" height="12.91" transform="translate(231.87 786.87) rotate(-89.78)"/>
      </g>
      <path class="cls-16" d="m544.59,172.92c0,1.12-1.13,2.04-2.52,2.04h-62.58c-1.39,0-2.52-.91-2.52-2.04v-1.67c0-1.12,1.13-2.04,2.52-2.04h62.58c1.39,0,2.52.91,2.52,2.04v1.67Z"/>
      <path class="cls-6" d="m527.21,295.53c10.42,7.5,29.01,1.12,35.9-3.76,9.57-6.79,13.96-20.32,12.85-30-1.11-9.69-2.62-16.24-6.53-25.26-1.39-3.2,4.75,9.77-2.71,27.26-5.56,13.05-21.66,16.38-32.33,17.58-7.47.84-17.54,6.71-7.18,14.17Z"/>
      <path class="cls-6" d="m520.87,167.48s19.71-7.16,29.45-17.18c10.99-11.31-10.81,17.18-10.81,17.18h-18.63Z"/>
      <path class="cls-13" d="m464.94,141.17s.37.29.98.83c.61.54,1.45,1.32,2.42,2.3,1.93,1.95,4.32,4.7,6.52,7.59,2.2,2.89,4.21,5.92,5.58,8.31.68,1.19,1.21,2.21,1.57,2.94.35.73.53,1.16.53,1.16,0,0-.37-.29-.98-.82-.61-.54-1.45-1.32-2.42-2.3-2.09-2.11-4.23-4.58-6.52-7.6-2.2-2.89-4.21-5.93-5.57-8.31-.68-1.19-1.21-2.21-1.57-2.94-.36-.73-.53-1.16-.53-1.16Z"/>
      <path class="cls-13" d="m484.63,179.08s-.31.96-.93,2.6c-.61,1.65-1.51,3.99-2.68,6.75-2.29,5.55-5.64,12.8-9.24,19.92-3.61,7.12-7.46,14.11-10.58,19.24-1.54,2.58-2.89,4.68-3.86,6.15-.96,1.47-1.55,2.29-1.55,2.29,0,0,.31-.96.93-2.61.61-1.65,1.51-3.99,2.68-6.75,2.29-5.55,5.64-12.79,9.25-19.91,3.61-7.12,7.47-14.11,10.59-19.24,1.54-2.58,2.89-4.69,3.85-6.15.96-1.47,1.55-2.29,1.55-2.29Z"/>
    </g>
    <g>
      <g>
        <path class="cls-5" d="m481.87,285.53c-4.24,14.31-19.28,22.48-33.59,18.24-14.31-4.24-22.48-19.28-18.24-33.59,4.24-14.31,19.28-22.48,33.59-18.24,14.31,4.24,22.48,19.27,18.24,33.59Z"/>
        <path class="cls-4" d="m477.19,284.14c-3.47,11.73-15.79,18.42-27.52,14.95-11.73-3.47-18.42-15.79-14.95-27.52,3.47-11.73,15.79-18.42,27.52-14.95,11.73,3.47,18.42,15.79,14.95,27.52Z"/>
        <g>
          <path class="cls-11" d="m462.3,273.39c.35-1.7-.93-2.98-3.85-3.85-2.93-.88-4.63-.53-5.09,1.02-.28.96-.03,1.79.79,2.5.81.72,2.56,1.77,5.25,3.17,2.69,1.4,4.51,2.94,5.46,4.62.95,1.68,1.12,3.55.51,5.6-.72,2.39-2.34,3.92-4.87,4.59-2.53.66-5.18.58-7.94-.25-6.67-2-9.71-5.7-9.11-11.09l5.66,1.21c-.4,2.81,1.18,4.74,4.71,5.8,3.32.99,5.31.37,5.98-1.88.3-1,.12-1.86-.54-2.59-.66-.73-2.39-1.83-5.18-3.3-2.79-1.47-4.68-3-5.64-4.59-.96-1.59-1.18-3.27-.64-5.04.57-1.91,1.91-3.27,3.99-4.08,2.09-.81,4.76-.73,7.99.24,6.41,1.92,9.14,5.05,8.17,9.39l-5.65-1.48Z"/>
          <rect class="cls-11" x="458.08" y="260.93" width="5" height="5.49" transform="translate(75.63 629.01) rotate(-73.29)"/>
          <rect class="cls-11" x="449.51" y="289.49" width="5" height="5.49" transform="translate(42.13 641.11) rotate(-73.29)"/>
        </g>
      </g>
      <g>
        <path class="cls-1" d="m435.06,272.07c0-2.12.94-5.35,1.64-6.05.69-.69,3.93-1.64,6.05-1.64-2.12,0-5.24-.83-6.05-1.64-.85-.85-1.64-3.93-1.64-6.05,0,2.18-.82,5.23-1.74,6.15-.95.95-3.88,1.53-5.94,1.53,2.12,0,5.25.84,6.05,1.64.81.81,1.64,3.93,1.64,6.05Z"/>
        <path class="cls-1" d="m440.2,273.26c0-.76.33-1.9.58-2.15.24-.24,1.4-.58,2.15-.58-.76,0-1.87-.3-2.15-.58-.3-.3-.58-1.4-.58-2.15,0,.77-.29,1.86-.62,2.19-.34.34-1.38.55-2.12.55.76,0,1.87.3,2.15.58.29.29.58,1.4.58,2.15Z"/>
        <path class="cls-1" d="m430.18,279.05c0-1.05.46-2.64.81-2.99.34-.34,1.94-.81,2.99-.81-1.05,0-2.59-.41-2.99-.81-.42-.42-.81-1.94-.81-2.99,0,1.08-.41,2.58-.86,3.04-.47.47-1.91.76-2.94.76,1.05,0,2.6.41,2.99.81.4.4.81,1.94.81,2.99Z"/>
      </g>
    </g>
  </g>
</svg>